<svg width="374" height="474" viewBox="0 0 374 474" fill="none" xmlns="http://www.w3.org/2000/svg">
<path d="M373.229 457.884C373.229 468.433 370.011 473.713 363.465 473.713H286.021C279.475 473.713 262.461 449.846 235.01 402.241C211.915 361.864 196.515 332.846 188.821 314.952C181.235 297.63 176.748 288.109 175.719 286.043C168.935 274.801 161.121 268.959 152.158 268.267C149.514 268.039 142.047 267.92 129.758 267.92C101.602 267.92 87.4702 271.361 87.4702 278.361C87.4702 298.896 88.1638 329.752 89.5402 370.703C90.9165 411.654 91.61 442.283 91.61 462.58C91.61 470.034 88.8573 473.713 83.2219 473.713C78.9737 473.713 72.5363 473.367 64.029 472.674C55.5326 471.993 49.2144 471.646 44.9553 471.646C40.9347 471.646 34.9633 471.993 26.922 472.674C18.989 473.367 13.0176 473.713 8.99698 473.713C3.36156 473.713 0.608887 471.181 0.608887 466.02C0.608887 441.363 1.7577 404.307 4.05522 354.874C6.35274 305.55 7.50142 268.494 7.50142 243.837C7.50142 217.914 6.35274 178.792 4.05522 126.719C1.7577 74.6348 0.608887 35.6423 0.608887 9.60042C0.608887 4.66685 3.36156 2.25417 8.99698 2.25417C13.0176 2.25417 19.2275 2.60039 27.4964 3.29282C35.7653 3.97443 41.9751 4.32064 46.2234 4.32064C50.244 4.32064 56.3346 3.97443 64.3759 3.29282C72.4172 2.60039 78.5078 2.25417 82.5285 2.25417C87.6979 2.25417 90.2338 4.32064 90.2338 8.33457C90.2338 27.3764 89.6593 56.0582 88.5106 94.3691C87.3618 132.68 86.7874 161.47 86.7874 180.739C86.7874 189.459 87.3618 194.966 88.5106 197.152C90.2337 201.166 94.8288 203.232 102.296 203.232C145.732 203.232 177.55 195.193 197.773 179.019C215.015 164.683 231.444 138.414 246.844 100.103C258.104 70.0474 269.245 40.0025 280.505 9.94664C282.109 6.15991 285.566 3.63903 290.963 2.25417C294.637 1.34535 306.471 0.880127 326.813 0.880127C351.511 0.880127 363.92 4.43965 363.92 11.3207C363.92 15.3346 358.75 33.5758 348.412 65.8063C336.35 103.436 320.722 136.586 301.421 165.257C288.665 184.764 271.77 204.379 250.637 224.102C245.229 228.809 242.585 233.169 242.585 236.956C242.585 240.97 251.667 260.92 269.819 296.829C285.447 328.032 299.698 353.035 312.453 371.85C326.585 389.052 346.223 415.668 371.506 451.458C372.655 453.524 373.229 455.58 373.229 457.884Z" fill="#F2F4F5"/>
</svg>
