<svg width="76" height="76" viewBox="0 0 76 76" fill="none" xmlns="http://www.w3.org/2000/svg">
<g clip-path="url(#clip0)">
<path d="M50.767 20.9772H49.1099V37.548H50.767C55.3429 37.548 59.0524 33.8386 59.0524 29.2626C59.0524 24.6866 55.3429 20.9772 50.767 20.9772Z" fill="#FFC682"/>
<path d="M59.0524 29.2626C59.0524 33.8392 55.3435 37.548 50.767 37.548H49.1099V32.2755H50.767C54.4216 32.2755 57.5233 29.9104 58.6246 26.6263C58.9017 27.4549 59.0524 28.3407 59.0524 29.2626Z" fill="#FFAC5C"/>
<path d="M16.4579 55.0274C16.4579 55.2865 16.4127 55.5396 16.3283 55.7761C16.0225 56.6347 15.2075 57.2825 14.1967 57.2825H8.28545C7.86967 57.2825 7.53223 56.9451 7.53223 56.5293V37.0962H14.3112V41.6969C14.3112 45.8893 14.9665 50.0546 16.2545 54.0437C16.2831 54.1341 16.3118 54.2229 16.3419 54.3133C16.3946 54.4745 16.4293 54.6372 16.4443 54.7969C16.4489 54.8225 16.4504 54.8466 16.4519 54.8722C16.4564 54.9249 16.4579 54.9762 16.4579 55.0274Z" fill="white"/>
<path d="M16.4579 55.0272C16.4579 55.2863 16.4127 55.5394 16.3283 55.7759C16.0225 56.6346 15.2075 57.2824 14.1967 57.2824H8.28545C7.86967 57.2824 7.53223 56.9449 7.53223 56.5292V37.3973L14.3112 37.4712V40.7868H10.9217C10.756 40.7868 10.6204 40.9224 10.6204 41.0881V53.7422C10.6204 53.9079 10.756 54.0435 10.9217 54.0435H16.2545C16.2831 54.1339 16.3118 54.2228 16.3419 54.3132C16.3946 54.4744 16.4293 54.6371 16.4443 54.7967C16.4489 54.8224 16.4504 54.8465 16.4519 54.8721C16.4564 54.9248 16.4579 54.976 16.4579 55.0272Z" fill="#E6E6E6"/>
<path d="M62.6113 23.1161C62.267 23.1161 61.9272 22.9595 61.7053 22.6625C61.3318 22.1627 61.4341 21.4547 61.9341 21.0812L68.7125 16.0161C69.2123 15.6425 69.9205 15.7451 70.2938 16.2449C70.6673 16.7448 70.565 17.4528 70.065 17.8262L63.2866 22.8914C63.0837 23.0429 62.8464 23.1161 62.6113 23.1161Z" fill="#FFE7C9"/>
<path d="M62.6113 35.7103C62.267 35.7103 61.9272 35.867 61.7053 36.1639C61.3318 36.6638 61.4341 37.3718 61.9341 37.7452L68.7125 42.8103C69.2123 43.1839 69.9205 43.0814 70.2938 42.5815C70.6673 42.0817 70.565 41.3736 70.065 41.0002L63.2866 35.9351C63.0837 35.7835 62.8464 35.7103 62.6113 35.7103Z" fill="#FFE7C9"/>
<path d="M17.7097 20.9772V37.548H8.28543C5.99715 37.548 3.92579 36.6201 2.42688 35.1212C0.927969 33.6222 0 31.5509 0 29.2626C0 24.686 3.70886 20.9772 8.28543 20.9772H17.7097Z" fill="#FD646F"/>
<path d="M17.7102 32.5768V37.548H8.28587C5.99759 37.548 3.92623 36.62 2.42732 35.1211C1.27188 33.9657 0.455388 32.4698 0.143555 30.7961C1.55509 31.9124 3.33571 32.5768 5.27299 32.5768H17.7102Z" fill="#FC4755"/>
<path d="M43.1592 5.01953V53.5059L34.8873 48.396L30.5292 45.704L25.2326 42.432L22.9729 41.0371L17.3237 37.5481V20.9773L22.9729 17.4884L25.2326 16.0919L43.1592 5.01953Z" fill="#F0ECEC"/>
<path d="M25.2328 16.0918V42.4319L22.9731 41.037V17.4883L25.2328 16.0918Z" fill="#FD646F"/>
<path d="M43.1592 5.01953V53.5059L42.9332 53.3658L34.8873 48.396L30.5292 45.704L25.2326 42.432L22.9729 41.0371L17.3237 37.5481V20.9773L21.4664 18.4193L22.9729 17.4884L25.2326 16.0919L43.1592 5.01953Z" fill="white"/>
<path d="M25.2328 16.0918V39.2443L22.9731 37.8493V17.4883L25.2328 16.0918Z" fill="#FD646F"/>
<path d="M50.7671 5.15955V53.3657C50.7671 55.5289 49.0136 57.2824 46.8503 57.2824C45.7687 57.2824 44.7895 56.8441 44.0815 56.1345C43.372 55.4265 42.9336 54.4473 42.9336 53.3657V5.15955C42.9336 2.9963 44.6871 1.2428 46.8503 1.2428C49.0136 1.2428 50.7671 2.9963 50.7671 5.15955Z" fill="#FD646F"/>
<path d="M25.2328 36.9516V42.432L22.9731 41.0371V35.5566L25.2328 36.9516Z" fill="#FC4755"/>
<path d="M43.8379 48.1624C43.5467 48.5324 42.9369 48.337 42.9336 47.8663C42.9336 47.8625 42.9336 47.8589 42.9336 47.8551V49.4158V53.3657C42.9336 53.4333 42.9353 53.5005 42.9387 53.5673C42.9759 54.3016 43.2154 54.9826 43.6029 55.5553C43.6382 55.6074 43.6746 55.6585 43.7121 55.7088C43.7874 55.8093 43.8673 55.906 43.9518 55.9986C43.994 56.0449 44.0372 56.0902 44.0817 56.1345C44.8055 56.86 45.8129 57.302 46.9234 57.2818C49.0725 57.2427 50.7671 55.427 50.7671 53.2773V48.0088V42.7528C48.0397 43.9729 45.6645 45.8419 43.8379 48.1624Z" fill="#FC4755"/>
<path d="M42.9336 47.8853V53.3657L34.8877 48.396L30.5296 45.704L25.2329 42.432V36.9515L26.658 37.8313L42.9336 47.8853Z" fill="#E6E6E6"/>
<path d="M22.9729 35.5565V41.037L17.3237 37.548V32.5768C17.4533 32.5918 17.5813 32.6129 17.7094 32.6401C18.2427 32.7485 18.7548 32.9519 19.2218 33.2396L21.4664 34.6255L22.9729 35.5565Z" fill="#E6E6E6"/>
<path d="M73.5144 59.4669C73.5144 67.912 66.6691 74.7573 58.224 74.7573C55.2744 74.7573 52.5206 73.9227 50.1856 72.4765C49.4399 72.0141 48.7379 71.4913 48.0856 70.9113C47.5433 70.4323 47.0356 69.9156 46.5701 69.3627C45.4629 68.0627 44.5711 66.5758 43.9489 64.9549C43.2921 63.2511 42.9336 61.4012 42.9336 59.4669C42.9336 51.0218 49.7789 44.1765 58.224 44.1765C60.1583 44.1765 62.0082 44.535 63.7105 45.1919C65.3314 45.814 66.8198 46.7058 68.1213 47.8131C68.6727 48.2801 69.1909 48.7862 69.6669 49.3285C70.2484 49.9808 70.7711 50.6828 71.2336 51.4285C72.6798 53.7635 73.5144 56.5173 73.5144 59.4669Z" fill="#FAD207"/>
<path fill-rule="evenodd" clip-rule="evenodd" d="M57.9224 59.9398V54.259C59.5192 54.6341 60.7093 55.7293 60.7093 56.9811C60.7093 57.6048 61.2155 58.111 61.8391 58.111C62.1773 58.111 62.4562 57.9427 62.6871 57.7258L64.1361 56.2814H62.9105C62.5473 54.1123 60.521 52.3726 57.9224 51.9556V47.9169H57.481L56.0062 49.3917C55.9971 49.3992 55.9896 49.4067 55.9821 49.4158L55.9655 49.4324L55.967 49.4339C55.7787 49.6357 55.6627 49.9054 55.6627 50.2021V51.933C54.7807 52.0566 53.9619 52.3329 53.2462 52.7257V52.3797L51.777 53.8467V53.8471C50.9554 54.7138 50.4653 55.8014 50.4653 56.9811C50.4653 59.5104 52.716 61.6165 55.6626 62.0292V67.7206C53.9904 67.3801 52.725 66.2563 52.725 64.9653C52.725 64.6308 52.5786 64.3312 52.3475 64.1242L52.3412 62.6231L50.8282 64.1358L50.8287 64.137C50.6057 64.3434 50.4653 64.6376 50.4653 64.9651C50.4653 67.4944 52.716 69.6004 55.6626 70.0132V71.7441C55.6626 72.3678 56.1687 72.8739 56.7924 72.8739C57.0721 72.8739 57.3276 72.7716 57.525 72.6031L59.0284 71.1003H57.9224V69.9906C60.7952 69.5296 62.9689 67.4523 62.9689 64.9651C62.9689 62.478 60.7952 60.4008 57.9224 59.9398ZM55.6627 59.7367C53.9912 59.3955 52.7251 58.272 52.7251 56.9811C52.7251 55.6903 53.9912 54.5668 55.6627 54.2255V59.7367ZM57.9224 67.688V62.2424C59.5187 62.6187 60.7093 63.7134 60.7093 64.9651C60.7093 66.2168 59.5187 67.3117 57.9224 67.688Z" fill="#F8C201"/>
<path d="M59.4291 58.4333V52.7517C61.0254 53.1281 62.216 54.2228 62.216 55.4745C62.216 56.0986 62.7217 56.6043 63.3458 56.6043C63.9699 56.6043 64.4756 56.0986 64.4756 55.4745C64.4756 52.988 62.3014 50.9106 59.4291 50.449V48.6955C59.4291 48.0714 58.9233 47.5657 58.2992 47.5657C57.6751 47.5657 57.1694 48.0714 57.1694 48.6955V50.4269C54.2228 50.8389 51.9722 52.9447 51.9722 55.4745C51.9722 58.0043 54.2228 60.1101 57.1694 60.5221V66.2142C55.4978 65.873 54.2318 64.7495 54.2318 63.4586C54.2318 62.8345 53.7261 62.3288 53.102 62.3288C52.4779 62.3288 51.9722 62.8345 51.9722 63.4586C51.9722 65.9884 54.2228 68.0943 57.1694 68.5063V70.2376C57.1694 70.8617 57.6751 71.3675 58.2992 71.3675C58.9233 71.3675 59.4291 70.8617 59.4291 70.2376V68.4841C62.3014 68.0226 64.4756 65.9452 64.4756 63.4586C64.4756 60.9721 62.3014 58.8949 59.4291 58.4333ZM54.2318 55.4746C54.2318 54.1838 55.4978 53.0603 57.1694 52.7191V58.2302C55.4978 57.889 54.2318 56.7655 54.2318 55.4746ZM59.4291 66.1815V60.7359C61.0254 61.1122 62.216 62.2069 62.216 63.4586C62.216 64.7103 61.0254 65.8052 59.4291 66.1815Z" fill="white"/>
<path d="M74.8703 30.5431H64.3251C63.701 30.5431 63.1953 30.0374 63.1953 29.4133C63.1953 28.7892 63.701 28.2834 64.3251 28.2834H74.8703C75.4944 28.2834 76.0001 28.7892 76.0001 29.4133C76.0001 30.0374 75.4944 30.5431 74.8703 30.5431Z" fill="#FFE7C9"/>
</g>
<defs>
<clipPath id="clip0">
<rect width="76" height="76" fill="white"/>
</clipPath>
</defs>
</svg>
