<svg width="130" height="130" viewBox="0 0 130 130" fill="none" xmlns="http://www.w3.org/2000/svg">
<rect width="130" height="130" rx="65" fill="#ADD9F4"/>
<g clip-path="url(#clip0)">
<path d="M77.767 47.9772H76.1099V64.548H77.767C82.3429 64.548 86.0524 60.8386 86.0524 56.2626C86.0524 51.6866 82.3429 47.9772 77.767 47.9772Z" fill="#FFC682"/>
<path d="M86.0524 56.2626C86.0524 60.8392 82.3435 64.548 77.767 64.548H76.1099V59.2755H77.767C81.4216 59.2755 84.5233 56.9104 85.6246 53.6263C85.9017 54.4549 86.0524 55.3407 86.0524 56.2626Z" fill="#FFAC5C"/>
<path d="M43.4579 82.0274C43.4579 82.2865 43.4127 82.5396 43.3283 82.7761C43.0225 83.6347 42.2075 84.2825 41.1967 84.2825H35.2854C34.8697 84.2825 34.5322 83.9451 34.5322 83.5293V64.0962H41.3112V68.6969C41.3112 72.8893 41.9665 77.0546 43.2545 81.0437C43.2831 81.1341 43.3118 81.2229 43.3419 81.3133C43.3946 81.4745 43.4293 81.6372 43.4443 81.7969C43.4489 81.8225 43.4504 81.8466 43.4519 81.8722C43.4564 81.9249 43.4579 81.9762 43.4579 82.0274Z" fill="white"/>
<path d="M43.4579 82.0272C43.4579 82.2863 43.4127 82.5394 43.3283 82.7759C43.0225 83.6346 42.2075 84.2824 41.1967 84.2824H35.2854C34.8697 84.2824 34.5322 83.9449 34.5322 83.5292V64.3973L41.3112 64.4712V67.7868H37.9217C37.756 67.7868 37.6204 67.9224 37.6204 68.0881V80.7422C37.6204 80.9079 37.756 81.0435 37.9217 81.0435H43.2545C43.2831 81.1339 43.3118 81.2228 43.3419 81.3132C43.3946 81.4744 43.4293 81.6371 43.4443 81.7967C43.4489 81.8224 43.4504 81.8465 43.4519 81.8721C43.4564 81.9248 43.4579 81.976 43.4579 82.0272Z" fill="#E6E6E6"/>
<path d="M89.6113 50.1161C89.267 50.1161 88.9272 49.9595 88.7053 49.6625C88.3318 49.1627 88.4341 48.4547 88.9341 48.0812L95.7125 43.0161C96.2123 42.6425 96.9205 42.7451 97.2938 43.2449C97.6673 43.7448 97.565 44.4528 97.065 44.8262L90.2866 49.8914C90.0837 50.0429 89.8464 50.1161 89.6113 50.1161Z" fill="#FFE7C9"/>
<path d="M89.6113 62.7103C89.267 62.7103 88.9272 62.867 88.7053 63.1639C88.3318 63.6638 88.4341 64.3718 88.9341 64.7452L95.7125 69.8103C96.2123 70.1839 96.9205 70.0814 97.2938 69.5815C97.6673 69.0817 97.565 68.3736 97.065 68.0002L90.2866 62.9351C90.0837 62.7835 89.8464 62.7103 89.6113 62.7103Z" fill="#FFE7C9"/>
<path d="M44.7097 47.9772V64.548H35.2854C32.9971 64.548 30.9258 63.6201 29.4269 62.1212C27.928 60.6222 27 58.5509 27 56.2626C27 51.686 30.7089 47.9772 35.2854 47.9772H44.7097Z" fill="#FD646F"/>
<path d="M44.7102 59.5768V64.548H35.2859C32.9976 64.548 30.9262 63.62 29.4273 62.1211C28.2719 60.9657 27.4554 59.4698 27.1436 57.7961C28.5551 58.9124 30.3357 59.5768 32.273 59.5768H44.7102Z" fill="#FC4755"/>
<path d="M70.1592 32.0195V80.5059L61.8873 75.396L57.5292 72.704L52.2326 69.432L49.9729 68.0371L44.3237 64.5481V47.9773L49.9729 44.4884L52.2326 43.0919L70.1592 32.0195Z" fill="#F0ECEC"/>
<path d="M52.2328 43.0918V69.4319L49.9731 68.037V44.4883L52.2328 43.0918Z" fill="#FD646F"/>
<path d="M70.1592 32.0195V80.5059L69.9332 80.3658L61.8873 75.396L57.5292 72.704L52.2326 69.432L49.9729 68.0371L44.3237 64.5481V47.9773L48.4664 45.4193L49.9729 44.4884L52.2326 43.0919L70.1592 32.0195Z" fill="white"/>
<path d="M52.2328 43.0918V66.2443L49.9731 64.8493V44.4883L52.2328 43.0918Z" fill="#FD646F"/>
<path d="M77.7671 32.1595V80.3657C77.7671 82.5289 76.0136 84.2824 73.8503 84.2824C72.7687 84.2824 71.7895 83.8441 71.0815 83.1345C70.372 82.4265 69.9336 81.4473 69.9336 80.3657V32.1595C69.9336 29.9963 71.6871 28.2428 73.8503 28.2428C76.0136 28.2428 77.7671 29.9963 77.7671 32.1595Z" fill="#FD646F"/>
<path d="M52.2328 63.9516V69.432L49.9731 68.0371V62.5566L52.2328 63.9516Z" fill="#FC4755"/>
<path d="M70.8379 75.1624C70.5467 75.5324 69.9369 75.337 69.9336 74.8663C69.9336 74.8625 69.9336 74.8589 69.9336 74.8551V76.4158V80.3657C69.9336 80.4333 69.9353 80.5005 69.9387 80.5673C69.9759 81.3016 70.2154 81.9826 70.6029 82.5553C70.6382 82.6074 70.6746 82.6585 70.7121 82.7088C70.7874 82.8093 70.8673 82.906 70.9518 82.9986C70.994 83.0449 71.0372 83.0902 71.0817 83.1345C71.8055 83.86 72.8129 84.302 73.9234 84.2818C76.0725 84.2427 77.7671 82.427 77.7671 80.2773V75.0088V69.7528C75.0397 70.9729 72.6645 72.8419 70.8379 75.1624Z" fill="#FC4755"/>
<path d="M69.9336 74.8853V80.3657L61.8877 75.396L57.5296 72.704L52.2329 69.432V63.9515L53.658 64.8313L69.9336 74.8853Z" fill="#E6E6E6"/>
<path d="M49.9729 62.5565V68.037L44.3237 64.548V59.5768C44.4533 59.5918 44.5813 59.6129 44.7094 59.6401C45.2427 59.7485 45.7548 59.9519 46.2218 60.2396L48.4664 61.6255L49.9729 62.5565Z" fill="#E6E6E6"/>
<path d="M100.514 86.4669C100.514 94.912 93.6691 101.757 85.224 101.757C82.2744 101.757 79.5206 100.923 77.1856 99.4765C76.4399 99.0141 75.7379 98.4913 75.0856 97.9113C74.5433 97.4323 74.0356 96.9156 73.5701 96.3627C72.4629 95.0627 71.5711 93.5758 70.9489 91.9549C70.2921 90.2511 69.9336 88.4012 69.9336 86.4669C69.9336 78.0218 76.7789 71.1765 85.224 71.1765C87.1583 71.1765 89.0082 71.535 90.7105 72.1919C92.3314 72.814 93.8198 73.7058 95.1213 74.8131C95.6727 75.2801 96.1909 75.7862 96.6669 76.3285C97.2484 76.9808 97.7711 77.6828 98.2336 78.4285C99.6798 80.7635 100.514 83.5173 100.514 86.4669Z" fill="#FAD207"/>
<path fill-rule="evenodd" clip-rule="evenodd" d="M84.9224 86.9398V81.259C86.5192 81.6341 87.7093 82.7293 87.7093 83.9811C87.7093 84.6048 88.2155 85.111 88.8391 85.111C89.1773 85.111 89.4562 84.9427 89.6871 84.7258L91.1361 83.2814H89.9105C89.5473 81.1123 87.521 79.3726 84.9224 78.9556V74.9169H84.481L83.0062 76.3917C82.9971 76.3992 82.9896 76.4067 82.9821 76.4158L82.9655 76.4324L82.967 76.4339C82.7787 76.6357 82.6627 76.9054 82.6627 77.2021V78.933C81.7807 79.0566 80.9619 79.3329 80.2462 79.7257V79.3797L78.777 80.8467V80.8471C77.9554 81.7138 77.4653 82.8014 77.4653 83.9811C77.4653 86.5104 79.716 88.6165 82.6626 89.0292V94.7206C80.9904 94.3801 79.725 93.2563 79.725 91.9653C79.725 91.6308 79.5786 91.3312 79.3475 91.1242L79.3412 89.6231L77.8282 91.1358L77.8287 91.137C77.6057 91.3434 77.4653 91.6376 77.4653 91.9651C77.4653 94.4944 79.716 96.6004 82.6626 97.0132V98.7441C82.6626 99.3678 83.1687 99.8739 83.7924 99.8739C84.0721 99.8739 84.3276 99.7716 84.525 99.6031L86.0284 98.1003H84.9224V96.9906C87.7952 96.5296 89.9689 94.4523 89.9689 91.9651C89.9689 89.478 87.7952 87.4008 84.9224 86.9398ZM82.6627 86.7367C80.9912 86.3955 79.7251 85.272 79.7251 83.9811C79.7251 82.6903 80.9912 81.5668 82.6627 81.2255V86.7367ZM84.9224 94.688V89.2424C86.5187 89.6187 87.7093 90.7134 87.7093 91.9651C87.7093 93.2168 86.5187 94.3117 84.9224 94.688Z" fill="#F8C201"/>
<path d="M86.4291 85.4333V79.7517C88.0254 80.1281 89.216 81.2228 89.216 82.4745C89.216 83.0986 89.7217 83.6043 90.3458 83.6043C90.9699 83.6043 91.4756 83.0986 91.4756 82.4745C91.4756 79.988 89.3014 77.9106 86.4291 77.449V75.6955C86.4291 75.0714 85.9233 74.5657 85.2992 74.5657C84.6751 74.5657 84.1694 75.0714 84.1694 75.6955V77.4269C81.2228 77.8389 78.9722 79.9447 78.9722 82.4745C78.9722 85.0043 81.2228 87.1101 84.1694 87.5221V93.2142C82.4978 92.873 81.2318 91.7495 81.2318 90.4586C81.2318 89.8345 80.7261 89.3288 80.102 89.3288C79.4779 89.3288 78.9722 89.8345 78.9722 90.4586C78.9722 92.9884 81.2228 95.0943 84.1694 95.5063V97.2376C84.1694 97.8617 84.6751 98.3675 85.2992 98.3675C85.9233 98.3675 86.4291 97.8617 86.4291 97.2376V95.4841C89.3014 95.0226 91.4756 92.9452 91.4756 90.4586C91.4756 87.9721 89.3014 85.8949 86.4291 85.4333ZM81.2318 82.4746C81.2318 81.1838 82.4978 80.0603 84.1694 79.7191V85.2302C82.4978 84.889 81.2318 83.7655 81.2318 82.4746ZM86.4291 93.1815V87.7359C88.0254 88.1122 89.216 89.2069 89.216 90.4586C89.216 91.7103 88.0254 92.8052 86.4291 93.1815Z" fill="white"/>
<path d="M101.87 57.5431H91.3251C90.701 57.5431 90.1953 57.0374 90.1953 56.4133C90.1953 55.7892 90.701 55.2834 91.3251 55.2834H101.87C102.494 55.2834 103 55.7892 103 56.4133C103 57.0374 102.494 57.5431 101.87 57.5431Z" fill="#FFE7C9"/>
</g>
<defs>
<clipPath id="clip0">
<rect width="76" height="76" fill="white" transform="translate(27 27)"/>
</clipPath>
</defs>
</svg>
