<svg width="18" height="20" viewBox="0 0 18 20" fill="none" xmlns="http://www.w3.org/2000/svg">
<path d="M9.76689 0.482778C9.39789 0.179485 8.86593 0.179485 8.49693 0.482778L1.1565 6.51621C0.431358 7.11224 0.85282 8.28874 1.79148 8.28874L4.44826 8.28874C5.00055 8.28874 5.44826 8.73646 5.44826 9.28874L5.44826 10.0593C5.44826 15.5495 9.89879 20 15.3889 20L17.1095 20C17.5225 20 17.7195 19.492 17.4144 19.2136C14.4848 16.5397 12.8156 12.7564 12.8156 8.7899C12.8156 8.51312 13.0399 8.28874 13.3167 8.28874L16.4723 8.28874C17.411 8.28874 17.8325 7.11224 17.1073 6.51621L9.76689 0.482778Z" fill="white"/>
</svg>
