<svg width="130" height="130" viewBox="0 0 130 130" fill="none" xmlns="http://www.w3.org/2000/svg">
<rect width="130" height="130" rx="65" fill="#ADD9F3"/>
<path d="M28.881 82.2906C29.2416 85.5798 31.9059 88.1497 35.2074 88.3807C35.4806 88.4 35.7519 88.4191 36.0233 88.4366C38.0364 88.5732 39.6013 90.2449 39.6013 92.2634V99.8923C39.6013 102.459 42.5388 103.915 44.5799 102.361C48.3051 99.5228 53.2609 95.3023 56.3016 90.9259C57.0211 89.8896 58.2096 89.2857 59.4718 89.2927C68.8337 89.3399 78.1957 89.0389 87.5575 88.3807C90.1675 88.1986 92.3838 86.5583 93.371 84.2512C93.6336 83.6455 93.8086 82.9908 93.8839 82.3063C95.2703 69.641 95.2703 56.9741 93.8839 44.3072C93.5233 41.0214 90.8573 38.4638 87.5609 38.2329C73.6143 37.2544 59.6695 37.0583 45.7245 37.6446C42.2199 37.7899 38.7137 37.986 35.2091 38.2329C31.9111 38.4638 29.2432 41.0214 28.8827 44.3072C27.4964 56.9689 27.4964 69.6289 28.881 82.2906Z" fill="#F4DD45"/>
<path d="M34.8888 44.3067C33.5025 56.9689 33.5025 69.6282 34.8888 82.2904C35.2502 85.5795 37.9124 88.1486 41.2156 88.3802C41.4867 88.3999 41.7605 88.4169 42.0316 88.4366C44.0445 88.5721 45.6086 90.2435 45.6086 92.2621V99.8905C45.6086 100.413 45.73 100.887 45.9417 101.302C45.4731 101.672 45.0186 102.025 44.5782 102.361C42.537 103.914 39.6008 102.457 39.6008 99.8905V92.2621C39.6008 90.2435 38.0338 88.5721 36.0209 88.4366C35.7498 88.4169 35.4788 88.3999 35.2049 88.3802C31.9046 88.1486 29.2394 85.5795 28.8809 82.2904C27.4948 69.6282 27.4948 56.9689 28.8809 44.3067C29.2423 41.0205 31.9102 38.4626 35.2077 38.2312C38.7115 37.9857 42.2179 37.788 45.7242 37.644C51.9693 37.3814 58.217 37.2741 64.4621 37.3278C60.2187 37.3588 55.9755 37.4661 51.7321 37.644C48.2285 37.788 44.722 37.9855 41.2156 38.2312C37.9181 38.4628 35.2502 41.0206 34.8888 44.3067Z" fill="#EAB14D"/>
<path d="M63.9393 51.6116H37.2772C36.6437 51.6116 36.1304 51.0982 36.1304 50.4648C36.1304 49.8314 36.6438 49.318 37.2772 49.318H63.9394C64.5729 49.318 65.0862 49.8314 65.0862 50.4648C65.0862 51.0982 64.5728 51.6116 63.9393 51.6116Z" fill="#404A4A"/>
<path d="M63.9393 57.3711H37.2772C36.6437 57.3711 36.1304 56.8576 36.1304 56.2242C36.1304 55.5908 36.6438 55.0774 37.2772 55.0774H63.9394C64.5729 55.0774 65.0862 55.5908 65.0862 56.2242C65.0862 56.8576 64.5728 57.3711 63.9393 57.3711Z" fill="#404A4A"/>
<path d="M63.9393 63.1305H37.2772C36.6437 63.1305 36.1304 62.617 36.1304 61.9836C36.1304 61.3502 36.6438 60.8368 37.2772 60.8368H63.9394C64.5729 60.8368 65.0862 61.3502 65.0862 61.9836C65.0862 62.617 64.5728 63.1305 63.9393 63.1305Z" fill="#404A4A"/>
<path d="M63.9393 68.8897H37.2772C36.6437 68.8897 36.1304 68.3763 36.1304 67.7429C36.1304 67.1095 36.6438 66.5961 37.2772 66.5961H63.9394C64.5729 66.5961 65.0862 67.1095 65.0862 67.7429C65.0862 68.3763 64.5728 68.8897 63.9393 68.8897Z" fill="#404A4A"/>
<path d="M47.7309 74.6492H37.2772C36.6437 74.6492 36.1304 74.1358 36.1304 73.5024C36.1304 72.869 36.6438 72.3556 37.2772 72.3556H47.7311C48.3646 72.3556 48.8779 72.869 48.8779 73.5024C48.8779 74.1358 48.3644 74.6492 47.7309 74.6492Z" fill="#404A4A"/>
<path d="M68.8105 80.6755C68.6058 80.6755 68.3986 80.6207 68.2116 80.5058C67.6717 80.1744 67.5028 79.4682 67.8343 78.9284L68.644 77.6097C68.9755 77.0698 69.682 76.9009 70.2214 77.2323C70.7613 77.5638 70.9302 78.2699 70.5988 78.8098L69.789 80.1285C69.5725 80.4812 69.196 80.6755 68.8105 80.6755Z" fill="#404A4A"/>
<path d="M87.6272 66.5909C87.0495 66.5909 86.5525 66.1557 86.4884 65.5683C86.2518 63.3995 88.6164 59.7355 92.494 53.9371C95.6719 49.1847 99.2741 43.7982 99.7779 40.6727C100.213 37.9689 99.0571 36.0705 96.3416 35.0304C95.75 34.8039 95.4542 34.1407 95.6807 33.5492C95.9071 32.9578 96.57 32.6617 97.162 32.8883C100.869 34.308 102.648 37.2782 102.042 41.0373C101.459 44.6572 97.8706 50.0229 94.4006 55.212C91.8209 59.0694 88.6105 63.8704 88.7686 65.3194C88.8373 65.9491 88.3823 66.5152 87.7528 66.5839C87.7106 66.5887 87.6688 66.5909 87.6272 66.5909Z" fill="#B4D0D5"/>
<path d="M96.9255 35.8191L99.1036 31.7865C99.6542 30.7673 99.2736 29.4925 98.2543 28.942L95.1267 27.2526C94.106 26.7013 92.8327 27.0826 92.2822 28.102L90.104 32.1344" fill="#DFEAEF"/>
<path d="M97.6907 28.6378C96.6701 28.0865 95.3968 28.4678 94.8462 29.4872L92.6681 33.5198L90.1035 32.1345L92.2817 28.1019C92.8322 27.0828 94.1055 26.7013 95.1262 27.2526L97.6907 28.6378Z" fill="#B4D0D5"/>
<path d="M97.0414 37.7271C95.7339 42.8743 93.0288 49.5767 89.2533 56.5666C87.7654 59.3191 86.2255 61.9095 84.6856 64.2767C84.2573 64.9328 83.8307 65.5704 83.4041 66.1913C77.6743 74.5452 72.1509 79.5762 69.6217 78.2091C67.0925 76.8436 68.2714 69.4683 72.1158 60.0945C72.4002 59.3988 72.7015 58.6907 73.0165 57.9735C74.1511 55.3877 75.4724 52.6795 76.9587 49.9255C80.7342 42.9356 84.8569 36.9978 88.4428 33.0832C89.4184 32.0189 90.9934 31.759 92.2627 32.444L95.4816 34.1827C96.7524 34.869 97.3976 36.3294 97.0414 37.7271Z" fill="#6BBEF6"/>
<path d="M69.6219 78.2095C66.2268 76.3757 69.5123 63.7121 76.9588 49.9261C80.7346 42.9359 84.8559 36.9982 88.4428 33.0822C89.4178 32.0189 90.9934 31.7583 92.2627 32.444L93.4292 33.0741C93.0803 32.8858 92.311 33.5818 91.5618 34.7671C88.7997 39.1288 85.1916 45.3435 81.4158 52.3338C73.9696 66.1196 68.6885 77.7053 69.6219 78.2095Z" fill="#528ECB"/>
<path d="M84.6856 64.2766C84.2573 64.9327 83.8307 65.5703 83.4041 66.1912L72.1157 60.0944C72.4001 59.3987 72.7015 58.6906 73.0164 57.9734L84.6856 64.2766Z" fill="#DFEAEF"/>
</svg>
