<svg width="76" height="76" viewBox="0 0 76 76" fill="none" xmlns="http://www.w3.org/2000/svg">
<path d="M1.88104 55.2906C2.24159 58.5798 4.9059 61.1497 8.20744 61.3807C8.48057 61.4 8.75191 61.4191 9.02326 61.4366C11.0364 61.5732 12.6013 63.2449 12.6013 65.2634V72.8923C12.6013 75.4586 15.5388 76.9151 17.5799 75.3605C21.3051 72.5228 26.2609 68.3023 29.3016 63.9259C30.0211 62.8896 31.2096 62.2857 32.4718 62.2927C41.8337 62.3399 51.1957 62.0389 60.5575 61.3807C63.1675 61.1986 65.3838 59.5583 66.371 57.2512C66.6336 56.6455 66.8086 55.9908 66.8839 55.3063C68.2703 42.641 68.2703 29.9741 66.8839 17.3072C66.5233 14.0214 63.8573 11.4638 60.5609 11.2329C46.6143 10.2544 32.6695 10.0583 18.7245 10.6446C15.2199 10.7899 11.7137 10.986 8.20908 11.2329C4.91109 11.4638 2.24323 14.0214 1.88267 17.3072C0.496413 29.9689 0.496413 42.6289 1.88104 55.2906Z" fill="#F4DD45"/>
<path d="M7.88875 17.3067C6.50249 29.9689 6.50249 42.6282 7.88875 55.2904C8.2502 58.5795 10.9124 61.1486 14.2156 61.3802C14.4867 61.3999 14.7605 61.4169 15.0316 61.4366C17.0445 61.5721 18.6086 63.2435 18.6086 65.2621V72.8905C18.6086 73.4127 18.73 73.8871 18.9417 74.3021C18.4731 74.6719 18.0186 75.0249 17.5782 75.3608C15.537 76.9136 12.6008 75.4568 12.6008 72.8905V65.2621C12.6008 63.2435 11.0338 61.5721 9.02088 61.4366C8.74984 61.4169 8.47879 61.3999 8.20492 61.3802C4.90456 61.1486 2.23937 58.5795 1.88089 55.2904C0.494781 42.6282 0.494781 29.9689 1.88089 17.3067C2.24234 14.0205 4.9102 11.4626 8.20774 11.2312C11.7115 10.9857 15.2179 10.788 18.7242 10.644C24.9693 10.3814 31.217 10.2741 37.4621 10.3278C33.2187 10.3588 28.9755 10.4661 24.7321 10.644C21.2285 10.788 17.722 10.9855 14.2156 11.2312C10.9181 11.4628 8.2502 14.0206 7.88875 17.3067Z" fill="#EAB14D"/>
<path d="M36.9393 24.6116H10.2772C9.64367 24.6116 9.13037 24.0982 9.13037 23.4648C9.13037 22.8314 9.64382 22.318 10.2772 22.318H36.9394C37.5729 22.318 38.0862 22.8314 38.0862 23.4648C38.0862 24.0982 37.5728 24.6116 36.9393 24.6116Z" fill="#404A4A"/>
<path d="M36.9393 30.3711H10.2772C9.64367 30.3711 9.13037 29.8576 9.13037 29.2242C9.13037 28.5908 9.64382 28.0774 10.2772 28.0774H36.9394C37.5729 28.0774 38.0862 28.5908 38.0862 29.2242C38.0862 29.8576 37.5728 30.3711 36.9393 30.3711Z" fill="#404A4A"/>
<path d="M36.9393 36.1305H10.2772C9.64367 36.1305 9.13037 35.617 9.13037 34.9836C9.13037 34.3502 9.64382 33.8368 10.2772 33.8368H36.9394C37.5729 33.8368 38.0862 34.3502 38.0862 34.9836C38.0862 35.617 37.5728 36.1305 36.9393 36.1305Z" fill="#404A4A"/>
<path d="M36.9393 41.8897H10.2772C9.64367 41.8897 9.13037 41.3763 9.13037 40.7429C9.13037 40.1095 9.64382 39.5961 10.2772 39.5961H36.9394C37.5729 39.5961 38.0862 40.1095 38.0862 40.7429C38.0862 41.3763 37.5728 41.8897 36.9393 41.8897Z" fill="#404A4A"/>
<path d="M20.7309 47.6492H10.2772C9.64367 47.6492 9.13037 47.1358 9.13037 46.5024C9.13037 45.869 9.64382 45.3556 10.2772 45.3556H20.7311C21.3646 45.3556 21.8779 45.869 21.8779 46.5024C21.8779 47.1358 21.3644 47.6492 20.7309 47.6492Z" fill="#404A4A"/>
<path d="M41.8105 53.6755C41.6058 53.6755 41.3986 53.6207 41.2116 53.5058C40.6717 53.1744 40.5028 52.4682 40.8343 51.9284L41.644 50.6097C41.9755 50.0698 42.682 49.9009 43.2214 50.2323C43.7613 50.5638 43.9302 51.2699 43.5988 51.8098L42.789 53.1285C42.5725 53.4812 42.196 53.6755 41.8105 53.6755Z" fill="#404A4A"/>
<path d="M60.6272 39.5909C60.0495 39.5909 59.5525 39.1557 59.4884 38.5683C59.2518 36.3995 61.6164 32.7355 65.494 26.9371C68.6719 22.1847 72.2741 16.7982 72.7779 13.6727C73.2132 10.9689 72.0571 9.07054 69.3416 8.03044C68.75 7.80392 68.4542 7.1407 68.6807 6.54918C68.9071 5.95781 69.57 5.66167 70.162 5.88834C73.8687 7.30799 75.6476 10.2782 75.0423 14.0373C74.4588 17.6572 70.8706 23.0229 67.4006 28.212C64.8209 32.0694 61.6105 36.8704 61.7686 38.3194C61.8373 38.9491 61.3823 39.5152 60.7528 39.5839C60.7106 39.5887 60.6688 39.5909 60.6272 39.5909Z" fill="#B4D0D5"/>
<path d="M69.9255 8.81909L72.1036 4.78648C72.6542 3.76731 72.2736 2.49253 71.2543 1.94197L68.1267 0.252608C67.106 -0.298689 65.8327 0.0826467 65.2822 1.10197L63.104 5.13442" fill="#DFEAEF"/>
<path d="M70.6907 1.6378C69.6701 1.0865 68.3968 1.46784 67.8462 2.48716L65.6681 6.51976L63.1035 5.13454L65.2817 1.10194C65.8322 0.0827654 67.1055 -0.298719 68.1262 0.252578L70.6907 1.6378Z" fill="#B4D0D5"/>
<path d="M70.0414 10.7271C68.7339 15.8743 66.0288 22.5767 62.2533 29.5666C60.7654 32.3191 59.2255 34.9095 57.6856 37.2767C57.2573 37.9328 56.8307 38.5704 56.4041 39.1913C50.6743 47.5452 45.1509 52.5762 42.6217 51.2091C40.0925 49.8436 41.2714 42.4683 45.1158 33.0945C45.4002 32.3988 45.7015 31.6907 46.0165 30.9735C47.1511 28.3877 48.4724 25.6795 49.9587 22.9255C53.7342 15.9356 57.8569 9.99778 61.4428 6.08319C62.4184 5.01889 63.9934 4.75898 65.2627 5.44402L68.4816 7.18267C69.7524 7.86904 70.3976 9.32937 70.0414 10.7271Z" fill="#6BBEF6"/>
<path d="M42.6219 51.2095C39.2268 49.3757 42.5123 36.7121 49.9588 22.9261C53.7346 15.9359 57.8559 9.99824 61.4428 6.08216C62.4178 5.01891 63.9934 4.75825 65.2627 5.44403L66.4292 6.07415C66.0803 5.88578 65.311 6.58181 64.5618 7.76708C61.7997 12.1288 58.1916 18.3435 54.4158 25.3338C46.9696 39.1196 41.6885 50.7053 42.6219 51.2095Z" fill="#528ECB"/>
<path d="M57.6856 37.2766C57.2573 37.9327 56.8307 38.5703 56.4041 39.1912L45.1157 33.0944C45.4001 32.3987 45.7015 31.6906 46.0164 30.9734L57.6856 37.2766Z" fill="#DFEAEF"/>
</svg>
