<svg width="76" height="76" viewBox="0 0 76 76" fill="none" xmlns="http://www.w3.org/2000/svg">
<g clip-path="url(#clip0)">
<path d="M71.2495 11.2812L47.4995 30.2812L36.3519 30.6025C35.719 30.6207 35.0961 30.7653 34.5199 31.0277L24.7674 35.4694C22.9498 36.2973 22.0958 38.4821 22.9581 40.2839C23.7938 42.0302 25.878 42.7929 27.6477 41.9869L37.5651 37.4701L37.6087 37.6077L39.6723 68.0246L42.9232 70.7205L71.398 40.9688L71.2495 11.2812Z" fill="#FFDCCE"/>
<path d="M71.2498 11.2812L68.6764 13.5531L68.8005 38.3711L40.6152 67.8204L42.3188 71.3521L71.3982 40.9688L71.2498 11.2812Z" fill="#FFCBB6"/>
<path d="M54.4807 62.8492C56.157 63.8792 58.3511 63.3554 59.3811 61.6789C60.4111 60.0026 59.8873 57.8088 58.2111 56.7787L60.2344 58.0218C61.9108 59.0519 64.1048 58.528 65.1348 56.8516C66.1648 55.1751 65.641 52.9812 63.9645 51.9512L42.6728 38.8685L41.9878 38.4475L41.2172 37.974L41.1715 38.0484C40.8981 37.9457 40.6155 37.8679 40.3265 37.8168L17.8125 33.8438L9.5 52.8438L26.2984 62.2574L30.2875 64.7085L42.9734 72.5034C44.6497 73.5334 46.8438 73.0096 47.8738 71.3331C48.9038 69.6568 48.3799 67.4631 46.7038 66.4329L48.7271 67.6762C50.4034 68.7062 52.5975 68.1824 53.6275 66.5059C54.6575 64.8296 54.1337 62.6357 52.4572 61.6056L54.4807 62.8492Z" fill="#FFEEE7"/>
<path d="M61.7177 55.647L54.2039 51.03C53.6486 50.6888 52.922 50.859 52.5758 51.4114L51.7139 52.7872L60.1616 57.9779C61.8612 59.0223 64.1531 58.5145 65.1669 56.7965C65.4029 56.3966 65.5517 55.9687 65.619 55.5351C64.492 56.3191 62.9623 56.4118 61.7177 55.647Z" fill="#FFDCCE"/>
<path d="M55.8175 60.4742L50.8567 57.426C50.3038 57.0862 49.5806 57.2534 49.2326 57.8011L48.3999 59.1123L54.4147 62.8081C56.0363 63.8045 58.1873 63.4115 59.2718 61.8474C59.6172 61.3494 59.8162 60.7982 59.8832 60.2411C58.7441 61.1356 57.1237 61.2768 55.8175 60.4742Z" fill="#FFDCCE"/>
<path d="M50.7678 65.6354L47.7187 63.7619C47.1623 63.4201 46.4342 63.5917 46.0891 64.1461L45.229 65.5273L48.6291 67.6166C49.9888 68.452 51.7548 68.3534 52.9546 67.3011C53.4161 66.8965 53.722 66.4222 53.9151 65.9235C52.9144 66.3085 51.7519 66.2401 50.7678 65.6354Z" fill="#FFDCCE"/>
<path d="M44.5586 70.9187L41.3399 68.9409L39.9741 70.6601L42.9739 72.5034C44.6502 73.5334 46.8443 73.0096 47.8743 71.3331C47.9278 71.246 47.9762 71.1571 48.0215 71.0673C46.9563 71.6006 45.6483 71.5881 44.5586 70.9187Z" fill="#FFDCCE"/>
<path d="M9.5 52.8437L26.2984 62.2573L27.9956 59.4949L11.0737 49.2465L9.5 52.8437Z" fill="#FFDCCE"/>
<path d="M22.0397 48.6423C23.0608 46.9875 25.2165 46.4604 26.8832 47.4456C28.6025 48.462 29.1099 50.7522 28.0612 52.452L21.8676 62.4898C20.8345 64.1641 18.6396 64.6841 16.9652 63.6508C15.2908 62.6177 14.771 60.4228 15.8041 58.7484L22.0397 48.6423Z" fill="#FFDCCE"/>
<path d="M17.6223 60.5667L23.858 50.4607C24.7993 48.9353 26.7042 48.3692 28.302 49.0614C28.0178 48.4065 27.539 47.8332 26.8833 47.4456C25.2167 46.4604 23.0609 46.9875 22.0398 48.6423L15.8041 58.7484C14.771 60.4228 15.2908 62.6177 16.9652 63.6508C17.1053 63.7374 17.2493 63.8119 17.3958 63.8769C16.9389 62.8402 16.9826 61.6037 17.6223 60.5667Z" fill="#FFCBB6"/>
<path d="M26.857 54.4049C27.8781 52.7501 30.0338 52.223 31.7005 53.2082C33.4198 54.2245 33.9272 56.5148 32.8785 58.2145L27.9321 66.231C26.899 67.9054 24.704 68.4252 23.0296 67.3921C21.3553 66.359 20.8354 64.164 21.8686 62.4897L26.857 54.4049Z" fill="#FFDCCE"/>
<path d="M23.6868 64.3081L28.6753 56.2233C29.6166 54.6979 31.5215 54.1318 33.1193 54.8239C32.8351 54.169 32.3563 53.5958 31.7006 53.2082C30.034 52.223 27.8782 52.7501 26.8571 54.4049L21.8686 62.4897C20.8354 64.1641 21.3553 66.359 23.0296 67.3921C23.1698 67.4787 23.3138 67.5532 23.4603 67.6182C23.0034 66.5815 23.0469 65.345 23.6868 64.3081Z" fill="#FFCBB6"/>
<path d="M31.6723 60.1676C32.6934 58.5128 34.8492 57.9857 36.5158 58.9709C38.2352 59.9872 38.7425 62.2775 37.6938 63.9772L33.9946 69.9726C32.9615 71.647 30.7665 72.1668 29.0922 71.1337C27.4178 70.1006 26.8979 67.9056 27.9311 66.2313L31.6723 60.1676Z" fill="#FFDCCE"/>
<path d="M29.6806 71.4252C29.2945 70.4224 29.3642 69.2573 29.9721 68.2723L33.7134 62.2086C34.6237 60.7333 36.4356 60.1554 37.9991 60.7452C37.7263 60.0245 37.2243 59.3895 36.5159 58.9709C34.8493 57.9857 32.6935 58.5128 31.6724 60.1676L27.9311 66.2313C26.8979 67.9056 27.4178 70.1006 29.0921 71.1337C29.2823 71.2511 29.4794 71.3475 29.6806 71.4252Z" fill="#FFCBB6"/>
<path d="M36.4897 65.9302C37.5108 64.2754 39.6666 63.7483 41.3332 64.7335C43.0526 65.7498 43.56 68.04 42.5112 69.7398L40.0591 73.7139C39.0259 75.3883 36.831 75.9081 35.1566 74.875C33.4822 73.8419 32.9624 71.6469 33.9955 69.9726L36.4897 65.9302Z" fill="#FFDCCE"/>
<path d="M36.1108 72.0877L38.605 68.0453C39.5046 66.5872 41.285 66.0053 42.8357 66.5612C42.5678 65.8186 42.0589 65.1622 41.3332 64.7332C39.6666 63.748 37.5108 64.2751 36.4897 65.9299L33.9955 69.9723C32.9624 71.6467 33.4822 73.8416 35.1566 74.8748C35.3641 75.0029 35.5796 75.1068 35.7999 75.188C35.4361 74.1973 35.5134 73.0557 36.1108 72.0877Z" fill="#FFCBB6"/>
<path d="M24.6947 35.5027C22.9041 36.3182 22.1137 38.4308 22.9292 40.2214C23.7447 42.012 25.8573 42.8024 27.6479 41.9869L38.3511 37.1122L35.3933 31.4688L24.6947 35.5027Z" fill="#FFDCCE"/>
<path d="M17.9442 31.0151L0 23.3047V55.2187L7.18556 58.2982C7.80202 58.5624 8.51482 58.2641 8.75915 57.6394L18.5811 32.5388C18.8147 31.9423 18.5329 31.2681 17.9442 31.0151Z" fill="#808E9B"/>
<path d="M0 55.2187L7.18556 58.2982C7.80202 58.5624 8.51482 58.2641 8.75915 57.6394L9.88816 54.7543L0 49.8724V55.2187Z" fill="#6B7B8B"/>
<path d="M48.1337 28.3294L68.712 48.6335C69.1635 49.0791 69.8857 49.091 70.3518 48.6605L76.0009 43.4428V0.59375L48.157 26.6166C47.664 27.0772 47.6535 27.8556 48.1337 28.3294Z" fill="#55697A"/>
<path d="M66.3535 46.3075L68.711 48.6336C69.1625 49.0792 69.8847 49.091 70.3508 48.6606L75.9997 43.4428V36.5908L66.3535 46.3075Z" fill="#40566A"/>
</g>
<defs>
<clipPath id="clip0">
<rect width="76" height="76" fill="white"/>
</clipPath>
</defs>
</svg>
