<svg width="130" height="130" viewBox="0 0 130 130" fill="none" xmlns="http://www.w3.org/2000/svg">
<rect width="130" height="130" rx="65" fill="#ADD9F3"/>
<g clip-path="url(#clip0)">
<path d="M98.2495 38.2812L74.4995 57.2812L63.3519 57.6025C62.719 57.6207 62.0961 57.7653 61.5199 58.0277L51.7674 62.4694C49.9498 63.2973 49.0958 65.4821 49.9581 67.2839C50.7938 69.0302 52.878 69.7929 54.6477 68.9869L64.5651 64.4701L64.6087 64.6077L66.6723 95.0246L69.9232 97.7205L98.398 67.9688L98.2495 38.2812Z" fill="#FFDCCE"/>
<path d="M98.2498 38.2812L95.6764 40.5531L95.8005 65.3711L67.6152 94.8204L69.3188 98.3521L98.3982 67.9688L98.2498 38.2812Z" fill="#FFCBB6"/>
<path d="M81.4807 89.8492C83.157 90.8792 85.3511 90.3554 86.3811 88.6789C87.4111 87.0026 86.8873 84.8088 85.2111 83.7787L87.2344 85.0218C88.9108 86.0519 91.1048 85.528 92.1348 83.8516C93.1648 82.1751 92.641 79.9812 90.9645 78.9512L69.6728 65.8685L68.9878 65.4475L68.2172 64.974L68.1715 65.0484C67.8981 64.9457 67.6155 64.8679 67.3265 64.8168L44.8125 60.8438L36.5 79.8438L53.2984 89.2574L57.2875 91.7085L69.9734 99.5034C71.6497 100.533 73.8438 100.01 74.8738 98.3331C75.9038 96.6568 75.3799 94.4631 73.7038 93.4329L75.7271 94.6762C77.4034 95.7062 79.5975 95.1824 80.6275 93.5059C81.6575 91.8296 81.1337 89.6357 79.4572 88.6056L81.4807 89.8492Z" fill="#FFEEE7"/>
<path d="M88.7177 82.647L81.2039 78.03C80.6486 77.6888 79.922 77.859 79.5758 78.4114L78.7139 79.7872L87.1616 84.9779C88.8612 86.0223 91.1531 85.5145 92.1669 83.7965C92.4029 83.3966 92.5517 82.9687 92.619 82.5351C91.492 83.3191 89.9623 83.4118 88.7177 82.647Z" fill="#FFDCCE"/>
<path d="M82.8175 87.4742L77.8567 84.426C77.3038 84.0862 76.5806 84.2534 76.2326 84.8011L75.3999 86.1123L81.4147 89.8081C83.0363 90.8045 85.1873 90.4115 86.2718 88.8474C86.6172 88.3494 86.8162 87.7982 86.8832 87.2411C85.7441 88.1356 84.1237 88.2768 82.8175 87.4742Z" fill="#FFDCCE"/>
<path d="M77.7678 92.6354L74.7187 90.7619C74.1623 90.4201 73.4342 90.5917 73.0891 91.1461L72.229 92.5273L75.6291 94.6166C76.9888 95.452 78.7548 95.3534 79.9546 94.3011C80.4161 93.8965 80.722 93.4222 80.9151 92.9235C79.9144 93.3085 78.7519 93.2401 77.7678 92.6354Z" fill="#FFDCCE"/>
<path d="M71.5586 97.9187L68.3399 95.9409L66.9741 97.6601L69.9739 99.5034C71.6502 100.533 73.8443 100.01 74.8743 98.3331C74.9278 98.246 74.9762 98.1571 75.0215 98.0673C73.9563 98.6006 72.6483 98.5881 71.5586 97.9187Z" fill="#FFDCCE"/>
<path d="M36.5 79.8437L53.2984 89.2573L54.9956 86.4949L38.0737 76.2465L36.5 79.8437Z" fill="#FFDCCE"/>
<path d="M49.0397 75.6423C50.0608 73.9875 52.2165 73.4604 53.8832 74.4456C55.6025 75.462 56.1099 77.7522 55.0612 79.452L48.8676 89.4898C47.8345 91.1641 45.6396 91.6841 43.9652 90.6508C42.2908 89.6177 41.771 87.4228 42.8041 85.7484L49.0397 75.6423Z" fill="#FFDCCE"/>
<path d="M44.6223 87.5667L50.858 77.4607C51.7993 75.9353 53.7042 75.3692 55.302 76.0614C55.0178 75.4065 54.539 74.8332 53.8833 74.4456C52.2167 73.4604 50.0609 73.9875 49.0398 75.6423L42.8041 85.7484C41.771 87.4228 42.2908 89.6177 43.9652 90.6508C44.1053 90.7374 44.2493 90.8119 44.3958 90.8769C43.9389 89.8402 43.9826 88.6037 44.6223 87.5667Z" fill="#FFCBB6"/>
<path d="M53.857 81.4049C54.8781 79.7501 57.0338 79.223 58.7005 80.2082C60.4198 81.2245 60.9272 83.5148 59.8785 85.2145L54.9321 93.231C53.899 94.9054 51.704 95.4252 50.0296 94.3921C48.3553 93.359 47.8354 91.164 48.8686 89.4897L53.857 81.4049Z" fill="#FFDCCE"/>
<path d="M50.6868 91.3081L55.6753 83.2233C56.6166 81.6979 58.5215 81.1318 60.1193 81.8239C59.8351 81.169 59.3563 80.5958 58.7006 80.2082C57.034 79.223 54.8782 79.7501 53.8571 81.4049L48.8686 89.4897C47.8354 91.1641 48.3553 93.359 50.0296 94.3921C50.1698 94.4787 50.3138 94.5532 50.4603 94.6182C50.0034 93.5815 50.0469 92.345 50.6868 91.3081Z" fill="#FFCBB6"/>
<path d="M58.6723 87.1676C59.6934 85.5128 61.8492 84.9857 63.5158 85.9709C65.2352 86.9872 65.7425 89.2775 64.6938 90.9772L60.9946 96.9726C59.9615 98.647 57.7665 99.1668 56.0922 98.1337C54.4178 97.1006 53.8979 94.9056 54.9311 93.2313L58.6723 87.1676Z" fill="#FFDCCE"/>
<path d="M56.6806 98.4252C56.2945 97.4224 56.3642 96.2573 56.9721 95.2723L60.7134 89.2086C61.6237 87.7333 63.4356 87.1554 64.9991 87.7452C64.7263 87.0245 64.2243 86.3895 63.5159 85.9709C61.8493 84.9857 59.6935 85.5128 58.6724 87.1676L54.9311 93.2313C53.8979 94.9056 54.4178 97.1006 56.0921 98.1337C56.2823 98.2511 56.4794 98.3475 56.6806 98.4252Z" fill="#FFCBB6"/>
<path d="M63.4897 92.9302C64.5108 91.2754 66.6666 90.7483 68.3332 91.7335C70.0526 92.7498 70.56 95.04 69.5112 96.7398L67.0591 100.714C66.0259 102.388 63.831 102.908 62.1566 101.875C60.4822 100.842 59.9624 98.6469 60.9955 96.9726L63.4897 92.9302Z" fill="#FFDCCE"/>
<path d="M63.1108 99.0877L65.605 95.0453C66.5046 93.5872 68.285 93.0053 69.8357 93.5612C69.5678 92.8186 69.0589 92.1622 68.3332 91.7332C66.6666 90.748 64.5108 91.2751 63.4897 92.9299L60.9955 96.9723C59.9624 98.6467 60.4822 100.842 62.1566 101.875C62.3641 102.003 62.5796 102.107 62.7999 102.188C62.4361 101.197 62.5134 100.056 63.1108 99.0877Z" fill="#FFCBB6"/>
<path d="M51.6947 62.5027C49.9041 63.3182 49.1137 65.4308 49.9292 67.2214C50.7447 69.012 52.8573 69.8024 54.6479 68.9869L65.3511 64.1122L62.3933 58.4688L51.6947 62.5027Z" fill="#FFDCCE"/>
<path d="M44.9442 58.0151L27 50.3047V82.2187L34.1856 85.2982C34.802 85.5624 35.5148 85.2641 35.7591 84.6394L45.5811 59.5388C45.8147 58.9423 45.5329 58.2681 44.9442 58.0151Z" fill="#808E9B"/>
<path d="M27 82.2187L34.1856 85.2982C34.802 85.5624 35.5148 85.2641 35.7591 84.6394L36.8882 81.7543L27 76.8724V82.2187Z" fill="#6B7B8B"/>
<path d="M75.1337 55.3294L95.712 75.6335C96.1635 76.0791 96.8857 76.091 97.3518 75.6605L103.001 70.4428V27.5938L75.157 53.6166C74.664 54.0772 74.6535 54.8556 75.1337 55.3294Z" fill="#55697A"/>
<path d="M93.3535 73.3075L95.711 75.6336C96.1625 76.0792 96.8847 76.091 97.3508 75.6606L103 70.4428V63.5908L93.3535 73.3075Z" fill="#40566A"/>
</g>
<defs>
<clipPath id="clip0">
<rect width="76" height="76" fill="white" transform="translate(27 27)"/>
</clipPath>
</defs>
</svg>
