<svg width="15" height="15" viewBox="0 0 15 15" fill="none" xmlns="http://www.w3.org/2000/svg">
<path d="M7.49998 0C3.35786 0 0 3.35786 0 7.49998C0 11.6421 3.35786 15 7.49998 15C11.6421 15 15 11.6421 15 7.49998C14.9956 3.35971 11.6403 0.00442592 7.49998 0ZM8.03571 7.49998C8.03571 7.79586 7.79586 8.03571 7.49998 8.03571H3.21428C2.91841 8.03571 2.67856 7.79586 2.67856 7.49998C2.67856 7.20411 2.91841 6.96426 3.21428 6.96426H6.96429V3.21428C6.96429 2.91841 7.20414 2.67856 7.50002 2.67856C7.79589 2.67856 8.03571 2.91841 8.03571 3.21428V7.49998Z" fill="#DFE5EC"/>
</svg>
