<svg width="22" height="22" viewBox="0 0 22 22" fill="none" xmlns="http://www.w3.org/2000/svg">
<path d="M20.0667 2.62109H1.93386C1.63622 2.62109 1.35757 2.69427 1.10547 2.81488L10.9573 12.6667L13.1654 10.5446L20.8954 2.81505C20.6432 2.69436 20.3644 2.62109 20.0667 2.62109Z" fill="#7B8A99"/>
<path d="M21.8061 3.72656L14.5322 11.0001L21.8058 18.2737C21.9265 18.0216 21.9996 17.7429 21.9996 17.4453V4.55466C21.9996 4.25718 21.9266 3.97857 21.8061 3.72656Z" fill="#7B8A99"/>
<path d="M0.193789 3.72632C0.0731758 3.97842 0 4.25707 0 4.55471V17.4453C0 17.7428 0.0730898 18.0215 0.193617 18.2735L7.4675 11L0.193789 3.72632Z" fill="#7B8A99"/>
<path d="M13.6208 11.9115L11.4124 14.0338C11.2865 14.1597 11.1215 14.2227 10.9567 14.2227C10.7918 14.2227 10.6268 14.1597 10.501 14.0338L8.3785 11.9114L1.10449 19.1849C1.35663 19.3056 1.63546 19.3789 1.93319 19.3789H20.066C20.3636 19.3789 20.6423 19.3057 20.8944 19.1851L13.6208 11.9115Z" fill="#7B8A99"/>
</svg>
