<svg width="130" height="130" viewBox="0 0 130 130" fill="none" xmlns="http://www.w3.org/2000/svg">
<rect width="130" height="130" rx="65" fill="#ADD9F3"/>
<g clip-path="url(#clip0)">
<path d="M61.1545 40.9836C60.8023 40.9836 60.4548 40.822 60.2299 40.5163C59.187 39.0994 57.3312 37.4738 54.411 37.7857C50.973 38.1519 48.4199 37.0577 46.8833 36.0755C46.3496 35.7344 46.1936 35.0253 46.5346 34.4917C46.8756 33.9579 47.5849 33.8021 48.1184 34.143C49.3458 34.9274 51.3918 35.8012 54.1681 35.5049C58.382 35.0575 60.932 37.6006 62.0772 39.1569C62.4526 39.667 62.3433 40.385 61.8332 40.7604C61.6285 40.9109 61.3905 40.9836 61.1545 40.9836Z" fill="#FFD064"/>
<path d="M49.1479 47.0736C48.9432 47.0736 48.7363 47.019 48.5489 46.904C48.0091 46.5726 47.8403 45.8665 48.1716 45.3267C49.6416 42.9319 52.3354 41.286 55.962 40.567C58.6063 40.0429 60.825 40.1864 60.9179 40.1929C61.5498 40.2363 62.0269 40.7836 61.9836 41.4155C61.9402 42.0469 61.3916 42.5204 60.7624 42.4813C60.6828 42.4759 52.8958 42.0143 50.1262 46.5265C49.9098 46.8793 49.5332 47.0736 49.1479 47.0736Z" fill="#FFD064"/>
<path d="M66.434 91.0177C85.2679 91.0177 95.682 63.392 65.9403 42.0551C65.2005 41.5243 64.7611 40.6698 64.7711 39.7592C64.7792 39.0068 65.0176 38.2764 65.4491 37.6599C66.8415 35.6716 68.8457 32.2703 70.0476 29.5307C70.3354 28.8746 69.9235 28.1689 69.1535 28.1689C67.3671 28.1691 67.3671 27 65.5807 27C63.7942 27 63.7942 28.1691 62.0076 28.1691C60.4852 28.1691 59.8606 26.8593 59.1205 27.812C56.9619 30.5901 64.3553 40.3598 64.3553 40.3598C31.7029 61.8254 42.2311 91.0178 61.5096 91.0178H66.434V91.0177Z" fill="#EABC6B"/>
<path d="M73.8376 40.3597C73.8376 40.3597 81.3407 30.6216 79.1832 27.8281C78.4478 26.8761 77.8208 28.1691 76.3001 28.1691C74.5133 28.1689 74.5133 27 72.7266 27C70.94 27 70.94 28.1689 69.1534 28.1689C69.0654 28.1689 68.9851 28.164 68.9054 28.1586C68.1875 31.2357 64.9526 36.0295 63.1014 38.5962C63.8304 39.666 64.3553 40.3595 64.3553 40.3595C63.9198 40.6459 63.4935 40.9338 63.0732 41.2228C94.2705 62.666 83.8318 91.0175 64.7521 91.0175H76.799C96.1358 91.0177 106.599 61.8966 73.8376 40.3597Z" fill="#E8AE4D"/>
<path d="M75.2333 43.8233C70.8735 44.9244 66.5663 44.9244 62.2058 43.8233C60.6882 43.44 59.8279 41.7334 60.374 40.1821C60.3801 40.1648 60.3861 40.1474 60.3922 40.13C60.8502 38.8294 62.1488 38.0996 63.4217 38.4191C66.9916 39.3154 70.4463 39.3157 74.0173 38.4191C75.2902 38.0996 76.5888 38.8294 77.0468 40.13C77.0528 40.1474 77.0589 40.1648 77.065 40.1821C77.6113 41.7334 76.7509 43.44 75.2333 43.8233Z" fill="#FFE07D"/>
<path d="M34.2402 96.0262L50.8439 102.206C52.254 102.731 53.7466 103 55.2513 103H72.3625C74.7571 103 77.1025 102.32 79.1252 101.038L100.55 87.4617C101.964 86.2065 102.226 84.0972 101.162 82.5343C99.9988 80.8243 98.074 80.5271 95.9559 81.5286L75.0966 90.7131L75.1213 87.3288C74.845 84.551 72.7062 82.3216 69.9423 81.9306L57.2396 80.468C54.3093 80.0535 52.8451 79.0714 50.2905 77.5771C46.8029 75.537 42.8352 74.4617 38.7947 74.4617H34.2402V96.0262Z" fill="#FFDDCE"/>
<path d="M49.8355 98.9133C51.318 99.4651 52.8871 99.7477 54.4688 99.7477H72.4574C74.3725 99.7477 76.2571 99.3327 77.9856 98.5413L90.5641 90.5708C91.7327 89.8303 92.4746 88.5413 92.4366 87.1583C92.4164 86.4248 92.1923 85.6907 91.7531 85.0453C91.7531 85.0453 91.3701 84.389 90.9766 83.721L75.0966 90.713L75.1213 87.3288C74.845 84.551 72.7062 82.3216 69.9423 81.9306L57.2396 80.468C54.3093 80.0535 52.8451 79.0714 50.2905 77.5771C46.8029 75.537 42.8352 74.4617 38.7947 74.4617H34.2402V93.1085L49.8355 98.9133Z" fill="#FFDDCE"/>
<path d="M101.162 82.5342C99.9986 80.8242 98.0739 80.5271 95.9558 81.5286L90.2182 84.0548C90.4961 84.4946 90.7171 84.8457 90.7171 84.8457C91.7806 86.4086 91.5186 88.5179 90.105 89.7731L77.6209 97.6836C75.9767 98.4363 74.184 98.8312 72.3623 98.8312H55.2513C53.7466 98.8312 52.254 98.5624 50.8439 98.0375L34.2402 91.8573V96.026L50.8439 102.206C52.254 102.731 53.7466 103 55.2513 103H69.2314H72.3627C74.7573 103 77.1026 102.319 79.1254 101.038L100.55 87.4616C101.964 86.2064 102.226 84.097 101.162 82.5342Z" fill="#FFCBBE"/>
<path d="M73.5636 83.8423L73.563 83.9239L73.6169 83.9002C73.5994 83.8806 73.5812 83.8617 73.5636 83.8423Z" fill="#F5DBCC"/>
<path d="M75.0966 90.7109H62.1263C61.4929 90.7109 60.9795 90.1976 60.9795 89.5641C60.9795 88.9305 61.4928 88.4172 62.1263 88.4172H75.1134L75.0966 90.7109Z" fill="#FFCBBE"/>
<path d="M37.8131 99.3334C37.8131 100.538 36.8365 101.515 35.6318 101.515H30.3673C29.1626 101.515 28.186 100.538 28.186 99.3334V72.6242C28.186 71.4194 29.1626 70.4429 30.3673 70.4429H35.6318C36.8365 70.4429 37.8131 71.4194 37.8131 72.6242V99.3334Z" fill="#407093"/>
<path d="M71.6228 62.5399C71.0977 62.3542 70.6144 62.1767 70.1684 62.0053V54.6932C71.5249 54.9181 72.3392 55.6198 72.3989 55.6728C72.8648 56.0964 73.5856 56.0652 74.0131 55.6017C74.4426 55.136 74.4133 54.4108 73.9477 53.9812C73.8671 53.9065 72.4625 52.6412 70.1683 52.377V50.7464C70.1683 50.1131 69.655 49.5996 69.0215 49.5996C68.3879 49.5996 67.8746 50.1129 67.8746 50.7464V52.4699C67.5981 52.5229 67.3149 52.5903 67.0238 52.6779C65.0784 53.2638 63.6243 54.9319 63.2287 57.031C62.8698 58.9357 63.4736 60.7676 64.8048 61.8117C65.569 62.4111 66.5311 62.9599 67.8746 63.5465V72.6163C66.5475 72.5607 65.7324 72.3107 64.3078 71.379C63.7778 71.0324 63.0672 71.1808 62.7205 71.7109C62.3737 72.2408 62.5223 72.9515 63.0524 73.2982C64.9245 74.523 66.1759 74.8424 67.8746 74.9085V76.7289C67.8746 77.3623 68.3879 77.8758 69.0215 77.8758C69.655 77.8758 70.1683 77.3625 70.1683 76.7289V74.8279C73.3876 74.3055 75.2662 71.6997 75.6747 69.2689C76.1857 66.2317 74.5949 63.5906 71.6228 62.5399ZM66.2203 60.0069C65.5656 59.4934 65.2831 58.5158 65.4829 57.4557C65.668 56.4726 66.344 55.2781 67.6855 54.874C67.7494 54.8547 67.8122 54.8381 67.8749 54.8213V61.0161C67.1881 60.6733 66.6496 60.3435 66.2203 60.0069ZM73.4131 68.8883C73.1601 70.3933 72.0554 72 70.1684 72.4836V64.454C70.3916 64.5357 70.6196 64.6181 70.8582 64.7024C73.7122 65.7112 73.5353 68.1614 73.4131 68.8883Z" fill="white"/>
</g>
<defs>
<clipPath id="clip0">
<rect width="76" height="76" fill="white" transform="translate(27 27)"/>
</clipPath>
</defs>
</svg>
