<svg width="76" height="76" viewBox="0 0 76 76" fill="none" xmlns="http://www.w3.org/2000/svg">
<g clip-path="url(#clip0)">
<path d="M75.2387 60.6679C75.3754 58.3222 75.3603 56.1893 75.2124 54.251L58.8712 52.915L42.5292 54.251C42.3812 56.1893 42.3662 58.3222 42.5028 60.6679H75.2387Z" fill="#26457D"/>
<path d="M42.1572 61.4011C42.1572 63.0353 44.2543 65.4811 46.0516 65.4811L46.4894 64.122L47.8148 63.0869L46.4788 58.6789C46.3384 58.6645 46.1959 58.6571 46.0515 58.6571C44.2543 58.657 42.7259 59.8023 42.1572 61.4011Z" fill="#E2AE84"/>
<path d="M46.0515 64.1453C44.2542 64.1453 42.7257 63.0001 42.1571 61.4012C42.0036 61.8325 41.9194 62.2965 41.9194 62.7802C41.9194 65.0573 43.7694 66.9034 46.0515 66.9034C46.3402 66.9034 46.6219 66.8737 46.8939 66.8174L47.9548 65.4935L46.4892 64.1221C46.3454 64.1373 46.1995 64.1453 46.0515 64.1453Z" fill="#D7A379"/>
<path d="M75.5853 61.4011C75.5853 63.0353 73.4882 65.4811 71.6909 65.4811L71.2531 64.122L69.9277 63.0869L71.2637 58.6789C71.4041 58.6645 71.5466 58.6571 71.6909 58.6571C73.4882 58.657 75.0166 59.8023 75.5853 61.4011Z" fill="#E2AE84"/>
<path d="M71.6909 64.1453C73.4881 64.1453 75.0166 63.0001 75.5853 61.4012C75.7388 61.8325 75.8229 62.2965 75.8229 62.7802C75.8229 65.0573 73.9729 66.9034 71.6909 66.9034C71.4022 66.9034 71.1204 66.8737 70.8485 66.8174L69.7876 65.4935L71.2531 64.1221C71.397 64.1373 71.5429 64.1453 71.6909 64.1453Z" fill="#D7A379"/>
<path d="M67.1881 54.251L58.8709 52.915L50.5545 54.251C48.1942 58.1289 46.4794 58.6789 46.479 58.679V60.8768V62.299C46.479 69.1281 52.0273 74.6643 58.8713 74.6643C65.7153 74.6643 71.2636 69.1281 71.2636 62.299V60.8768V58.679C71.2638 58.679 69.5487 58.1292 67.1881 54.251Z" fill="#F0C69E"/>
<path d="M58.8715 73.2419C52.0273 73.2419 46.479 67.7058 46.479 60.8766V63.6347C46.479 70.4639 52.0273 76 58.8713 76C65.7153 76 71.2636 70.4639 71.2636 63.6347V60.8766C71.2638 67.7059 65.7155 73.2419 58.8715 73.2419Z" fill="#E6BA94"/>
<path d="M75.7372 51.4929C74.12 40.2443 66.3193 36.869 58.8706 36.869C51.4218 36.869 43.6211 40.2443 42.0039 51.4929L58.9559 52.8289L75.7372 51.4929Z" fill="#DC4955"/>
<path d="M37.6295 22.8748C43.0798 5.25306 28.8 4.62249 28.8 4.62249C28.8 4.62249 27.102 0 19.4606 0C12.1232 0 7.4829 2.25343 1.11167 1.25415C0.673033 1.18527 0.264978 1.49521 0.223861 1.93741C-0.0621784 5.016 -0.736827 15.9695 3.39167 22.0019L37.6295 22.8748Z" fill="#26457D"/>
<path d="M7.22875 19.5624C5.53033 19.5624 4.06629 20.5609 3.39209 22.0015C3.72043 22.4814 4.07891 22.9304 4.47079 23.3416L7.6665 23.4433V19.5848C7.52266 19.5699 7.3766 19.5624 7.22875 19.5624Z" fill="#21386B"/>
<path d="M37.1298 24.3804C37.3123 23.8641 37.4761 23.3639 37.6275 22.8742C37.2095 20.98 35.5183 19.5624 33.4944 19.5624C33.3465 19.5624 33.2006 19.5701 33.0566 19.5848V24.2508L37.1298 24.3804Z" fill="#21386B"/>
<path d="M3.22754 25.1652C3.22754 26.8301 4.81048 29.346 6.66416 29.346L7.68037 27.9858L9.0022 27.4197L7.66627 22.3428C7.52243 22.3282 7.37637 22.3204 7.22852 22.3204C5.37484 22.3204 3.80051 23.51 3.22754 25.1652Z" fill="#E2AE84"/>
<path d="M7.22909 28.01C5.3754 28.01 3.80107 26.8205 3.2281 25.1652C3.07848 25.5974 2.99609 26.0611 2.99609 26.5441C2.99609 28.8768 4.89134 30.7679 7.22909 30.7679C7.52492 30.7679 7.81348 30.7375 8.0921 30.6798L8.56309 29.3458L7.68093 27.9856C7.53249 28.0015 7.38183 28.01 7.22909 28.01Z" fill="#D7A379"/>
<path d="M37.4954 25.1652C37.4954 26.8301 35.9124 29.346 34.0587 29.346L33.0425 27.9858L31.7207 27.4197L33.0566 22.3428C33.2005 22.3282 33.3465 22.3204 33.4944 22.3204C35.3481 22.3204 36.9224 23.51 37.4954 25.1652Z" fill="#E2AE84"/>
<path d="M33.4947 28.01C35.3483 28.01 36.9227 26.8205 37.4956 25.1652C37.6453 25.5974 37.7276 26.0611 37.7276 26.5441C37.7276 28.8768 35.8324 30.7679 33.4947 30.7679C33.1988 30.7679 32.9103 30.7375 32.6316 30.6798L32.1606 29.3458L33.0428 27.9856C33.1912 28.0015 33.3419 28.01 33.4947 28.01Z" fill="#D7A379"/>
<path d="M32.656 18.7822C32.9022 18.9166 33.0567 19.1738 33.0567 19.4545V24.6617V26.0839C33.0567 33.0799 27.3729 38.7512 20.3616 38.7512C13.3503 38.7512 7.6665 33.0799 7.6665 26.0839V24.6617V13.1801C7.6665 12.5983 8.28905 12.2272 8.79893 12.5075C11.1413 13.7946 17.1312 16.0372 26.897 12.8105C27.2828 12.683 27.7001 12.8784 27.8501 13.2559C28.3474 14.5064 29.7012 17.1702 32.656 18.7822Z" fill="#F0C69E"/>
<path d="M20.3616 37.3291C13.3503 37.3291 7.6665 31.6578 7.6665 24.6617V27.4199C7.6665 34.4159 13.3503 40.0872 20.3616 40.0872C27.3729 40.0872 33.0567 34.4159 33.0567 27.4199V24.6617C33.0566 31.6578 27.3729 37.3291 20.3616 37.3291Z" fill="#E6BA94"/>
<path d="M42.0046 51.4928C41.9153 52.1142 41.8442 52.7588 41.7932 53.4286C41.7595 53.8723 42.1131 54.2509 42.558 54.2509H53.602L58.871 52.915L64.1408 54.2509H75.184C75.6288 54.2509 75.9824 53.8723 75.9487 53.4286C75.8978 52.7588 75.8267 52.1143 75.7375 51.4928H42.0046Z" fill="#D82F3C"/>
<path d="M49.2555 23.59L49.2575 23.5864L47.8222 26.9206C47.9809 26.9908 48.1598 28.356 48.3504 28.3265C52.5984 27.6671 55.3191 25.9258 56.1242 25.3505C56.2904 25.2317 56.4956 25.1875 56.6972 25.221C57.7205 25.3907 58.7769 25.4793 59.8607 25.4793C68.2156 25.4793 75.0877 18.8525 75.9163 12.0718C75.0877 5.29091 68.2156 0 59.8607 0C50.9471 0 43.7212 6.02211 43.7212 13.4507C43.7213 17.496 45.8642 21.1243 49.2555 23.59Z" fill="#F6E080"/>
<path d="M64.1371 50.1677C64.0619 47.3263 61.7366 45.0455 58.8771 45.0455H58.8655C56.0059 45.0455 53.6806 47.3263 53.6055 50.1677L58.8708 51.5036L64.1371 50.1677Z" fill="#26457D"/>
<path d="M64.1405 51.5036L58.8706 52.8396L53.6016 51.5036V50.1678H64.1405V51.5036Z" fill="#F6E080"/>
<path d="M53.6016 51.4928H64.1403V54.2509H53.6016V51.4928Z" fill="#ECCD61"/>
<path d="M16.1392 71.7189C17.2228 71.7189 18.2793 71.6303 19.3026 71.4606C19.5042 71.4272 19.7093 71.4715 19.8756 71.5902C20.6807 72.1656 23.4014 73.907 27.6494 74.5662C27.84 74.5958 28.019 73.2306 28.1777 73.1604L26.7424 69.8262L26.7444 69.8297C30.1357 67.3641 32.2785 63.7358 32.2785 59.6903C32.2785 52.2617 25.0526 46.2396 16.1391 46.2396C7.78414 46.2396 0.912074 51.5304 0.0834961 58.3111C0.912223 65.0921 7.78428 71.7189 16.1392 71.7189Z" fill="#F6E080"/>
<path d="M28.1779 73.1605C28.0192 73.2307 27.8402 73.2599 27.6496 73.2304C23.4016 72.571 20.6809 70.8297 19.8758 70.2544C19.7095 70.1356 19.5044 70.0914 19.3028 70.1248C18.2795 70.2944 17.2231 70.3831 16.1393 70.3831C7.78436 70.3831 0.912297 65.0921 0.0837188 58.3115C0.0285 58.7647 0 59.2249 0 59.6904C0 67.1189 7.22579 73.141 16.1395 73.141C17.3379 73.141 18.5032 73.0327 19.6271 72.826C19.7045 72.8887 22.5965 75.204 27.6497 75.9883C28.4538 76.1132 29.0633 75.2172 28.7218 74.4238L28.1779 73.1605Z" fill="#ECCD61"/>
<path d="M59.8605 24.1432C58.7769 24.1432 57.7205 24.0546 56.697 23.8849C56.4955 23.8515 56.2903 23.8957 56.1241 24.0145C55.3189 24.5898 52.5982 26.3312 48.3502 26.9905C48.1597 27.0201 47.9806 26.9908 47.822 26.9206L47.2781 28.184C46.9365 28.9774 47.546 29.8733 48.3501 29.7485C53.4034 28.9643 56.2954 26.6488 56.3727 26.5863C57.4967 26.7928 58.6619 26.9013 59.8604 26.9013C68.7741 26.9012 76 20.8792 76 13.4506C76 12.985 75.9715 12.525 75.9161 12.0717C75.0875 18.8523 68.2155 24.1432 59.8605 24.1432Z" fill="#ECCD61"/>
<path d="M14.0241 22.619C13.2745 22.619 12.667 22.9814 12.667 23.4284V25.4287C12.667 25.8757 13.2747 26.2381 14.0241 26.2381C14.7736 26.2381 15.3813 25.8757 15.3813 25.4287V23.4284C15.3813 22.9814 14.7737 22.619 14.0241 22.619Z" fill="#5E6B75"/>
<path d="M26.6906 22.619C25.9412 22.619 25.3335 22.9814 25.3335 23.4284V25.4287C25.3335 25.8757 25.9412 26.2381 26.6906 26.2381C27.4402 26.2381 28.0478 25.8757 28.0478 25.4287V23.4284C28.0478 22.9814 27.4402 22.619 26.6906 22.619Z" fill="#5E6B75"/>
<path d="M52.8974 58.7195C52.2615 58.7195 51.7461 59.2349 51.7461 59.8708V62.648C51.7461 63.2839 52.2616 63.7993 52.8974 63.7993C53.5333 63.7993 54.0487 63.2839 54.0487 62.648V59.8708C54.0487 59.2349 53.5331 58.7195 52.8974 58.7195Z" fill="#5E6B75"/>
<path d="M64.9291 58.7195C64.2934 58.7195 63.7778 59.2349 63.7778 59.8708V62.648C63.7778 63.2839 64.2934 63.7993 64.9291 63.7993C65.565 63.7993 66.0804 63.2839 66.0804 62.648V59.8708C66.0804 59.2349 65.565 58.7195 64.9291 58.7195Z" fill="#5E6B75"/>
<path d="M52.2987 11.1613H68.4305C69.0664 11.1613 69.5818 10.646 69.5818 10.01C69.5818 9.37414 69.0662 8.85876 68.4305 8.85876H52.2987C51.6628 8.85876 51.1475 9.37414 51.1475 10.01C51.1475 10.646 51.6628 11.1613 52.2987 11.1613Z" fill="#DC4955"/>
<path d="M52.2987 18.1151H61.5869C62.2228 18.1151 62.7382 17.5997 62.7382 16.9638C62.7382 16.3279 62.2227 15.8125 61.5869 15.8125H52.2987C51.6628 15.8125 51.1475 16.3279 51.1475 16.9638C51.1475 17.5997 51.6628 18.1151 52.2987 18.1151Z" fill="#DC4955"/>
<path d="M8.48868 57.4868H24.6204C25.2562 57.4868 25.7717 56.9714 25.7717 56.3355C25.7717 55.6996 25.2562 55.1842 24.6204 55.1842H8.48868C7.85278 55.1842 7.3374 55.6996 7.3374 56.3355C7.3374 56.9712 7.85293 57.4868 8.48868 57.4868Z" fill="#DC4955"/>
<path d="M8.48868 64.4405H17.7769C18.4126 64.4405 18.9281 63.9251 18.9281 63.2892C18.9281 62.6533 18.4126 62.1379 17.7769 62.1379H8.48868C7.85278 62.1379 7.3374 62.6533 7.3374 63.2892C7.3374 63.9251 7.85293 64.4405 8.48868 64.4405Z" fill="#DC4955"/>
<path d="M22.0355 30.9412C21.9958 31.0222 21.6105 30.8291 20.3041 30.8291C18.9977 30.8291 18.6123 31.0222 18.5727 30.9412C17.9562 29.4585 15.8021 30.3693 16.4533 31.8514C16.7889 32.6646 17.9776 33.1363 20.3041 33.1363C22.6305 33.1363 23.8192 32.6646 24.1549 31.8514C24.806 30.3693 22.6519 29.4586 22.0355 30.9412Z" fill="#DC4955"/>
<path d="M60.6163 67.1712C60.5779 67.2494 60.2042 67.0307 58.9378 67.0307C57.6712 67.0307 57.2975 67.2492 57.2591 67.171C56.5882 65.8483 54.6276 66.6778 55.1234 68.0894C55.1347 68.1142 55.1456 68.1394 55.1577 68.1638C55.5294 68.9768 56.7023 69.356 58.9378 69.356C61.1732 69.356 62.3461 68.9768 62.7179 68.1638C62.7299 68.1394 62.7407 68.1142 62.7522 68.0894C63.2478 66.6778 61.2872 65.8484 60.6163 67.1712Z" fill="#DC4955"/>
</g>
<defs>
<clipPath id="clip0">
<rect width="76" height="76" fill="white"/>
</clipPath>
</defs>
</svg>
