<svg width="130" height="130" viewBox="0 0 130 130" fill="none" xmlns="http://www.w3.org/2000/svg">
<rect width="130" height="130" rx="65" fill="#ADD9F4"/>
<g clip-path="url(#clip0)">
<path d="M102.239 87.6679C102.375 85.3222 102.36 83.1893 102.212 81.251L85.8712 79.915L69.5292 81.251C69.3812 83.1893 69.3662 85.3222 69.5028 87.6679H102.239Z" fill="#26457D"/>
<path d="M69.1572 88.4011C69.1572 90.0353 71.2543 92.4811 73.0516 92.4811L73.4894 91.122L74.8148 90.0869L73.4788 85.6789C73.3384 85.6645 73.1959 85.6571 73.0515 85.6571C71.2543 85.657 69.7259 86.8023 69.1572 88.4011Z" fill="#E2AE84"/>
<path d="M73.0515 91.1453C71.2542 91.1453 69.7257 90.0001 69.1571 88.4012C69.0036 88.8325 68.9194 89.2965 68.9194 89.7802C68.9194 92.0573 70.7694 93.9034 73.0515 93.9034C73.3402 93.9034 73.6219 93.8737 73.8939 93.8174L74.9548 92.4935L73.4892 91.1221C73.3454 91.1373 73.1995 91.1453 73.0515 91.1453Z" fill="#D7A379"/>
<path d="M102.585 88.4011C102.585 90.0353 100.488 92.4811 98.6909 92.4811L98.2531 91.122L96.9277 90.0869L98.2637 85.6789C98.4041 85.6645 98.5466 85.6571 98.6909 85.6571C100.488 85.657 102.017 86.8023 102.585 88.4011Z" fill="#E2AE84"/>
<path d="M98.6909 91.1453C100.488 91.1453 102.017 90.0001 102.585 88.4012C102.739 88.8325 102.823 89.2965 102.823 89.7802C102.823 92.0573 100.973 93.9034 98.6909 93.9034C98.4022 93.9034 98.1204 93.8737 97.8485 93.8174L96.7876 92.4935L98.2531 91.1221C98.397 91.1373 98.5429 91.1453 98.6909 91.1453Z" fill="#D7A379"/>
<path d="M94.1881 81.251L85.8709 79.915L77.5545 81.251C75.1942 85.1289 73.4794 85.6789 73.479 85.679V87.8768V89.299C73.479 96.1281 79.0273 101.664 85.8713 101.664C92.7153 101.664 98.2636 96.1281 98.2636 89.299V87.8768V85.679C98.2638 85.679 96.5487 85.1292 94.1881 81.251Z" fill="#F0C69E"/>
<path d="M85.8715 100.242C79.0273 100.242 73.479 94.7058 73.479 87.8766V90.6347C73.479 97.4639 79.0273 103 85.8713 103C92.7153 103 98.2636 97.4639 98.2636 90.6347V87.8766C98.2638 94.7059 92.7155 100.242 85.8715 100.242Z" fill="#E6BA94"/>
<path d="M102.737 78.4929C101.12 67.2443 93.3193 63.869 85.8706 63.869C78.4218 63.869 70.6211 67.2443 69.0039 78.4929L85.9559 79.8289L102.737 78.4929Z" fill="#DC4955"/>
<path d="M64.6295 49.8748C70.0798 32.2531 55.8 31.6225 55.8 31.6225C55.8 31.6225 54.102 27 46.4606 27C39.1232 27 34.4829 29.2534 28.1117 28.2541C27.673 28.1853 27.265 28.4952 27.2239 28.9374C26.9378 32.016 26.2632 42.9695 30.3917 49.0019L64.6295 49.8748Z" fill="#26457D"/>
<path d="M34.2288 46.5624C32.5303 46.5624 31.0663 47.5609 30.3921 49.0015C30.7204 49.4814 31.0789 49.9304 31.4708 50.3416L34.6665 50.4433V46.5848C34.5227 46.5699 34.3766 46.5624 34.2288 46.5624Z" fill="#21386B"/>
<path d="M64.1298 51.3804C64.3123 50.8641 64.4761 50.3639 64.6275 49.8742C64.2095 47.98 62.5183 46.5624 60.4944 46.5624C60.3465 46.5624 60.2006 46.5701 60.0566 46.5848V51.2508L64.1298 51.3804Z" fill="#21386B"/>
<path d="M30.2275 52.1652C30.2275 53.8301 31.8105 56.346 33.6642 56.346L34.6804 54.9858L36.0022 54.4197L34.6663 49.3428C34.5224 49.3282 34.3764 49.3204 34.2285 49.3204C32.3748 49.3204 30.8005 50.51 30.2275 52.1652Z" fill="#E2AE84"/>
<path d="M34.2291 55.01C32.3754 55.01 30.8011 53.8205 30.2281 52.1652C30.0785 52.5974 29.9961 53.0611 29.9961 53.5441C29.9961 55.8768 31.8913 57.7679 34.2291 57.7679C34.5249 57.7679 34.8135 57.7375 35.0921 57.6798L35.5631 56.3458L34.6809 54.9856C34.5325 55.0015 34.3818 55.01 34.2291 55.01Z" fill="#D7A379"/>
<path d="M64.4954 52.1652C64.4954 53.8301 62.9124 56.346 61.0587 56.346L60.0425 54.9858L58.7207 54.4197L60.0566 49.3428C60.2005 49.3282 60.3465 49.3204 60.4944 49.3204C62.3481 49.3204 63.9224 50.51 64.4954 52.1652Z" fill="#E2AE84"/>
<path d="M60.4947 55.01C62.3483 55.01 63.9227 53.8205 64.4956 52.1652C64.6453 52.5974 64.7276 53.0611 64.7276 53.5441C64.7276 55.8768 62.8324 57.7679 60.4947 57.7679C60.1988 57.7679 59.9103 57.7375 59.6316 57.6798L59.1606 56.3458L60.0428 54.9856C60.1912 55.0015 60.3419 55.01 60.4947 55.01Z" fill="#D7A379"/>
<path d="M59.656 45.7822C59.9022 45.9166 60.0567 46.1738 60.0567 46.4545V51.6617V53.0839C60.0567 60.0799 54.3729 65.7512 47.3616 65.7512C40.3503 65.7512 34.6665 60.0799 34.6665 53.0839V51.6617V40.1801C34.6665 39.5983 35.2891 39.2272 35.7989 39.5075C38.1413 40.7946 44.1312 43.0372 53.897 39.8105C54.2828 39.683 54.7001 39.8784 54.8501 40.2559C55.3474 41.5064 56.7012 44.1702 59.656 45.7822Z" fill="#F0C69E"/>
<path d="M47.3616 64.3291C40.3503 64.3291 34.6665 58.6578 34.6665 51.6617V54.4199C34.6665 61.4159 40.3503 67.0872 47.3616 67.0872C54.3729 67.0872 60.0567 61.4159 60.0567 54.4199V51.6617C60.0566 58.6578 54.3729 64.3291 47.3616 64.3291Z" fill="#E6BA94"/>
<path d="M69.0046 78.4928C68.9153 79.1142 68.8442 79.7588 68.7932 80.4286C68.7595 80.8723 69.1131 81.2509 69.558 81.2509H80.602L85.871 79.915L91.1408 81.2509H102.184C102.629 81.2509 102.982 80.8723 102.949 80.4286C102.898 79.7588 102.827 79.1143 102.737 78.4928H69.0046Z" fill="#D82F3C"/>
<path d="M76.2555 50.59L76.2575 50.5864L74.8222 53.9206C74.9809 53.9908 75.1598 55.356 75.3504 55.3265C79.5984 54.6671 82.3191 52.9258 83.1242 52.3505C83.2904 52.2317 83.4956 52.1875 83.6972 52.221C84.7205 52.3907 85.7769 52.4793 86.8607 52.4793C95.2156 52.4793 102.088 45.8525 102.916 39.0718C102.088 32.2909 95.2156 27 86.8607 27C77.9471 27 70.7212 33.0221 70.7212 40.4507C70.7213 44.496 72.8642 48.1243 76.2555 50.59Z" fill="#F6E080"/>
<path d="M91.1371 77.1677C91.0619 74.3263 88.7366 72.0455 85.8771 72.0455H85.8655C83.0059 72.0455 80.6806 74.3263 80.6055 77.1677L85.8708 78.5036L91.1371 77.1677Z" fill="#26457D"/>
<path d="M91.1405 78.5036L85.8706 79.8396L80.6016 78.5036V77.1678H91.1405V78.5036Z" fill="#F6E080"/>
<path d="M80.6016 78.4928H91.1403V81.2509H80.6016V78.4928Z" fill="#ECCD61"/>
<path d="M43.1392 98.7189C44.2228 98.7189 45.2793 98.6303 46.3026 98.4606C46.5042 98.4272 46.7093 98.4715 46.8756 98.5902C47.6807 99.1656 50.4014 100.907 54.6494 101.566C54.84 101.596 55.019 100.231 55.1777 100.16L53.7424 96.8262L53.7444 96.8297C57.1357 94.3641 59.2785 90.7358 59.2785 86.6903C59.2785 79.2617 52.0526 73.2396 43.1391 73.2396C34.7841 73.2396 27.9121 78.5304 27.0835 85.3111C27.9122 92.0921 34.7843 98.7189 43.1392 98.7189Z" fill="#F6E080"/>
<path d="M55.1779 100.16C55.0192 100.231 54.8402 100.26 54.6496 100.23C50.4016 99.571 47.6809 97.8297 46.8758 97.2544C46.7095 97.1356 46.5044 97.0914 46.3028 97.1248C45.2795 97.2944 44.2231 97.3831 43.1393 97.3831C34.7844 97.3831 27.9123 92.0921 27.0837 85.3115C27.0285 85.7647 27 86.2249 27 86.6904C27 94.1189 34.2258 100.141 43.1395 100.141C44.3379 100.141 45.5032 100.033 46.6271 99.826C46.7045 99.8887 49.5965 102.204 54.6497 102.988C55.4538 103.113 56.0633 102.217 55.7218 101.424L55.1779 100.16Z" fill="#ECCD61"/>
<path d="M86.8605 51.1432C85.7769 51.1432 84.7205 51.0546 83.697 50.8849C83.4955 50.8515 83.2903 50.8957 83.1241 51.0145C82.3189 51.5898 79.5982 53.3312 75.3502 53.9905C75.1597 54.0201 74.9806 53.9908 74.822 53.9206L74.2781 55.184C73.9365 55.9774 74.546 56.8733 75.3501 56.7485C80.4034 55.9643 83.2954 53.6488 83.3727 53.5863C84.4967 53.7928 85.6619 53.9013 86.8604 53.9013C95.7741 53.9012 103 47.8792 103 40.4506C103 39.985 102.971 39.525 102.916 39.0717C102.088 45.8523 95.2155 51.1432 86.8605 51.1432Z" fill="#ECCD61"/>
<path d="M41.0241 49.619C40.2745 49.619 39.667 49.9814 39.667 50.4284V52.4287C39.667 52.8757 40.2747 53.2381 41.0241 53.2381C41.7736 53.2381 42.3813 52.8757 42.3813 52.4287V50.4284C42.3813 49.9814 41.7737 49.619 41.0241 49.619Z" fill="#5E6B75"/>
<path d="M53.6906 49.619C52.9412 49.619 52.3335 49.9814 52.3335 50.4284V52.4287C52.3335 52.8757 52.9412 53.2381 53.6906 53.2381C54.4402 53.2381 55.0478 52.8757 55.0478 52.4287V50.4284C55.0478 49.9814 54.4402 49.619 53.6906 49.619Z" fill="#5E6B75"/>
<path d="M79.8974 85.7195C79.2615 85.7195 78.7461 86.2349 78.7461 86.8708V89.648C78.7461 90.2839 79.2616 90.7993 79.8974 90.7993C80.5333 90.7993 81.0487 90.2839 81.0487 89.648V86.8708C81.0487 86.2349 80.5331 85.7195 79.8974 85.7195Z" fill="#5E6B75"/>
<path d="M91.9291 85.7195C91.2934 85.7195 90.7778 86.2349 90.7778 86.8708V89.648C90.7778 90.2839 91.2934 90.7993 91.9291 90.7993C92.565 90.7993 93.0804 90.2839 93.0804 89.648V86.8708C93.0804 86.2349 92.565 85.7195 91.9291 85.7195Z" fill="#5E6B75"/>
<path d="M79.2987 38.1613H95.4305C96.0664 38.1613 96.5818 37.646 96.5818 37.01C96.5818 36.3741 96.0662 35.8588 95.4305 35.8588H79.2987C78.6628 35.8588 78.1475 36.3741 78.1475 37.01C78.1475 37.646 78.6628 38.1613 79.2987 38.1613Z" fill="#DC4955"/>
<path d="M79.2987 45.1151H88.5869C89.2228 45.1151 89.7382 44.5997 89.7382 43.9638C89.7382 43.3279 89.2227 42.8125 88.5869 42.8125H79.2987C78.6628 42.8125 78.1475 43.3279 78.1475 43.9638C78.1475 44.5997 78.6628 45.1151 79.2987 45.1151Z" fill="#DC4955"/>
<path d="M35.4887 84.4868H51.6204C52.2562 84.4868 52.7717 83.9714 52.7717 83.3355C52.7717 82.6996 52.2562 82.1842 51.6204 82.1842H35.4887C34.8528 82.1842 34.3374 82.6996 34.3374 83.3355C34.3374 83.9712 34.8529 84.4868 35.4887 84.4868Z" fill="#DC4955"/>
<path d="M35.4887 91.4405H44.7769C45.4126 91.4405 45.9281 90.9251 45.9281 90.2892C45.9281 89.6533 45.4126 89.1379 44.7769 89.1379H35.4887C34.8528 89.1379 34.3374 89.6533 34.3374 90.2892C34.3374 90.9251 34.8529 91.4405 35.4887 91.4405Z" fill="#DC4955"/>
<path d="M49.0355 57.9412C48.9958 58.0222 48.6105 57.8291 47.3041 57.8291C45.9977 57.8291 45.6123 58.0222 45.5727 57.9412C44.9562 56.4585 42.8021 57.3693 43.4533 58.8514C43.7889 59.6646 44.9776 60.1363 47.3041 60.1363C49.6305 60.1363 50.8192 59.6646 51.1549 58.8514C51.806 57.3693 49.6519 56.4586 49.0355 57.9412Z" fill="#DC4955"/>
<path d="M87.6163 94.1712C87.5779 94.2494 87.2042 94.0307 85.9378 94.0307C84.6712 94.0307 84.2975 94.2492 84.2591 94.171C83.5882 92.8483 81.6276 93.6778 82.1234 95.0894C82.1347 95.1142 82.1456 95.1394 82.1577 95.1638C82.5294 95.9768 83.7023 96.356 85.9378 96.356C88.1732 96.356 89.3461 95.9768 89.7179 95.1638C89.7299 95.1394 89.7407 95.1142 89.7522 95.0894C90.2478 93.6778 88.2872 92.8484 87.6163 94.1712Z" fill="#DC4955"/>
</g>
<defs>
<clipPath id="clip0">
<rect width="76" height="76" fill="white" transform="translate(27 27)"/>
</clipPath>
</defs>
</svg>
