<svg width="48" height="42" viewBox="0 0 48 42" fill="none" xmlns="http://www.w3.org/2000/svg">
<path d="M31.3836 2.62174C31.3077 2.56383 30.6047 2.04087 29.3524 1.53765C27.7392 0.88927 25.888 0.546539 23.9993 0.546539C22.1105 0.546539 20.2595 0.88927 18.646 1.53765C17.3938 2.04087 16.6908 2.56383 16.6148 2.62183C16.2336 2.91259 16.0098 3.36466 16.0098 3.84414V6.25577L17.5468 7.07788L19.084 6.25577V4.71457C19.9276 4.28406 21.6146 3.6207 23.9992 3.6207C26.3839 3.6207 28.0708 4.28406 28.9143 4.71457V6.25567L30.4514 7.07779L31.9886 6.25567V3.84414C31.9888 3.36457 31.765 2.9125 31.3836 2.62174Z" fill="#E8834D"/>
<path d="M16.0098 6.25577V7.95298L17.5469 8.7751L19.0841 7.95298V6.25577H16.0098Z" fill="#D66E41"/>
<path d="M31.9893 6.25577H28.915V7.95298L30.4522 8.77509L31.9893 7.95298V6.25577Z" fill="#D66E41"/>
<path d="M1.8252 24.8627V38.5182C1.8252 40.1394 3.13939 41.4536 4.76051 41.4536H43.239C44.8601 41.4536 46.1743 40.1394 46.1743 38.5182V24.8627H1.8252Z" fill="#365E7D"/>
<path d="M1.8252 23.1655V24.8628C4.26377 26.799 10.7088 30.5576 23.9998 30.5576C37.2907 30.5576 43.7357 26.799 46.1743 24.8627V23.1654H1.8252V23.1655Z" fill="#2B4D66"/>
<path d="M1.69787 22.188C4.03496 24.0907 10.471 27.9852 23.9999 27.9852C37.5287 27.9852 43.9647 24.0907 46.3018 22.188C46.9869 21.6302 47.3845 19.9723 47.3845 19.0889V10.8883C47.3845 9.26717 46.0703 7.95297 44.4492 7.95297H3.55055C1.92943 7.95297 0.615234 9.26717 0.615234 10.8883V19.0889C0.615234 19.9723 1.01277 21.6302 1.69787 22.188Z" fill="#407093"/>
<path d="M46.3018 21.3659C43.9647 23.2687 37.5287 27.1631 23.9999 27.1631C10.471 27.1631 4.03505 23.2686 1.69787 21.3659C1.01277 20.8082 0.615234 19.9723 0.615234 19.0889V20.7862C0.615234 21.6696 1.01277 22.5055 1.69787 23.0632C4.03496 24.966 10.471 28.8604 23.9999 28.8604C37.5287 28.8604 43.9647 24.966 46.3018 23.0632C46.9869 22.5055 47.3845 21.6696 47.3845 20.7862V19.0889C47.3845 19.9723 46.9869 20.8082 46.3018 21.3659Z" fill="#365E7D"/>
<path d="M23.9995 31.6852C25.5181 31.6852 26.749 30.5576 26.749 28.1136V26.4465C26.749 25.9061 26.3109 25.4681 25.7706 25.4681H22.2284C21.688 25.4681 21.25 25.9062 21.25 26.4465V28.1138C21.2499 30.5576 22.481 31.6852 23.9995 31.6852Z" fill="#FFE27A"/>
<path d="M23.9995 30.8631C22.481 30.8631 21.25 29.6321 21.25 28.1136V29.8109C21.25 31.3294 22.481 32.5604 23.9995 32.5604C25.5181 32.5604 26.749 31.3294 26.749 29.8109V28.1136C26.749 29.632 25.5181 30.8631 23.9995 30.8631Z" fill="#F9CF58"/>
</svg>
