<svg width="354" height="227" viewBox="0 0 354 227" fill="none" xmlns="http://www.w3.org/2000/svg">
<rect width="354" height="227" fill="white"/>
<g opacity="0.2" clip-path="url(#clip0)">
<path d="M206.682 55.1242C206.377 54.8914 203.551 52.7892 198.517 50.7664C192.032 48.1601 184.591 46.7824 176.999 46.7824C169.407 46.7824 161.966 48.1601 155.48 50.7664C150.447 52.7892 147.621 54.8914 147.316 55.1245C145.783 56.2933 144.883 58.1105 144.883 60.0379V69.732L151.062 73.0367L157.241 69.732V63.5368C160.632 61.8063 167.413 59.1397 176.999 59.1397C186.584 59.1397 193.365 61.8063 196.756 63.5368V69.7316L202.935 73.0363L209.114 69.7316V60.0379C209.115 58.1101 208.215 56.2929 206.682 55.1242Z" fill="#98A9BC"/>
<path d="M144.883 69.7321V76.5544L151.062 79.8591L157.241 76.5544V69.7321H144.883Z" fill="#647D97"/>
<path d="M209.114 69.7321H196.756V76.5544L202.935 79.8591L209.114 76.5544V69.7321Z" fill="#647D97"/>
<path d="M87.8643 144.527V199.419C87.8643 205.935 93.147 211.218 99.6635 211.218H254.337C260.853 211.218 266.136 205.935 266.136 199.419V144.527H87.8643Z" fill="#365E7D"/>
<path d="M87.8643 137.705V144.527C97.6667 152.31 123.574 167.419 177 167.419C230.426 167.419 256.334 152.31 266.136 144.527V137.704H87.8643V137.705Z" fill="#2B4D66"/>
<path d="M87.3519 133.775C96.7464 141.424 122.618 157.078 177 157.078C231.382 157.078 257.253 141.424 266.648 133.775C269.402 131.533 271 124.869 271 121.318V88.3535C271 81.837 265.717 76.5543 259.201 76.5543H94.7992C88.2827 76.5543 83 81.837 83 88.3535V121.318C83 124.869 84.598 131.533 87.3519 133.775Z" fill="#407093"/>
<path d="M266.648 130.471C257.254 138.119 231.382 153.774 177 153.774C122.618 153.774 96.7468 138.119 87.3519 130.471C84.598 128.229 83 124.869 83 121.318V128.141C83 131.692 84.598 135.051 87.3519 137.293C96.7464 144.942 122.618 160.597 177 160.597C231.382 160.597 257.253 144.942 266.648 137.293C269.402 135.051 271 131.692 271 128.141V121.318C271 124.869 269.402 128.229 266.648 130.471Z" fill="#365E7D"/>
<path d="M176.998 171.952C183.103 171.952 188.051 167.419 188.051 157.595V150.893C188.051 148.721 186.29 146.96 184.118 146.96H169.879C167.707 146.96 165.946 148.721 165.946 150.893V157.596C165.946 167.419 170.894 171.952 176.998 171.952Z" fill="#FFE27A"/>
<path d="M176.998 168.647C170.894 168.647 165.946 163.699 165.946 157.595V164.417C165.946 170.521 170.894 175.47 176.998 175.47C183.103 175.47 188.051 170.521 188.051 164.417V157.595C188.051 163.698 183.103 168.647 176.998 168.647Z" fill="#F9CF58"/>
</g>
<defs>
<clipPath id="clip0">
<rect width="188" height="188" fill="white" transform="translate(83 35)"/>
</clipPath>
</defs>
</svg>
