<svg width="150" height="45" viewBox="0 0 150 45" fill="none" xmlns="http://www.w3.org/2000/svg">
<path fill-rule="evenodd" clip-rule="evenodd" d="M125.486 0C138.782 0 149.561 10.074 149.561 22.5003C149.561 34.9266 138.782 45.0006 125.486 45.0006C112.189 45.0006 101.41 34.9266 101.41 22.5003C101.41 10.074 112.189 0 125.486 0Z" fill="#03A9F4"/>
<path d="M149.561 36.0525C149.561 36.7103 149.361 37.0395 148.953 37.0395H144.133C143.725 37.0395 142.666 35.5513 140.957 32.583C139.52 30.0653 138.561 28.256 138.082 27.1402C137.61 26.0602 137.331 25.4665 137.267 25.3376C136.844 24.6367 136.358 24.2724 135.8 24.2293C135.635 24.2151 135.171 24.2077 134.406 24.2077C132.653 24.2077 131.773 24.4222 131.773 24.8587C131.773 26.1391 131.816 28.0631 131.902 30.6165C131.988 33.1699 132.031 35.0797 132.031 36.3453C132.031 36.8101 131.86 37.0395 131.509 37.0395C131.244 37.0395 130.844 37.0179 130.314 36.9747C129.785 36.9322 129.392 36.9106 129.127 36.9106C128.876 36.9106 128.505 36.9322 128.004 36.9747C127.51 37.0179 127.139 37.0395 126.888 37.0395C126.538 37.0395 126.366 36.8816 126.366 36.5598C126.366 35.0224 126.438 32.7118 126.581 29.6295C126.724 26.554 126.795 24.2434 126.795 22.706C126.795 21.0896 126.724 18.6502 126.581 15.4033C126.438 12.1557 126.366 9.72441 126.366 8.10062C126.366 7.793 126.538 7.64256 126.888 7.64256C127.139 7.64256 127.525 7.66415 128.04 7.70732C128.555 7.74982 128.941 7.77141 129.206 7.77141C129.456 7.77141 129.835 7.74982 130.336 7.70732C130.836 7.66415 131.215 7.64256 131.466 7.64256C131.787 7.64256 131.945 7.77141 131.945 8.02169C131.945 9.20901 131.909 10.9974 131.838 13.3862C131.766 15.775 131.731 17.5702 131.731 18.7716C131.731 19.3154 131.766 19.6588 131.838 19.795C131.945 20.0453 132.231 20.1742 132.696 20.1742C135.4 20.1742 137.381 19.6729 138.639 18.6644C139.713 17.7705 140.735 16.1326 141.694 13.7438C142.395 11.8697 143.088 9.99628 143.789 8.12221C143.889 7.8861 144.104 7.72891 144.44 7.64256C144.669 7.58589 145.406 7.55688 146.672 7.55688C148.209 7.55688 148.982 7.77883 148.982 8.20789C148.982 8.45817 148.66 9.59556 148.016 11.6052C147.266 13.9515 146.293 16.0185 145.091 17.8063C144.297 19.0226 143.246 20.2457 141.93 21.4755C141.593 21.7689 141.429 22.0408 141.429 22.2769C141.429 22.5272 141.994 23.7712 143.124 26.0102C144.097 27.9558 144.984 29.5148 145.778 30.688C146.658 31.7606 147.88 33.4202 149.454 35.6518C149.525 35.7806 149.561 35.9088 149.561 36.0525Z" fill="#FEFEFE"/>
<path d="M128.689 22.3054C128.689 26.4536 127.359 30.023 124.705 33.0129C121.944 36.1093 118.504 37.6616 114.399 37.6616C110.279 37.6616 106.838 36.1168 104.092 33.0338C101.439 30.0587 100.108 26.4826 100.108 22.3054C100.108 18.1788 101.453 14.6094 104.135 11.6054C106.896 8.49409 110.321 6.93506 114.399 6.93506C118.49 6.93506 121.923 8.49409 124.684 11.6054C127.351 14.5953 128.689 18.164 128.689 22.3054ZM123.625 22.2481C123.625 19.5092 122.774 17.1271 121.072 15.0958C119.284 12.9432 117.045 11.8698 114.349 11.8698C111.681 11.8698 109.456 12.9573 107.682 15.139C106.009 17.177 105.172 19.5732 105.172 22.3054C105.172 25.0309 106.009 27.4197 107.682 29.4577C109.456 31.6394 111.681 32.7268 114.349 32.7268C117.052 32.7268 119.305 31.6394 121.093 29.4577C122.781 27.4197 123.625 25.0093 123.625 22.2481Z" fill="#FEFEFE"/>
<path d="M19.3114 16.6495C19.3114 17.6958 19.1293 18.7199 18.7643 19.723C18.394 20.7208 17.8738 21.5633 17.1925 22.2447C16.2595 23.1669 15.224 23.859 14.0765 24.3313C12.9337 24.8028 11.5069 25.0389 9.80077 25.0389H6.05127V32.6674H0V9.26855H9.92962C11.4205 9.26855 12.6706 9.39673 13.6953 9.65443C14.7146 9.91213 15.6213 10.2926 16.4045 10.808C17.3483 11.4246 18.0675 12.2186 18.566 13.1786C19.0652 14.1446 19.3114 15.2976 19.3114 16.6495ZM13.0355 16.7945C13.0355 16.1347 12.8581 15.5714 12.5046 15.0938C12.1504 14.6216 11.7423 14.289 11.2761 14.1015C10.6481 13.8492 10.0423 13.7102 9.45199 13.6832C8.85698 13.6562 8.06836 13.6454 7.0814 13.6454H6.05127V20.6297H7.76748C8.78682 20.6297 9.62402 20.5656 10.2838 20.4421C10.9436 20.3187 11.4961 20.0664 11.9467 19.6913C12.3272 19.3587 12.6065 18.956 12.7778 18.4945C12.9499 18.0284 13.0355 17.4597 13.0355 16.7945Z" fill="white"/>
<path d="M41.3214 23.8537C41.3214 26.7559 40.4734 29.0408 38.7842 30.7091C37.0889 32.3775 34.7122 33.2146 31.6495 33.2146C28.5867 33.2146 26.2101 32.3775 24.5148 30.7091C22.8255 29.0408 21.9775 26.7559 21.9775 23.8537C21.9775 20.9353 22.8309 18.645 24.531 16.9767C26.2371 15.3138 28.6076 14.4827 31.6495 14.4827C34.7338 14.4827 37.1159 15.3192 38.795 16.9929C40.4788 18.672 41.3214 20.9569 41.3214 23.8537ZM34.3587 28.1287C34.7284 27.6788 35.0023 27.1418 35.1899 26.509C35.372 25.8762 35.4638 25.0019 35.4638 23.8861C35.4638 22.856 35.3673 21.9871 35.1791 21.2895C34.9915 20.592 34.7284 20.0341 34.3904 19.6158C34.0579 19.1867 33.6504 18.8865 33.1782 18.7091C32.7066 18.5324 32.1966 18.4413 31.6495 18.4413C31.1024 18.4413 30.6193 18.5162 30.1903 18.6612C29.7666 18.8063 29.3592 19.0957 28.9726 19.5355C28.6238 19.943 28.3452 20.5009 28.1415 21.2092C27.9378 21.9223 27.8352 22.8128 27.8352 23.8861C27.8352 24.8461 27.927 25.6779 28.1037 26.3855C28.2805 27.0885 28.5436 27.6518 28.8923 28.0808C29.2303 28.4883 29.627 28.7838 30.0992 28.9713C30.5661 29.1589 31.097 29.2553 31.6981 29.2553C32.2128 29.2553 32.7012 29.1697 33.1728 28.9983C33.6396 28.8263 34.0369 28.5369 34.3587 28.1287Z" fill="white"/>
<path d="M63.8029 23.6122C63.8029 26.3855 63.0359 28.6495 61.4964 30.3981C59.9623 32.1467 58.0417 33.021 55.746 33.021C54.759 33.021 53.8949 32.9137 53.1494 32.7046C52.404 32.49 51.6956 32.1844 51.0251 31.7871L50.789 32.6675H45.3604V8.20605H51.0251V16.8748C51.894 16.1827 52.7845 15.6194 53.6911 15.1903C54.5978 14.7613 55.6441 14.5467 56.8294 14.5467C59.0664 14.5467 60.7881 15.3515 61.9949 16.9605C63.2018 18.5647 63.8029 20.7855 63.8029 23.6122ZM57.9452 23.7248C57.9452 22.153 57.6767 20.9461 57.1458 20.0988C56.6095 19.2515 55.6597 18.8271 54.2868 18.8271C53.7559 18.8271 53.2088 18.9081 52.6401 19.0686C52.0768 19.2353 51.5405 19.466 51.0251 19.7716V28.6225C51.4332 28.7675 51.8191 28.8694 52.1841 28.9173C52.5537 28.9713 52.9943 28.9982 53.5036 28.9982C54.9999 28.9982 56.1157 28.5584 56.8456 27.6787C57.5803 26.7983 57.9452 25.4842 57.9452 23.7248Z" fill="white"/>
<path d="M75.8189 26.3909L79.8261 15.0298H85.6621L75.8668 39.1364H69.7036L72.5201 32.5009L65.6748 15.0298H71.6188L75.8189 26.3909Z" fill="white"/>
<path d="M100.108 32.5169C99.5015 32.6781 98.8525 32.8009 98.1712 32.8872C97.4898 32.9783 96.6533 33.0208 95.6663 33.0208C93.4617 33.0208 91.8197 32.5756 90.7471 31.6851C89.669 30.7946 89.1327 29.2713 89.1327 27.1099V18.8594H86.8154V15.0296H89.1327V9.97607H94.7974V15.0296H100.108V18.8594H94.7974V25.1252C94.7974 25.7472 94.8028 26.2889 94.813 26.7503C94.8238 27.2117 94.9101 27.6246 95.0653 27.995C95.2103 28.3593 95.4727 28.6547 95.8431 28.8693C96.2189 29.0838 96.7606 29.1911 97.4736 29.1911C97.7691 29.1911 98.155 29.1263 98.6326 28.9981C99.1102 28.8693 99.4482 28.7512 99.6358 28.6439H100.108V32.5169Z" fill="white"/>
</svg>
