<svg width="16" height="16" viewBox="0 0 16 16" fill="none" xmlns="http://www.w3.org/2000/svg">
<g clip-path="url(#clip0)">
<path d="M15.7313 7.15253L8.55261 0.611355C8.23752 0.324199 7.76236 0.324231 7.44739 0.611324L0.268688 7.15256C0.0162826 7.38256 -0.0670923 7.73693 0.05622 8.05534C0.179564 8.37375 0.479875 8.57946 0.821344 8.57946H1.9679V15.1332C1.9679 15.3931 2.17859 15.6038 2.43843 15.6038H6.37324C6.63308 15.6038 6.84377 15.3931 6.84377 15.1332V11.154H9.15633V15.1333C9.15633 15.3931 9.36701 15.6038 9.62686 15.6038H13.5615C13.8213 15.6038 14.032 15.3931 14.032 15.1333V8.57946H15.1788C15.5202 8.57946 15.8206 8.37371 15.9439 8.05534C16.0671 7.7369 15.9837 7.38256 15.7313 7.15253Z" fill="#77CCF9"/>
<path d="M13.909 1.33545H10.749L14.3795 4.63657V1.80595C14.3795 1.54611 14.1689 1.33545 13.909 1.33545Z" fill="#77CCF9"/>
</g>
<defs>
<clipPath id="clip0">
<rect width="16" height="16" fill="white"/>
</clipPath>
</defs>
</svg>
