<svg width="46" height="46" viewBox="0 0 46 46" fill="none" xmlns="http://www.w3.org/2000/svg">
<g opacity="0.5">
<path d="M15.0901 14.0436L10.4123 14.0502L10.3994 6.16722C10.3991 5.94665 10.5777 5.76768 10.7981 5.76732L14.6774 5.76193C14.898 5.76166 15.0769 5.94018 15.0773 6.16066L15.0901 14.0436Z" fill="#FFB125"/>
<path d="M15.0771 6.16063C15.0769 5.94006 14.8978 5.76154 14.6773 5.7619L12.3644 5.76514C12.5695 5.78167 12.7315 5.95129 12.7318 6.16063L12.7446 14.0435L10.4121 14.0467V14.05L15.09 14.0434L15.0771 6.16063Z" fill="#FF901D"/>
<path d="M22.8256 5.61899L10.2949 17.4233L10.32 35.3685C10.3206 35.8419 10.705 36.2251 11.1784 36.2245L34.5582 36.1919C35.0315 36.1912 35.4147 35.8069 35.4141 35.3335L35.389 17.3882L22.8256 5.61899Z" fill="white"/>
<path d="M35.3894 17.3882L22.826 5.61899L20.7598 7.56545L31.2454 17.3881L31.2705 35.3334C31.2711 35.8068 30.8879 36.1911 30.4145 36.1918H34.5586C35.032 36.1911 35.4152 35.8068 35.4145 35.3334L35.3894 17.3882Z" fill="#CCDFED"/>
<path d="M39.8093 21.3425C39.3863 21.3431 38.9622 21.1889 38.6292 20.8769L22.8258 6.0727L7.06389 20.921C6.37119 21.5736 5.28049 21.541 4.62814 20.8483C3.97551 20.1556 4.00804 19.0651 4.70082 18.4125L21.6409 2.45425C22.3032 1.83029 23.3365 1.82885 24.0006 2.45093L40.9852 18.3618C41.6798 19.0123 41.7154 20.1029 41.0646 20.7973C40.726 21.1588 40.2683 21.3418 39.8093 21.3425Z" fill="#FF4C4C"/>
<path d="M41.0647 18.7249C40.7261 19.0862 40.2683 19.2693 39.8092 19.2699C39.3862 19.2705 38.9622 19.1163 38.6291 18.8043L22.8258 4.00012L7.06392 18.8483C6.37122 19.5009 5.28052 19.4683 4.62817 18.7756C4.5845 18.7294 4.54452 18.681 4.50697 18.6314C4.01049 19.2895 4.04373 20.228 4.62817 20.8482C5.28052 21.5409 6.37122 21.5735 7.06392 20.9209L22.8258 6.07272L38.6291 20.8769C38.9622 21.1889 39.3863 21.3431 39.8092 21.3425C40.2683 21.3419 40.7261 21.1588 41.0647 20.7975C41.6461 20.1768 41.678 19.2407 41.1827 18.5842C41.1463 18.6325 41.1071 18.6796 41.0647 18.7249Z" fill="#F33939"/>
<path d="M26.0672 20.413L19.6256 20.422C19.3234 20.4224 19.0787 20.6678 19.0791 20.97L19.1004 36.2134L26.6366 36.2029L26.6153 20.9595C26.6148 20.6572 26.3695 20.4125 26.0672 20.413Z" fill="#2D5871"/>
<path d="M26.6152 20.9594C26.6147 20.6572 26.3694 20.4124 26.0671 20.4129L22.4277 20.418C22.6497 20.4874 22.8111 20.6945 22.8115 20.9395L22.8327 36.2081L26.6365 36.2028L26.6152 20.9594Z" fill="#1D4859"/>
<path d="M42.5039 28.5085L33.0094 34.8627L30.1798 34.704L30.069 33.5902C29.9042 31.9323 28.6277 30.6017 26.978 30.3683L19.3967 29.4954C17.6478 29.2479 15.9639 28.6619 14.4394 27.77C12.3579 26.5524 9.98988 25.9106 7.57839 25.9106H2.1123V38.3875L16.5588 43.8582C17.1048 44.0124 17.6782 44.0585 18.2385 43.97C18.2418 43.9694 18.2453 43.9689 18.2486 43.9684L32.7928 41.8719C33.9133 41.693 34.9666 41.221 35.8459 40.5039L45.246 32.0495C46.0897 31.3004 46.2461 30.0414 45.6113 29.1087C44.9169 28.0882 43.5285 27.8201 42.5039 28.5085Z" fill="#FED9A8"/>
<path d="M45.7353 29.3161L36.4441 37.1371C35.5648 37.8543 34.103 38.3262 32.9826 38.5051L18.2487 39.5583C18.2453 39.5589 18.2419 39.5594 18.2386 39.5599C17.6782 39.6485 17.1048 39.6023 16.5589 39.4482L2.1123 33.9775V38.3877L16.5588 43.8583C16.8317 43.9354 17.1116 43.9855 17.3933 44.0052C17.4637 44.0102 17.5342 44.0132 17.6048 44.0143C17.8164 44.0175 18.0284 44.0033 18.2385 43.9701C18.2418 43.9696 18.2452 43.969 18.2486 43.9685L32.7928 41.872C33.1429 41.8161 33.4866 41.7315 33.8203 41.6199C33.887 41.5975 33.9534 41.5741 34.0194 41.5496C34.3491 41.4272 34.6683 41.2777 34.9738 41.103C35.0349 41.0681 35.0954 41.0321 35.1554 40.9951C35.3953 40.8472 35.626 40.6833 35.8459 40.5039L45.246 32.0496C46.0287 31.3546 46.2187 30.2212 45.7353 29.3161Z" fill="#F4C892"/>
<path d="M31.2815 34.7677L15.2774 34.1273C15.2011 34.1243 15.1267 34.1018 15.0614 34.062L14.2113 33.5442C13.7979 33.2923 14.0195 32.6547 14.5 32.7136L31.2815 34.7677Z" fill="#F4C892"/>
<path d="M3.9542 42.6257H1.79148C0.802034 42.6257 0 41.8235 0 40.8342V24.8295C0 23.8401 0.802123 23.0381 1.79148 23.0381H3.9542C4.94364 23.0381 5.74568 23.8402 5.74568 24.8295V40.8342C5.74568 41.8236 4.94364 42.6257 3.9542 42.6257Z" fill="#2D5871"/>
<path d="M3.9543 23.0381H1.79159C1.66994 23.0381 1.55134 23.0505 1.43652 23.0735C2.25581 23.2383 2.87294 23.9617 2.87294 24.8295V40.8342C2.87294 41.702 2.25581 42.4254 1.43652 42.5902C1.55134 42.6133 1.67003 42.6257 1.79159 42.6257H3.9543C4.94375 42.6257 5.74578 41.8235 5.74578 40.8342V24.8295C5.74578 23.8402 4.94375 23.0381 3.9543 23.0381Z" fill="#1D4859"/>
</g>
</svg>
