<svg width="22" height="22" viewBox="0 0 22 22" fill="none" xmlns="http://www.w3.org/2000/svg">
<path d="M18.7773 0H3.22266C1.44583 0 0 1.44583 0 3.22266V18.7773C0 20.5542 1.44583 22 3.22266 22H18.7773C20.5542 22 22 20.5542 22 18.7773V3.22266C22 1.44583 20.5542 0 18.7773 0ZM11.043 16.7578C7.84431 16.7578 5.24219 14.1557 5.24219 10.957C5.24219 7.75838 7.84431 5.15625 11.043 5.15625C14.2416 5.15625 16.8438 7.75838 16.8438 10.957C16.8438 14.1557 14.2416 16.7578 11.043 16.7578ZM17.4883 6.44531C16.4221 6.44531 15.5547 5.57788 15.5547 4.51172C15.5547 3.44556 16.4221 2.57812 17.4883 2.57812C18.5544 2.57812 19.4219 3.44556 19.4219 4.51172C19.4219 5.57788 18.5544 6.44531 17.4883 6.44531Z" fill="white"/>
<path d="M17.4883 3.86719C17.1326 3.86719 16.8438 4.15605 16.8438 4.51172C16.8438 4.86739 17.1326 5.15625 17.4883 5.15625C17.8439 5.15625 18.1328 4.86739 18.1328 4.51172C18.1328 4.15605 17.8439 3.86719 17.4883 3.86719Z" fill="white"/>
<path d="M11.043 6.44531C8.55548 6.44531 6.53125 8.46954 6.53125 10.957C6.53125 13.4445 8.55548 15.4688 11.043 15.4688C13.5305 15.4688 15.5547 13.4445 15.5547 10.957C15.5547 8.46954 13.5305 6.44531 11.043 6.44531Z" fill="white"/>
</svg>
