<svg width="130" height="130" viewBox="0 0 130 130" fill="none" xmlns="http://www.w3.org/2000/svg">
<rect width="130" height="130" rx="65" fill="#ADD9F4"/>
<g clip-path="url(#clip0)">
<path d="M27 31.0616V98.9383C27 101.173 28.8117 102.985 31.0466 102.985H82.7163C84.9512 102.985 86.7629 101.173 86.7629 98.9383V44.8611L68.917 27.015H31.0466C28.8117 27.015 27 28.8267 27 31.0616H27Z" fill="white"/>
<path d="M72.8145 30.9125V47.688C72.8145 49.3766 74.1833 50.7455 75.872 50.7455H78.7132V102.985H82.7164C84.9513 102.985 86.763 101.173 86.763 98.9384V44.8611L72.8145 30.9125Z" fill="#D3D7DE"/>
<path d="M68.917 27.015L86.763 44.8611H71.9745C70.2859 44.8611 68.917 43.4922 68.917 41.8035V27.015Z" fill="#DF705D"/>
<path d="M57.5142 38.4605H34.4134C33.78 38.4605 33.2666 37.9471 33.2666 37.3137C33.2666 36.6803 33.78 36.1669 34.4134 36.1669H57.5142C58.1476 36.1669 58.661 36.6803 58.661 37.3137C58.6611 37.9469 58.1477 38.4605 57.5142 38.4605Z" fill="#676E84"/>
<path d="M57.5142 46.008H34.4134C33.78 46.008 33.2666 45.4946 33.2666 44.8612C33.2666 44.2278 33.78 43.7144 34.4134 43.7144H57.5142C58.1476 43.7144 58.661 44.2278 58.661 44.8612C58.6611 45.4946 58.1477 46.008 57.5142 46.008Z" fill="#676E84"/>
<path d="M101.701 69.7704C99.738 68.7928 96.0372 66.5052 95.1556 62.8221C94.926 61.8626 94.0652 61.1876 93.0785 61.1876H74.1701C73.1835 61.1876 72.3227 61.8624 72.093 62.8221C71.2115 66.5052 67.5106 68.793 65.5477 69.7704C64.7562 70.1645 64.2501 70.9677 64.2486 71.852C64.2407 76.569 65.6425 91.2513 82.2086 102.549C83.0612 103.13 84.1874 103.13 85.0401 102.549C101.606 91.2513 103.008 76.5692 103 71.852C102.999 70.9677 102.492 70.1647 101.701 69.7704Z" fill="#759CE7"/>
<path d="M103 71.852C102.999 70.9677 102.492 70.1647 101.701 69.7704C99.7379 68.7928 96.0371 66.5052 95.1555 62.8221C94.9259 61.8626 94.0651 61.1876 93.0784 61.1876H86.9137C86.9137 65.837 91.4128 68.6558 93.6513 69.7706C94.4461 70.1665 94.949 70.974 94.9501 71.8621C94.9557 76.3285 93.6961 89.6676 79.5991 100.648C80.4241 101.29 81.2931 101.925 82.2084 102.549C83.061 103.13 84.1872 103.13 85.0398 102.549C101.606 91.2513 103.008 76.5692 103 71.852Z" fill="#5881CC"/>
<path d="M83.1848 89.6135C82.8785 89.6135 82.5839 89.4909 82.3678 89.2714L76.944 83.7644C76.4996 83.3131 76.5051 82.587 76.9563 82.1425C77.4077 81.698 78.1337 81.7036 78.5782 82.1549L83.0777 86.7235L93.0799 73.7028C93.466 73.2007 94.1858 73.1063 94.6881 73.4919C95.1904 73.8778 95.2848 74.5978 94.899 75.1001L84.0944 89.1653C83.8924 89.4283 83.5863 89.591 83.2553 89.6113C83.2315 89.6128 83.2082 89.6135 83.1848 89.6135Z" fill="#EAECF0"/>
</g>
<defs>
<clipPath id="clip0">
<rect width="76" height="76" fill="white" transform="translate(27 27)"/>
</clipPath>
</defs>
</svg>
