<svg width="76" height="76" viewBox="0 0 76 76" fill="none" xmlns="http://www.w3.org/2000/svg">
<path d="M0 4.06157V71.9383C0 74.1732 1.81168 75.9849 4.04655 75.9849H55.7163C57.9512 75.9849 59.7629 74.1732 59.7629 71.9383V17.8611L41.917 0.0150146H4.04655C1.81168 0.0150146 0 1.82669 0 4.06157H0Z" fill="white"/>
<path d="M45.8145 3.91248V20.688C45.8145 22.3766 47.1833 23.7455 48.872 23.7455H51.7132V75.985H55.7164C57.9513 75.985 59.763 74.1733 59.763 71.9384V17.8611L45.8145 3.91248Z" fill="#D3D7DE"/>
<path d="M41.917 0.0150146L59.763 17.8611H44.9745C43.2859 17.8611 41.917 16.4922 41.917 14.8035V0.0150146Z" fill="#DF705D"/>
<path d="M30.5142 11.4605H7.41343C6.78005 11.4605 6.2666 10.9471 6.2666 10.3137C6.2666 9.68032 6.78005 9.16687 7.41343 9.16687H30.5142C31.1476 9.16687 31.661 9.68032 31.661 10.3137C31.6611 10.9469 31.1477 11.4605 30.5142 11.4605Z" fill="#676E84"/>
<path d="M30.5142 19.008H7.41343C6.78005 19.008 6.2666 18.4946 6.2666 17.8612C6.2666 17.2278 6.78005 16.7144 7.41343 16.7144H30.5142C31.1476 16.7144 31.661 17.2278 31.661 17.8612C31.6611 18.4946 31.1477 19.008 30.5142 19.008Z" fill="#676E84"/>
<path d="M74.701 42.7704C72.738 41.7928 69.0372 39.5052 68.1556 35.8221C67.926 34.8626 67.0652 34.1876 66.0785 34.1876H47.1701C46.1835 34.1876 45.3227 34.8624 45.093 35.8221C44.2115 39.5052 40.5106 41.793 38.5477 42.7704C37.7562 43.1645 37.2501 43.9677 37.2486 44.852C37.2407 49.569 38.6425 64.2513 55.2086 75.5488C56.0612 76.1303 57.1874 76.1303 58.0401 75.5488C74.6061 64.2513 76.008 49.5692 76.0001 44.852C75.9986 43.9677 75.4925 43.1647 74.701 42.7704Z" fill="#759CE7"/>
<path d="M76 44.852C75.9985 43.9677 75.4923 43.1647 74.7009 42.7704C72.7379 41.7928 69.0371 39.5052 68.1555 35.8221C67.9259 34.8626 67.0651 34.1876 66.0784 34.1876H59.9137C59.9137 38.837 64.4128 41.6558 66.6513 42.7706C67.4461 43.1665 67.949 43.974 67.9501 44.8621C67.9557 49.3285 66.6961 62.6676 52.5991 73.6477C53.4241 74.2902 54.2931 74.9248 55.2084 75.5488C56.061 76.1303 57.1872 76.1303 58.0398 75.5488C74.606 64.2513 76.0079 49.5692 76 44.852Z" fill="#5881CC"/>
<path d="M56.1848 62.6135C55.8785 62.6135 55.5839 62.4909 55.3678 62.2714L49.944 56.7644C49.4996 56.3131 49.5051 55.587 49.9563 55.1425C50.4077 54.698 51.1337 54.7036 51.5782 55.1549L56.0777 59.7235L66.0799 46.7028C66.466 46.2007 67.1858 46.1063 67.6881 46.4919C68.1904 46.8778 68.2848 47.5978 67.899 48.1001L57.0944 62.1653C56.8924 62.4283 56.5863 62.591 56.2553 62.6113C56.2315 62.6128 56.2082 62.6135 56.1848 62.6135Z" fill="#EAECF0"/>
</svg>
