<svg width="130" height="130" viewBox="0 0 130 130" fill="none" xmlns="http://www.w3.org/2000/svg">
<rect width="130" height="130" rx="65" fill="#ADD9F3"/>
<g clip-path="url(#clip0)">
<path d="M49.5591 71.2073C48.9082 76.0612 44.7531 79.8054 39.721 79.8054C34.6888 79.8054 30.5339 76.0612 29.8828 71.2073H49.5591Z" fill="#FECA57"/>
<path d="M48.9878 69.3009L40.4221 46.14C40.2024 45.546 40.5058 44.8862 41.1 44.6665C41.6939 44.4465 42.3539 44.7502 42.5736 45.3444L51.1393 68.5052C51.359 69.0993 51.0556 69.7591 50.4614 69.9788C49.8681 70.1983 49.2078 69.8955 48.9878 69.3009Z" fill="#CCD2DB"/>
<path d="M29.9047 69.9787C29.3106 69.759 29.0071 69.0992 29.2268 68.5051L37.7925 45.3443C38.0122 44.7502 38.6716 44.4464 39.266 44.6663C39.8601 44.886 40.1636 45.5458 39.944 46.1399L31.3782 69.3007C31.1585 69.8948 30.4987 70.1983 29.9047 69.9787Z" fill="#CCD2DB"/>
<path d="M79.5345 69.9773C78.9412 69.7554 78.6402 69.0944 78.8621 68.5012L87.4278 45.6006C87.6499 45.0073 88.3107 44.7064 88.9039 44.9282C89.4972 45.1501 89.7984 45.8111 89.5763 46.4042L81.0105 69.3049C80.7886 69.8982 80.1276 70.1991 79.5345 69.9773Z" fill="#CCD2DB"/>
<path d="M98.6231 69.3049L90.0574 46.4042C89.8355 45.8109 90.1365 45.1501 90.7298 44.9282C91.3233 44.7064 91.9839 45.0073 92.2059 45.6006L100.772 68.5012C100.994 69.0945 100.692 69.7554 100.099 69.9773C99.5063 70.1991 98.8452 69.8985 98.6231 69.3049Z" fill="#CCD2DB"/>
<path d="M42.0402 46.9619C41.4551 46.9619 40.9554 46.5163 40.8996 45.9221C40.8404 45.2914 41.3037 44.732 41.9344 44.6728C45.7457 44.3149 46.761 43.8811 61.8688 39.7373C62.4796 39.5698 63.1108 39.9291 63.2784 40.54C63.446 41.1508 63.0866 41.782 62.4756 41.9496C47.2884 46.1152 46.1576 46.5804 42.1489 46.9568C42.1124 46.9602 42.0761 46.9619 42.0402 46.9619Z" fill="#3E4B5A"/>
<path d="M88.2414 47.042C88.2055 47.042 88.1694 47.0403 88.1329 47.0369C83.9716 46.6461 82.858 46.1802 66.9982 41.8302C66.3874 41.6626 66.0279 41.0316 66.1954 40.4206C66.363 39.8098 66.9943 39.4504 67.605 39.6179C83.4872 43.9739 84.4409 44.3861 88.3474 44.7529C88.9781 44.8122 89.4414 45.3715 89.3821 46.0022C89.3263 46.5964 88.8265 47.042 88.2414 47.042Z" fill="#3E4B5A"/>
<path d="M64.9238 35.5841C65.7445 35.5841 66.5131 35.806 67.1745 36.1914V31.9354C67.1745 31.0771 66.4788 30.3812 65.6204 30.3812H64.227C63.3687 30.3812 62.6729 31.0771 62.6729 31.9354V36.1914C63.3346 35.8057 64.103 35.5841 64.9238 35.5841Z" fill="#C46F5F"/>
<path d="M67.1754 90.8599V43.9333C66.5139 44.3188 65.7453 44.5406 64.9246 44.5406C64.1039 44.5406 63.3353 44.3187 62.6738 43.9333V90.8599H67.1754Z" fill="#C46F5F"/>
<path d="M65.7036 31.9354C65.7036 31.3777 65.9982 30.8901 66.4395 30.6159C66.2017 30.4681 65.9219 30.3812 65.6214 30.3812H64.228C63.3697 30.3812 62.6738 31.0771 62.6738 31.9354V36.1914C63.3353 35.8057 64.1039 35.5841 64.9246 35.5841C65.1906 35.5841 65.4504 35.6098 65.7036 35.6543V31.9354Z" fill="#B45F4A"/>
<path d="M64.9246 44.5409C64.1039 44.5409 63.3353 44.3191 62.6738 43.9336V90.8602H65.7036V44.4705C65.4504 44.5152 65.1906 44.5409 64.9246 44.5409Z" fill="#B45F4A"/>
<path d="M78.563 66.5986H101.071C102.132 66.5986 103 67.4667 103 68.5279V69.2782C103 70.3393 102.132 71.2075 101.071 71.2075H78.563C77.502 71.2075 76.6338 70.3394 76.6338 69.2782V68.5279C76.6338 67.4667 77.502 66.5986 78.563 66.5986Z" fill="#F4B537"/>
<path d="M101.07 68.1488H78.563C77.9344 68.1488 77.3752 67.8427 77.0224 67.3737C76.7797 67.6964 76.6338 68.0954 76.6338 68.5278V69.2781C76.6338 70.3391 77.5018 71.2073 78.563 71.2073H101.07C102.131 71.2073 103 70.3393 103 69.2781V68.5278C103 68.0954 102.854 67.6962 102.611 67.3737C102.258 67.8427 101.699 68.1488 101.07 68.1488Z" fill="#E59D1F"/>
<path d="M100.117 71.2073C99.4658 76.0612 95.3108 79.8054 90.2786 79.8054C85.2464 79.8054 81.0915 76.0612 80.4404 71.2073H100.117Z" fill="#FECA57"/>
<path d="M34.4707 71.2073H29.8828C30.5339 76.0612 34.6888 79.8054 39.721 79.8054C40.5106 79.8054 41.2785 79.713 42.0149 79.5388C38.059 78.6027 35.0195 75.2995 34.4707 71.2073Z" fill="#F4B537"/>
<path d="M85.0282 71.2073H80.4404C81.0915 76.0612 85.2464 79.8054 90.2786 79.8054C91.0683 79.8054 91.8361 79.713 92.5725 79.5388C88.6165 78.6027 85.5771 75.2995 85.0282 71.2073Z" fill="#F4B537"/>
<path d="M40.1828 48.8166C41.8808 48.8166 43.2573 47.4401 43.2573 45.7422C43.2573 44.0442 41.8808 42.6677 40.1828 42.6677C38.4849 42.6677 37.1084 44.0442 37.1084 45.7422C37.1084 47.4401 38.4849 48.8166 40.1828 48.8166Z" fill="#FECA57"/>
<path d="M89.8176 48.8166C91.5156 48.8166 92.892 47.4401 92.892 45.7422C92.892 44.0442 91.5156 42.6677 89.8176 42.6677C88.1196 42.6677 86.7432 44.0442 86.7432 45.7422C86.7432 47.4401 88.1196 48.8166 89.8176 48.8166Z" fill="#FECA57"/>
<path d="M73.6056 90.4014H56.2427C55.1817 90.4014 54.3135 91.2694 54.3135 92.3306V95.4689H75.5348V92.3306C75.5348 91.2694 74.6666 90.4014 73.6056 90.4014Z" fill="#3E4B5A"/>
<path d="M54.3516 91.9514C54.3268 92.0742 54.3135 92.2008 54.3135 92.3304V95.4686H75.5348V92.3304C75.5348 92.2006 75.5215 92.074 75.4967 91.9514H54.3516Z" fill="#303F49"/>
<path d="M76.219 95.01H53.7115C52.6504 95.01 51.7822 95.8781 51.7822 96.9393V97.6896C51.7822 98.7506 52.6504 99.6188 53.7115 99.6188H76.219C77.2801 99.6188 78.1483 98.7508 78.1483 97.6896V96.9393C78.1483 95.8781 77.2801 95.01 76.219 95.01Z" fill="#576574"/>
<path d="M76.2189 96.5602H53.7113C53.0827 96.5602 52.5235 96.2541 52.1708 95.785C51.9281 96.1077 51.7822 96.5067 51.7822 96.9391V97.6895C51.7822 98.7505 52.6504 99.6187 53.7115 99.6187H76.219C77.2801 99.6187 78.1483 98.7507 78.1483 97.6895V96.9391C78.1483 96.5067 78.0024 96.1076 77.7597 95.785C77.4067 96.2541 76.8475 96.5602 76.2189 96.5602Z" fill="#3E4B5A"/>
<path d="M64.9237 44.5407C67.397 44.5407 69.402 42.5357 69.402 40.0623C69.402 37.589 67.397 35.584 64.9237 35.584C62.4503 35.584 60.4453 37.589 60.4453 40.0623C60.4453 42.5357 62.4503 44.5407 64.9237 44.5407Z" fill="#FECA57"/>
<path d="M41.6963 45.7422C41.6963 44.9574 41.9929 44.2435 42.4768 43.7003C41.9136 43.0682 41.096 42.6677 40.1828 42.6677C38.4849 42.6677 37.1084 44.0442 37.1084 45.7422C37.1084 47.4401 38.4849 48.8166 40.1828 48.8166C41.096 48.8166 41.9136 48.4163 42.4768 47.7841C41.9929 47.2408 41.6963 46.527 41.6963 45.7422Z" fill="#F4B537"/>
<path d="M91.3311 45.7422C91.3311 44.9574 91.6277 44.2435 92.1116 43.7003C91.5485 43.0682 90.7308 42.6677 89.8176 42.6677C88.1196 42.6677 86.7432 44.0442 86.7432 45.7422C86.7432 47.4401 88.1196 48.8166 89.8176 48.8166C90.7308 48.8166 91.5484 48.4163 92.1116 47.7841C91.6275 47.2408 91.3311 46.527 91.3311 45.7422Z" fill="#F4B537"/>
<path d="M65.0332 40.0623C65.0332 38.4276 65.9096 36.998 67.2176 36.216C66.5467 35.815 65.7623 35.584 64.9237 35.584C62.4504 35.584 60.4453 37.5891 60.4453 40.0623C60.4453 42.5356 62.4504 44.5407 64.9237 44.5407C65.7622 44.5407 66.5465 44.3097 67.2176 43.9087C65.9094 43.1268 65.0332 41.6971 65.0332 40.0623Z" fill="#F4B537"/>
<path d="M28.9292 66.5986H51.4368C52.4979 66.5986 53.3661 67.4667 53.3661 68.5279V69.2782C53.3661 70.3393 52.4979 71.2075 51.4368 71.2075H28.9292C27.8681 71.2073 27 70.3391 27 69.2781V68.5277C27 67.4667 27.8681 66.5986 28.9292 66.5986Z" fill="#F4B537"/>
<path d="M51.4367 68.1488H28.9292C28.3006 68.1488 27.7414 67.8427 27.3886 67.3737C27.1459 67.6964 27 68.0954 27 68.5278V69.2781C27 70.3391 27.8681 71.2073 28.9292 71.2073H51.4367C52.4977 71.2073 53.3659 70.3393 53.3659 69.2781V68.5278C53.3659 68.0954 53.22 67.6962 52.9773 67.3737C52.6245 67.8427 52.0653 68.1488 51.4367 68.1488Z" fill="#E59D1F"/>
</g>
<defs>
<clipPath id="clip0">
<rect width="76" height="76" fill="white" transform="translate(27 27)"/>
</clipPath>
</defs>
</svg>
