<svg width="76" height="76" viewBox="0 0 76 76" fill="none" xmlns="http://www.w3.org/2000/svg">
<g clip-path="url(#clip0)">
<path d="M22.5591 44.2073C21.9082 49.0612 17.7531 52.8054 12.721 52.8054C7.68877 52.8054 3.53386 49.0612 2.88281 44.2073H22.5591Z" fill="#FECA57"/>
<path d="M21.9878 42.3009L13.4221 19.14C13.2024 18.546 13.5058 17.8862 14.1 17.6665C14.6939 17.4465 15.3539 17.7502 15.5736 18.3444L24.1393 41.5052C24.359 42.0993 24.0556 42.7591 23.4614 42.9788C22.8681 43.1983 22.2078 42.8955 21.9878 42.3009Z" fill="#CCD2DB"/>
<path d="M2.90469 42.9787C2.31064 42.759 2.00708 42.0992 2.22677 41.5051L10.7925 18.3443C11.0122 17.7502 11.6716 17.4464 12.266 17.6663C12.8601 17.886 13.1636 18.5458 12.944 19.1399L4.37822 42.3007C4.15854 42.8948 3.49873 43.1983 2.90469 42.9787Z" fill="#CCD2DB"/>
<path d="M52.5345 42.9773C51.9412 42.7554 51.6402 42.0944 51.8621 41.5012L60.4278 18.6006C60.6499 18.0073 61.3107 17.7064 61.9039 17.9282C62.4972 18.1501 62.7984 18.8111 62.5763 19.4042L54.0105 42.3049C53.7886 42.8982 53.1276 43.1991 52.5345 42.9773Z" fill="#CCD2DB"/>
<path d="M71.6231 42.3049L63.0574 19.4042C62.8355 18.8109 63.1365 18.1501 63.7298 17.9282C64.3233 17.7064 64.9839 18.0073 65.2059 18.6006L73.7716 41.5012C73.9935 42.0945 73.6925 42.7554 73.0992 42.9773C72.5063 43.1991 71.8452 42.8985 71.6231 42.3049Z" fill="#CCD2DB"/>
<path d="M15.0402 19.9619C14.4551 19.9619 13.9554 19.5163 13.8996 18.9221C13.8404 18.2914 14.3037 17.732 14.9344 17.6728C18.7457 17.3149 19.761 16.8811 34.8688 12.7373C35.4796 12.5698 36.1108 12.9291 36.2784 13.54C36.446 14.1508 36.0866 14.782 35.4756 14.9496C20.2884 19.1152 19.1576 19.5804 15.1489 19.9568C15.1124 19.9602 15.0761 19.9619 15.0402 19.9619Z" fill="#3E4B5A"/>
<path d="M61.2414 20.042C61.2055 20.042 61.1694 20.0403 61.1329 20.0369C56.9716 19.6461 55.858 19.1802 39.9982 14.8302C39.3874 14.6626 39.0279 14.0316 39.1954 13.4206C39.363 12.8098 39.9943 12.4504 40.605 12.6179C56.4872 16.9739 57.4409 17.3861 61.3474 17.7529C61.9781 17.8122 62.4414 18.3715 62.3821 19.0022C62.3263 19.5964 61.8265 20.042 61.2414 20.042Z" fill="#3E4B5A"/>
<path d="M37.9238 8.58411C38.7445 8.58411 39.5131 8.80602 40.1745 9.19137V4.93537C40.1745 4.0771 39.4788 3.38123 38.6204 3.38123H37.227C36.3687 3.38123 35.6729 4.0771 35.6729 4.93537V9.19137C36.3346 8.80572 37.103 8.58411 37.9238 8.58411Z" fill="#C46F5F"/>
<path d="M40.1754 63.8599V16.9333C39.5139 17.3188 38.7453 17.5406 37.9246 17.5406C37.1039 17.5406 36.3353 17.3187 35.6738 16.9333V63.8599H40.1754Z" fill="#C46F5F"/>
<path d="M38.7036 4.93537C38.7036 4.37769 38.9982 3.89007 39.4395 3.61591C39.2017 3.46806 38.9219 3.38123 38.6214 3.38123H37.228C36.3697 3.38123 35.6738 4.0771 35.6738 4.93537V9.19137C36.3353 8.80572 37.1039 8.58411 37.9246 8.58411C38.1906 8.58411 38.4504 8.60979 38.7036 8.65432V4.93537Z" fill="#B45F4A"/>
<path d="M37.9246 17.5409C37.1039 17.5409 36.3353 17.3191 35.6738 16.9336V63.8602H38.7036V17.4705C38.4504 17.5152 38.1906 17.5409 37.9246 17.5409Z" fill="#B45F4A"/>
<path d="M51.563 39.5986H74.0706C75.1316 39.5986 75.9998 40.4667 75.9998 41.5279V42.2782C75.9998 43.3393 75.1316 44.2075 74.0706 44.2075H51.563C50.502 44.2075 49.6338 43.3394 49.6338 42.2782V41.5279C49.6338 40.4667 50.502 39.5986 51.563 39.5986Z" fill="#F4B537"/>
<path d="M74.0705 41.1488H51.563C50.9344 41.1488 50.3752 40.8427 50.0224 40.3737C49.7797 40.6964 49.6338 41.0954 49.6338 41.5278V42.2781C49.6338 43.3391 50.5018 44.2073 51.563 44.2073H74.0705C75.1315 44.2073 75.9997 43.3393 75.9997 42.2781V41.5278C75.9997 41.0954 75.8538 40.6962 75.6111 40.3737C75.2582 40.8427 74.6992 41.1488 74.0705 41.1488Z" fill="#E59D1F"/>
<path d="M73.1167 44.2073C72.4658 49.0612 68.3108 52.8054 63.2786 52.8054C58.2464 52.8054 54.0915 49.0612 53.4404 44.2073H73.1167Z" fill="#FECA57"/>
<path d="M7.47072 44.2073H2.88281C3.53386 49.0612 7.68877 52.8054 12.721 52.8054C13.5106 52.8054 14.2785 52.713 15.0149 52.5388C11.059 51.6027 8.01949 48.2995 7.47072 44.2073Z" fill="#F4B537"/>
<path d="M58.0282 44.2073H53.4404C54.0915 49.0612 58.2464 52.8054 63.2786 52.8054C64.0683 52.8054 64.8361 52.713 65.5725 52.5388C61.6165 51.6027 58.5771 48.2995 58.0282 44.2073Z" fill="#F4B537"/>
<path d="M13.1828 21.8166C14.8808 21.8166 16.2573 20.4401 16.2573 18.7422C16.2573 17.0442 14.8808 15.6677 13.1828 15.6677C11.4849 15.6677 10.1084 17.0442 10.1084 18.7422C10.1084 20.4401 11.4849 21.8166 13.1828 21.8166Z" fill="#FECA57"/>
<path d="M62.8176 21.8166C64.5156 21.8166 65.892 20.4401 65.892 18.7422C65.892 17.0442 64.5156 15.6677 62.8176 15.6677C61.1196 15.6677 59.7432 17.0442 59.7432 18.7422C59.7432 20.4401 61.1196 21.8166 62.8176 21.8166Z" fill="#FECA57"/>
<path d="M46.6056 63.4014H29.2427C28.1817 63.4014 27.3135 64.2694 27.3135 65.3306V68.4689H48.5348V65.3306C48.5348 64.2694 47.6666 63.4014 46.6056 63.4014Z" fill="#3E4B5A"/>
<path d="M27.3516 64.9514C27.3268 65.0742 27.3135 65.2008 27.3135 65.3304V68.4686H48.5348V65.3304C48.5348 65.2006 48.5215 65.074 48.4967 64.9514H27.3516Z" fill="#303F49"/>
<path d="M49.219 68.01H26.7115C25.6504 68.01 24.7822 68.8781 24.7822 69.9393V70.6896C24.7822 71.7506 25.6504 72.6188 26.7115 72.6188H49.219C50.2801 72.6188 51.1483 71.7508 51.1483 70.6896V69.9393C51.1483 68.8781 50.2801 68.01 49.219 68.01Z" fill="#576574"/>
<path d="M49.2189 69.5602H26.7113C26.0827 69.5602 25.5235 69.2541 25.1708 68.785C24.9281 69.1077 24.7822 69.5067 24.7822 69.9391V70.6895C24.7822 71.7505 25.6504 72.6187 26.7115 72.6187H49.219C50.2801 72.6187 51.1483 71.7507 51.1483 70.6895V69.9391C51.1483 69.5067 51.0024 69.1076 50.7597 68.785C50.4067 69.2541 49.8475 69.5602 49.2189 69.5602Z" fill="#3E4B5A"/>
<path d="M37.9237 17.5407C40.397 17.5407 42.402 15.5357 42.402 13.0623C42.402 10.589 40.397 8.58398 37.9237 8.58398C35.4503 8.58398 33.4453 10.589 33.4453 13.0623C33.4453 15.5357 35.4503 17.5407 37.9237 17.5407Z" fill="#FECA57"/>
<path d="M14.6963 18.7422C14.6963 17.9574 14.9929 17.2435 15.4768 16.7003C14.9136 16.0682 14.096 15.6677 13.1828 15.6677C11.4849 15.6677 10.1084 17.0442 10.1084 18.7422C10.1084 20.4401 11.4849 21.8166 13.1828 21.8166C14.096 21.8166 14.9136 21.4163 15.4768 20.7841C14.9929 20.2408 14.6963 19.527 14.6963 18.7422Z" fill="#F4B537"/>
<path d="M64.3311 18.7422C64.3311 17.9574 64.6277 17.2435 65.1116 16.7003C64.5485 16.0682 63.7308 15.6677 62.8176 15.6677C61.1196 15.6677 59.7432 17.0442 59.7432 18.7422C59.7432 20.4401 61.1196 21.8166 62.8176 21.8166C63.7308 21.8166 64.5484 21.4163 65.1116 20.7841C64.6275 20.2408 64.3311 19.527 64.3311 18.7422Z" fill="#F4B537"/>
<path d="M38.0332 13.0623C38.0332 11.4276 38.9096 9.998 40.2176 9.21603C39.5467 8.81495 38.7623 8.58398 37.9237 8.58398C35.4504 8.58398 33.4453 10.5891 33.4453 13.0623C33.4453 15.5356 35.4504 17.5407 37.9237 17.5407C38.7622 17.5407 39.5465 17.3097 40.2176 16.9087C38.9094 16.1268 38.0332 14.6971 38.0332 13.0623Z" fill="#F4B537"/>
<path d="M1.92924 39.5986H24.4368C25.4979 39.5986 26.3661 40.4667 26.3661 41.5279V42.2782C26.3661 43.3393 25.4979 44.2075 24.4368 44.2075H1.92924C0.868062 44.2073 0 43.3391 0 42.2781V41.5277C0 40.4667 0.868062 39.5986 1.92924 39.5986Z" fill="#F4B537"/>
<path d="M24.4367 41.1488H1.92924C1.30061 41.1488 0.741445 40.8427 0.388609 40.3737C0.145914 40.6964 0 41.0954 0 41.5278V42.2781C0 43.3391 0.868062 44.2073 1.92924 44.2073H24.4367C25.4977 44.2073 26.3659 43.3393 26.3659 42.2781V41.5278C26.3659 41.0954 26.22 40.6962 25.9773 40.3737C25.6245 40.8427 25.0653 41.1488 24.4367 41.1488Z" fill="#E59D1F"/>
</g>
<defs>
<clipPath id="clip0">
<rect width="76" height="76" fill="white"/>
</clipPath>
</defs>
</svg>
