<svg width="130" height="130" viewBox="0 0 130 130" fill="none" xmlns="http://www.w3.org/2000/svg">
<rect width="130" height="130" rx="65" fill="#ADD9F4"/>
<g clip-path="url(#clip0)">
<path d="M93.8249 54.0956V90.7377C93.8249 93.2715 91.7713 95.3252 89.2375 95.3252H31.5875C29.0536 95.3252 27 93.2715 27 90.7377V54.0956C27 51.5618 29.0536 49.5082 31.5875 49.5082H89.2373C91.7713 49.508 93.8249 51.5618 93.8249 54.0956Z" fill="#B5ADB6"/>
<path d="M52.1739 79.2693H38.4688C35.9351 79.2693 33.8813 77.2154 33.8813 74.6818V60.9767C33.8813 58.4431 35.9353 56.3893 38.4688 56.3893H52.1739C54.7076 56.3893 56.7614 58.4432 56.7614 60.9767V74.6818C56.7614 77.2154 54.7076 79.2693 52.1739 79.2693Z" fill="white"/>
<path d="M86.9441 57.536H63.7005C63.0672 57.536 62.5537 57.0225 62.5537 56.3891C62.5537 55.7558 63.0672 55.2423 63.7005 55.2423H86.9441C87.5775 55.2423 88.0909 55.7558 88.0909 56.3891C88.0909 57.0225 87.5775 57.536 86.9441 57.536Z" fill="#E2DEE2"/>
<path d="M86.9441 80.4162H63.7005C63.0672 80.4162 62.5537 79.9028 62.5537 79.2694C62.5537 78.636 63.0672 78.1226 63.7005 78.1226H86.9441C87.5775 78.1226 88.0909 78.636 88.0909 79.2694C88.0909 79.9026 87.5775 80.4162 86.9441 80.4162Z" fill="#E2DEE2"/>
<path d="M86.9436 85.0036H33.8812C33.2478 85.0036 32.7344 84.4902 32.7344 83.8568C32.7344 83.2234 33.2478 82.71 33.8812 82.71H86.9436C87.577 82.71 88.0904 83.2234 88.0904 83.8568C88.0904 84.4902 87.577 85.0036 86.9436 85.0036Z" fill="#E2DEE2"/>
<path d="M86.9436 89.5913H33.8812C33.2478 89.5913 32.7344 89.0778 32.7344 88.4444C32.7344 87.8111 33.2478 87.2976 33.8812 87.2976H86.9436C87.577 87.2976 88.0904 87.8111 88.0904 88.4444C88.0904 89.0777 87.577 89.5913 86.9436 89.5913Z" fill="#E2DEE2"/>
<path d="M86.9441 75.8286H63.7005C63.0672 75.8286 62.5537 75.3151 62.5537 74.6817C62.5537 74.0484 63.0672 73.5349 63.7005 73.5349H86.9441C87.5775 73.5349 88.0909 74.0484 88.0909 74.6817C88.0909 75.3151 87.5775 75.8286 86.9441 75.8286Z" fill="#E2DEE2"/>
<path d="M77.769 62.1235H63.7005C63.0672 62.1235 62.5537 61.61 62.5537 60.9767C62.5537 60.3433 63.0672 59.8298 63.7005 59.8298H77.769C78.4024 59.8298 78.9158 60.3433 78.9158 60.9767C78.9158 61.61 78.4024 62.1235 77.769 62.1235Z" fill="#E2DEE2"/>
<path d="M45.3214 72.0561C48.3809 72.0561 50.8611 69.5759 50.8611 66.5164C50.8611 63.4569 48.3809 60.9767 45.3214 60.9767C42.2619 60.9767 39.7817 63.4569 39.7817 66.5164C39.7817 69.5759 42.2619 72.0561 45.3214 72.0561Z" fill="#D78878"/>
<path d="M38.4691 79.2692H52.1742C52.6106 79.2692 53.0322 79.207 53.4321 79.0932C52.8702 75.1158 49.4541 72.0559 45.3218 72.0559C41.1894 72.0559 37.7733 75.1158 37.2114 79.0932C37.6112 79.2069 38.0327 79.2692 38.4691 79.2692Z" fill="#FD9468"/>
<path d="M93.8249 54.0956V69.233C91.837 69.8935 89.7114 70.2514 87.5049 70.2514C76.4322 70.2514 67.4238 61.2431 67.4238 50.1704C67.4238 49.9486 67.4269 49.7285 67.4345 49.5082H89.2374C91.7713 49.508 93.8249 51.5618 93.8249 54.0956Z" fill="#A79BA7"/>
<path d="M77.7685 59.8298H69.9043C70.3447 60.629 70.8375 61.3953 71.3789 62.1236H77.7685C78.4019 62.1236 78.9153 61.6102 78.9153 60.9768C78.9153 60.3434 78.4019 59.8298 77.7685 59.8298Z" fill="#918291"/>
<path d="M68.823 57.536H86.9438C87.5772 57.536 88.0906 57.0225 88.0906 56.3891C88.0906 55.7558 87.5772 55.2423 86.9438 55.2423H68.0732C68.2781 56.0262 68.5286 56.792 68.823 57.536Z" fill="#918291"/>
<path d="M87.5051 65.6643C96.0626 65.6643 103 58.727 103 50.1695C103 41.6119 96.0626 34.6747 87.5051 34.6747C78.9475 34.6747 72.0103 41.6119 72.0103 50.1695C72.0103 58.727 78.9475 65.6643 87.5051 65.6643Z" fill="#98D5B9"/>
<path d="M85.0708 56.4757C84.4104 56.4757 83.75 56.2242 83.2473 55.7216L80.1602 52.6345C79.7122 52.1867 79.7122 51.4605 80.1602 51.0126C80.608 50.5647 81.3342 50.5647 81.7822 51.0126L84.8692 54.0996C84.9806 54.2106 85.1612 54.2106 85.2724 54.0996L93.2286 46.1434C93.6765 45.6955 94.4026 45.6955 94.8506 46.1434C95.2986 46.5912 95.2986 47.3174 94.8506 47.7653L86.8944 55.7216C86.3916 56.2242 85.7311 56.4757 85.0708 56.4757Z" fill="white"/>
</g>
<defs>
<clipPath id="clip0">
<rect width="76" height="76" fill="white" transform="translate(27 27)"/>
</clipPath>
</defs>
</svg>
