<svg width="26" height="23" viewBox="0 0 26 23" fill="none" xmlns="http://www.w3.org/2000/svg">
<path d="M11.75 4.41115L12.5454 5.4551L13.3409 4.41115C13.7773 3.83829 14.5234 2.9623 15.4656 2.23775C16.4163 1.50671 17.4746 1 18.5568 1C21.4961 1 24.0909 3.74636 24.0909 7.38353C24.0909 9.0183 23.5479 10.562 22.5802 11.747L22.5172 11.8242L22.5016 11.8537C22.4444 11.9157 22.3902 11.9685 22.3229 12.032L22.3228 12.032L22.3127 12.0417L22.2096 12.1418L22.2043 12.147L22.1991 12.1522L12.5452 21.8026L3.25817 12.5348L3.21378 12.458L3.101 12.3545C1.77698 11.1391 1 9.34242 1 7.38353C1 3.74637 3.59485 1 6.53406 1C7.61629 1 8.67456 1.50671 9.62525 2.23775C10.5675 2.9623 11.3135 3.83829 11.75 4.41115Z" stroke="#DFE5EC" stroke-width="2"/>
</svg>
