<svg width="18" height="18" viewBox="0 0 18 18" fill="none" xmlns="http://www.w3.org/2000/svg">
<path d="M15.8661 2.29171C15.1101 1.43045 14.0655 1 12.7321 1C12.363 1 11.9864 1.07465 11.6026 1.22387C11.2186 1.3732 10.8613 1.57467 10.5313 1.82814C10.2008 2.08152 9.91678 2.31948 9.67851 2.54164C9.44053 2.76387 9.21427 3.00003 9.00002 3.24995C8.78567 3.00003 8.55948 2.76387 8.32146 2.54164C8.08328 2.31948 7.79914 2.08167 7.46871 1.82814C7.13834 1.57457 6.78117 1.37324 6.39727 1.22387C6.01339 1.07468 5.63683 1 5.26781 1C3.93443 1 2.88985 1.43056 2.13392 2.29171C1.378 3.15279 1 4.34717 1 5.87494C1 6.34023 1.07005 6.81957 1.20987 7.31237C1.34969 7.80543 1.50903 8.22563 1.68757 8.57278C1.86607 8.9199 2.0685 9.2584 2.2947 9.5883C2.5209 9.91816 2.6862 10.1455 2.79025 10.2705C2.89439 10.3955 2.97626 10.4859 3.03577 10.5415L8.60713 16.8123C8.71431 16.9373 8.84525 17 8.99998 17C9.15472 17 9.28576 16.9373 9.39287 16.8123L14.9554 10.5621C16.3185 8.97207 17 7.40957 17 5.87479C17 4.34691 16.6221 3.15265 15.8661 2.29171ZM14.1786 9.58309L9.00002 15.4059L3.81262 9.57258C2.69949 8.27426 2.14302 7.04147 2.14302 5.87479C2.14302 5.31238 2.20701 4.81578 2.33492 4.38533C2.46292 3.95481 2.6266 3.61269 2.82599 3.35923C3.02542 3.10569 3.26794 2.89926 3.55365 2.73942C3.83952 2.57973 4.11925 2.47206 4.39302 2.41653C4.66678 2.36107 4.9584 2.33331 5.26797 2.33331C5.57745 2.33331 5.91085 2.42175 6.26798 2.59888C6.62506 2.77594 6.95392 2.99817 7.25449 3.2655C7.55511 3.533 7.81255 3.78296 8.02693 4.01552C8.24118 4.24829 8.41968 4.46169 8.56257 4.65616C8.66965 4.80899 8.8156 4.88539 9.00005 4.88539C9.18456 4.88539 9.33035 4.80899 9.43756 4.65616C9.58041 4.46169 9.75904 4.24818 9.97329 4.01552C10.1876 3.78296 10.445 3.53311 10.7455 3.2655C11.0462 2.99817 11.375 2.77594 11.7323 2.59888C12.0893 2.42178 12.4228 2.33331 12.7323 2.33331C13.0418 2.33331 13.3333 2.36107 13.6072 2.41653C13.8811 2.47202 14.1608 2.57973 14.4466 2.73942C14.7323 2.89922 14.9749 3.1058 15.1742 3.35923C15.3736 3.61269 15.5374 3.95481 15.6654 4.38533C15.7931 4.81578 15.8571 5.31238 15.8571 5.87479C15.8571 7.04147 15.2977 8.27769 14.1786 9.58309Z" fill="#77CCF9" stroke="#77CCF9" stroke-width="0.7"/>
</svg>
