<svg width="22" height="22" viewBox="0 0 22 22" fill="#fff" xmlns="http://www.w3.org/2000/svg">
<path d="M0.278809 7.35559H4.9948V21.5442H0.278809V7.35559Z"/>
<path d="M2.66792 0.515625C1.05475 0.515625 0 1.57491 0 2.96719C0 4.32877 1.02336 5.41826 2.60599 5.41826H2.6367C4.28143 5.41826 5.30496 4.32877 5.30496 2.96719C5.27425 1.57491 4.28143 0.515625 2.66792 0.515625Z"/>
<path d="M16.5709 7.02258C14.0686 7.02258 12.9474 8.39775 12.3206 9.36472V7.35559H7.60449V21.5442H12.3205V13.6206C12.3205 13.1965 12.3512 12.773 12.4757 12.4697C12.8166 11.6226 13.5926 10.7451 14.8954 10.7451C16.6019 10.7451 17.2845 12.0462 17.2845 13.9536V21.5442H22.0002V13.4086C22.0002 9.05051 19.6735 7.02258 16.5709 7.02258Z"/>
</svg>
