<svg width="22" height="16" viewBox="0 0 22 16" fill="none" xmlns="http://www.w3.org/2000/svg">
<path fill-rule="evenodd" clip-rule="evenodd" d="M19.2422 0.382812H2.75781C1.78977 0.382812 1 1.17172 1 2.14062V13.8594C1 14.825 1.78625 15.6172 2.75781 15.6172H19.2422C20.2078 15.6172 21 14.8309 21 13.8594V2.14062C21 1.175 20.2138 0.382812 19.2422 0.382812ZM11.0373 9.51691L18.9995 1.55469H3.00621L11.0373 9.51691ZM2.17188 2.3777V13.6167L7.81559 7.97301L2.17188 2.3777ZM8.64777 8.79805L3.00051 14.4453H18.9995L13.3828 8.82863L11.4534 10.758C11.2253 10.9862 10.8556 10.987 10.6266 10.7598L8.64777 8.79805ZM14.2114 8L19.8281 13.6167V2.38328L14.2114 8Z" fill="#77CCF9" stroke="#77CCF9" stroke-width="0.7"/>
</svg>
