<svg width="25" height="25" viewBox="0 0 25 25" fill="none" xmlns="http://www.w3.org/2000/svg">
<g clip-path="url(#clip0)">
<path d="M24.4782 4.64629C21.047 7.5521 15.0264 12.6643 13.2569 14.2583C13.0193 14.4734 12.7645 14.5828 12.5 14.5828C12.2361 14.5828 11.9817 14.4745 11.7447 14.2604C9.97366 12.6648 3.95305 7.5521 0.521852 4.64629C0.308229 4.46572 0.275661 4.14834 0.44861 3.92759C0.848415 3.41748 1.44451 3.125 2.08338 3.125H22.9167C23.5555 3.125 24.1516 3.41748 24.5514 3.92764C24.7243 4.14834 24.6918 4.46572 24.4782 4.64629Z" fill="#77CCF9"/>
<path d="M0.302131 6.22049C0.48675 6.13456 0.703938 6.16454 0.857551 6.29579C3.10467 8.20057 6.06537 10.7173 8.29823 12.6378C8.41571 12.7386 8.48182 12.8866 8.47928 13.0417C8.47675 13.1963 8.40502 13.3423 8.28397 13.4389C6.20926 15.1006 3.08275 17.3864 0.824982 19.0109C0.734942 19.076 0.628155 19.1091 0.520831 19.1091C0.439434 19.1091 0.358087 19.0903 0.283282 19.0516C0.109307 18.9626 -1.71661e-05 18.7835 -1.71661e-05 18.5882V6.693C3.14713e-05 6.49007 0.118049 6.30545 0.302131 6.22049Z" fill="#77CCF9"/>
<path d="M24.175 19.0116C21.9167 17.3871 18.7896 15.1013 16.7155 13.4396C16.5944 13.343 16.5227 13.197 16.5202 13.0424C16.5176 12.8873 16.5837 12.7393 16.7012 12.6385C18.9341 10.718 21.8954 8.20128 24.1424 6.2965C24.2971 6.16525 24.5147 6.13629 24.6979 6.2212C24.882 6.30616 25 6.49078 25 6.69371V18.589C25 18.7843 24.8906 18.9633 24.7167 19.0524C24.6419 19.091 24.5605 19.1098 24.4792 19.1098C24.3718 19.1098 24.265 19.0768 24.175 19.0116Z" fill="#77CCF9"/>
<path d="M0.638348 20.4293C2.81882 18.8693 6.83547 15.961 9.23312 14.015C9.42844 13.8558 9.71125 13.8609 9.90349 14.0267C10.3739 14.4372 10.7676 14.7831 11.0469 15.0343C11.9045 15.8084 13.0946 15.8084 13.9542 15.0332C14.2324 14.7825 14.6261 14.4356 15.0966 14.0267C15.2873 13.8598 15.5706 13.8547 15.7665 14.0149C18.156 15.9543 22.1772 18.8662 24.3612 20.4292C24.4828 20.5167 24.5612 20.6515 24.5764 20.8005C24.5911 20.9496 24.5418 21.0976 24.4396 21.2074C24.0453 21.6322 23.4899 21.8758 22.9167 21.8758H2.08332C1.51008 21.8758 0.955194 21.6322 0.559978 21.2075C0.458269 21.0981 0.408417 20.9501 0.423162 20.8011C0.438446 20.6521 0.516766 20.5168 0.638348 20.4293Z" fill="#77CCF9"/>
</g>
<defs>
<clipPath id="clip0">
<rect width="25" height="25" fill="white" transform="matrix(-1 0 0 1 25 0)"/>
</clipPath>
</defs>
</svg>
