<svg width="100" height="50" viewBox="0 0 149 94" fill="none" xmlns="http://www.w3.org/2000/svg">
<path d="M149 88.4377C149 90.414 148.397 91.4032 147.171 91.4032H132.661C131.435 91.4032 128.247 86.9315 123.104 78.0125C118.777 70.4475 115.891 65.0109 114.45 61.6582C113.029 58.4129 112.188 56.629 111.995 56.2419C110.724 54.1358 109.26 53.0412 107.581 52.9114C107.085 52.8689 105.686 52.8466 103.384 52.8466C98.1088 52.8466 95.4611 53.4912 95.4611 54.8027C95.4611 58.65 95.591 64.4312 95.8489 72.1036C96.1068 79.776 96.2367 85.5146 96.2367 89.3174C96.2367 90.714 95.721 91.4032 94.6651 91.4032C93.8692 91.4032 92.6631 91.3384 91.0692 91.2086C89.4773 91.0809 88.2936 91.0161 87.4956 91.0161C86.7423 91.0161 85.6236 91.0809 84.117 91.2086C82.6307 91.3384 81.5119 91.4032 80.7586 91.4032C79.7027 91.4032 79.187 90.9289 79.187 89.962C79.187 85.3423 79.4023 78.3997 79.8327 69.138C80.2632 59.8967 80.4784 52.954 80.4784 48.3343C80.4784 43.4775 80.2632 36.1476 79.8327 26.3914C79.4023 16.6332 79.187 9.32764 79.187 4.44851C79.187 3.52417 79.7027 3.07213 80.7586 3.07213C81.5119 3.07213 82.6753 3.137 84.2246 3.26673C85.7738 3.39444 86.9373 3.4593 87.7332 3.4593C88.4865 3.4593 89.6276 3.39444 91.1342 3.26673C92.6408 3.137 93.7819 3.07213 94.5352 3.07213C95.5037 3.07213 95.9789 3.4593 95.9789 4.21134C95.9789 7.77896 95.8712 13.1527 95.656 20.3305C95.4408 27.5083 95.3332 32.9023 95.3332 36.5125C95.3332 38.1463 95.4408 39.1781 95.656 39.5876C95.9788 40.3396 96.8398 40.7268 98.2388 40.7268C106.377 40.7268 112.338 39.2207 116.127 36.1902C119.357 33.5044 122.436 28.5827 125.321 21.4049C127.431 15.7737 129.518 10.1445 131.628 4.51337C131.928 3.8039 132.576 3.3316 133.587 3.07213C134.275 2.90186 136.492 2.8147 140.304 2.8147C144.931 2.8147 147.256 3.4816 147.256 4.77081C147.256 5.52285 146.287 8.94047 144.35 14.9791C142.09 22.0292 139.163 28.2401 135.546 33.6118C133.156 37.2666 129.991 40.9416 126.032 44.637C125.018 45.5187 124.523 46.3356 124.523 47.0451C124.523 47.7972 126.224 51.535 129.625 58.2629C132.553 64.1089 135.223 68.7934 137.613 72.3185C140.261 75.5415 143.94 80.5281 148.677 87.2336C148.892 87.6207 149 88.0059 149 88.4377Z" fill="#F2F4F5"/>
<path d="M86.3269 47.13C86.3269 59.5896 82.3265 70.3106 74.348 79.2911C66.0449 88.5917 55.6989 93.2541 43.3549 93.2541C30.9661 93.2541 20.6202 88.614 12.3618 79.3539C4.38324 70.418 0.382812 59.6767 0.382812 47.13C0.382812 34.7353 4.42585 24.0143 12.4916 14.9913C20.7927 5.6461 31.0939 0.963379 43.3549 0.963379C55.6563 0.963379 65.98 5.6461 74.2831 14.9913C82.3042 23.9717 86.3269 34.6907 86.3269 47.13ZM71.1002 46.9578C71.1002 38.7311 68.5401 31.5763 63.4219 25.4752C58.044 19.0094 51.3131 15.7856 43.2047 15.7856C35.1816 15.7856 28.4933 19.0519 23.158 25.6049C18.125 31.7263 15.6096 38.9236 15.6096 47.13C15.6096 55.3162 18.125 62.4912 23.158 68.6126C28.4933 75.1656 35.1816 78.4319 43.2047 78.4319C51.3334 78.4319 58.109 75.1656 63.4848 68.6126C68.5624 62.4912 71.1002 55.2513 71.1002 46.9578Z" fill="#F2F4F5"/>
</svg>
