<svg width="76" height="76" viewBox="0 0 76 76" fill="none" xmlns="http://www.w3.org/2000/svg">
<g clip-path="url(#clip0)">
<path d="M34.1545 13.9836C33.8023 13.9836 33.4548 13.822 33.2299 13.5163C32.187 12.0994 30.3312 10.4738 27.411 10.7857C23.973 11.1519 21.4199 10.0577 19.8833 9.07553C19.3496 8.73442 19.1936 8.02534 19.5346 7.49171C19.8756 6.95793 20.5849 6.80207 21.1184 7.14303C22.3458 7.92737 24.3918 8.80122 27.1681 8.50494C31.382 8.05755 33.932 10.6006 35.0772 12.1569C35.4526 12.667 35.3433 13.385 34.8332 13.7604C34.6285 13.9109 34.3905 13.9836 34.1545 13.9836Z" fill="#FFD064"/>
<path d="M22.1479 20.0736C21.9432 20.0736 21.7363 20.019 21.5489 19.904C21.0091 19.5726 20.8403 18.8665 21.1716 18.3267C22.6416 15.9319 25.3354 14.286 28.962 13.567C31.6063 13.0429 33.825 13.1864 33.9179 13.1929C34.5498 13.2363 35.0269 13.7836 34.9836 14.4155C34.9402 15.0469 34.3916 15.5204 33.7624 15.4813C33.6828 15.4759 25.8958 15.0143 23.1262 19.5265C22.9098 19.8793 22.5332 20.0736 22.1479 20.0736Z" fill="#FFD064"/>
<path d="M39.434 64.0177C58.2679 64.0177 68.682 36.392 38.9403 15.0551C38.2005 14.5243 37.7611 13.6698 37.7711 12.7592C37.7792 12.0068 38.0176 11.2764 38.4491 10.6599C39.8415 8.67157 41.8457 5.27027 43.0476 2.53071C43.3354 1.87462 42.9235 1.16895 42.1535 1.16895C40.3671 1.16909 40.3671 0 38.5807 0C36.7942 0 36.7942 1.16909 35.0076 1.16909C33.4852 1.16909 32.8606 -0.140719 32.1205 0.811953C29.9619 3.59011 37.3553 13.3598 37.3553 13.3598C4.70292 34.8254 15.2311 64.0178 34.5096 64.0178H39.434V64.0177Z" fill="#EABC6B"/>
<path d="M46.8376 13.3597C46.8376 13.3597 54.3407 3.62158 52.1832 0.828133C51.4478 -0.123945 50.8208 1.16909 49.3001 1.16909C47.5133 1.16895 47.5133 0 45.7266 0C43.94 0 43.94 1.16895 42.1534 1.16895C42.0654 1.16895 41.9851 1.16405 41.9054 1.15855C41.1875 4.23566 37.9526 9.02945 36.1014 11.5962C36.8304 12.666 37.3553 13.3595 37.3553 13.3595C36.9198 13.6459 36.4935 13.9338 36.0732 14.2228C67.2705 35.666 56.8318 64.0175 37.7521 64.0175H49.799C69.1358 64.0177 79.5988 34.8966 46.8376 13.3597Z" fill="#E8AE4D"/>
<path d="M48.2333 16.8233C43.8735 17.9244 39.5663 17.9244 35.2058 16.8233C33.6882 16.44 32.8279 14.7334 33.374 13.1821C33.3801 13.1648 33.3861 13.1474 33.3922 13.13C33.8502 11.8294 35.1488 11.0996 36.4217 11.4191C39.9916 12.3154 43.4463 12.3157 47.0173 11.4191C48.2902 11.0996 49.5888 11.8294 50.0468 13.13C50.0528 13.1474 50.0589 13.1648 50.065 13.1821C50.6113 14.7334 49.7509 16.44 48.2333 16.8233Z" fill="#FFE07D"/>
<path d="M7.24023 69.0262L23.8439 75.2063C25.254 75.7312 26.7466 76 28.2513 76H45.3625C47.7571 76 50.1025 75.3195 52.1252 74.0378L73.5502 60.4617C74.9638 59.2065 75.2258 57.0972 74.1624 55.5343C72.9988 53.8243 71.074 53.5271 68.9559 54.5286L48.0966 63.7131L48.1213 60.3288C47.845 57.551 45.7062 55.3216 42.9423 54.9306L30.2396 53.468C27.3093 53.0535 25.8451 52.0714 23.2905 50.5771C19.8029 48.537 15.8352 47.4617 11.7947 47.4617H7.24023V69.0262Z" fill="#FFDDCE"/>
<path d="M22.8355 71.9133C24.318 72.4651 25.8871 72.7477 27.4688 72.7477H45.4574C47.3725 72.7477 49.2571 72.3327 50.9856 71.5413L63.5641 63.5708C64.7327 62.8303 65.4746 61.5413 65.4366 60.1583C65.4164 59.4248 65.1923 58.6907 64.7531 58.0453C64.7531 58.0453 64.3701 57.389 63.9766 56.721L48.0966 63.713L48.1213 60.3288C47.845 57.551 45.7062 55.3216 42.9423 54.9306L30.2396 53.468C27.3093 53.0535 25.8451 52.0714 23.2905 50.5771C19.8029 48.537 15.8352 47.4617 11.7947 47.4617H7.24023V66.1085L22.8355 71.9133Z" fill="#FFDDCE"/>
<path d="M74.1622 55.5342C72.9986 53.8242 71.0739 53.5271 68.9558 54.5286L63.2182 57.0548C63.4961 57.4946 63.7171 57.8457 63.7171 57.8457C64.7806 59.4086 64.5186 61.5179 63.105 62.7731L50.6209 70.6836C48.9767 71.4363 47.184 71.8312 45.3623 71.8312H28.2513C26.7466 71.8312 25.254 71.5624 23.8439 71.0375L7.24023 64.8573V69.026L23.8439 75.2062C25.254 75.7311 26.7466 75.9999 28.2513 75.9999H42.2314H45.3627C47.7573 75.9999 50.1026 75.3195 52.1254 74.0377L73.5504 60.4616C74.9637 59.2064 75.2258 57.097 74.1622 55.5342Z" fill="#FFCBBE"/>
<path d="M46.5636 56.8423L46.563 56.9239L46.6169 56.9002C46.5994 56.8806 46.5812 56.8617 46.5636 56.8423Z" fill="#F5DBCC"/>
<path d="M48.0966 63.7109H35.1263C34.4929 63.7109 33.9795 63.1976 33.9795 62.5641C33.9795 61.9305 34.4928 61.4172 35.1263 61.4172H48.1134L48.0966 63.7109Z" fill="#FFCBBE"/>
<path d="M10.8131 72.3334C10.8131 73.5381 9.83653 74.5147 8.63181 74.5147H3.36732C2.16261 74.5147 1.18604 73.5381 1.18604 72.3334V45.6242C1.18604 44.4194 2.16261 43.4429 3.36732 43.4429H8.63181C9.83653 43.4429 10.8131 44.4194 10.8131 45.6242V72.3334Z" fill="#407093"/>
<path d="M44.6228 35.5399C44.0977 35.3542 43.6144 35.1767 43.1684 35.0053V27.6932C44.5249 27.9181 45.3392 28.6198 45.3989 28.6728C45.8648 29.0964 46.5856 29.0652 47.0131 28.6017C47.4426 28.136 47.4133 27.4108 46.9477 26.9812C46.8671 26.9065 45.4625 25.6412 43.1683 25.377V23.7464C43.1683 23.1131 42.655 22.5996 42.0215 22.5996C41.3879 22.5996 40.8746 23.1129 40.8746 23.7464V25.4699C40.5981 25.5229 40.3149 25.5903 40.0238 25.6779C38.0784 26.2638 36.6243 27.9319 36.2287 30.031C35.8698 31.9357 36.4736 33.7676 37.8048 34.8117C38.569 35.4111 39.5311 35.9599 40.8746 36.5465V45.6163C39.5475 45.5607 38.7324 45.3107 37.3078 44.379C36.7778 44.0324 36.0672 44.1808 35.7205 44.7109C35.3737 45.2408 35.5223 45.9515 36.0524 46.2982C37.9245 47.523 39.1759 47.8424 40.8746 47.9085V49.7289C40.8746 50.3623 41.3879 50.8758 42.0215 50.8758C42.655 50.8758 43.1683 50.3625 43.1683 49.7289V47.8279C46.3876 47.3055 48.2662 44.6997 48.6747 42.2689C49.1857 39.2317 47.5949 36.5906 44.6228 35.5399ZM39.2203 33.0069C38.5656 32.4934 38.2831 31.5158 38.4829 30.4557C38.668 29.4726 39.344 28.2781 40.6855 27.874C40.7494 27.8547 40.8122 27.8381 40.8749 27.8213V34.0161C40.1881 33.6733 39.6496 33.3435 39.2203 33.0069ZM46.4131 41.8883C46.1601 43.3933 45.0554 45 43.1684 45.4836V37.454C43.3916 37.5357 43.6196 37.6181 43.8582 37.7024C46.7122 38.7112 46.5353 41.1614 46.4131 41.8883Z" fill="white"/>
</g>
<defs>
<clipPath id="clip0">
<rect width="76" height="76" fill="white"/>
</clipPath>
</defs>
</svg>
