<svg width="68" height="76" viewBox="0 0 68 76" fill="none" xmlns="http://www.w3.org/2000/svg">
<g clip-path="url(#clip0)">
<path d="M60.8874 32.3285H59.6041V28.5134C59.6041 25.3214 57.0072 22.7244 53.8151 22.7244H46.7383C46.172 22.7244 45.7129 23.1835 45.7129 23.7498C45.7129 24.3161 46.172 24.7752 46.7383 24.7752H53.8151C55.8764 24.7752 57.5532 26.4522 57.5532 28.5133V32.3284H56.2699C55.4672 32.3284 54.9903 33.225 55.4391 33.8906L57.7477 37.3147C58.145 37.9038 59.0122 37.9038 59.4094 37.3147L61.7181 33.8906C62.1669 33.2252 61.6901 32.3285 60.8874 32.3285Z" fill="#437BA7"/>
<path d="M34.4964 57.7112H27.4196C25.3584 57.7112 23.6816 56.0342 23.6816 53.9729V50.158H24.9648C25.7675 50.158 26.2444 49.2614 25.7957 48.5958L23.487 45.1717C23.0898 44.5826 22.2226 44.5826 21.8253 45.1717L19.5167 48.5958C19.0679 49.2614 19.5448 50.158 20.3475 50.158H21.6308V53.9729C21.6308 57.165 24.2277 59.762 27.4198 59.762H34.4966C35.0629 59.762 35.522 59.3029 35.522 58.7366C35.522 58.1702 35.0628 57.7112 34.4964 57.7112Z" fill="#437BA7"/>
<path d="M49.4343 46.4471H46.8094C45.8142 46.4471 45 47.2613 45 48.2565V74.1909C45 75.1861 45.8142 76.0003 46.8094 76.0003H49.4343V46.4471Z" fill="#AF251E"/>
<path d="M66.3747 46.4471H49.1855V76.0003H66.3747C67.3698 76.0003 68.1841 75.1861 68.1841 74.1909V48.2565C68.1841 47.2613 67.3698 46.4471 66.3747 46.4471Z" fill="#F98080"/>
<path d="M63.4848 51.121H53.9353C53.505 51.121 53.1562 51.4699 53.1562 51.9V54.5278C53.1562 54.958 53.505 55.3068 53.9353 55.3068H63.4848C63.915 55.3068 64.2638 54.9579 64.2638 54.5278V51.9C64.2638 51.4698 63.915 51.121 63.4848 51.121Z" fill="#DFEBFA"/>
<path d="M61.8012 73.2074H55.6195C55.1047 73.2074 54.6875 72.7902 54.6875 72.2755C54.6875 71.7606 55.1047 71.3435 55.6195 71.3435H61.8011C62.3158 71.3435 62.733 71.7607 62.733 72.2755C62.7332 72.7902 62.3159 73.2074 61.8012 73.2074Z" fill="#AF251E"/>
</g>
<g clip-path="url(#clip1)">
<path d="M42.8599 10.6325V33.6685H4.53125V10.6325C4.53125 9.43095 5.50538 8.45691 6.70686 8.45691H40.6843C41.8858 8.45691 42.8599 9.43104 42.8599 10.6325Z" fill="#475959"/>
<path d="M42.8599 30.7785V33.6691H4.53125V30.7785H19.2369C19.6706 30.7785 20.0602 31.043 20.2198 31.4467L20.4843 32.1131H26.826L27.0895 31.4467C27.2491 31.043 27.6396 30.7785 28.0733 30.7785H42.8599Z" fill="#404A4A"/>
<path d="M6.43945 29.5214V11.5466C6.43945 10.9624 6.91308 10.4888 7.49727 10.4888H39.8933C40.4775 10.4888 40.9511 10.9624 40.9511 11.5466V29.5214C40.9511 30.1056 40.4775 30.5792 39.8933 30.5792H7.49727C6.913 30.5792 6.43945 30.1057 6.43945 29.5214Z" fill="#404A4A"/>
<path d="M39.8922 12.0754V28.9924C39.8922 29.2845 39.6554 29.5213 39.3632 29.5213H8.025C7.73287 29.5213 7.49609 29.2845 7.49609 28.9924V12.0754C7.49609 11.7833 7.73287 11.5465 8.025 11.5465H39.3632C39.6554 11.5464 39.8922 11.7833 39.8922 12.0754Z" fill="#ADD9F4"/>
<path d="M45.6008 31.8364V33.3711C45.6008 34.4668 44.7123 35.3554 43.6165 35.3554H3.77334C2.67762 35.3555 1.78906 34.4667 1.78906 33.371V31.8363H19.2767L19.8056 33.1709H27.5842L28.1131 31.8363L45.6008 31.8364Z" fill="#437BA7"/>
<path d="M45.6008 31.8356V32.8934H28.8184L28.5542 33.5599C28.3944 33.9632 28.0046 34.2281 27.5707 34.2281H19.8191C19.3853 34.2281 18.9954 33.9632 18.8356 33.5599L18.5714 32.8934H1.78906V31.8356H19.2767L19.8056 33.1703H27.5842L28.1131 31.8356H45.6008Z" fill="#475959"/>
</g>
<defs>
<clipPath id="clip0">
<rect width="67.9529" height="67.9529" fill="white" transform="translate(0 8.04706)"/>
</clipPath>
<clipPath id="clip1">
<rect width="43.8118" height="43.8118" fill="white" transform="translate(1.78906)"/>
</clipPath>
</defs>
</svg>
