<svg width="76" height="76" viewBox="0 0 76 76" fill="none" xmlns="http://www.w3.org/2000/svg">
<g clip-path="url(#clip0)">
<path d="M73.9609 50.3033C73.6885 51.1005 73.3901 51.8917 73.0611 52.672C71.2094 57.1066 68.4781 61.2611 64.8698 64.8694C59.4299 70.3094 52.7536 73.7539 45.7452 75.206C44.6908 75.4248 43.6274 75.5978 42.5607 75.7248H42.5592C35.6579 76.5558 28.5746 75.4953 22.1431 72.5435C21.0077 72.0232 19.8922 71.4418 18.8012 70.8037C16.0621 69.197 13.4806 67.22 11.1303 64.8694C7.58024 61.3194 4.87927 57.2429 3.02929 52.8894C2.67126 52.0492 2.34529 51.2 2.05153 50.3401C-0.263648 43.5826 -0.618711 36.3019 0.983375 29.3822C1.17308 28.5682 1.38891 27.7571 1.63368 26.9538C3.31533 21.393 6.30085 16.1428 10.5885 11.6822C10.766 11.4955 10.9465 11.3119 11.1301 11.1282C11.6091 10.6492 12.0972 10.1857 12.5946 9.73887C21.4439 1.77104 33.1333 -1.30785 44.1784 0.502497C45.3766 0.698434 46.5671 0.952411 47.7453 1.26294C54.0192 2.9201 59.9503 6.20858 64.87 11.1282C65.0536 11.3119 65.2341 11.4955 65.4116 11.6822C66.1752 12.4749 66.896 13.2935 67.5769 14.1351C75.9549 24.4931 78.0833 38.23 73.9609 50.3033Z" fill="#F98080"/>
<path d="M13.7167 38.0242C13.7167 19.3947 27.1317 3.90003 44.8284 0.669584C42.6053 0.263459 40.315 0.0495605 37.9746 0.0495605C17.0017 0.0495605 0 17.0514 0 38.0242C0 58.9969 17.0017 75.9988 37.9746 75.9988C40.315 75.9988 42.6053 75.7849 44.8284 75.3788C27.1317 72.1483 13.7167 56.6537 13.7167 38.0242Z" fill="#D96B6B"/>
<path d="M73.9619 50.3035C73.6895 51.1008 73.3911 51.892 73.0621 52.6723L72.5341 52.1154C62.0338 41.7742 48.9856 34.4276 34.7438 30.8331H34.7423C27.5167 43.6227 29.5733 59.7526 39.8777 70.3402C41.339 71.8414 42.9488 73.2109 44.6611 74.4105C44.6688 74.4151 44.6749 74.4197 44.6824 74.4258L45.746 75.2063C44.9196 75.3777 44.0888 75.52 43.2548 75.6332C43.0787 75.6577 42.9028 75.6807 42.7253 75.7036C42.6702 75.7113 42.6166 75.7189 42.5616 75.7249H42.5601C42.5601 75.7249 42.5586 75.7249 42.5586 75.7235C42.0107 75.3179 41.4752 74.8956 40.9519 74.4564C40.0033 73.6669 39.0942 72.8252 38.2327 71.9407C27.3727 60.7808 25.082 43.8612 32.424 30.2821C28.9029 29.5002 25.3238 28.9447 21.7554 28.628C18.2359 36.8116 16.802 45.722 17.4692 54.5009C17.8976 60.1519 19.1984 65.748 21.3729 71.0609L22.1441 72.5436C21.0087 72.0234 19.8932 71.4419 18.8022 70.8038C16.0049 63.5246 14.7594 55.7695 15.0609 48.0679C15.3209 41.3718 16.7487 34.7137 19.3409 28.4491C17.8872 28.3618 16.4274 28.3145 14.9737 28.3038C14.2836 28.2977 13.5934 28.3006 12.9064 28.313C11.6456 36.8976 8.40002 45.1744 3.49401 52.3052C3.47872 52.3282 3.46195 52.3496 3.44502 52.371L3.03029 52.8898C2.67226 52.0496 2.34629 51.2004 2.05253 50.3405C6.435 43.7652 9.36397 36.215 10.5728 28.3864C7.52156 28.5257 4.45811 28.8347 1.44809 29.3045L0.988977 29.381L0.984375 29.3825C1.17408 28.5684 1.38991 27.7574 1.63468 26.954C1.6378 26.954 1.63928 26.954 1.6424 26.9525C4.69977 26.4965 7.7984 26.2011 10.8803 26.0757C11.4143 21.2984 11.3179 16.4767 10.5941 11.7147C10.5926 11.704 10.591 11.6933 10.5895 11.6826C10.767 11.4959 10.9475 11.3123 11.1311 11.1287C11.6101 10.6496 12.0982 10.1861 12.5956 9.73928L12.6017 9.77297L12.721 10.4783C13.5855 15.626 13.7448 20.844 13.1954 26.0131C14.0141 26.0024 14.8343 26.0024 15.6561 26.0162C17.2108 26.0392 18.7685 26.105 20.3218 26.2121C23.2384 19.9368 27.2583 14.2841 32.2743 9.40277C35.6346 6.13269 39.3577 3.30184 43.3652 0.968255C43.61 0.825903 43.8564 0.6837 44.1043 0.54595C44.1288 0.530661 44.1548 0.516856 44.1792 0.503052C45.3774 0.698989 46.5679 0.952966 47.7462 1.2635L46.3568 1.92909C41.809 4.34536 37.6101 7.41193 33.8749 11.0476C29.2628 15.5358 25.5306 20.7002 22.7655 26.4171C26.4089 26.7768 30.057 27.3766 33.6408 28.2045C35.1296 25.8479 36.9016 23.6643 38.917 21.7041C45.9819 14.8286 55.5917 11.2066 65.4126 11.6825C66.1762 12.4751 66.897 13.2938 67.5779 14.1354L66.216 14.0313C56.7133 13.3091 47.3454 16.7047 40.5176 23.3488C38.8175 25.003 37.3026 26.8255 36.0003 28.7841C50.2849 32.5194 63.3759 39.9364 73.9619 50.3035Z" fill="#994040"/>
<path d="M64.9127 30.0346C64.4236 30.0346 63.9774 29.7097 63.8245 29.2463C63.6808 28.8103 63.8147 28.3173 64.1641 28.0176C64.9562 27.3385 66.1972 28.0268 66.0481 29.0548C65.9676 29.6102 65.473 30.0346 64.9127 30.0346Z" fill="#D96B6B"/>
<path d="M69.045 27.7391C68.0354 27.7391 67.5218 26.4612 68.251 25.7626C68.994 25.0509 70.2639 25.651 70.1892 26.6757C70.1463 27.2667 69.6384 27.7391 69.045 27.7391Z" fill="#D96B6B"/>
<path d="M69.5028 32.8401C68.5092 32.8401 67.9941 31.6095 68.6753 30.8972C69.0268 30.5297 69.5962 30.4419 70.0437 30.6802C70.4681 30.9063 70.7071 31.3851 70.6382 31.8603C70.5579 32.4144 70.0627 32.8401 69.5028 32.8401Z" fill="#D96B6B"/>
<path d="M49.3821 70.8119C48.3543 70.8119 47.8493 69.5031 48.6114 68.8148C48.9907 68.4725 49.5635 68.4237 49.9952 68.6959C50.3882 68.9438 50.5963 69.4198 50.5094 69.877C50.4074 70.4122 49.9282 70.8119 49.3821 70.8119Z" fill="#D96B6B"/>
<path d="M44.027 66.7564C43.5343 66.7564 43.0951 66.4332 42.9384 65.969C42.7867 65.5197 42.9427 64.9995 43.3167 64.7078C44.1155 64.0852 45.3145 64.7677 45.1615 65.7779C45.0776 66.333 44.5903 66.7564 44.027 66.7564Z" fill="#D96B6B"/>
<path d="M48.8465 66.7566C48.3569 66.7566 47.91 66.434 47.7575 65.9693C47.6083 65.5141 47.7618 64.9986 48.1411 64.7049C48.9389 64.0869 50.1337 64.7721 49.9811 65.7784C49.8971 66.3331 49.4098 66.7566 48.8465 66.7566Z" fill="#D96B6B"/>
<path d="M54.1404 68.1332C53.6606 68.1332 53.2211 67.8243 53.0596 67.3724C52.8861 66.8876 53.0667 66.3282 53.4929 66.0388C54.3274 65.4723 55.4736 66.2287 55.2631 67.2217C55.1521 67.7459 54.6771 68.1332 54.1404 68.1332Z" fill="#D96B6B"/>
<path d="M6.61361 54.5937C6.1343 54.5937 5.69537 54.2822 5.53432 53.832C5.36629 53.3622 5.52927 52.8204 5.93094 52.5234C6.76605 51.9059 7.96216 52.6782 7.73372 53.6968C7.61734 54.2147 7.14427 54.5937 6.61361 54.5937Z" fill="#F98080"/>
<path d="M44.9453 71.5774C43.904 71.5774 43.4056 70.2336 44.2001 69.5573C45.0012 68.8754 46.2561 69.5906 46.075 70.6265C45.98 71.1695 45.4979 71.5774 44.9453 71.5774Z" fill="#D96B6B"/>
<path d="M9.59808 58.2663C8.5844 58.2663 8.07392 56.9859 8.8072 56.287C9.16241 55.9486 9.70688 55.8774 10.139 56.1065C10.572 56.336 10.8117 56.8327 10.7289 57.3145C10.6358 57.8572 10.1491 58.2663 9.59808 58.2663Z" fill="#F98080"/>
<path d="M21.3717 71.0612L22.143 72.544C21.0076 72.0237 19.8921 71.4423 18.8011 70.8041C16.0037 63.5249 14.7582 55.7698 15.0597 48.0681C15.6702 50.3008 16.4798 52.4522 17.4682 54.5011C17.8966 60.1524 19.1972 65.7484 21.3717 71.0612Z" fill="#863232"/>
<path d="M40.9512 74.4565C42.2166 74.8299 43.5113 75.1391 44.8288 75.3792C44.1341 75.5063 43.4332 75.6149 42.7247 75.7036C42.6696 75.7097 42.6146 75.7174 42.5579 75.7235C42.0101 75.3181 41.4746 74.8956 40.9512 74.4565Z" fill="#894802"/>
<path d="M15.6555 26.0174C15.4045 26.7703 15.1782 27.5323 14.973 28.3051C14.2829 28.299 13.5927 28.302 12.9057 28.3143C11.6449 36.8987 8.39932 45.1758 3.49331 52.3066C3.47802 52.3296 3.46125 52.3509 3.44433 52.3723L3.02959 52.8911C2.67156 52.0509 2.34559 51.2017 2.05184 50.3418C6.4343 43.7665 9.36327 36.2164 10.5721 28.3878C7.52087 28.527 4.45741 28.8361 1.4474 29.3059L0.988281 29.3823C1.17962 28.5621 1.39678 27.7526 1.6417 26.9539C4.69907 26.4979 7.7977 26.2025 10.8796 26.0771C11.4136 21.2997 11.3172 16.4781 10.5934 11.716C11.2376 11.0427 11.9078 10.3954 12.601 9.77417L12.7203 10.4795C13.5848 15.6272 13.7441 20.8452 13.1947 26.0143C14.0137 26.0036 14.8338 26.0036 15.6555 26.0174Z" fill="#863232"/>
<path d="M44.8297 0.670088C44.3385 0.760338 43.8503 0.859791 43.3652 0.968447C43.61 0.826096 43.8564 0.683893 44.1043 0.546143C44.3477 0.584439 44.5894 0.625705 44.8297 0.670088Z" fill="#894802"/>
</g>
<defs>
<clipPath id="clip0">
<rect width="76" height="76" fill="white"/>
</clipPath>
</defs>
</svg>
