<svg width="83" height="52" viewBox="0 0 83 52" fill="none" xmlns="http://www.w3.org/2000/svg">
<path d="M1.73246 30.4268C1.8033 30.3734 1.8341 30.282 1.80979 30.1967C-0.806656 21.0045 0.32049 12.6293 4.38635 4.89537C5.96805 1.88663 9.08557 0 12.4847 0H35.569C38.9895 0 42.3191 1.10088 45.0656 3.13957L68.3496 20.4245C69.6248 21.371 71.1013 22.0105 72.6642 22.2931C73.7996 22.4983 74.8684 22.8882 75.8405 23.4287L58.5652 29.8206L31.3835 26.5671L27.5279 28.57C27.2165 29.86 31.8413 32.5183 31.8413 32.5183C36.5978 34.9644 31.131 33.7033 32.9746 38.7242L30.993 43.7273H1.93558C0.866636 43.7273 0 42.8607 0 41.7918V33.8967C0 32.5293 0.64406 31.2449 1.73246 30.4268Z" fill="#ECF4FF"/>
<path d="M72.6646 22.2931C71.1017 22.0107 69.6252 21.3712 68.35 20.4245L45.0659 3.13957C42.3195 1.10072 38.9899 0 35.5694 0H30.9727C34.3932 0 37.7227 1.10089 40.4692 3.13957L63.7533 20.4245C65.0284 21.371 66.5051 22.0106 68.0678 22.2931C69.2032 22.4983 70.272 22.8882 71.2442 23.4287L55.0924 29.4048L58.5656 29.8205L75.8409 23.4285C74.8688 22.8882 73.8001 22.4983 72.6646 22.2931Z" fill="#D8E2F1"/>
<path d="M62.1425 22.1843L41.1418 6.76785C39.4597 5.53403 37.4282 4.8689 35.3421 4.8689H22.7839C19.1158 4.8689 15.9655 7.4761 15.2797 11.0796L14.385 15.7803C14.1536 16.9955 15.0245 18.1439 16.257 18.2489L62.1425 22.1843Z" fill="#ADD9F4"/>
<path d="M56.2449 21.6613L62.1426 22.1843L41.1418 6.76785C39.4598 5.53403 37.4282 4.8689 35.3422 4.8689H30.1406C32.2265 4.8689 34.2582 5.53403 35.9402 6.76785L56.2449 21.6613Z" fill="#ADD9F4"/>
<path d="M25.0059 20.2484C24.9606 20.2484 24.9147 20.246 24.8683 20.2408C24.1808 20.1658 23.6843 19.5473 23.7595 18.8596L25.3037 4.73328C25.379 4.04594 25.9956 3.5494 26.6851 3.62429C27.3726 3.69951 27.8691 4.31796 27.7939 5.00546L26.2497 19.132C26.1796 19.7733 25.6369 20.2484 25.0059 20.2484Z" fill="#ADD9F4"/>
<path d="M17.5395 26.9904C16.3593 26.3835 15.7477 25.0479 16.0591 23.7578L17.3664 18.3435L58.5661 21.8593L75.8405 23.4286C78.4634 24.8869 80.3782 27.4506 80.9626 30.5085L82.9572 40.9445C83.2333 42.3887 82.1262 43.7272 80.6559 43.7272H30.9929L29.4153 39.4308C27.5716 34.4102 23.9083 30.2657 19.1518 27.8196L17.5395 26.9904Z" fill="#F98080"/>
<path d="M80.6558 43.7273C82.1261 43.7273 83.2332 42.3887 82.9571 40.9445L80.9625 30.5086C80.3781 27.4507 78.4634 24.8871 75.8403 23.4286L70.6602 22.958C73.1432 24.8518 76.0545 28.0314 76.5278 30.5086L78.5224 40.9445C78.7985 42.3887 77.6915 43.7273 76.2211 43.7273H80.6558Z" fill="#F98080"/>
<path d="M15.5283 51.8377C20.7616 51.8377 25.004 47.5953 25.004 42.3621C25.004 37.1289 20.7616 32.8865 15.5283 32.8865C10.2951 32.8865 6.05273 37.1289 6.05273 42.3621C6.05273 47.5953 10.2951 51.8377 15.5283 51.8377Z" fill="#475959"/>
<path d="M15.5291 32.8865C14.9303 32.8865 14.3454 32.9445 13.7773 33.0509C18.1733 33.8729 21.5012 37.7277 21.5012 42.3621C21.5012 46.9965 18.1733 50.8513 13.7773 51.6733C14.3454 51.7795 14.9303 51.8377 15.5291 51.8377C20.7623 51.8377 25.0047 47.5953 25.0047 42.3621C25.0047 37.1289 20.7625 32.8865 15.5291 32.8865Z" fill="#404A4A"/>
<path d="M63.833 51.8377C69.0663 51.8377 73.3086 47.5953 73.3086 42.3621C73.3086 37.1289 69.0663 32.8865 63.833 32.8865C58.5998 32.8865 54.3574 37.1289 54.3574 42.3621C54.3574 47.5953 58.5998 51.8377 63.833 51.8377Z" fill="#475959"/>
<path d="M63.833 32.8865C63.2084 32.8865 62.5985 32.9486 62.0078 33.064C66.3674 33.9149 69.6581 37.7535 69.6581 42.3621C69.6581 46.9707 66.3674 50.8093 62.0078 51.6602C62.5985 51.7755 63.2084 51.8375 63.833 51.8375C69.0662 51.8375 73.3085 47.5951 73.3085 42.3619C73.3085 37.1289 69.0661 32.8865 63.833 32.8865Z" fill="#404A4A"/>
<path d="M15.5294 46.3465C17.73 46.3465 19.5139 44.5626 19.5139 42.362C19.5139 40.1615 17.73 38.3776 15.5294 38.3776C13.3288 38.3776 11.5449 40.1615 11.5449 42.362C11.5449 44.5626 13.3288 46.3465 15.5294 46.3465Z" fill="#D8E2F1"/>
<path d="M63.8321 46.3465C66.0327 46.3465 67.8166 44.5626 67.8166 42.362C67.8166 40.1615 66.0327 38.3776 63.8321 38.3776C61.6316 38.3776 59.8477 40.1615 59.8477 42.362C59.8477 44.5626 61.6316 46.3465 63.8321 46.3465Z" fill="#D8E2F1"/>
<path d="M28.5084 28.2663H26.5493C25.8574 28.2663 25.2969 27.7055 25.2969 27.0138C25.2969 26.3221 25.8576 25.7614 26.5493 25.7614H28.5084C29.2003 25.7614 29.7609 26.3221 29.7609 27.0138C29.7609 27.7055 29.2001 28.2663 28.5084 28.2663Z" fill="#404A4A"/>
<path d="M77.3314 35.2605C75.5637 35.2605 74.1309 33.8277 74.1309 32.06C74.1309 30.2924 75.5637 28.8595 77.3314 28.8595H80.5024C80.699 29.3899 80.855 29.9406 80.9638 30.5091L81.8719 35.2605H77.3314Z" fill="#F6E266"/>
<path d="M4.09898 22.97C5.53527 22.97 6.6997 24.1344 6.6997 25.5707C6.6997 27.007 5.53527 28.1714 4.09898 28.1714H1.29238C0.890513 26.4077 0.62741 24.6743 0.498047 22.9698H4.09898V22.97Z" fill="#F98080"/>
</svg>
