<svg width="76" height="76" viewBox="0 0 76 76" fill="none" xmlns="http://www.w3.org/2000/svg">
<g clip-path="url(#clip0)">
<path d="M11.1074 57.3691C15.7058 9.58609 17.9681 3.82294 29.8956 4.28169C29.8956 4.28169 32.3423 0 38.0003 0C43.6582 0 46.1049 4.28169 46.1049 4.28169C58.0324 3.82294 60.2947 9.58609 64.8931 57.3691C64.8931 57.3691 56.5797 76 38.0767 76C19.5737 76 11.1074 57.3691 11.1074 57.3691Z" fill="#E9EDF1"/>
<path d="M0.0761719 76.0007C5.5812 30.1254 10.3827 5.65864 29.3138 10.4755H46.6854C65.6168 5.65864 70.4182 30.1254 75.9233 76.0007H0.0761719Z" fill="#E9EDF1"/>
<path d="M11.1074 57.3692C13.5021 32.4838 15.2636 18.9965 18.0864 11.8487C21.1734 9.83201 24.851 9.33915 29.3145 10.4749H46.6861C51.1495 9.33915 54.8271 9.83201 57.9142 11.8487C60.7371 18.9965 62.4984 32.4838 64.8932 57.3692C64.8931 57.3692 56.5797 76 38.0767 76C19.5737 76 11.1074 57.3692 11.1074 57.3692Z" fill="white"/>
<path d="M14.7969 76.0004C14.7969 64.2257 17.4844 61.1674 25.313 57.9561C27.6537 56.996 28.8075 55.9076 29.7858 54.0443C30.4851 52.7124 45.5162 52.7124 46.2155 54.0443C47.1938 55.9076 49.0057 56.996 52.069 57.9561C62.3145 61.1674 65.8316 64.2257 65.8316 76.0004H14.7969Z" fill="#FFCDBE"/>
<path d="M23.9305 57.9554C29.1836 56.309 30.7568 54.2854 30.7568 48.624C30.7568 54.2854 30.6753 58.4142 26.2243 61.549C20.8899 65.306 19.343 68.2774 19.343 75.9997H10.168C10.168 64.2251 13.6851 61.1667 23.9305 57.9554Z" fill="#EBAE9D"/>
<path d="M46.2166 54.0428C43.8275 55.7738 41.0132 56.7734 37.9999 56.7734C34.9867 56.7734 32.1724 55.7738 29.7832 54.0428C30.4828 52.7108 30.7577 50.9842 30.7577 48.624H45.2419C45.2421 50.9842 45.517 52.7107 46.2166 54.0428Z" fill="#EBAE9D"/>
<path d="M19.6504 76.0004C19.6504 76.0004 19.6504 74.896 19.6504 74.3183C19.6504 69.5044 23.5528 65.602 28.3667 65.602C31.8157 65.602 35.9393 68.3383 38.0005 69.8072C40.0617 68.3383 44.1852 65.602 47.6343 65.602C52.4481 65.602 56.3506 69.5044 56.3506 74.3183V76.0004" fill="white"/>
<path d="M36.1525 68.9661C36.9209 68.9661 37.5983 69.3546 37.9996 69.9458C38.4008 69.3545 39.0783 68.9661 39.8467 68.9661C41.0786 68.9661 42.0773 69.9648 42.0773 71.1967C42.0773 73.1649 40.6232 73.8689 37.9996 76.0003C35.376 73.8689 33.9219 73.1649 33.9219 71.1967C33.9219 69.9648 34.9206 68.9661 36.1525 68.9661Z" fill="#ADD9F4"/>
<path d="M22.3366 28.9781C22.3366 27.9223 21.4809 27.0666 20.4251 27.0666C19.3694 27.0666 18.5137 27.9223 18.5137 28.9781C18.5137 30.0338 18.5137 30.5829 18.5137 32.3063C18.5137 34.0297 19.2672 35.4267 22.3366 35.4267C25.406 35.4267 22.3366 28.9781 22.3366 28.9781Z" fill="#EBAE9D"/>
<path d="M53.663 28.9781C53.663 27.9223 54.5187 27.0666 55.5745 27.0666C56.6302 27.0666 57.4859 27.9223 57.4859 28.9781C57.4859 30.0338 57.4859 30.5829 57.4859 32.3063C57.4859 34.0297 56.7323 35.4267 53.663 35.4267C50.5936 35.4267 53.663 28.9781 53.663 28.9781Z" fill="#EBAE9D"/>
<path d="M25.3848 25.0014C25.3848 16.3449 29.344 9.32733 38.0005 9.32733C46.657 9.32733 53.6745 16.3449 53.6745 25.0014V32.2461C53.6745 42.4139 46.657 50.6563 38.0005 50.6563C29.344 50.6563 25.3848 42.4138 25.3848 32.2461C25.3848 30.2665 25.3848 26.6868 25.3848 25.0014Z" fill="#FFCDBE"/>
<path d="M38.0002 7.79895C32.7218 7.79895 28.4429 14.8165 28.4429 23.473V32.2469C28.4429 42.4147 32.7218 50.6571 38.0002 50.6571C29.3437 50.6571 22.3262 42.4146 22.3262 32.2469C22.3262 30.2673 22.3262 25.1584 22.3262 23.473C22.3262 14.8165 29.3437 7.79895 38.0002 7.79895Z" fill="#EBAE9D"/>
<path d="M48.7799 42.282C50.5957 42.282 52.0676 40.81 52.0676 38.9943C52.0676 37.1785 50.5957 35.7065 48.7799 35.7065C46.9642 35.7065 45.4922 37.1785 45.4922 38.9943C45.4922 40.81 46.9642 42.282 48.7799 42.282Z" fill="#E6989E"/>
<path d="M27.2194 42.282C29.0351 42.282 30.5071 40.81 30.5071 38.9943C30.5071 37.1785 29.0351 35.7065 27.2194 35.7065C25.4036 35.7065 23.9316 37.1785 23.9316 38.9943C23.9316 40.81 25.4036 42.282 27.2194 42.282Z" fill="#E6989E"/>
<path d="M22.3259 49.8694C22.9592 49.8694 23.4727 49.3559 23.4727 48.7225C23.4727 46.3076 22.059 45.2456 21.0267 44.4702C20.1055 43.7782 19.4969 43.321 19.4969 42.0519C19.4969 40.7829 20.1055 40.3257 21.0267 39.6337C22.0589 38.8583 23.4727 37.7964 23.4727 35.3814V29.2275C23.4727 28.5941 22.9592 28.0806 22.3259 28.0806C21.6925 28.0806 21.179 28.5941 21.179 29.2275V35.3814C21.179 36.6504 20.5704 37.1077 19.6492 37.7996C18.617 38.5751 17.2031 39.6369 17.2031 42.0519C17.2031 44.467 18.6168 45.5288 19.6492 46.3043C20.5704 46.9962 21.179 47.4535 21.179 48.7225C21.179 49.3559 21.6925 49.8694 22.3259 49.8694Z" fill="#918D8F"/>
<path d="M53.6742 49.8694C54.3076 49.8694 54.8211 49.3559 54.8211 48.7225C54.8211 47.4535 55.4297 46.9962 56.3509 46.3043C57.3831 45.5288 58.797 44.467 58.797 42.0519C58.797 39.6369 57.3832 38.5751 56.3509 37.7996C55.4297 37.1077 54.8211 36.6504 54.8211 35.3814V29.2275C54.8211 28.5941 54.3076 28.0806 53.6742 28.0806C53.0408 28.0806 52.5273 28.5941 52.5273 29.2275V35.3814C52.5273 37.7962 53.9411 38.8583 54.9734 39.6337C55.8946 40.3257 56.5032 40.7829 56.5032 42.0519C56.5032 43.321 55.8946 43.7782 54.9734 44.4702C53.9412 45.2456 52.5273 46.3075 52.5273 48.7225C52.5273 49.3559 53.0408 49.8694 53.6742 49.8694Z" fill="#918D8F"/>
<path d="M31.4579 34.857C30.2657 34.857 29.0736 34.4032 28.166 33.4956C27.7181 33.0477 27.7181 32.3215 28.166 31.8738C28.6139 31.4259 29.3401 31.4259 29.7878 31.8738C30.7086 32.7945 32.2068 32.7946 33.1277 31.8738C33.5756 31.4259 34.3018 31.4259 34.7496 31.8738C35.1975 32.3217 35.1975 33.0479 34.7496 33.4956C33.8421 34.4032 32.65 34.857 31.4579 34.857ZM44.5403 34.8569C43.348 34.8569 42.1561 34.4032 41.2484 33.4956C40.8005 33.0477 40.8005 32.3215 41.2484 31.8738C41.6963 31.4259 42.4225 31.4259 42.8703 31.8738C43.791 32.7945 45.2894 32.7945 46.2101 31.8738C46.658 31.4259 47.3842 31.4259 47.832 31.8738C48.2799 32.3217 48.2799 33.0479 47.832 33.4956C46.9247 34.403 45.7323 34.8569 44.5403 34.8569Z" fill="#855B51"/>
<path d="M48.4616 27.9798C48.2801 27.9798 48.0961 27.9367 47.9247 27.8457C46.4287 27.0513 43.901 27.0513 42.405 27.8457C41.8459 28.1429 41.1514 27.9303 40.8541 27.3708C40.557 26.8114 40.7697 26.117 41.3291 25.8199C43.4799 24.6777 46.8495 24.6777 49.0005 25.8199C49.5599 26.117 49.7726 26.8112 49.4754 27.3708C49.2695 27.7586 48.8722 27.9798 48.4616 27.9798ZM27.5367 27.9798C27.1259 27.9798 26.7288 27.7587 26.5228 27.3706C26.2259 26.8112 26.4384 26.1169 26.9978 25.8197C29.1486 24.6774 32.5183 24.6776 34.669 25.8197C35.2284 26.1169 35.4411 26.8111 35.144 27.3706C34.8469 27.9301 34.1525 28.1427 33.5931 27.8456C32.0971 27.051 29.5694 27.051 28.0734 27.8456C27.9023 27.9367 27.7182 27.9798 27.5367 27.9798Z" fill="#D09180"/>
<path d="M38.0003 45.5674C36.1094 45.5674 34.3394 44.7482 33.0165 43.2608C32.5956 42.7875 32.6379 42.0625 33.1113 41.6417C33.5848 41.2208 34.3095 41.2632 34.7304 41.7365C35.6122 42.7277 36.7733 43.2738 38.0003 43.2738C39.2273 43.2738 40.3884 42.7278 41.2701 41.7365C41.6911 41.2632 42.4159 41.2208 42.8892 41.6417C43.3625 42.0625 43.405 42.7875 42.984 43.2608C41.6611 44.7482 39.8911 45.5674 38.0003 45.5674Z" fill="#D5717F"/>
<path d="M49.4228 21.6803C46.948 19.6088 43.9741 17.5857 43.9741 13.8331C43.9741 21.3199 36.8209 23.503 31.3061 25.4637C25.7914 27.4244 22.3372 28.3654 22.3372 32.9031C22.3308 32.6852 22.3262 32.4667 22.3262 32.2469C22.3262 30.2673 22.3262 25.1584 22.3262 23.473C22.3262 14.8165 29.3437 7.79895 38.0002 7.79895C46.6567 7.79895 53.6742 14.8165 53.6742 23.473V32.2469C53.6742 27.7091 51.8977 23.7519 49.4228 21.6803Z" fill="#918D8F"/>
<path d="M38.0002 7.79895C32.7218 7.79895 28.4429 14.8165 28.4429 23.473V26.4849C24.6225 27.9009 22.3372 29.2123 22.3372 32.903V32.9028C22.3308 32.685 22.3262 32.4665 22.3262 32.2468C22.3262 30.2671 22.3262 25.1583 22.3262 23.4728C22.3262 14.8165 29.3437 7.79895 38.0002 7.79895Z" fill="#918D8F"/>
</g>
<defs>
<clipPath id="clip0">
<rect width="76" height="76" fill="white"/>
</clipPath>
</defs>
</svg>
