<svg width="76" height="76" viewBox="0 0 76 76" fill="none" xmlns="http://www.w3.org/2000/svg">
<g clip-path="url(#clip0)">
<path d="M54.3388 22.1587C54.2332 21.54 53.6465 21.1255 53.0289 21.2298L50.2162 21.7099C49.5981 21.8155 49.1823 22.4017 49.2879 23.0198C49.3818 23.5735 49.8625 23.9643 50.4052 23.9643C50.469 23.9643 50.5328 23.9591 50.5977 23.9481L53.4105 23.4686C54.0286 23.363 54.4443 22.7768 54.3388 22.1587Z" fill="#918D8F"/>
<path d="M53.0107 27.4621L50.3029 25.9911C49.7514 25.6919 49.062 25.896 48.7628 26.4468C48.4636 26.9977 48.6677 27.6871 49.2186 27.9869L51.927 29.4573C52.0992 29.5513 52.2847 29.5953 52.468 29.5953C52.8709 29.5953 53.2606 29.3808 53.4664 29.0016C53.7662 28.4508 53.5621 27.7613 53.0107 27.4621Z" fill="#918D8F"/>
<path d="M11.6246 23.9473C11.689 23.9583 11.7534 23.9635 11.8166 23.9635C12.3599 23.9635 12.8406 23.5727 12.9345 23.0189C13.04 22.4008 12.6243 21.8146 12.0062 21.7091L9.19398 21.229C8.57588 21.124 7.98909 21.5392 7.88356 22.1579C7.77803 22.776 8.19377 23.3622 8.81187 23.4677L11.6246 23.9473Z" fill="#918D8F"/>
<path d="M11.9187 25.9911L9.21088 27.4621C8.65945 27.7613 8.45593 28.4508 8.75513 29.0022C8.96039 29.3808 9.35062 29.5953 9.7536 29.5953C9.93683 29.5953 10.1224 29.5513 10.2946 29.4579L13.003 27.9869C13.5538 27.6871 13.7579 26.9983 13.4587 26.4468C13.159 25.896 12.4701 25.6919 11.9187 25.9911Z" fill="#918D8F"/>
<path d="M56.6365 24.5384C56.8348 28.461 61.8654 34.5527 61.2804 42.3242C60.7574 49.277 57.4801 57.7211 50.7715 61.9928C50.7981 62.3766 50.8126 62.7327 50.8126 63.0556C50.8126 67.2867 48.5884 69.7695 44.0703 71.0991C44.0744 71.0979 68.0668 65.8736 68.0726 40.2641C68.0784 14.1408 56.375 19.3831 56.6365 24.5384Z" fill="#D1CFD0"/>
<path d="M54.4766 58.8821C53.3824 60.062 52.1486 61.1144 50.7709 61.9917C50.7981 62.3756 50.8126 62.7316 50.8126 63.0546C50.8126 67.2862 48.5884 69.769 44.0703 71.0986C44.0703 71.0986 48.8992 70.0468 54.2244 66.5759C54.6755 65.5658 54.8999 64.3986 54.8999 63.0546C54.8999 61.979 54.7427 60.5433 54.4766 58.8821Z" fill="#918D8F"/>
<path d="M36.7837 7.60226C36.7837 7.60226 39.9594 -0.535707 42.6806 0.0273122C45.44 0.597869 44.9043 9.77838 44.9043 9.77838C44.9043 9.77838 50.604 18.5269 50.4197 23.5593C50.2353 28.5911 47.0004 31.9478 43.7991 32.5601C43.7991 32.5601 50.8139 55.8474 50.8139 63.0547C50.8139 70.2614 44.3639 72.3976 31.1123 72.3976C17.8602 72.3976 11.4102 70.2614 11.4102 63.0547C11.4102 55.8474 18.425 32.5601 18.425 32.5601C15.2243 31.9478 11.9888 28.5911 11.8044 23.5593C11.6201 18.5269 17.3198 9.77838 17.3198 9.77838C17.3198 9.77838 16.7841 0.597869 19.5435 0.0273122C22.2641 -0.535707 25.4404 7.60226 25.4404 7.60226H36.7837Z" fill="white"/>
<path d="M31.1123 68.3108C19.0477 68.3108 12.622 66.5394 11.5667 60.7845C11.4664 61.6485 11.4102 62.4162 11.4102 63.0552C11.4102 70.2619 17.8597 72.398 31.1118 72.398C44.3639 72.398 50.8139 70.2614 50.8139 63.0552C50.8139 62.4162 50.7577 61.6485 50.6574 60.7845C49.6021 66.5394 43.1764 68.3108 31.1123 68.3108Z" fill="#D1CFD0"/>
<path d="M19.5423 0.0273122C16.7828 0.597869 17.3186 9.77838 17.3186 9.77838C17.3186 9.77838 11.6188 18.5269 11.8032 23.5593C11.9006 26.2202 12.8515 28.4119 14.1991 29.9781C30.2245 26.3941 28.8138 7.60226 28.8138 7.60226H25.4392C25.4392 7.60226 22.2628 -0.535707 19.5423 0.0273122Z" fill="#918D8F"/>
<path d="M42.6807 0.0273122C45.4395 0.597869 44.9043 9.77838 44.9043 9.77838C44.9043 9.77838 50.6041 18.5269 50.4197 23.5593C50.3223 26.2202 49.3714 28.4119 48.0238 29.9781C31.9984 26.3941 33.4085 7.60226 33.4085 7.60226H36.7837C36.7837 7.60226 39.9595 -0.535707 42.6807 0.0273122Z" fill="#918D8F"/>
<path d="M21.5841 16.5212C20.2917 16.5212 19.2793 17.7783 19.2793 19.3833C19.2793 20.9883 20.2917 22.2454 21.5841 22.2454C22.876 22.2454 23.8884 20.9883 23.8884 19.3833C23.8884 17.7783 22.876 16.5212 21.5841 16.5212Z" fill="#3A3637"/>
<path d="M40.6382 16.5212C39.3464 16.5212 38.334 17.7783 38.334 19.3833C38.334 20.9883 39.3464 22.2454 40.6382 22.2454C41.9307 22.2454 42.9431 20.9883 42.9431 19.3833C42.9431 17.7783 41.9307 16.5212 40.6382 16.5212Z" fill="#3A3637"/>
<path d="M34.599 21.9803C34.599 21.5849 34.4465 20.6287 33.0364 20.2947C32.5731 20.1852 31.9973 20.1382 31.1113 20.1382C30.2242 20.1382 29.649 20.1852 29.1863 20.2947C27.7755 20.6287 27.623 21.5849 27.623 21.9803C27.623 23.06 28.6499 24.0637 29.976 24.444V26.9895C29.976 27.6163 30.4839 28.1248 31.1113 28.1248C31.7381 28.1248 32.2466 27.6163 32.2466 26.9895V24.444C33.5721 24.0637 34.599 23.06 34.599 21.9803Z" fill="#918D8F"/>
<path d="M19.1543 45.4973C19.1543 45.4973 20.2612 74.8647 24.4876 74.8647C28.714 74.8647 28.8143 48.3895 28.8143 48.3895" fill="#E2E0E1"/>
<path d="M43.0688 45.4973C43.0688 45.4973 41.9619 74.8647 37.7355 74.8647C33.5091 74.8647 33.4082 48.3895 33.4082 48.3895" fill="#E2E0E1"/>
<path d="M24.4884 76.0005C22.4178 76.0005 21.4141 73.0903 20.7717 70.5553C20.1408 68.0689 19.5813 64.6201 19.1081 60.305C18.308 53.0072 18.0233 45.6143 18.0204 45.5401C17.9966 44.9139 18.4854 44.3868 19.1122 44.363C19.7384 44.3358 20.2661 44.828 20.2898 45.4548C20.2922 45.5233 20.556 52.3676 21.2883 59.3384C21.7156 63.4071 22.216 66.7168 22.7756 69.1753C23.5839 72.7279 24.2976 73.5368 24.5023 73.7026C24.8102 73.4742 26.2981 71.8182 27.1568 60.8964C27.6508 54.6133 27.6798 48.4474 27.6798 48.3853C27.6821 47.7597 28.1901 47.2546 28.8151 47.2546H28.8198C29.4466 47.257 29.9528 47.7672 29.9504 48.394C29.9504 48.4607 29.9191 55.1346 29.3683 61.7221C29.0418 65.6232 28.5983 68.7439 28.0503 70.9965C27.5279 73.1448 26.5903 76.0005 24.4884 76.0005Z" fill="#D1CFD0"/>
<path d="M37.7341 75.9993C35.6322 75.9993 34.6946 73.1436 34.1716 70.9959C33.6237 68.7427 33.1807 65.6226 32.8542 61.7209C32.3034 55.1334 32.2721 48.4595 32.2715 48.3928C32.2692 47.766 32.7754 47.2558 33.4027 47.2535H33.4068C34.0319 47.2535 34.5398 47.7585 34.5421 48.3847C34.5427 48.4462 34.5717 54.6232 35.0663 60.9062C35.925 71.8181 37.4123 73.473 37.7202 73.702C37.9249 73.5356 38.6386 72.7273 39.4469 69.1741C40.0065 66.7162 40.5069 63.4065 40.9342 59.3372C41.6665 52.3664 41.9304 45.5221 41.9327 45.4537C41.9565 44.8269 42.4882 44.3357 43.1103 44.3618C43.7365 44.3856 44.2253 44.9127 44.2021 45.5395C44.1993 45.6131 43.9146 53.006 43.1144 60.3044C42.6412 64.6189 42.0817 68.0678 41.4508 70.5547C40.8084 73.0891 39.8047 75.9993 37.7341 75.9993Z" fill="#D1CFD0"/>
</g>
<defs>
<clipPath id="clip0">
<rect width="76" height="76" fill="white"/>
</clipPath>
</defs>
</svg>
