<svg width="68" height="68" viewBox="0 0 68 68" fill="none" xmlns="http://www.w3.org/2000/svg">
<g clip-path="url(#clip0)">
<path d="M57.1571 4.84668L58.9853 5.44693C70.5976 22.2197 67.8386 61.7465 67.3826 67.3381C67.352 67.7126 67.0392 68.0001 66.663 68.0001H60.2662C59.9249 68.0001 59.6302 67.7609 59.5596 67.4268L54.12 41.5885L52.5527 36.4234V18.6524L54.12 13.8126L57.1571 4.84668Z" fill="#9AC6E0"/>
<path d="M10.8361 4.84668L9.0079 5.44693C-2.60438 22.2197 0.154077 61.7465 0.61062 67.3381C0.641229 67.7126 0.954065 68.0001 1.33019 68.0001H7.72698C8.06835 68.0001 8.36303 67.7609 8.43359 67.4268L13.8732 41.5885L15.44 36.4234V18.6524L13.8732 13.8126L10.8361 4.84668Z" fill="#9AC6E0"/>
<path d="M25.2332 0.120576L9.00781 5.44708L13.8731 18.6526V67.278C13.8731 67.677 14.1963 68.0002 14.5948 68.0002H34.029L34.0082 7.16327L27.7058 0.724458C27.0641 0.0681778 26.1048 -0.1658 25.2332 0.120576Z" fill="#437BA7"/>
<path d="M66.663 67.9999H64.773C65.2986 61.1975 67.4516 26.1801 57.7324 8.84961L58.9858 5.44629C70.5976 22.2196 67.8391 61.7463 67.3826 67.338C67.352 67.7125 67.0392 67.9999 66.663 67.9999Z" fill="#305D87"/>
<path d="M42.7606 0.120466L58.986 5.44697L54.1207 18.6525V67.2779C54.1207 67.6769 53.7975 68.0001 53.399 68.0001H33.9648L33.9856 7.16316L40.288 0.723829C40.9297 0.0680676 41.8885 -0.165911 42.7606 0.120466Z" fill="#437BA7"/>
<path d="M58.9858 5.44644L54.1195 18.653V67.2779C54.1195 67.6769 53.7963 68.0001 53.3973 68.0001H49.4238V16.9155C49.4238 16.0901 49.5841 15.272 49.8959 14.5078L54.2305 3.88538L58.9858 5.44644Z" fill="#305D87"/>
<path d="M44.0765 36.3145C44.037 35.9441 43.7247 35.6644 43.3522 35.6644H24.6402C24.2682 35.6644 23.9559 35.9441 23.9165 36.3145C23.6892 38.4322 22.3056 45.271 13.873 49.9558V61.1644H54.1199V49.9558C45.6873 45.271 44.3037 38.4322 44.0765 36.3145Z" fill="#9AC6E0"/>
<path d="M54.12 49.9568V61.1654H49.4238V46.5685C50.6508 47.7187 52.2902 48.9394 54.12 49.9568Z" fill="#9AC6E0"/>
<path d="M35.0124 6.11261V68.0001H32.959V6.09082L33.9966 7.15073L35.0124 6.11261Z" fill="white"/>
</g>
<defs>
<clipPath id="clip0">
<rect width="68" height="68" fill="white"/>
</clipPath>
</defs>
</svg>
