<svg width="76" height="76" viewBox="0 0 76 76" fill="none" xmlns="http://www.w3.org/2000/svg">
<path d="M71.2443 18.4441V58.4045H4.75586V18.4441C4.75586 16.3597 6.44567 14.67 8.52988 14.67H67.4704C69.5546 14.67 71.2443 16.3599 71.2443 18.4441Z" fill="#475959"/>
<path d="M71.2443 53.391V58.4052H4.75586V53.391H30.2656C31.018 53.391 31.6939 53.8498 31.9707 54.5501L32.4295 55.7062H43.4304L43.8875 54.5501C44.1644 53.8498 44.8417 53.391 45.5941 53.391H71.2443Z" fill="#404A4A"/>
<path d="M8.06641 51.2099V20.0291C8.06641 19.0157 8.88801 18.1941 9.90139 18.1941H66.0986C67.112 18.1941 67.9336 19.0157 67.9336 20.0291V51.2099C67.9336 52.2232 67.112 53.0448 66.0986 53.0448H9.90139C8.88786 53.0448 8.06641 52.2234 8.06641 51.2099Z" fill="#404A4A"/>
<path d="M66.0996 20.9472V50.2929C66.0996 50.7997 65.6889 51.2104 65.1821 51.2104H10.8198C10.3131 51.2104 9.90234 50.7997 9.90234 50.2929V20.9472C9.90234 20.4404 10.3131 20.0297 10.8198 20.0297H65.1821C65.6889 20.0295 66.0996 20.4404 66.0996 20.9472Z" fill="#ADD9F4"/>
<path d="M60.6991 20.0286L31.8774 48.8505L29.5183 51.2095H24.5449L55.7259 20.0286H60.6991Z" fill="#9AC6E0"/>
<path d="M66.0988 25.1564V38.4344L55.6831 48.8513L53.324 51.2103H40.0449L42.4039 48.8513L66.0988 25.1564Z" fill="#9AC6E0"/>
<path d="M51.6839 20.0286L22.8611 48.8505L20.502 51.2095H11.375L13.7341 48.8505L42.5559 20.0286H51.6839Z" fill="#9AC6E0"/>
<path d="M76 55.2256V57.8878C76 59.7886 74.4586 61.33 72.5579 61.33H3.44212C1.54137 61.3301 0 59.7884 0 57.8877V55.2255H30.3357L31.2532 57.5406H44.7466L45.6641 55.2255L76 55.2256Z" fill="#618BAA"/>
<path d="M76 55.2249V57.0598H46.8875L46.4293 58.216C46.152 58.9156 45.4759 59.375 44.7233 59.375H31.2765C30.5241 59.375 29.8478 58.9156 29.5705 58.216L29.1123 57.0598H0V55.2249H30.3357L31.2532 57.54H44.7466L45.6641 55.2249H76Z" fill="#89B4C9"/>
</svg>
