<svg width="76" height="20" viewBox="0 0 76 20" fill="none" xmlns="http://www.w3.org/2000/svg">
<circle cx="9.66101" cy="9.66101" r="9.66101" fill="#5989B6"/>
<path d="M19.3212 9.66101C18.677 19.322 9.66016 19.322 9.66016 19.322C9.66016 19.322 15.4566 14.3526 15.4566 9.01694C15.4566 3.68131 9.66016 0 9.66016 0C9.66016 0 18.677 0 19.3212 9.66101Z" fill="#2E4969"/>
<circle cx="38.0009" cy="9.66101" r="9.66101" fill="#5989B6"/>
<path d="M47.661 9.66101C47.0169 19.322 38 19.322 38 19.322C38 19.322 43.7965 14.3526 43.7965 9.01694C43.7965 3.68131 38 0 38 0C38 0 47.0169 0 47.661 9.66101Z" fill="#2E4969"/>
<circle cx="66.3387" cy="9.66101" r="9.66101" fill="#5989B6"/>
<path d="M75.9989 9.66101C75.3548 19.322 66.3379 19.322 66.3379 19.322C66.3379 19.322 72.1344 14.3526 72.1344 9.01694C72.1344 3.68131 66.3379 0 66.3379 0C66.3379 0 75.3548 0 75.9989 9.66101Z" fill="#2E4969"/>
</svg>
