<svg width="76" height="76" viewBox="0 0 76 76" fill="none" xmlns="http://www.w3.org/2000/svg">
<path d="M18.6434 65.5698H13.8476C13.4615 65.5698 13.1484 65.9567 13.1484 66.4336V71.0065C13.1484 71.3011 13.27 71.5761 13.4714 71.7346C13.6724 71.8931 13.9252 71.9142 14.1418 71.7901L16.2454 70.5842L18.3491 71.7901C18.4426 71.8437 18.543 71.8701 18.6433 71.8701C18.7744 71.8701 18.9051 71.8247 19.0194 71.7346C19.2207 71.5761 19.3424 71.3013 19.3424 71.0065V66.4336C19.3426 65.9565 19.0295 65.5698 18.6434 65.5698Z" fill="#3A3637"/>
<path d="M13.1484 44.7546V52.0017V67.729H19.3426V52.8507C16.5503 50.5361 14.4287 47.7819 13.1484 44.7546Z" fill="#E2E0E1"/>
<path opacity="0.1" d="M13.1484 53.7413V66.433V67.7296V71.006C13.1484 71.3006 13.27 71.5755 13.4714 71.734C13.6724 71.8926 13.9252 71.9137 14.1418 71.7896L15.8 70.8393V67.7298V65.5696V51.2703C14.706 50.0243 13.8131 48.6931 13.1486 47.2959C13.1484 47.2959 13.1484 53.7413 13.1484 53.7413Z" fill="#3A3637"/>
<path d="M58.5347 65.5698H53.7486C53.3632 65.5698 53.0508 65.9567 53.0508 66.4336V71.0065C53.0508 71.3011 53.1722 71.5761 53.373 71.7346C53.5737 71.8931 53.8261 71.9142 54.042 71.7901L56.1417 70.5842L58.2409 71.7901C58.3344 71.8437 58.4348 71.8701 58.5345 71.8701C58.6657 71.8701 58.7961 71.8247 58.9102 71.7346C59.1109 71.5761 59.2325 71.3013 59.2325 71.0065V66.4336C59.2328 65.9565 58.9203 65.5698 58.5347 65.5698Z" fill="#3A3637"/>
<path d="M53.6291 52.1851C53.6695 52.7721 53.6926 53.3694 53.6926 53.9773C53.6926 55.991 53.4618 57.9014 53.0508 59.6247V67.73H59.2328V48.2776C57.494 49.8163 55.6156 51.1267 53.6291 52.1851Z" fill="#E2E0E1"/>
<path d="M41.791 60.7672C40.9104 60.7672 40.0387 60.7409 39.1777 60.6893C39.47 64.6282 42.601 67.7289 46.4231 67.7289C50.4383 67.7289 53.6934 64.3077 53.6934 60.0878C53.6934 59.7501 53.6704 59.4182 53.6299 59.0919C49.9972 60.1673 45.9971 60.7672 41.791 60.7672Z" fill="#F98080"/>
<path opacity="0.1" d="M53.6291 59.5124C53.6695 59.8228 53.6926 60.1385 53.6926 60.4599C53.6926 61.5245 53.4618 62.5343 53.0508 63.4454V66.4336V67.7302V71.0065C53.0508 71.3012 53.1722 71.5761 53.373 71.7346C53.5737 71.8932 53.8261 71.9142 54.042 71.7901L55.702 70.8366V67.7302V65.57V58.866C55.0255 59.0977 54.3345 59.314 53.6291 59.5124Z" fill="#3A3637"/>
<path d="M27.9449 65.5698H20.1543C19.7056 65.5698 19.3418 65.9567 19.3418 66.4336V71.1365C19.3418 71.4168 19.4699 71.68 19.6854 71.8422C19.9014 72.004 20.1771 72.0444 20.426 71.9507L24.0496 70.584L27.673 71.9507C27.7616 71.9841 27.8536 72.0003 27.9449 72.0003C28.1103 72.0003 28.2748 71.9463 28.4133 71.8422C28.6288 71.68 28.7569 71.4169 28.7569 71.1365V66.4336C28.757 65.9565 28.3935 65.5698 27.9449 65.5698Z" fill="#918D8F"/>
<path d="M67.8345 65.5698H60.0444C59.5958 65.5698 59.2324 65.9567 59.2324 66.4336V71.1365C59.2324 71.4168 59.3602 71.68 59.5761 71.8422C59.7913 72.004 60.0677 72.0444 60.3163 71.9507L63.94 70.584L67.5633 71.9507C67.6516 71.9841 67.7437 72.0003 67.8347 72.0003C68.0008 72.0003 68.1648 71.9463 68.304 71.8422C68.5193 71.68 68.6477 71.4169 68.6477 71.1365V66.4336C68.6477 65.9565 68.2835 65.5698 67.8345 65.5698Z" fill="#918D8F"/>
<path d="M69.916 35.1327C69.5239 35.1327 69.1381 34.9475 68.8963 34.6016C68.5031 34.039 68.6405 33.2642 69.203 32.8711C71.9032 30.9842 73.5151 27.9387 73.5151 24.7241C73.5151 20.9292 71.3405 17.4979 67.8394 15.7695C67.2238 15.4656 66.9713 14.7203 67.2752 14.1048C67.5789 13.4893 68.3242 13.237 68.9398 13.5405C73.2952 15.6908 76.0008 19.9762 76.0008 24.7241C76.0008 28.7497 73.9918 32.5572 70.6268 34.9086C70.4102 35.06 70.1619 35.1327 69.916 35.1327Z" fill="#E2E0E1"/>
<path d="M41.7914 21.827C39.6484 21.827 37.5627 21.9836 35.5466 22.2633C35.5466 22.2633 11.8532 24.493 11.8946 43.2007C12.4729 47.5193 15.1889 51.4342 19.3429 54.4965V67.7295H28.758V59.1565C32.7002 60.403 37.1184 61.1058 41.7909 61.1058C48.2978 61.1058 54.3158 59.7472 59.2335 57.4464V67.7297H68.6486V50.2421C70.6692 47.6008 71.8135 44.6218 71.8135 41.4665C71.8138 30.6206 58.3723 21.827 41.7914 21.827Z" fill="white"/>
<path d="M67.7194 10.5299C69.2257 11.4872 69.6703 13.4842 68.7133 14.9904C67.7561 16.4966 65.7587 16.9415 64.2526 15.9842C62.7463 15.027 60.2036 11.6965 61.1611 10.1903C62.1186 8.68407 66.2137 9.57247 67.7194 10.5299Z" fill="#918D8F"/>
<path d="M53.6931 31.9117C57.1523 31.9117 60.0441 29.4911 60.7722 26.2518C56.8495 24.1549 52.1011 22.6951 46.8945 22.1117C46.5984 22.903 46.4355 23.7594 46.4355 24.6541C46.4354 28.6622 49.6848 31.9117 53.6931 31.9117Z" fill="#918D8F"/>
<path d="M42.8234 43.0798C44.8368 43.0798 46.469 41.4476 46.469 39.4342C46.469 37.4208 44.8368 35.7886 42.8234 35.7886C40.8099 35.7886 39.1777 37.4208 39.1777 39.4342C39.1777 41.4476 40.8099 43.0798 42.8234 43.0798Z" fill="#918D8F"/>
<path d="M8.07233 14.5212H4.47465C2.00717 14.5212 0 16.5283 0 18.9954V26.5779C0 27.127 0.445164 27.5722 0.994234 27.5722H2.76925C5.23658 27.5722 7.2439 25.5648 7.2439 23.0975L9.06671 15.5152C9.06671 14.9663 8.62125 14.5212 8.07233 14.5212Z" fill="#D3D3D3"/>
<path d="M31.2368 14.5212H27.8048C27.2557 14.5212 26.8105 14.9666 26.8105 15.5155L28.4677 23.0978C28.4677 25.5651 30.475 27.5725 32.9423 27.5725H34.7174C35.2666 27.5725 35.7116 27.1271 35.7116 26.5782V18.9957C35.7113 16.5283 33.7043 14.5212 31.2368 14.5212Z" fill="#D3D3D3"/>
<path d="M26.4222 14.177C25.8814 14.177 25.3838 13.8213 25.2278 13.2753C25.0393 12.6158 25.4211 11.9283 26.0805 11.7392C27.481 11.336 31.3592 9.81987 32.4717 7.67243C32.8137 7.01232 32.8565 6.37048 32.6067 5.65219C32.3815 5.00397 32.7242 4.29562 33.3725 4.07C34.0205 3.84526 34.7293 4.18726 34.9545 4.83564C35.4245 6.18672 35.3284 7.56481 34.6765 8.82029C32.871 12.2979 27.3842 13.9518 26.7645 14.1287C26.6503 14.1615 26.5354 14.177 26.4222 14.177Z" fill="#3A3637"/>
<path d="M9.0071 14.1763C8.89414 14.1763 8.77925 14.1608 8.6651 14.1281C8.04538 13.9512 2.55853 12.2973 0.75294 8.81968C0.101151 7.56404 0.00511166 6.18595 0.474916 4.83502C0.700393 4.18665 1.40903 3.84435 2.05726 4.06938C2.70549 4.29486 3.04823 5.00335 2.82275 5.65158C2.57263 6.37061 2.61613 7.01334 2.95931 7.67433C4.07838 9.83009 7.95038 11.3388 9.34821 11.7383C10.008 11.9268 10.3902 12.6148 10.2016 13.2746C10.0456 13.8205 9.54801 14.1763 9.0071 14.1763Z" fill="#3A3637"/>
<path d="M17.8559 26.6033C22.0777 26.6033 25.8909 27.6562 28.6336 29.349V17.3131C28.6336 14.306 26.1958 11.8672 23.1885 11.8672H12.523C9.51591 11.8672 7.07812 14.3062 7.07812 17.3131V29.349C9.8208 27.6562 13.634 26.6033 17.8559 26.6033Z" fill="white"/>
<g opacity="0.15">
<path opacity="0.15" d="M9.72952 17.3131C9.72952 14.306 12.1673 11.8672 15.1744 11.8672H12.523C9.51591 11.8672 7.07812 14.3062 7.07812 17.3131V28.3547C7.87598 27.8622 8.76675 27.4261 9.72952 27.052V17.3131Z" fill="#231F20"/>
</g>
<path d="M32.9697 34.7772C32.9697 39.8401 26.2023 43.9446 17.8559 43.9446C9.50916 43.9446 2.74219 39.8398 2.74219 34.7772C2.74219 29.7143 9.5093 25.6099 17.8559 25.6099C26.2023 25.6097 32.9697 29.7143 32.9697 34.7772Z" fill="#F98080"/>
<path opacity="0.15" d="M5.39358 34.7768C5.39358 31.1272 8.49088 27.9164 13.1773 26.0579C7.12065 27.2531 2.74219 30.7046 2.74219 34.7768C2.74219 38.849 7.12095 42.3008 13.1779 43.4957C8.49088 41.6371 5.39358 38.4264 5.39358 34.7768Z" fill="#231F20"/>
<path d="M13.66 33.8907C13.66 34.5667 13.1117 35.115 12.434 35.115C11.7569 35.115 11.209 34.5667 11.209 33.8907C11.209 33.2134 11.757 32.665 12.434 32.665C13.1117 32.665 13.66 33.2135 13.66 33.8907Z" fill="#AF251E"/>
<path d="M24.3478 33.8903C24.3478 34.5662 23.7995 35.1146 23.1221 35.1146C22.4448 35.1146 21.8965 34.5662 21.8965 33.8903C21.8965 33.2129 22.4448 32.6647 23.1221 32.6647C23.7995 32.6647 24.3478 33.2129 24.3478 33.8903Z" fill="#AF251E"/>
<path d="M15.7661 22.2619C15.0796 22.2619 14.5233 21.7056 14.5233 21.0191C14.5233 20.6193 14.1977 20.2941 13.798 20.2941C13.3987 20.2941 13.0736 20.6193 13.0736 21.0191C13.0736 21.7056 12.5173 22.2619 11.8308 22.2619C11.1444 22.2619 10.5879 21.7056 10.5879 21.0191C10.5879 19.2486 12.0277 17.8083 13.7979 17.8083C15.5683 17.8083 17.0089 19.2485 17.0089 21.0191C17.009 21.7056 16.4524 22.2619 15.7661 22.2619Z" fill="#3A3637"/>
<path d="M24.0943 22.2608C23.4077 22.2608 22.8514 21.7045 22.8514 21.0179C22.8514 20.6182 22.5262 20.2931 22.1264 20.2931C21.7268 20.2931 21.4018 20.6182 21.4018 21.0179C21.4018 21.7045 20.8451 22.2608 20.1589 22.2608C19.4724 22.2608 18.916 21.7045 18.916 21.0179C18.916 19.2477 20.356 17.8074 22.1264 17.8074C23.8968 17.8074 25.3371 19.2475 25.3371 21.0179C25.3371 21.7045 24.7805 22.2608 24.0943 22.2608Z" fill="#3A3637"/>
<path opacity="0.15" d="M59.2344 57.3793V66.4325V68.2688V71.1354C59.2344 71.4157 59.3622 71.6789 59.578 71.8411C59.7932 72.0029 60.0696 72.0433 60.3183 71.9496L61.8858 71.3585V68.2688V65.5689V55.9504C61.0728 56.4406 60.1914 56.9199 59.2344 57.3793Z" fill="#231F20"/>
<path opacity="0.1" d="M21.1983 52.645C21.1533 52.6118 21.1085 52.5781 21.0637 52.5444L21.0597 52.5417L21.06 52.5414C17.7682 50.0578 15.4701 46.9971 14.8578 43.7613C13.8284 43.635 12.8364 43.4466 11.8945 43.2007C12.4728 47.5193 15.1888 51.4342 19.3428 54.4965V63.1332V66.4329V68.2382V71.1359C19.3428 71.4161 19.4709 71.6793 19.6865 71.8416C19.9024 72.0033 20.1781 72.0437 20.427 71.9501L21.9942 71.359V68.2382V65.5695V63.1332V54.7084C21.9945 53.4736 21.4585 52.8671 21.1983 52.645Z" fill="#231F20"/>
</svg>
