<svg width="1909" height="584" viewBox="0 0 1909 584" fill="none" xmlns="http://www.w3.org/2000/svg">
<g opacity="0.5">
<path d="M250 202C250 215.594 247.725 228.967 243 242C238.205 254.963 231.821 266.148 223 275C210.922 286.981 196.855 295.865 182 302C167.206 308.126 149.087 311 127 311H78V410H0V106H129C148.301 106 163.734 107.652 177 111C190.196 114.348 201.861 119.304 212 126C224.218 134.011 233.546 144.528 240 157C246.463 169.551 250 184.436 250 202ZM169 204C169 195.428 166.576 188.205 162 182C157.415 175.865 152.035 171.437 146 169C137.869 165.722 129.642 163.351 122 163C114.297 162.649 104.777 163 92 163H78V254H101C114.196 254 124.459 252.604 133 251C141.541 249.396 149.166 245.873 155 241C159.926 236.679 162.782 231.995 165 226C167.227 219.944 169 212.642 169 204Z" fill="white"/>
<path d="M535 295C535 332.958 523.832 362.18 502 384C480.09 405.82 449.583 417 410 417C370.417 417 339.91 405.82 318 384C296.168 362.18 285 332.958 285 295C285 256.83 296.029 226.82 318 205C340.05 183.25 370.687 172 410 172C449.862 172 480.299 183.109 502 205C523.762 226.962 535 257.112 535 295ZM445 350C449.778 344.115 453.576 337.276 456 329C458.354 320.724 459 309.594 459 295C459 281.527 458.433 270.123 456 261C453.576 251.877 449.368 244.471 445 239C440.702 233.388 436.103 229.321 430 227C423.906 224.688 417.071 224 410 224C402.929 224 396.545 225.103 391 227C385.525 228.897 379.996 232.247 375 238C370.492 243.329 367.633 250.735 365 260C362.367 269.326 361 280.962 361 295C361 307.556 361.716 318.744 364 328C366.284 337.194 369.492 344.388 374 350C378.368 355.329 383.897 359.547 390 362C396.033 364.453 403.232 365 411 365C417.652 365 423.906 364.241 430 362C436.033 359.75 440.841 355.338 445 350Z" fill="white"/>
<path d="M825 293C825 329.099 814.867 358.24 795 381C775.203 403.76 750.626 415 721 415C708.263 415 697.62 413.722 688 411C678.38 408.208 668.654 404.172 660 399L657 410H587V92H660V205C671.213 195.991 683.299 188.585 695 183C706.701 177.415 719.704 175 735 175C763.869 175 786.425 185.057 802 206C817.575 226.881 825 256.208 825 293ZM749 294C749 273.54 745.851 258.029 739 247C732.079 235.971 719.716 230 702 230C695.149 230 688.339 230.91 681 233C673.731 235.169 666.651 239.022 660 243V358C665.267 359.888 670.29 361.377 675 362C679.771 362.702 685.427 363 692 363C711.31 363 725.58 356.45 735 345C744.481 333.541 749 316.901 749 294Z" fill="white"/>
<path d="M981 328L1033 181H1108L982 492H903L939 406L851 181H927L981 328Z" fill="white"/>
<path d="M1296 407C1288.15 409.092 1279.82 410.88 1271 412C1262.18 413.182 1251.77 414 1239 414C1210.47 414 1188.88 408.554 1175 397C1161.05 385.446 1154 365.044 1154 337V230H1124V181H1154V115H1227V181H1296V230H1227V312C1227 320.07 1226.87 327.013 1227 333C1227.14 338.987 1228.99 344.195 1231 349C1232.88 353.727 1236.21 357.217 1241 360C1245.86 362.783 1252.77 364 1262 364C1265.82 364 1270.82 363.663 1277 362C1283.18 360.328 1287.57 358.392 1290 357H1296V407Z" fill="white"/>
<circle cx="1611" cy="292" r="292" fill="white"/>
<path d="M1925 466C1925 474.366 1922.16 479 1917 479H1856C1850.84 479 1837.66 459.755 1816 422C1797.78 389.977 1786.07 367.192 1780 353C1774.01 339.262 1769.81 331.639 1769 330C1763.65 321.085 1758.07 316.549 1751 316C1748.91 315.82 1742.7 316 1733 316C1710.79 316 1700 318.448 1700 324C1700 340.286 1699.91 364.522 1701 397C1702.09 429.478 1703 453.903 1703 470C1703 475.912 1700.45 479 1696 479C1692.65 479 1687.71 478.549 1681 478C1674.3 477.459 1669.36 477 1666 477C1662.83 477 1658.34 477.459 1652 478C1645.74 478.549 1641.17 479 1638 479C1633.55 479 1631 477.093 1631 473C1631 453.445 1632.19 424.205 1634 385C1635.81 345.881 1636 316.555 1636 297C1636 276.441 1635.81 245.299 1634 204C1632.19 162.693 1631 131.654 1631 111C1631 107.087 1633.55 105 1638 105C1641.17 105 1645.48 105.451 1652 106C1658.52 106.541 1663.65 107 1667 107C1670.17 107 1674.66 106.541 1681 106C1687.34 105.451 1692.83 105 1696 105C1700.08 105 1702 106.817 1702 110C1702 125.102 1700.91 147.616 1700 178C1699.09 208.384 1699 231.718 1699 247C1699 253.916 1699.09 258.267 1700 260C1701.36 263.183 1705.11 264 1711 264C1745.27 264 1771.04 257.828 1787 245C1800.6 233.631 1812.85 213.384 1825 183C1833.88 159.163 1843.12 134.837 1852 111C1853.27 107.997 1855.74 106.098 1860 105C1862.9 104.279 1871.95 104 1888 104C1907.49 104 1918 106.543 1918 112C1918 115.183 1913.16 129.438 1905 155C1895.48 184.843 1883.23 211.261 1868 234C1857.94 249.471 1844.67 265.357 1828 281C1823.73 284.733 1822 287.997 1822 291C1822 294.183 1828.68 310.521 1843 339C1855.33 363.747 1866.94 383.078 1877 398C1888.15 411.643 1904.05 432.615 1924 461C1924.91 462.639 1925 464.172 1925 466Z" fill="#E3E7EF"/>
<path d="M1659 293C1659 345.786 1641.7 390.953 1608 429C1572.93 468.403 1529.14 488 1477 488C1424.67 488 1381.88 468.231 1347 429C1313.3 391.142 1296 346.155 1296 293C1296 240.488 1312.93 194.227 1347 156C1382.06 116.408 1425.21 97 1477 97C1528.96 97 1572.93 116.408 1608 156C1641.88 194.047 1659 240.3 1659 293ZM1595 292C1595 257.147 1583.62 226.848 1562 201C1539.29 173.607 1511.25 160 1477 160C1443.11 160 1414.53 173.238 1392 201C1370.74 226.934 1360 258.233 1360 293C1360 327.682 1370.74 358.066 1392 384C1414.53 411.762 1443.11 425 1477 425C1511.33 425 1540.29 411.762 1563 384C1584.45 358.066 1595 327.137 1595 292Z" fill="#E3E7EF"/>
</g>
</svg>
