<svg width="76" height="76" viewBox="0 0 76 76" fill="none" xmlns="http://www.w3.org/2000/svg">
<g clip-path="url(#clip0)">
<path d="M32.7996 75.9994H7.75169C6.92015 75.9994 6.24609 75.3254 6.24609 74.4938V28.504C6.24609 27.6725 6.92015 26.9984 7.75169 26.9984H32.7996C33.6312 26.9984 34.3052 27.6725 34.3052 28.504V74.4938C34.3052 75.3254 33.6312 75.9994 32.7996 75.9994Z" fill="#5989B6"/>
<path d="M34.3058 28.504C34.3058 27.6725 33.6317 26.9984 32.8002 26.9984H16.8301V70.8581H34.3058V28.504Z" fill="#2E4969"/>
<path d="M38.1376 14.2375C37.5135 14.2375 37.0078 13.7317 37.0078 13.1078V1.12976C37.0078 0.505727 37.5135 0 38.1376 0C38.7616 0 39.2673 0.505875 39.2673 1.12976V13.1076C39.2673 13.7317 38.7616 14.2375 38.1376 14.2375Z" fill="#2E4969"/>
<path d="M45.8709 9.59344H30.404C29.5725 9.59344 28.8984 10.2675 28.8984 11.099V21.9121H47.3764V11.099C47.3765 10.2675 46.7025 9.59344 45.8709 9.59344Z" fill="#9C9C9C"/>
<path d="M45.8702 9.59344H39.4648C40.2964 9.59344 40.9704 10.2675 40.9704 11.099V21.9121H47.3758V11.099C47.3758 10.2675 46.7018 9.59344 45.8702 9.59344Z" fill="#5989B6"/>
<path d="M25.4884 36.5446H13.831C12.5145 36.5446 11.4473 35.4773 11.4473 34.1609C11.4473 32.8444 12.5145 31.7771 13.831 31.7771H25.4884C26.8049 31.7771 27.8722 32.8444 27.8722 34.1609C27.8722 35.4773 26.8049 36.5446 25.4884 36.5446Z" fill="#ADD9F4"/>
<path d="M25.4884 46.6808H13.831C12.5145 46.6808 11.4473 45.6136 11.4473 44.2971C11.4473 42.9806 12.5145 41.9133 13.831 41.9133H25.4884C26.8049 41.9133 27.8722 42.9806 27.8722 44.2971C27.8722 45.6136 26.8049 46.6808 25.4884 46.6808Z" fill="#ADD9F4"/>
<path d="M25.4884 56.8154H13.831C12.5145 56.8154 11.4473 55.7482 11.4473 54.4317C11.4473 53.1152 12.5145 52.0479 13.831 52.0479H25.4884C26.8049 52.0479 27.8722 53.1152 27.8722 54.4317C27.8722 55.7483 26.8049 56.8154 25.4884 56.8154Z" fill="#ADD9F4"/>
<path d="M25.4884 66.951H13.831C12.5145 66.951 11.4473 65.8837 11.4473 64.5672C11.4473 63.2507 12.5145 62.1835 13.831 62.1835H25.4884C26.8049 62.1835 27.8722 63.2507 27.8722 64.5672C27.8722 65.8837 26.8049 66.951 25.4884 66.951Z" fill="#ADD9F4"/>
<path d="M16.8301 36.5446H25.489C26.8055 36.5446 27.8728 35.4773 27.8728 34.1609C27.8728 32.8444 26.8055 31.7771 25.489 31.7771H16.8301V36.5446Z" fill="#ADD9F4"/>
<path d="M16.8301 46.6808H25.489C26.8055 46.6808 27.8728 45.6136 27.8728 44.2971C27.8728 42.9806 26.8055 41.9133 25.489 41.9133H16.8301V46.6808Z" fill="#ADD9F4"/>
<path d="M16.8301 56.8163H25.489C26.8055 56.8163 27.8728 55.7491 27.8728 54.4327C27.8728 53.1162 26.8055 52.049 25.489 52.049H16.8301V56.8163Z" fill="#ADD9F4"/>
<path d="M16.8301 66.951H25.489C26.8055 66.951 27.8728 65.8837 27.8728 64.5672C27.8728 63.2507 26.8055 62.1835 25.489 62.1835H16.8301V66.951Z" fill="#ADD9F4"/>
<path d="M34.3061 74.4951V70.8594H14.8057C13.8073 70.8594 12.998 71.6687 12.998 72.667V76.0007H32.8005C33.632 76.0007 34.3061 75.3266 34.3061 74.4951Z" fill="#2E4969"/>
<path d="M68.2508 75.9996H43.2029C42.3713 75.9996 41.6973 75.3256 41.6973 74.494V38.2223C41.6973 37.3907 42.3713 36.7167 43.2029 36.7167H68.2508C69.0823 36.7167 69.7564 37.3907 69.7564 38.2223V74.4939C69.7564 75.3256 69.0823 75.9996 68.2508 75.9996Z" fill="#063453"/>
<path d="M63.9336 47.886H59.8602C59.4823 47.886 59.1758 47.5796 59.1758 47.2016V43.2307C59.1758 42.8528 59.4822 42.5463 59.8602 42.5463H63.9336C64.3116 42.5463 64.6181 42.8526 64.6181 43.2307V47.2016C64.6181 47.5796 64.3117 47.886 63.9336 47.886Z" fill="#ADD9F4"/>
<path d="M63.9336 59.2366H59.8602C59.4823 59.2366 59.1758 58.9302 59.1758 58.5523V54.5814C59.1758 54.2035 59.4822 53.897 59.8602 53.897H63.9336C64.3116 53.897 64.6181 54.2033 64.6181 54.5814V58.5523C64.6181 58.9302 64.3117 59.2366 63.9336 59.2366Z" fill="#ADD9F4"/>
<path d="M63.9336 70.5899H59.8602C59.4823 70.5899 59.1758 70.2835 59.1758 69.9054V65.9346C59.1758 65.5566 59.4822 65.2501 59.8602 65.2501H63.9336C64.3116 65.2501 64.6181 65.5565 64.6181 65.9346V69.9054C64.6181 70.2833 64.3117 70.5899 63.9336 70.5899Z" fill="#ADD9F4"/>
<path d="M53.4684 70.8592H22.8086V18.1279C22.8086 17.2964 23.4826 16.6223 24.3142 16.6223H51.9628C52.7943 16.6223 53.4684 17.2964 53.4684 18.1279V70.8592Z" fill="#305D87"/>
<path d="M30.9585 63.9226H28.1298C27.7518 63.9226 27.4453 63.6163 27.4453 63.2382V24.2422C27.4453 23.8643 27.7517 23.5577 28.1298 23.5577H30.9585C31.3365 23.5577 31.643 23.8641 31.643 24.2422V63.2382C31.643 63.6163 31.3365 63.9226 30.9585 63.9226Z" fill="#D3E1F5"/>
<path d="M39.5523 63.9226H36.7235C36.3456 63.9226 36.0391 63.6163 36.0391 63.2382V24.2422C36.0391 23.8643 36.3454 23.5577 36.7235 23.5577H39.5523C39.9302 23.5577 40.2367 23.8641 40.2367 24.2422V63.2382C40.2367 63.6163 39.9304 63.9226 39.5523 63.9226Z" fill="#D3E1F5"/>
<path d="M68.2508 36.7167H63.1133C63.9448 36.7167 64.6189 37.3907 64.6189 38.2223V74.4939C64.6189 75.3254 63.9448 75.9995 63.1133 75.9995H68.2508C69.0824 75.9995 69.7565 75.3254 69.7565 74.4939V38.2223C69.7565 37.3907 69.0824 36.7167 68.2508 36.7167Z" fill="#5989B6"/>
<path d="M51.962 16.6223H45.5566C46.3882 16.6223 47.0622 17.2964 47.0622 18.1279V70.8593H53.4676V18.1278C53.4676 17.2964 52.7936 16.6223 51.962 16.6223Z" fill="#2E4969"/>
<path d="M48.146 63.9226H45.3173C44.9393 63.9226 44.6328 63.6163 44.6328 63.2382V24.2422C44.6328 23.8643 44.9392 23.5577 45.3173 23.5577H48.146C48.524 23.5577 48.8303 23.8641 48.8303 24.2422V63.2382C48.8303 63.6163 48.524 63.9226 48.146 63.9226Z" fill="#D3E1F5"/>
<path d="M48.1461 63.9226C48.524 63.9226 48.8305 63.6163 48.8305 63.2382V24.2422C48.8305 23.8643 48.5242 23.5577 48.1461 23.5577H47.0625V63.9226H48.1461Z" fill="#82AEE3"/>
<path d="M55.4916 70.8594H20.7823C19.7839 70.8594 18.9746 71.6687 18.9746 72.667V76.0007H57.2994V72.6672C57.2993 71.6688 56.49 70.8594 55.4916 70.8594Z" fill="#5989B6"/>
<path d="M57.3009 75.9998V72.6663C57.3009 71.6679 56.4917 70.8586 55.4933 70.8586H49.0879C50.0863 70.8586 50.8956 71.6679 50.8956 72.6663C50.8956 76.2349 50.895 75.7923 50.8972 75.9998H57.3009Z" fill="#305D87"/>
</g>
<defs>
<clipPath id="clip0">
<rect width="76" height="76" fill="white"/>
</clipPath>
</defs>
</svg>
