<svg width="502" height="293" viewBox="0 0 502 293" fill="none" xmlns="http://www.w3.org/2000/svg">
<path d="M101.336 50.174C101.336 50.174 101.336 45.0371 105.823 44.0752C110.31 43.1133 115.117 43.4329 116.399 37.3333C117.68 31.2337 124.414 28.9865 126.974 33.481C129.535 37.9756 134.666 42.4702 139.151 38.6172C143.636 34.7641 148.445 32.8387 151.65 36.691C154.854 40.5433 159.983 46.964 164.79 44.0752C169.596 41.1864 176.327 45.6802 176.966 47.9275L101.336 50.174Z" fill="#5989B6"/>
<path d="M287.998 23.4072C287.998 23.4072 287.998 17.1726 293.444 16.0037C298.889 14.8349 304.723 15.2248 306.279 7.82055C307.835 0.416294 316.003 -2.30964 319.115 3.14531C322.227 8.60027 328.451 14.056 333.896 9.37921C339.341 4.70244 345.175 2.36559 349.065 7.0416C352.954 11.7176 359.178 19.5102 365.013 16.003C370.848 12.4958 379.015 17.9515 379.794 20.679L287.998 23.4072Z" fill="#5989B6"/>
<path d="M379.932 124.627C379.932 124.627 379.932 117.322 386.313 115.952C392.694 114.583 399.531 115.039 401.354 106.364C403.176 97.689 412.749 94.4921 416.396 100.883C420.043 107.273 427.335 113.668 433.716 108.188C440.098 102.709 446.934 99.9702 451.493 105.449C456.051 110.928 463.343 120.06 470.181 115.948C477.018 111.837 486.589 118.231 487.501 121.43L379.932 124.627Z" fill="#5989B6"/>
<path d="M12.3945 154.171C12.3945 154.171 12.3945 149.825 16.1908 149.01C19.9871 148.196 24.0516 148.47 25.1398 143.305C26.228 138.14 31.9217 136.243 34.0888 140.046C36.2559 143.848 40.5963 147.651 44.3934 144.392C48.1905 141.133 52.2542 139.502 54.9685 142.762C57.6828 146.022 62.0193 151.454 66.0869 149.01C70.1545 146.566 75.8489 150.368 76.3915 152.269L12.3945 154.171Z" fill="#5989B6"/>
<g opacity="0.4">
<path opacity="0.4" d="M54.9785 175.338H60.8055" stroke="#9AC6E0" stroke-width="2.32623" stroke-linecap="round" stroke-linejoin="round"/>
<path opacity="0.4" d="M57.8926 178.256V172.419" stroke="#9AC6E0" stroke-width="2.32623" stroke-linecap="round" stroke-linejoin="round"/>
</g>
<g opacity="0.3">
<path opacity="0.3" d="M413.822 61.49H420.761" stroke="#9AC6E0" stroke-width="2.77003" stroke-linecap="round" stroke-linejoin="round"/>
<path opacity="0.3" d="M417.291 64.9655V58.0151" stroke="#9AC6E0" stroke-width="2.77003" stroke-linecap="round" stroke-linejoin="round"/>
</g>
<g opacity="0.4">
<path opacity="0.4" d="M136.6 19.3271H144.823" stroke="#9AC6E0" stroke-width="1.91832" stroke-linecap="round" stroke-linejoin="round"/>
<path opacity="0.4" d="M140.711 23.4457V15.2085" stroke="#9AC6E0" stroke-width="1.91832" stroke-linecap="round" stroke-linejoin="round"/>
</g>
<g opacity="0.3">
<path opacity="0.3" d="M260.465 28.3898H267.403" stroke="#9AC6E0" stroke-width="2.77003" stroke-linecap="round" stroke-linejoin="round"/>
<path opacity="0.3" d="M263.934 31.8645V24.9142" stroke="#9AC6E0" stroke-width="2.77003" stroke-linecap="round" stroke-linejoin="round"/>
</g>
<path d="M166.637 63.3867H171.524" stroke="#9AC6E0" stroke-width="1.95159" stroke-linecap="round" stroke-linejoin="round"/>
<path d="M169.082 65.8348V60.938" stroke="#9AC6E0" stroke-width="1.95159" stroke-linecap="round" stroke-linejoin="round"/>
<g opacity="0.3">
<path opacity="0.3" d="M390.373 33.0804H393.842" stroke="#9AC6E0" stroke-width="1.38502" stroke-linecap="round" stroke-linejoin="round"/>
<path opacity="0.3" d="M392.107 34.8182V31.3434" stroke="#9AC6E0" stroke-width="1.38502" stroke-linecap="round" stroke-linejoin="round"/>
</g>
<path opacity="0.7" d="M292.581 39.161C292.581 39.958 292.345 40.737 291.903 41.3996C291.46 42.0622 290.832 42.5786 290.097 42.8835C289.362 43.1884 288.553 43.2681 287.773 43.1125C286.992 42.9569 286.276 42.5731 285.713 42.0095C285.151 41.4458 284.768 40.7278 284.612 39.9461C284.457 39.1644 284.537 38.3542 284.841 37.6179C285.146 36.8816 285.662 36.2522 286.323 35.8095C286.985 35.3667 287.762 35.1304 288.558 35.1304C289.086 35.1304 289.61 35.2346 290.098 35.4372C290.586 35.6398 291.029 35.9367 291.403 36.311C291.776 36.6852 292.073 37.1296 292.275 37.6186C292.477 38.1076 292.581 38.6317 292.581 39.161V39.161Z" stroke="#9AC6E0" stroke-width="2.36437" stroke-linecap="round" stroke-linejoin="round"/>
<path opacity="0.7" d="M46.9814 195.14C46.9814 195.937 46.7454 196.716 46.3034 197.379C45.8613 198.041 45.233 198.558 44.4979 198.863C43.7629 199.168 42.954 199.248 42.1736 199.092C41.3933 198.937 40.6765 198.553 40.1138 197.989C39.5512 197.426 39.1681 196.708 39.0128 195.926C38.8576 195.144 38.9373 194.334 39.2418 193.598C39.5463 192.861 40.0619 192.232 40.7235 191.789C41.385 191.346 42.1628 191.11 42.9585 191.11C44.0254 191.11 45.0486 191.535 45.8031 192.29C46.5575 193.046 46.9814 194.071 46.9814 195.14V195.14Z" stroke="#9AC6E0" stroke-width="2.36437" stroke-linecap="round" stroke-linejoin="round"/>
<path d="M354.962 56.421C354.962 57.2904 354.704 58.1403 354.222 58.8632C353.74 59.5861 353.055 60.1495 352.253 60.4822C351.451 60.8149 350.569 60.902 349.718 60.7324C348.866 60.5627 348.085 60.1441 347.471 59.5293C346.857 58.9146 346.439 58.1313 346.27 57.2786C346.101 56.4259 346.187 55.5421 346.52 54.7389C346.852 53.9356 347.414 53.2491 348.136 52.7661C348.857 52.2831 349.706 52.0253 350.574 52.0253C351.737 52.0253 352.854 52.4884 353.677 53.3128C354.5 54.1371 354.962 55.2552 354.962 56.421V56.421Z" stroke="#9AC6E0" stroke-width="0.599385" stroke-linecap="round" stroke-linejoin="round"/>
<path d="M465.738 97.2745C465.738 97.9045 465.552 98.5203 465.203 99.0441C464.853 99.568 464.357 99.9762 463.776 100.217C463.194 100.458 462.555 100.521 461.938 100.399C461.321 100.276 460.755 99.9723 460.31 99.5268C459.866 99.0814 459.563 98.5138 459.44 97.8959C459.317 97.278 459.38 96.6376 459.621 96.0556C459.862 95.4735 460.269 94.9761 460.792 94.6261C461.315 94.276 461.93 94.0892 462.559 94.0892C463.402 94.0892 464.211 94.4248 464.807 95.0222C465.403 95.6195 465.738 96.4297 465.738 97.2745Z" stroke="#9AC6E0" stroke-width="0.692507" stroke-linecap="round" stroke-linejoin="round"/>
<path d="M41.2365 94.7909C41.2365 95.4209 41.05 96.0367 40.7006 96.5605C40.3512 97.0843 39.8546 97.4926 39.2736 97.7337C38.6925 97.9748 38.0532 98.0379 37.4364 97.915C36.8196 97.792 36.253 97.4887 35.8083 97.0432C35.3636 96.5977 35.0607 96.0302 34.9381 95.4123C34.8154 94.7944 34.8783 94.154 35.119 93.5719C35.3597 92.9899 35.7672 92.4924 36.2901 92.1424C36.8131 91.7924 37.4278 91.6056 38.0567 91.6056C38.9 91.6058 39.7087 91.9415 40.3049 92.5388C40.9012 93.1361 41.2363 93.9462 41.2365 94.7909V94.7909Z" stroke="#9AC6E0" stroke-width="0.692507" stroke-linecap="round" stroke-linejoin="round"/>
<path d="M213.006 41.4557L215.39 59.7991L220.497 60.013L218.146 40.899L213.006 41.4557Z" fill="#2E4969"/>
<path d="M213.76 43.8921L215.489 43.645C215.771 43.6041 216.052 43.5601 216.336 43.5123C216.63 43.476 216.919 43.4121 217.2 43.3216C217.233 43.3118 217.26 43.2908 217.278 43.2623C217.297 43.2339 217.304 43.1999 217.3 43.1665C217.295 43.133 217.279 43.1023 217.254 43.0798C217.228 43.0573 217.196 43.0445 217.162 43.0437C216.873 43.042 216.584 43.0678 216.3 43.1209C216.007 43.1633 215.714 43.2073 215.422 43.2575L213.671 43.557C213.452 43.5949 213.548 43.9199 213.763 43.889L213.76 43.8921Z" fill="#A0A0A0"/>
<path d="M214.101 45.0826L214.685 45.0301C214.792 45.0208 214.897 45.0061 215.002 44.9868C215.107 44.9675 215.19 44.9382 215.282 44.9096C215.312 44.9002 215.338 44.8804 215.355 44.8538C215.372 44.8272 215.379 44.7954 215.374 44.7642C215.37 44.7329 215.355 44.7042 215.332 44.683C215.308 44.6619 215.278 44.6498 215.247 44.6487C215.15 44.6396 215.052 44.6354 214.955 44.6364C214.861 44.6402 214.768 44.6479 214.674 44.6603L214.101 44.7375C214.056 44.7387 214.013 44.7572 213.981 44.7893C213.949 44.8213 213.931 44.8644 213.93 44.9096C213.93 44.955 213.948 44.9985 213.98 45.0307C214.012 45.0628 214.055 45.0812 214.101 45.0818V45.0826Z" fill="#A0A0A0"/>
<path d="M214.431 45.934C214.61 45.8985 214.794 45.8715 214.97 45.8221C215.055 45.7989 215.141 45.7781 215.224 45.7449C215.268 45.7287 215.314 45.7125 215.358 45.6947C215.411 45.6699 215.46 45.6374 215.504 45.5982C215.519 45.5822 215.531 45.5622 215.537 45.5404C215.542 45.5186 215.543 45.4956 215.537 45.4738C215.531 45.4519 215.52 45.432 215.504 45.4159C215.488 45.3998 215.468 45.3881 215.447 45.382C215.397 45.3667 215.345 45.3581 215.292 45.3566C215.246 45.3566 215.199 45.362 215.153 45.3651C215.054 45.372 214.954 45.3913 214.856 45.406C214.675 45.4338 214.496 45.4832 214.317 45.5249C214.263 45.54 214.217 45.5758 214.19 45.6246C214.162 45.6733 214.155 45.731 214.17 45.785C214.186 45.8382 214.221 45.8832 214.27 45.9107C214.318 45.9381 214.375 45.9459 214.428 45.9325L214.431 45.934Z" fill="#A0A0A0"/>
<path d="M214.393 47.6371L216.121 47.39C216.404 47.3499 216.685 47.3051 216.969 47.2573C217.263 47.221 217.552 47.1571 217.833 47.0666C217.865 47.0568 217.893 47.0358 217.911 47.0073C217.929 46.9789 217.937 46.945 217.932 46.9115C217.928 46.8781 217.912 46.8473 217.886 46.8248C217.861 46.8023 217.829 46.7895 217.795 46.7886C217.506 46.787 217.217 46.8128 216.933 46.8658C216.639 46.9083 216.347 46.9523 216.054 47.0025L214.304 47.3028C214.085 47.3399 214.181 47.6649 214.396 47.634L214.393 47.6371Z" fill="#A0A0A0"/>
<path d="M214.732 48.8283L215.317 48.7758C215.424 48.7665 215.528 48.7519 215.633 48.7326C215.738 48.7133 215.821 48.6839 215.914 48.6554C215.944 48.6459 215.97 48.6262 215.987 48.5995C216.003 48.5729 216.01 48.5412 216.006 48.5099C216.002 48.4786 215.987 48.4499 215.963 48.4288C215.94 48.4076 215.91 48.3955 215.878 48.3944C215.781 48.3853 215.684 48.3812 215.586 48.3821C215.492 48.3867 215.4 48.3937 215.306 48.406L214.732 48.4832C214.687 48.4848 214.644 48.5034 214.613 48.5353C214.581 48.5673 214.562 48.6102 214.561 48.6554C214.561 48.7008 214.579 48.7443 214.612 48.7764C214.644 48.8086 214.687 48.8269 214.732 48.8275V48.8283Z" fill="#A0A0A0"/>
<path d="M215.065 49.6775C215.244 49.6427 215.428 49.6149 215.604 49.5655C215.689 49.5424 215.775 49.5215 215.858 49.4883C215.903 49.4713 215.948 49.4551 215.992 49.4374C216.045 49.4126 216.094 49.3801 216.138 49.3409C216.153 49.3248 216.165 49.3049 216.171 49.2831C216.177 49.2613 216.177 49.2383 216.171 49.2165C216.165 49.1946 216.154 49.1747 216.138 49.1586C216.122 49.1425 216.102 49.1308 216.081 49.1247C216.031 49.1094 215.979 49.1008 215.926 49.0992C215.88 49.0992 215.833 49.1046 215.786 49.1077C215.688 49.1147 215.588 49.134 215.49 49.1486C215.309 49.1764 215.13 49.2258 214.951 49.2683C214.897 49.2834 214.852 49.3192 214.824 49.3678C214.797 49.4164 214.79 49.4739 214.804 49.5277C214.82 49.5809 214.856 49.6259 214.904 49.6534C214.953 49.6808 215.009 49.6886 215.063 49.6751L215.065 49.6775Z" fill="#A0A0A0"/>
<path d="M215.085 51.325L216.815 51.0779C217.097 51.0373 217.38 50.993 217.663 50.9451C217.956 50.9089 218.245 50.8451 218.526 50.7544C218.558 50.7442 218.585 50.7231 218.603 50.6948C218.621 50.6665 218.628 50.6328 218.624 50.5996C218.619 50.5664 218.603 50.5358 218.579 50.5132C218.554 50.4905 218.522 50.4773 218.489 50.4758C218.2 50.4744 217.911 50.5003 217.626 50.553C217.333 50.5946 217.04 50.6394 216.747 50.6896L214.998 50.9891C214.778 51.027 214.874 51.3512 215.089 51.3211L215.085 51.325Z" fill="#A0A0A0"/>
<path d="M215.424 52.5146L216.008 52.4629C216.114 52.4536 216.219 52.4382 216.325 52.4197C216.43 52.4011 216.513 52.3702 216.605 52.3425C216.636 52.3335 216.662 52.3139 216.679 52.2872C216.696 52.2606 216.703 52.2286 216.699 52.1971C216.695 52.1656 216.679 52.1367 216.656 52.1157C216.632 52.0946 216.601 52.0828 216.57 52.0823C216.473 52.0732 216.375 52.0691 216.278 52.0699C216.183 52.0738 216.09 52.0815 215.996 52.0939L215.424 52.1711C215.379 52.1722 215.336 52.1908 215.304 52.2228C215.272 52.2548 215.253 52.2979 215.252 52.3432C215.253 52.3886 215.271 52.432 215.303 52.464C215.335 52.496 215.378 52.5142 215.424 52.5146Z" fill="#A0A0A0"/>
<path d="M215.754 53.3661C215.934 53.3314 216.118 53.3043 216.293 53.2549C216.379 53.231 216.465 53.2109 216.548 53.1777C216.592 53.1608 216.637 53.1453 216.682 53.1276C216.735 53.1028 216.784 53.0703 216.827 53.0311C216.843 53.0148 216.854 52.9949 216.86 52.973C216.866 52.9512 216.866 52.9283 216.86 52.9065C216.854 52.8847 216.843 52.8648 216.827 52.8486C216.812 52.8324 216.792 52.8205 216.77 52.8141C216.72 52.799 216.669 52.7907 216.616 52.7894C216.57 52.7894 216.523 52.7941 216.477 52.7972C216.377 52.8049 216.279 52.8242 216.18 52.8388C215.999 52.8659 215.821 52.916 215.641 52.9577C215.587 52.973 215.542 53.0088 215.514 53.0573C215.487 53.1058 215.479 53.1632 215.493 53.2171C215.509 53.2703 215.545 53.3153 215.593 53.3428C215.642 53.3702 215.699 53.378 215.752 53.3646L215.754 53.3661Z" fill="#A0A0A0"/>
<path d="M215.6 54.897L217.33 54.6499C217.612 54.6098 217.894 54.5655 218.177 54.5171C218.471 54.4809 218.76 54.417 219.041 54.3265C219.074 54.3166 219.101 54.2957 219.12 54.2672C219.138 54.2388 219.145 54.2048 219.141 54.1714C219.136 54.1379 219.12 54.1072 219.095 54.0847C219.07 54.0622 219.037 54.0494 219.004 54.0485C218.714 54.0469 218.426 54.0727 218.141 54.1257C217.848 54.1682 217.556 54.2122 217.263 54.2624L215.513 54.5619C215.294 54.5997 215.39 54.9248 215.604 54.8939L215.6 54.897Z" fill="#A0A0A0"/>
<path d="M215.943 56.0851L216.527 56.0326C216.634 56.0234 216.739 56.0087 216.844 55.9894C216.95 55.9701 217.031 55.9408 217.124 55.9122C217.154 55.9028 217.18 55.8831 217.197 55.8565C217.214 55.83 217.221 55.7983 217.216 55.7671C217.212 55.7359 217.197 55.7071 217.174 55.6859C217.151 55.6647 217.121 55.6525 217.089 55.6513C216.992 55.6422 216.895 55.638 216.797 55.6389C216.702 55.6389 216.61 55.6505 216.516 55.6628L215.943 55.74C215.897 55.7412 215.854 55.7598 215.823 55.7918C215.791 55.8239 215.772 55.867 215.771 55.9122C215.772 55.9576 215.79 56.001 215.822 56.0332C215.854 56.0654 215.897 56.0838 215.943 56.0844V56.0851Z" fill="#A0A0A0"/>
<path d="M216.272 56.9389C216.453 56.9034 216.636 56.8764 216.812 56.827C216.897 56.8038 216.983 56.783 217.066 56.7498C217.111 56.7335 217.156 56.7173 217.2 56.6996C217.253 56.6746 217.302 56.6421 217.345 56.6031C217.361 56.587 217.372 56.5671 217.378 56.5453C217.384 56.5235 217.384 56.5005 217.378 56.4787C217.373 56.4568 217.361 56.4369 217.345 56.4208C217.33 56.4047 217.31 56.393 217.288 56.3869C217.238 56.3715 217.186 56.363 217.134 56.3615C217.088 56.3615 217.041 56.3669 216.995 56.3699C216.895 56.3769 216.796 56.3962 216.698 56.4109C216.517 56.4387 216.338 56.4881 216.158 56.5297C216.105 56.5451 216.059 56.5809 216.032 56.6296C216.004 56.6783 215.997 56.7359 216.011 56.7899C216.027 56.8431 216.063 56.8881 216.111 56.9156C216.159 56.943 216.216 56.9508 216.27 56.9374L216.272 56.9389Z" fill="#A0A0A0"/>
<path d="M231.264 41.1376L228.65 40.794L228.839 39.345C228.885 38.9974 229.066 38.6821 229.344 38.4686C229.622 38.2551 229.973 38.1607 230.32 38.2063C230.491 38.2287 230.657 38.2849 230.807 38.3716C230.958 38.4583 231.089 38.5737 231.195 38.7114C231.3 38.849 231.378 39.0062 231.423 39.1739C231.468 39.3415 231.479 39.5164 231.456 39.6885L231.264 41.1376Z" fill="#336181"/>
<path d="M229.659 60.365L225.32 59.7953L227.716 41.4788C227.754 41.1934 227.847 40.9182 227.99 40.6688C228.134 40.4195 228.325 40.2009 228.553 40.0256C228.781 39.8502 229.041 39.7215 229.318 39.6469C229.596 39.5722 229.885 39.5531 230.17 39.5905C230.455 39.6279 230.73 39.7211 230.979 39.8649C231.228 40.0087 231.446 40.2002 231.621 40.4284C231.796 40.6567 231.924 40.9172 231.999 41.1952C232.073 41.4732 232.093 41.7632 232.055 42.0485L229.659 60.365Z" fill="#477FA1"/>
<path d="M228.527 58.9531L226.777 58.7215L228.704 44.0064C228.719 43.8913 228.757 43.7802 228.814 43.6796C228.872 43.579 228.949 43.4908 229.041 43.4201C229.133 43.3493 229.238 43.2974 229.35 43.2672C229.462 43.2371 229.579 43.2293 229.694 43.2444C229.926 43.275 230.136 43.3966 230.278 43.5824C230.421 43.7683 230.484 44.0033 230.453 44.2357L228.527 58.9531Z" fill="#336181"/>
<path d="M221.043 57.3836L221.425 41.8301L223.394 41.8849L223.777 57.7672L221.043 57.3836Z" fill="#00AB5B"/>
<path d="M221.426 41.8301L223.394 41.8849L222.247 39.1466L221.426 41.8301Z" fill="#263238"/>
<path d="M228.934 80.3945H214.486L211.362 58.032C211.336 57.8451 211.35 57.6546 211.404 57.4737C211.458 57.2927 211.549 57.1253 211.673 56.9828C211.797 56.8404 211.949 56.7261 212.121 56.6478C212.292 56.5695 212.479 56.529 212.667 56.5289H230.297C230.483 56.5287 230.668 56.5681 230.838 56.6445C231.008 56.7209 231.16 56.8326 231.284 56.9721C231.407 57.1117 231.5 57.276 231.556 57.4542C231.612 57.6324 231.629 57.8204 231.607 58.0058L228.934 80.3945Z" fill="#5989B6"/>
<path d="M0.949219 288.372C3.52751 288.117 6.1191 288.023 8.70906 288.09C10.003 288.145 11.2962 288.257 12.5894 288.286C13.8825 288.314 15.1757 288.266 16.4689 288.199C19.056 288.053 21.6424 288.001 24.2287 287.999C26.8159 288.038 29.4022 288.127 31.9886 288.372V288.449C29.4022 288.694 26.8159 288.784 24.2287 288.823C21.6424 288.823 19.056 288.769 16.4689 288.622C15.1757 288.556 13.8825 288.513 12.5894 288.536C11.2962 288.558 10.003 288.677 8.70906 288.732C6.1191 288.799 3.52746 288.705 0.949219 288.449V288.372Z" fill="white"/>
<path d="M451.963 288.372C453.199 288.117 454.463 288.022 455.724 288.09C456.35 288.145 456.978 288.257 457.604 288.286C458.232 288.305 458.861 288.277 459.485 288.199C460.733 288.059 461.989 287.992 463.245 287.999C464.507 288.019 465.765 288.144 467.005 288.372V288.449C465.765 288.678 464.507 288.803 463.245 288.823C461.989 288.83 460.733 288.763 459.485 288.622C458.861 288.545 458.232 288.516 457.604 288.536C456.978 288.564 456.35 288.677 455.724 288.732C454.463 288.8 453.199 288.705 451.963 288.449V288.372Z" fill="white"/>
<path d="M471.025 288.372C473.519 288.117 476.026 288.023 478.531 288.09C479.782 288.145 481.032 288.257 482.283 288.286C483.534 288.314 484.786 288.266 486.036 288.199C488.538 288.053 491.04 288.001 493.542 287.999C496.044 288.038 498.545 288.127 501.047 288.372V288.449C498.545 288.694 496.044 288.784 493.542 288.823C491.04 288.823 488.538 288.769 486.036 288.622C484.786 288.556 483.535 288.513 482.283 288.536C481.032 288.558 479.782 288.677 478.531 288.732C476.026 288.799 473.519 288.705 471.025 288.449V288.372Z" fill="white"/>
<path d="M39.0918 288.372L64.4198 288.218L89.7477 288.149L115.076 288.08C123.518 288.049 131.961 288.111 140.404 288.122L191.06 288.268C199.502 288.311 207.945 288.286 216.388 288.263L241.716 288.202L292.372 288.062L343.028 288.038C359.913 288.002 376.8 288.071 393.685 288.134C410.57 288.198 427.455 288.245 444.341 288.375V288.452C427.455 288.584 410.57 288.664 393.685 288.693C376.8 288.757 359.913 288.825 343.028 288.791L292.372 288.766L241.716 288.625L216.388 288.566C207.945 288.543 199.502 288.517 191.06 288.561L140.404 288.706C131.961 288.717 123.518 288.784 115.076 288.747L89.7477 288.679L64.4198 288.61L39.0918 288.456V288.372Z" fill="white"/>
<path d="M84.0576 270.761C84.0576 270.761 81.3865 276.629 77.584 279.302C77.584 279.302 83.441 286.299 88.6816 279.92C88.6816 279.92 85.9072 278.376 92.8933 271.891C99.8794 265.406 84.0576 270.761 84.0576 270.761Z" fill="#DDA6A2"/>
<path d="M58.0695 290.724C58.0695 290.724 57.6587 288.666 58.1728 288.049C58.6868 287.431 72.3484 283.932 74.5055 280.846C76.6626 277.76 76.4576 276.009 77.1766 276.009C77.8957 276.009 81.5941 276.73 82.3131 277.656C83.0322 278.582 82.4156 282.597 88.6819 279.92C88.6819 279.92 92.1746 282.903 90.9415 290.21C90.9415 290.21 58.0695 290.416 58.0695 290.724Z" fill="#477FA1"/>
<path d="M61.6668 288.972C65.3244 289.035 68.9882 288.908 72.6442 288.854C76.271 288.801 79.8985 288.794 83.5253 288.764C84.5079 288.755 85.492 288.733 86.4746 288.764C87.4572 288.794 88.4251 288.943 89.4077 289.034C89.7507 289.065 89.7584 288.582 89.4848 288.475C87.9527 287.879 86.0939 288.035 84.4894 288.072C82.6598 288.115 80.8302 288.159 79.0007 288.202C75.3099 288.292 71.6192 288.38 67.9277 288.434C65.8392 288.463 63.7546 288.483 61.6684 288.588C61.6202 288.593 61.5755 288.615 61.5429 288.651C61.5103 288.686 61.4922 288.733 61.4922 288.781C61.4922 288.83 61.5103 288.876 61.5429 288.912C61.5755 288.948 61.6202 288.97 61.6684 288.974L61.6668 288.972Z" fill="#A0A0A0"/>
<path d="M180.966 270.761C180.966 270.761 183.637 276.629 187.44 279.302C187.44 279.302 181.583 286.299 176.342 279.92C176.342 279.92 179.117 278.376 172.13 271.891C165.144 265.406 180.966 270.761 180.966 270.761Z" fill="#DDA6A2"/>
<path d="M494.627 289.831H6.38477V290.873H494.627V289.831Z" fill="#2E4969"/>
<path d="M206.954 290.724C206.954 290.724 207.365 288.666 206.852 288.049C206.338 287.431 192.675 283.932 190.518 280.846C188.361 277.76 188.566 276.009 187.847 276.009C187.128 276.009 183.43 276.73 182.711 277.656C181.992 278.582 182.608 282.597 176.342 279.92C176.342 279.92 172.849 282.903 174.082 290.21C174.086 290.21 206.954 290.416 206.954 290.724Z" fill="#263238"/>
<path d="M203.357 288.585C199.703 288.405 196.035 288.415 192.379 288.353C188.688 288.289 184.997 288.178 181.306 288.091C180.328 288.068 179.348 288.032 178.369 288.055C177.409 288.036 176.453 288.178 175.54 288.476C175.268 288.582 175.27 289.066 175.617 289.035C176.449 288.957 177.265 288.825 178.102 288.783C178.977 288.739 179.854 288.751 180.73 288.758C182.559 288.774 184.389 288.789 186.219 288.804C189.845 288.831 193.473 288.861 197.1 288.925C199.187 288.962 201.27 289.009 203.358 288.973C203.406 288.969 203.451 288.946 203.484 288.911C203.516 288.875 203.534 288.828 203.534 288.78C203.534 288.732 203.516 288.685 203.484 288.649C203.451 288.613 203.406 288.591 203.358 288.587L203.357 288.585Z" fill="#A0A0A0"/>
<path d="M83.9477 267.255C87.6451 268.016 91.4466 268.127 95.1818 267.581C95.6727 267.504 95.5625 266.651 95.0631 266.705C91.438 267.125 87.7722 267.037 84.1712 266.444C83.6464 266.354 83.4137 267.148 83.9477 267.255Z" fill="#FDFBF2"/>
<path d="M149.973 149.971C149.973 149.971 169.489 218.365 174.249 237.172C179.008 255.98 183.216 272.542 183.216 272.542L166.688 273.385C166.688 273.385 165.006 272.542 163.605 265.524C162.204 258.506 155.572 274.232 135.956 202.369L133.365 191.697C113.749 263.559 102.82 258.507 101.419 265.524C100.019 272.542 98.3366 273.385 98.3366 273.385L81.8027 272.542C81.8027 272.542 86.006 255.98 90.7702 237.172C95.5345 218.365 112.397 156.244 112.397 156.244" fill="#2E4969"/>
<path d="M180.853 266.444C177.252 267.037 173.586 267.125 169.96 266.705C169.466 266.651 169.344 267.507 169.841 267.581C173.577 268.127 177.378 268.016 181.075 267.255C181.609 267.148 181.378 266.354 180.853 266.444Z" fill="#A0A0A0"/>
<path d="M97.4815 264.439C93.8804 265.033 90.2143 265.121 86.5889 264.701C86.0949 264.647 85.9724 265.502 86.471 265.577C90.206 266.122 94.0072 266.012 97.7043 265.25C98.2376 265.143 98.0064 264.35 97.4815 264.439Z" fill="#A0A0A0"/>
<path d="M118.434 161.678C118.365 162.709 118.184 163.729 117.894 164.72C117.618 165.828 117.24 166.909 116.766 167.948C115.661 170.286 113.396 171.627 111.088 172.571C111.027 172.591 110.975 172.635 110.944 172.692C110.913 172.749 110.906 172.816 110.923 172.878C110.94 172.941 110.981 172.995 111.036 173.028C111.092 173.061 111.158 173.072 111.222 173.058C112.671 172.784 114.018 172.117 115.114 171.128C116.035 170.39 116.786 169.461 117.315 168.404C117.835 167.278 118.245 166.103 118.54 164.898C118.836 163.847 119.017 162.767 119.079 161.678C119.093 161.262 118.451 161.263 118.434 161.678L118.434 161.678Z" fill="#A0A0A0"/>
<path d="M145.044 165.507C145.798 168.008 147.143 170.291 148.967 172.159C149.869 173.066 150.869 173.868 151.948 174.552C153.044 175.296 154.274 175.815 155.571 176.081C155.86 176.127 156.082 175.736 155.785 175.573C154.701 174.98 153.587 174.488 152.543 173.819C151.516 173.16 150.568 172.386 149.717 171.511C147.966 169.76 146.637 167.632 145.829 165.29C145.665 164.797 144.891 165.001 145.046 165.507H145.044Z" fill="#A0A0A0"/>
<path d="M102.25 128.854L85.1777 128.923C85.1777 128.923 87.3472 113.345 91.125 108.929C94.9028 104.512 122.275 95.1669 124.291 95.041C126.306 94.9152 132.099 95.2935 136.507 95.4193C140.915 95.5451 141.983 157.974 141.983 157.974C141.983 157.974 141.983 158.624 129.674 159.488C116.316 160.428 107.215 156.46 107.215 156.46L102.25 128.854Z" fill="#00AB5B"/>
<path d="M144.162 82.5924C143.444 80.958 142.939 79.2381 142.658 77.4749C142.578 76.9478 142.597 76.4103 142.712 75.8899C142.764 75.6391 142.89 75.4099 143.075 75.233C143.256 75.1042 143.472 75.0326 143.694 75.0275C143.916 75.0224 144.135 75.084 144.321 75.2044C144.691 75.4521 145.005 75.7725 145.246 76.1463C146.12 77.2975 146.929 78.4971 147.669 79.7391L148.687 83.0279L144.422 83.7226L144.162 82.5924Z" fill="#BB8075"/>
<path d="M118.052 75.1234C119.14 81.9302 114.389 93.1697 107.815 93.1697C101.24 93.1697 95.9102 87.582 95.9102 80.688C95.9102 73.7941 101.35 69.4099 107.815 68.2063C113.814 67.09 117.002 68.5414 118.052 75.1234Z" fill="#2D3F45"/>
<path d="M118.054 75.1234C118.054 75.1234 120.277 86.7304 119.086 89.1151C118.748 89.7983 118.228 90.375 117.584 90.7818C116.94 91.1886 116.197 91.4098 115.435 91.4211L116.785 98.4965C116.785 98.4965 119.959 101.276 117.261 103.346C114.563 105.417 105.515 102.71 105.515 102.71L104.483 88.8766C104.483 88.8766 99.0887 88.5585 99.5627 84.1072C100.037 79.6558 104.642 82.1193 104.642 82.1193C105.953 80.4232 106.577 78.2938 106.388 76.1571C106.388 76.1571 110.197 77.9852 111.229 75.2824C111.229 75.2824 114.959 77.6672 118.054 75.1234Z" fill="#DEA7A3"/>
<path d="M96.9672 75.3989C96.5795 75.5317 96.2008 75.6895 95.8335 75.8714C93.9069 76.875 92.9212 79.0412 92.2445 81.1048C91.5679 83.1683 91.0115 85.3793 89.5295 86.9627C87.7469 88.8649 84.9186 89.5219 83.183 91.4673C82.6389 92.0842 82.225 92.8049 81.9663 93.5863C81.7076 94.3676 81.6095 95.1933 81.6779 96.0136C81.8421 97.8533 82.8463 99.642 82.4918 101.453C82.1434 103.236 80.5998 104.484 79.4715 105.907C78.5031 107.145 77.812 108.577 77.4452 110.106C77.0785 111.635 77.0446 113.226 77.346 114.769L94.7947 114.847C93.9921 114.045 93.2963 113.144 92.7247 112.164C92.2178 111.138 92.1307 109.954 92.4819 108.864C93.2279 106.887 95.8035 105.767 95.8775 103.655C95.9191 102.475 95.123 101.444 94.303 100.597C93.3951 99.8389 92.6837 98.8721 92.2291 97.7792C92.0464 97.0899 92.0969 96.3594 92.3725 95.7018C92.6482 95.0442 93.1335 94.4966 93.7527 94.1446C94.2814 93.8605 94.881 93.7347 95.4166 93.4645C97.0543 92.64 97.7494 90.7015 98.2257 88.929C98.8854 86.7788 99.2075 84.5391 99.1805 82.2898C99.0726 80.0425 98.5548 76.9846 96.9672 75.3989Z" fill="#2D3F45"/>
<path d="M115.433 91.4211C114.439 91.2525 113.469 90.9675 112.541 90.5719C112.541 90.5719 114.242 93.0871 115.822 93.4522L115.433 91.4211Z" fill="#BB8075"/>
<path d="M134.706 81.0916L392.689 78.0808C392.689 78.0808 393.643 237.79 394.104 252.604C394.564 267.418 395.285 288.992 377.127 291.479C355.08 294.499 133.662 279.774 133.662 279.774L134.706 81.0916Z" fill="#FEFEFE"/>
<path d="M107.733 276.11C107.733 276.11 107.27 290.107 120.022 291.951C132.773 293.796 375.872 291.886 375.872 291.886C375.872 291.886 361.23 288.728 357.295 274.13L107.733 276.11Z" fill="#9AC6E0"/>
<path d="M217.697 97.2844H158.562V104.714H217.697V97.2844Z" fill="#ADD9F4"/>
<path d="M217.697 109.343H158.562V150.653H217.697V109.343Z" fill="#ADD9F4"/>
<path d="M208.156 111.715H168.102C166.725 111.715 165.609 112.833 165.609 114.211V145.784C165.609 147.163 166.725 148.281 168.102 148.281H208.156C209.533 148.281 210.649 147.163 210.649 145.784V114.211C210.649 112.833 209.533 111.715 208.156 111.715Z" fill="#FEFEFE"/>
<path d="M163.194 109.839H160.918C160.426 109.839 160.027 110.238 160.027 110.731V113.011C160.027 113.504 160.426 113.903 160.918 113.903H163.194C163.686 113.903 164.085 113.504 164.085 113.011V110.731C164.085 110.238 163.686 109.839 163.194 109.839Z" fill="#FEFEFE"/>
<path d="M163.194 115.018H160.918C160.426 115.018 160.027 115.417 160.027 115.91V118.189C160.027 118.682 160.426 119.082 160.918 119.082H163.194C163.686 119.082 164.085 118.682 164.085 118.189V115.91C164.085 115.417 163.686 115.018 163.194 115.018Z" fill="#FEFEFE"/>
<path d="M163.194 120.197H160.918C160.426 120.197 160.027 120.596 160.027 121.089V123.369C160.027 123.862 160.426 124.261 160.918 124.261H163.194C163.686 124.261 164.085 123.862 164.085 123.369V121.089C164.085 120.596 163.686 120.197 163.194 120.197Z" fill="#FEFEFE"/>
<path d="M163.194 125.376H160.918C160.426 125.376 160.027 125.776 160.027 126.268V128.548C160.027 129.041 160.426 129.441 160.918 129.441H163.194C163.686 129.441 164.085 129.041 164.085 128.548V126.268C164.085 125.776 163.686 125.376 163.194 125.376Z" fill="#FEFEFE"/>
<path d="M163.194 130.555H160.918C160.426 130.555 160.027 130.955 160.027 131.448V133.727C160.027 134.22 160.426 134.62 160.918 134.62H163.194C163.686 134.62 164.085 134.22 164.085 133.727V131.448C164.085 130.955 163.686 130.555 163.194 130.555Z" fill="#FEFEFE"/>
<path d="M163.194 135.735H160.918C160.426 135.735 160.027 136.134 160.027 136.627V138.906C160.027 139.399 160.426 139.798 160.918 139.798H163.194C163.686 139.798 164.085 139.399 164.085 138.906V136.627C164.085 136.134 163.686 135.735 163.194 135.735Z" fill="#FEFEFE"/>
<path d="M163.194 140.913H160.918C160.426 140.913 160.027 141.313 160.027 141.806V144.085C160.027 144.578 160.426 144.978 160.918 144.978H163.194C163.686 144.978 164.085 144.578 164.085 144.085V141.806C164.085 141.313 163.686 140.913 163.194 140.913Z" fill="#FEFEFE"/>
<path d="M163.194 146.093H160.918C160.426 146.093 160.027 146.492 160.027 146.985V149.264C160.027 149.757 160.426 150.156 160.918 150.156H163.194C163.686 150.156 164.085 149.757 164.085 149.264V146.985C164.085 146.492 163.686 146.093 163.194 146.093Z" fill="#FEFEFE"/>
<path d="M215.461 109.839H213.186C212.694 109.839 212.295 110.238 212.295 110.731V113.011C212.295 113.504 212.694 113.903 213.186 113.903H215.461C215.953 113.903 216.352 113.504 216.352 113.011V110.731C216.352 110.238 215.953 109.839 215.461 109.839Z" fill="#FEFEFE"/>
<path d="M215.461 115.018H213.186C212.694 115.018 212.295 115.417 212.295 115.91V118.189C212.295 118.682 212.694 119.082 213.186 119.082H215.461C215.953 119.082 216.352 118.682 216.352 118.189V115.91C216.352 115.417 215.953 115.018 215.461 115.018Z" fill="#FEFEFE"/>
<path d="M215.461 120.197H213.186C212.694 120.197 212.295 120.596 212.295 121.089V123.369C212.295 123.862 212.694 124.261 213.186 124.261H215.461C215.953 124.261 216.352 123.862 216.352 123.369V121.089C216.352 120.596 215.953 120.197 215.461 120.197Z" fill="#FEFEFE"/>
<path d="M215.461 125.376H213.186C212.694 125.376 212.295 125.776 212.295 126.268V128.548C212.295 129.041 212.694 129.441 213.186 129.441H215.461C215.953 129.441 216.352 129.041 216.352 128.548V126.268C216.352 125.776 215.953 125.376 215.461 125.376Z" fill="#FEFEFE"/>
<path d="M215.461 130.555H213.186C212.694 130.555 212.295 130.955 212.295 131.448V133.727C212.295 134.22 212.694 134.62 213.186 134.62H215.461C215.953 134.62 216.352 134.22 216.352 133.727V131.448C216.352 130.955 215.953 130.555 215.461 130.555Z" fill="#FEFEFE"/>
<path d="M215.461 135.735H213.186C212.694 135.735 212.295 136.134 212.295 136.627V138.906C212.295 139.399 212.694 139.798 213.186 139.798H215.461C215.953 139.798 216.352 139.399 216.352 138.906V136.627C216.352 136.134 215.953 135.735 215.461 135.735Z" fill="#FEFEFE"/>
<path d="M215.461 140.913H213.186C212.694 140.913 212.295 141.313 212.295 141.806V144.085C212.295 144.578 212.694 144.978 213.186 144.978H215.461C215.953 144.978 216.352 144.578 216.352 144.085V141.806C216.352 141.313 215.953 140.913 215.461 140.913Z" fill="#FEFEFE"/>
<path d="M215.461 146.093H213.186C212.694 146.093 212.295 146.492 212.295 146.985V149.264C212.295 149.757 212.694 150.156 213.186 150.156H215.461C215.953 150.156 216.352 149.757 216.352 149.264V146.985C216.352 146.492 215.953 146.093 215.461 146.093Z" fill="#FEFEFE"/>
<path d="M159.332 155.706H217.226" stroke="#ADD9F4" stroke-width="2.99024" stroke-miterlimit="10" stroke-linecap="round"/>
<path d="M159.332 162.593H217.226" stroke="#ADD9F4" stroke-width="2.99024" stroke-miterlimit="10" stroke-linecap="round"/>
<path d="M159.332 170.126H207.509" stroke="#ADD9F4" stroke-width="2.99024" stroke-miterlimit="10" stroke-linecap="round"/>
<path d="M294.27 97.2844H235.135V104.714H294.27V97.2844Z" fill="#ADD9F4"/>
<path d="M294.27 109.343H235.135V150.653H294.27V109.343Z" fill="#ADD9F4"/>
<path d="M284.729 111.715H244.674C243.298 111.715 242.182 112.833 242.182 114.211V145.784C242.182 147.163 243.298 148.281 244.674 148.281H284.729C286.105 148.281 287.221 147.163 287.221 145.784V114.211C287.221 112.833 286.105 111.715 284.729 111.715Z" fill="#FEFEFE"/>
<path d="M239.764 109.839H237.489C236.997 109.839 236.598 110.238 236.598 110.731V113.011C236.598 113.504 236.997 113.903 237.489 113.903H239.764C240.256 113.903 240.654 113.504 240.654 113.011V110.731C240.654 110.238 240.256 109.839 239.764 109.839Z" fill="#FEFEFE"/>
<path d="M239.764 115.018H237.489C236.997 115.018 236.598 115.417 236.598 115.91V118.189C236.598 118.682 236.997 119.082 237.489 119.082H239.764C240.256 119.082 240.654 118.682 240.654 118.189V115.91C240.654 115.417 240.256 115.018 239.764 115.018Z" fill="#FEFEFE"/>
<path d="M239.764 120.197H237.489C236.997 120.197 236.598 120.596 236.598 121.089V123.369C236.598 123.862 236.997 124.261 237.489 124.261H239.764C240.256 124.261 240.654 123.862 240.654 123.369V121.089C240.654 120.596 240.256 120.197 239.764 120.197Z" fill="#FEFEFE"/>
<path d="M239.764 125.376H237.489C236.997 125.376 236.598 125.776 236.598 126.268V128.548C236.598 129.041 236.997 129.441 237.489 129.441H239.764C240.256 129.441 240.654 129.041 240.654 128.548V126.268C240.654 125.776 240.256 125.376 239.764 125.376Z" fill="#FEFEFE"/>
<path d="M239.764 130.555H237.489C236.997 130.555 236.598 130.955 236.598 131.448V133.727C236.598 134.22 236.997 134.62 237.489 134.62H239.764C240.256 134.62 240.654 134.22 240.654 133.727V131.448C240.654 130.955 240.256 130.555 239.764 130.555Z" fill="#FEFEFE"/>
<path d="M239.764 135.735H237.489C236.997 135.735 236.598 136.134 236.598 136.627V138.906C236.598 139.399 236.997 139.798 237.489 139.798H239.764C240.256 139.798 240.654 139.399 240.654 138.906V136.627C240.654 136.134 240.256 135.735 239.764 135.735Z" fill="#FEFEFE"/>
<path d="M239.764 140.913H237.489C236.997 140.913 236.598 141.313 236.598 141.806V144.085C236.598 144.578 236.997 144.978 237.489 144.978H239.764C240.256 144.978 240.654 144.578 240.654 144.085V141.806C240.654 141.313 240.256 140.913 239.764 140.913Z" fill="#FEFEFE"/>
<path d="M239.764 146.093H237.489C236.997 146.093 236.598 146.492 236.598 146.985V149.264C236.598 149.757 236.997 150.156 237.489 150.156H239.764C240.256 150.156 240.654 149.757 240.654 149.264V146.985C240.654 146.492 240.256 146.093 239.764 146.093Z" fill="#FEFEFE"/>
<path d="M292.033 109.839H289.758C289.266 109.839 288.867 110.238 288.867 110.731V113.011C288.867 113.504 289.266 113.903 289.758 113.903H292.033C292.525 113.903 292.924 113.504 292.924 113.011V110.731C292.924 110.238 292.525 109.839 292.033 109.839Z" fill="#FEFEFE"/>
<path d="M292.033 115.018H289.758C289.266 115.018 288.867 115.417 288.867 115.91V118.189C288.867 118.682 289.266 119.082 289.758 119.082H292.033C292.525 119.082 292.924 118.682 292.924 118.189V115.91C292.924 115.417 292.525 115.018 292.033 115.018Z" fill="#FEFEFE"/>
<path d="M292.033 120.197H289.758C289.266 120.197 288.867 120.596 288.867 121.089V123.369C288.867 123.862 289.266 124.261 289.758 124.261H292.033C292.525 124.261 292.924 123.862 292.924 123.369V121.089C292.924 120.596 292.525 120.197 292.033 120.197Z" fill="#FEFEFE"/>
<path d="M292.033 125.376H289.758C289.266 125.376 288.867 125.776 288.867 126.268V128.548C288.867 129.041 289.266 129.441 289.758 129.441H292.033C292.525 129.441 292.924 129.041 292.924 128.548V126.268C292.924 125.776 292.525 125.376 292.033 125.376Z" fill="#FEFEFE"/>
<path d="M292.033 130.555H289.758C289.266 130.555 288.867 130.955 288.867 131.448V133.727C288.867 134.22 289.266 134.62 289.758 134.62H292.033C292.525 134.62 292.924 134.22 292.924 133.727V131.448C292.924 130.955 292.525 130.555 292.033 130.555Z" fill="#FEFEFE"/>
<path d="M292.033 135.735H289.758C289.266 135.735 288.867 136.134 288.867 136.627V138.906C288.867 139.399 289.266 139.798 289.758 139.798H292.033C292.525 139.798 292.924 139.399 292.924 138.906V136.627C292.924 136.134 292.525 135.735 292.033 135.735Z" fill="#FEFEFE"/>
<path d="M292.033 140.913H289.758C289.266 140.913 288.867 141.313 288.867 141.806V144.085C288.867 144.578 289.266 144.978 289.758 144.978H292.033C292.525 144.978 292.924 144.578 292.924 144.085V141.806C292.924 141.313 292.525 140.913 292.033 140.913Z" fill="#FEFEFE"/>
<path d="M292.033 146.093H289.758C289.266 146.093 288.867 146.492 288.867 146.985V149.264C288.867 149.757 289.266 150.156 289.758 150.156H292.033C292.525 150.156 292.924 149.757 292.924 149.264V146.985C292.924 146.492 292.525 146.093 292.033 146.093Z" fill="#FEFEFE"/>
<path d="M235.904 155.706H293.798" stroke="#ADD9F4" stroke-width="2.99024" stroke-miterlimit="10" stroke-linecap="round"/>
<path d="M235.904 162.593H293.798" stroke="#ADD9F4" stroke-width="2.99024" stroke-miterlimit="10" stroke-linecap="round"/>
<path d="M235.904 170.126H284.081" stroke="#ADD9F4" stroke-width="2.99024" stroke-miterlimit="10" stroke-linecap="round"/>
<path d="M370.842 97.2844H311.707V104.714H370.842V97.2844Z" fill="#ADD9F4"/>
<path d="M370.842 109.343H311.707V150.653H370.842V109.343Z" fill="#ADD9F4"/>
<path d="M361.301 111.715H321.246C319.87 111.715 318.754 112.833 318.754 114.211V145.784C318.754 147.163 319.87 148.281 321.246 148.281H361.301C362.677 148.281 363.793 147.163 363.793 145.784V114.211C363.793 112.833 362.677 111.715 361.301 111.715Z" fill="#FEFEFE"/>
<path d="M316.336 109.839H314.061C313.569 109.839 313.17 110.238 313.17 110.731V113.011C313.17 113.504 313.569 113.903 314.061 113.903H316.336C316.828 113.903 317.227 113.504 317.227 113.011V110.731C317.227 110.238 316.828 109.839 316.336 109.839Z" fill="#FEFEFE"/>
<path d="M316.336 115.018H314.061C313.569 115.018 313.17 115.417 313.17 115.91V118.189C313.17 118.682 313.569 119.082 314.061 119.082H316.336C316.828 119.082 317.227 118.682 317.227 118.189V115.91C317.227 115.417 316.828 115.018 316.336 115.018Z" fill="#FEFEFE"/>
<path d="M316.336 120.197H314.061C313.569 120.197 313.17 120.596 313.17 121.089V123.369C313.17 123.862 313.569 124.261 314.061 124.261H316.336C316.828 124.261 317.227 123.862 317.227 123.369V121.089C317.227 120.596 316.828 120.197 316.336 120.197Z" fill="#FEFEFE"/>
<path d="M316.336 125.376H314.061C313.569 125.376 313.17 125.776 313.17 126.268V128.548C313.17 129.041 313.569 129.441 314.061 129.441H316.336C316.828 129.441 317.227 129.041 317.227 128.548V126.268C317.227 125.776 316.828 125.376 316.336 125.376Z" fill="#FEFEFE"/>
<path d="M316.336 130.555H314.061C313.569 130.555 313.17 130.955 313.17 131.448V133.727C313.17 134.22 313.569 134.62 314.061 134.62H316.336C316.828 134.62 317.227 134.22 317.227 133.727V131.448C317.227 130.955 316.828 130.555 316.336 130.555Z" fill="#FEFEFE"/>
<path d="M316.336 135.735H314.061C313.569 135.735 313.17 136.134 313.17 136.627V138.906C313.17 139.399 313.569 139.798 314.061 139.798H316.336C316.828 139.798 317.227 139.399 317.227 138.906V136.627C317.227 136.134 316.828 135.735 316.336 135.735Z" fill="#FEFEFE"/>
<path d="M316.336 140.913H314.061C313.569 140.913 313.17 141.313 313.17 141.806V144.085C313.17 144.578 313.569 144.978 314.061 144.978H316.336C316.828 144.978 317.227 144.578 317.227 144.085V141.806C317.227 141.313 316.828 140.913 316.336 140.913Z" fill="#FEFEFE"/>
<path d="M316.336 146.093H314.061C313.569 146.093 313.17 146.492 313.17 146.985V149.264C313.17 149.757 313.569 150.156 314.061 150.156H316.336C316.828 150.156 317.227 149.757 317.227 149.264V146.985C317.227 146.492 316.828 146.093 316.336 146.093Z" fill="#FEFEFE"/>
<path d="M368.605 109.839H366.33C365.838 109.839 365.439 110.238 365.439 110.731V113.011C365.439 113.504 365.838 113.903 366.33 113.903H368.605C369.097 113.903 369.496 113.504 369.496 113.011V110.731C369.496 110.238 369.097 109.839 368.605 109.839Z" fill="#FEFEFE"/>
<path d="M368.605 115.018H366.33C365.838 115.018 365.439 115.417 365.439 115.91V118.189C365.439 118.682 365.838 119.082 366.33 119.082H368.605C369.097 119.082 369.496 118.682 369.496 118.189V115.91C369.496 115.417 369.097 115.018 368.605 115.018Z" fill="#FEFEFE"/>
<path d="M368.605 120.197H366.33C365.838 120.197 365.439 120.596 365.439 121.089V123.369C365.439 123.862 365.838 124.261 366.33 124.261H368.605C369.097 124.261 369.496 123.862 369.496 123.369V121.089C369.496 120.596 369.097 120.197 368.605 120.197Z" fill="#FEFEFE"/>
<path d="M368.605 125.376H366.33C365.838 125.376 365.439 125.776 365.439 126.268V128.548C365.439 129.041 365.838 129.441 366.33 129.441H368.605C369.097 129.441 369.496 129.041 369.496 128.548V126.268C369.496 125.776 369.097 125.376 368.605 125.376Z" fill="#FEFEFE"/>
<path d="M368.605 130.555H366.33C365.838 130.555 365.439 130.955 365.439 131.448V133.727C365.439 134.22 365.838 134.62 366.33 134.62H368.605C369.097 134.62 369.496 134.22 369.496 133.727V131.448C369.496 130.955 369.097 130.555 368.605 130.555Z" fill="#FEFEFE"/>
<path d="M368.605 135.735H366.33C365.838 135.735 365.439 136.134 365.439 136.627V138.906C365.439 139.399 365.838 139.798 366.33 139.798H368.605C369.097 139.798 369.496 139.399 369.496 138.906V136.627C369.496 136.134 369.097 135.735 368.605 135.735Z" fill="#FEFEFE"/>
<path d="M368.605 140.913H366.33C365.838 140.913 365.439 141.313 365.439 141.806V144.085C365.439 144.578 365.838 144.978 366.33 144.978H368.605C369.097 144.978 369.496 144.578 369.496 144.085V141.806C369.496 141.313 369.097 140.913 368.605 140.913Z" fill="#FEFEFE"/>
<path d="M368.605 146.093H366.33C365.838 146.093 365.439 146.492 365.439 146.985V149.264C365.439 149.757 365.838 150.156 366.33 150.156H368.605C369.097 150.156 369.496 149.757 369.496 149.264V146.985C369.496 146.492 369.097 146.093 368.605 146.093Z" fill="#FEFEFE"/>
<path d="M312.477 155.706H370.371" stroke="#ADD9F4" stroke-width="2.99024" stroke-miterlimit="10" stroke-linecap="round"/>
<path d="M312.477 162.593H370.371" stroke="#ADD9F4" stroke-width="2.99024" stroke-miterlimit="10" stroke-linecap="round"/>
<path d="M312.477 170.126H360.653" stroke="#ADD9F4" stroke-width="2.99024" stroke-miterlimit="10" stroke-linecap="round"/>
<path d="M217.697 187.373H158.562V194.803H217.697V187.373Z" fill="#ADD9F4"/>
<path d="M217.697 199.432H158.562V240.741H217.697V199.432Z" fill="#ADD9F4"/>
<path d="M208.156 201.804H168.102C166.725 201.804 165.609 202.922 165.609 204.301V235.872C165.609 237.251 166.725 238.369 168.102 238.369H208.156C209.533 238.369 210.649 237.251 210.649 235.872V204.301C210.649 202.922 209.533 201.804 208.156 201.804Z" fill="#FEFEFE"/>
<path d="M163.194 199.928H160.918C160.426 199.928 160.027 200.328 160.027 200.82V203.099C160.027 203.592 160.426 203.992 160.918 203.992H163.194C163.686 203.992 164.085 203.592 164.085 203.099V200.82C164.085 200.328 163.686 199.928 163.194 199.928Z" fill="#FEFEFE"/>
<path d="M163.194 205.106H160.918C160.426 205.106 160.027 205.506 160.027 205.999V208.278C160.027 208.771 160.426 209.17 160.918 209.17H163.194C163.686 209.17 164.085 208.771 164.085 208.278V205.999C164.085 205.506 163.686 205.106 163.194 205.106Z" fill="#FEFEFE"/>
<path d="M163.194 210.286H160.918C160.426 210.286 160.027 210.685 160.027 211.178V213.457C160.027 213.95 160.426 214.35 160.918 214.35H163.194C163.686 214.35 164.085 213.95 164.085 213.457V211.178C164.085 210.685 163.686 210.286 163.194 210.286Z" fill="#FEFEFE"/>
<path d="M163.194 215.465H160.918C160.426 215.465 160.027 215.865 160.027 216.358V218.637C160.027 219.129 160.426 219.529 160.918 219.529H163.194C163.686 219.529 164.085 219.129 164.085 218.637V216.358C164.085 215.865 163.686 215.465 163.194 215.465Z" fill="#FEFEFE"/>
<path d="M163.194 220.645H160.918C160.426 220.645 160.027 221.044 160.027 221.537V223.816C160.027 224.309 160.426 224.708 160.918 224.708H163.194C163.686 224.708 164.085 224.309 164.085 223.816V221.537C164.085 221.044 163.686 220.645 163.194 220.645Z" fill="#FEFEFE"/>
<path d="M163.194 225.823H160.918C160.426 225.823 160.027 226.223 160.027 226.716V228.995C160.027 229.487 160.426 229.887 160.918 229.887H163.194C163.686 229.887 164.085 229.487 164.085 228.995V226.716C164.085 226.223 163.686 225.823 163.194 225.823Z" fill="#FEFEFE"/>
<path d="M163.194 231.003H160.918C160.426 231.003 160.027 231.402 160.027 231.895V234.175C160.027 234.668 160.426 235.067 160.918 235.067H163.194C163.686 235.067 164.085 234.668 164.085 234.175V231.895C164.085 231.402 163.686 231.003 163.194 231.003Z" fill="#FEFEFE"/>
<path d="M163.194 236.182H160.918C160.426 236.182 160.027 236.581 160.027 237.074V239.353C160.027 239.846 160.426 240.246 160.918 240.246H163.194C163.686 240.246 164.085 239.846 164.085 239.353V237.074C164.085 236.581 163.686 236.182 163.194 236.182Z" fill="#FEFEFE"/>
<path d="M215.461 199.928H213.186C212.694 199.928 212.295 200.328 212.295 200.82V203.099C212.295 203.592 212.694 203.992 213.186 203.992H215.461C215.953 203.992 216.352 203.592 216.352 203.099V200.82C216.352 200.328 215.953 199.928 215.461 199.928Z" fill="#FEFEFE"/>
<path d="M215.461 205.106H213.186C212.694 205.106 212.295 205.506 212.295 205.999V208.278C212.295 208.771 212.694 209.17 213.186 209.17H215.461C215.953 209.17 216.352 208.771 216.352 208.278V205.999C216.352 205.506 215.953 205.106 215.461 205.106Z" fill="#FEFEFE"/>
<path d="M215.461 210.286H213.186C212.694 210.286 212.295 210.685 212.295 211.178V213.457C212.295 213.95 212.694 214.35 213.186 214.35H215.461C215.953 214.35 216.352 213.95 216.352 213.457V211.178C216.352 210.685 215.953 210.286 215.461 210.286Z" fill="#FEFEFE"/>
<path d="M215.461 215.465H213.186C212.694 215.465 212.295 215.865 212.295 216.358V218.637C212.295 219.129 212.694 219.529 213.186 219.529H215.461C215.953 219.529 216.352 219.129 216.352 218.637V216.358C216.352 215.865 215.953 215.465 215.461 215.465Z" fill="#FEFEFE"/>
<path d="M215.461 220.645H213.186C212.694 220.645 212.295 221.044 212.295 221.537V223.816C212.295 224.309 212.694 224.708 213.186 224.708H215.461C215.953 224.708 216.352 224.309 216.352 223.816V221.537C216.352 221.044 215.953 220.645 215.461 220.645Z" fill="#FEFEFE"/>
<path d="M215.461 225.823H213.186C212.694 225.823 212.295 226.223 212.295 226.716V228.995C212.295 229.487 212.694 229.887 213.186 229.887H215.461C215.953 229.887 216.352 229.487 216.352 228.995V226.716C216.352 226.223 215.953 225.823 215.461 225.823Z" fill="#FEFEFE"/>
<path d="M215.461 231.003H213.186C212.694 231.003 212.295 231.402 212.295 231.895V234.175C212.295 234.668 212.694 235.067 213.186 235.067H215.461C215.953 235.067 216.352 234.668 216.352 234.175V231.895C216.352 231.402 215.953 231.003 215.461 231.003Z" fill="#FEFEFE"/>
<path d="M215.461 236.182H213.186C212.694 236.182 212.295 236.581 212.295 237.074V239.353C212.295 239.846 212.694 240.246 213.186 240.246H215.461C215.953 240.246 216.352 239.846 216.352 239.353V237.074C216.352 236.581 215.953 236.182 215.461 236.182Z" fill="#FEFEFE"/>
<path d="M159.332 245.796H217.226" stroke="#ADD9F4" stroke-width="2.99024" stroke-miterlimit="10" stroke-linecap="round"/>
<path d="M159.332 252.682H217.226" stroke="#ADD9F4" stroke-width="2.99024" stroke-miterlimit="10" stroke-linecap="round"/>
<path d="M159.332 260.215H207.509" stroke="#ADD9F4" stroke-width="2.99024" stroke-miterlimit="10" stroke-linecap="round"/>
<path d="M294.27 187.373H235.135V194.803H294.27V187.373Z" fill="#ADD9F4"/>
<path d="M294.27 199.432H235.135V240.741H294.27V199.432Z" fill="#ADD9F4"/>
<path d="M284.729 201.804H244.674C243.298 201.804 242.182 202.922 242.182 204.301V235.872C242.182 237.251 243.298 238.369 244.674 238.369H284.729C286.105 238.369 287.221 237.251 287.221 235.872V204.301C287.221 202.922 286.105 201.804 284.729 201.804Z" fill="#FEFEFE"/>
<path d="M239.764 199.928H237.489C236.997 199.928 236.598 200.328 236.598 200.82V203.099C236.598 203.592 236.997 203.992 237.489 203.992H239.764C240.256 203.992 240.654 203.592 240.654 203.099V200.82C240.654 200.328 240.256 199.928 239.764 199.928Z" fill="#FEFEFE"/>
<path d="M239.764 205.106H237.489C236.997 205.106 236.598 205.506 236.598 205.999V208.278C236.598 208.771 236.997 209.17 237.489 209.17H239.764C240.256 209.17 240.654 208.771 240.654 208.278V205.999C240.654 205.506 240.256 205.106 239.764 205.106Z" fill="#FEFEFE"/>
<path d="M239.764 210.286H237.489C236.997 210.286 236.598 210.685 236.598 211.178V213.457C236.598 213.95 236.997 214.35 237.489 214.35H239.764C240.256 214.35 240.654 213.95 240.654 213.457V211.178C240.654 210.685 240.256 210.286 239.764 210.286Z" fill="#FEFEFE"/>
<path d="M239.764 215.465H237.489C236.997 215.465 236.598 215.865 236.598 216.358V218.637C236.598 219.129 236.997 219.529 237.489 219.529H239.764C240.256 219.529 240.654 219.129 240.654 218.637V216.358C240.654 215.865 240.256 215.465 239.764 215.465Z" fill="#FEFEFE"/>
<path d="M239.764 220.645H237.489C236.997 220.645 236.598 221.044 236.598 221.537V223.816C236.598 224.309 236.997 224.708 237.489 224.708H239.764C240.256 224.708 240.654 224.309 240.654 223.816V221.537C240.654 221.044 240.256 220.645 239.764 220.645Z" fill="#FEFEFE"/>
<path d="M239.764 225.823H237.489C236.997 225.823 236.598 226.223 236.598 226.716V228.995C236.598 229.487 236.997 229.887 237.489 229.887H239.764C240.256 229.887 240.654 229.487 240.654 228.995V226.716C240.654 226.223 240.256 225.823 239.764 225.823Z" fill="#FEFEFE"/>
<path d="M239.764 231.003H237.489C236.997 231.003 236.598 231.402 236.598 231.895V234.175C236.598 234.668 236.997 235.067 237.489 235.067H239.764C240.256 235.067 240.654 234.668 240.654 234.175V231.895C240.654 231.402 240.256 231.003 239.764 231.003Z" fill="#FEFEFE"/>
<path d="M239.764 236.182H237.489C236.997 236.182 236.598 236.581 236.598 237.074V239.353C236.598 239.846 236.997 240.246 237.489 240.246H239.764C240.256 240.246 240.654 239.846 240.654 239.353V237.074C240.654 236.581 240.256 236.182 239.764 236.182Z" fill="#FEFEFE"/>
<path d="M292.033 199.928H289.758C289.266 199.928 288.867 200.328 288.867 200.82V203.099C288.867 203.592 289.266 203.992 289.758 203.992H292.033C292.525 203.992 292.924 203.592 292.924 203.099V200.82C292.924 200.328 292.525 199.928 292.033 199.928Z" fill="#FEFEFE"/>
<path d="M292.033 205.106H289.758C289.266 205.106 288.867 205.506 288.867 205.999V208.278C288.867 208.771 289.266 209.17 289.758 209.17H292.033C292.525 209.17 292.924 208.771 292.924 208.278V205.999C292.924 205.506 292.525 205.106 292.033 205.106Z" fill="#FEFEFE"/>
<path d="M292.033 210.286H289.758C289.266 210.286 288.867 210.685 288.867 211.178V213.457C288.867 213.95 289.266 214.35 289.758 214.35H292.033C292.525 214.35 292.924 213.95 292.924 213.457V211.178C292.924 210.685 292.525 210.286 292.033 210.286Z" fill="#FEFEFE"/>
<path d="M292.033 215.465H289.758C289.266 215.465 288.867 215.865 288.867 216.358V218.637C288.867 219.129 289.266 219.529 289.758 219.529H292.033C292.525 219.529 292.924 219.129 292.924 218.637V216.358C292.924 215.865 292.525 215.465 292.033 215.465Z" fill="#FEFEFE"/>
<path d="M292.033 220.645H289.758C289.266 220.645 288.867 221.044 288.867 221.537V223.816C288.867 224.309 289.266 224.708 289.758 224.708H292.033C292.525 224.708 292.924 224.309 292.924 223.816V221.537C292.924 221.044 292.525 220.645 292.033 220.645Z" fill="#FEFEFE"/>
<path d="M292.033 225.823H289.758C289.266 225.823 288.867 226.223 288.867 226.716V228.995C288.867 229.487 289.266 229.887 289.758 229.887H292.033C292.525 229.887 292.924 229.487 292.924 228.995V226.716C292.924 226.223 292.525 225.823 292.033 225.823Z" fill="#FEFEFE"/>
<path d="M292.033 231.003H289.758C289.266 231.003 288.867 231.402 288.867 231.895V234.175C288.867 234.668 289.266 235.067 289.758 235.067H292.033C292.525 235.067 292.924 234.668 292.924 234.175V231.895C292.924 231.402 292.525 231.003 292.033 231.003Z" fill="#FEFEFE"/>
<path d="M292.033 236.182H289.758C289.266 236.182 288.867 236.581 288.867 237.074V239.353C288.867 239.846 289.266 240.246 289.758 240.246H292.033C292.525 240.246 292.924 239.846 292.924 239.353V237.074C292.924 236.581 292.525 236.182 292.033 236.182Z" fill="#FEFEFE"/>
<path d="M235.904 245.796H293.798" stroke="#ADD9F4" stroke-width="2.99024" stroke-miterlimit="10" stroke-linecap="round"/>
<path d="M235.904 252.682H293.798" stroke="#ADD9F4" stroke-width="2.99024" stroke-miterlimit="10" stroke-linecap="round"/>
<path d="M235.904 260.215H284.081" stroke="#ADD9F4" stroke-width="2.99024" stroke-miterlimit="10" stroke-linecap="round"/>
<path d="M370.842 187.373H311.707V194.803H370.842V187.373Z" fill="#ADD9F4"/>
<path d="M370.842 199.432H311.707V240.741H370.842V199.432Z" fill="#ADD9F4"/>
<path d="M361.301 201.804H321.246C319.87 201.804 318.754 202.922 318.754 204.301V235.872C318.754 237.251 319.87 238.369 321.246 238.369H361.301C362.677 238.369 363.793 237.251 363.793 235.872V204.301C363.793 202.922 362.677 201.804 361.301 201.804Z" fill="#FEFEFE"/>
<path d="M316.336 199.928H314.061C313.569 199.928 313.17 200.328 313.17 200.82V203.099C313.17 203.592 313.569 203.992 314.061 203.992H316.336C316.828 203.992 317.227 203.592 317.227 203.099V200.82C317.227 200.328 316.828 199.928 316.336 199.928Z" fill="#FEFEFE"/>
<path d="M316.336 205.106H314.061C313.569 205.106 313.17 205.506 313.17 205.999V208.278C313.17 208.771 313.569 209.17 314.061 209.17H316.336C316.828 209.17 317.227 208.771 317.227 208.278V205.999C317.227 205.506 316.828 205.106 316.336 205.106Z" fill="#FEFEFE"/>
<path d="M316.336 210.286H314.061C313.569 210.286 313.17 210.685 313.17 211.178V213.457C313.17 213.95 313.569 214.35 314.061 214.35H316.336C316.828 214.35 317.227 213.95 317.227 213.457V211.178C317.227 210.685 316.828 210.286 316.336 210.286Z" fill="#FEFEFE"/>
<path d="M316.336 215.465H314.061C313.569 215.465 313.17 215.865 313.17 216.358V218.637C313.17 219.129 313.569 219.529 314.061 219.529H316.336C316.828 219.529 317.227 219.129 317.227 218.637V216.358C317.227 215.865 316.828 215.465 316.336 215.465Z" fill="#FEFEFE"/>
<path d="M316.336 220.645H314.061C313.569 220.645 313.17 221.044 313.17 221.537V223.816C313.17 224.309 313.569 224.708 314.061 224.708H316.336C316.828 224.708 317.227 224.309 317.227 223.816V221.537C317.227 221.044 316.828 220.645 316.336 220.645Z" fill="#FEFEFE"/>
<path d="M316.336 225.823H314.061C313.569 225.823 313.17 226.223 313.17 226.716V228.995C313.17 229.487 313.569 229.887 314.061 229.887H316.336C316.828 229.887 317.227 229.487 317.227 228.995V226.716C317.227 226.223 316.828 225.823 316.336 225.823Z" fill="#FEFEFE"/>
<path d="M316.336 231.003H314.061C313.569 231.003 313.17 231.402 313.17 231.895V234.175C313.17 234.668 313.569 235.067 314.061 235.067H316.336C316.828 235.067 317.227 234.668 317.227 234.175V231.895C317.227 231.402 316.828 231.003 316.336 231.003Z" fill="#FEFEFE"/>
<path d="M316.336 236.182H314.061C313.569 236.182 313.17 236.581 313.17 237.074V239.353C313.17 239.846 313.569 240.246 314.061 240.246H316.336C316.828 240.246 317.227 239.846 317.227 239.353V237.074C317.227 236.581 316.828 236.182 316.336 236.182Z" fill="#FEFEFE"/>
<path d="M368.605 199.928H366.33C365.838 199.928 365.439 200.328 365.439 200.82V203.099C365.439 203.592 365.838 203.992 366.33 203.992H368.605C369.097 203.992 369.496 203.592 369.496 203.099V200.82C369.496 200.328 369.097 199.928 368.605 199.928Z" fill="#FEFEFE"/>
<path d="M368.605 205.106H366.33C365.838 205.106 365.439 205.506 365.439 205.999V208.278C365.439 208.771 365.838 209.17 366.33 209.17H368.605C369.097 209.17 369.496 208.771 369.496 208.278V205.999C369.496 205.506 369.097 205.106 368.605 205.106Z" fill="#FEFEFE"/>
<path d="M368.605 210.286H366.33C365.838 210.286 365.439 210.685 365.439 211.178V213.457C365.439 213.95 365.838 214.35 366.33 214.35H368.605C369.097 214.35 369.496 213.95 369.496 213.457V211.178C369.496 210.685 369.097 210.286 368.605 210.286Z" fill="#FEFEFE"/>
<path d="M368.605 215.465H366.33C365.838 215.465 365.439 215.865 365.439 216.358V218.637C365.439 219.129 365.838 219.529 366.33 219.529H368.605C369.097 219.529 369.496 219.129 369.496 218.637V216.358C369.496 215.865 369.097 215.465 368.605 215.465Z" fill="#FEFEFE"/>
<path d="M368.605 220.645H366.33C365.838 220.645 365.439 221.044 365.439 221.537V223.816C365.439 224.309 365.838 224.708 366.33 224.708H368.605C369.097 224.708 369.496 224.309 369.496 223.816V221.537C369.496 221.044 369.097 220.645 368.605 220.645Z" fill="#FEFEFE"/>
<path d="M368.605 225.823H366.33C365.838 225.823 365.439 226.223 365.439 226.716V228.995C365.439 229.487 365.838 229.887 366.33 229.887H368.605C369.097 229.887 369.496 229.487 369.496 228.995V226.716C369.496 226.223 369.097 225.823 368.605 225.823Z" fill="#FEFEFE"/>
<path d="M368.605 231.003H366.33C365.838 231.003 365.439 231.402 365.439 231.895V234.175C365.439 234.668 365.838 235.067 366.33 235.067H368.605C369.097 235.067 369.496 234.668 369.496 234.175V231.895C369.496 231.402 369.097 231.003 368.605 231.003Z" fill="#FEFEFE"/>
<path d="M368.605 236.182H366.33C365.838 236.182 365.439 236.581 365.439 237.074V239.353C365.439 239.846 365.838 240.246 366.33 240.246H368.605C369.097 240.246 369.496 239.846 369.496 239.353V237.074C369.496 236.581 369.097 236.182 368.605 236.182Z" fill="#FEFEFE"/>
<path d="M312.477 245.796H370.371" stroke="#ADD9F4" stroke-width="2.99024" stroke-miterlimit="10" stroke-linecap="round"/>
<path d="M312.477 252.682H370.371" stroke="#ADD9F4" stroke-width="2.99024" stroke-miterlimit="10" stroke-linecap="round"/>
<path d="M312.477 260.215H360.653" stroke="#ADD9F4" stroke-width="2.99024" stroke-miterlimit="10" stroke-linecap="round"/>
<path d="M137.551 133.265L141.596 135.706L140.443 130.947L137.551 133.265Z" fill="#263238"/>
<path d="M125.303 113.068L137.548 133.265C137.548 133.265 140.296 133.121 140.44 130.949L128.509 110.812L125.303 113.068Z" fill="#2E4969"/>
<path d="M125.811 110.348C125.384 110.642 125.091 111.093 124.996 111.603C124.901 112.113 125.012 112.64 125.305 113.068L128.526 110.855C128.233 110.427 127.782 110.133 127.273 110.038C126.764 109.943 126.238 110.055 125.811 110.348Z" fill="#A0A0A0"/>
<path d="M86.6327 128.854C86.6327 128.854 83.8644 147.137 86.6327 151.551C89.4009 155.964 94.9451 156.092 105.021 145.873C115.096 135.654 118.242 129.352 120.383 129.738C122.524 130.124 126.052 134.028 132.222 130.369C132.222 130.369 130.835 132.514 131.467 133.397C132.099 134.28 137.891 132.007 139.02 128.35C140.149 124.693 137.131 119.898 134.108 119.015C129.581 117.968 124.866 118.055 120.379 119.266C115.846 120.656 102.243 128.855 102.243 128.855L86.6327 128.854Z" fill="#DEA7A3"/>
<path d="M101.98 128.858C98.8064 131.251 96.0609 134.166 93.86 137.478C93.0908 138.556 92.4528 139.722 91.9595 140.952C91.9187 141.066 92.0836 141.119 92.1445 141.029C92.8728 139.974 93.4747 138.832 94.1814 137.761C96.3491 134.481 99.0566 131.593 102.189 129.221C102.399 129.061 102.192 128.699 101.979 128.861L101.98 128.858Z" fill="#BB8075"/>
<path d="M132.162 130.261C132.671 129.801 133.117 129.275 133.489 128.697C133.494 128.687 133.495 128.675 133.492 128.664C133.49 128.653 133.483 128.643 133.475 128.636C133.466 128.629 133.455 128.625 133.443 128.625C133.432 128.625 133.421 128.629 133.412 128.635C132.958 129.139 132.479 129.618 131.975 130.071C131.845 130.184 132.038 130.38 132.164 130.261H132.162Z" fill="#BB8075"/>
<path d="M135.031 124.961C135.631 125.457 136.165 126.028 136.62 126.66C137.056 127.295 137.448 127.96 137.792 128.649C137.804 128.67 137.824 128.686 137.847 128.694C137.87 128.702 137.895 128.701 137.917 128.691C137.94 128.682 137.958 128.664 137.968 128.642C137.978 128.62 137.98 128.595 137.973 128.572C137.503 127.034 136.552 125.688 135.26 124.732C135.099 124.605 134.869 124.829 135.029 124.964L135.031 124.961Z" fill="#BB8075"/>
<path d="M136.215 122.946C136.559 123.333 136.875 123.744 137.16 124.176C137.446 124.608 137.692 125.069 138.004 125.482C138.081 125.584 138.26 125.531 138.222 125.391C138.059 124.875 137.81 124.391 137.485 123.959C137.176 123.514 136.837 123.09 136.469 122.692C136.315 122.521 136.063 122.774 136.215 122.946Z" fill="#BB8075"/>
<path d="M147.092 77.244C147.219 76.8469 147.426 76.4801 147.7 76.1666C147.975 75.8532 148.311 75.5997 148.688 75.4221C149.07 75.2567 149.497 75.2257 149.899 75.3342C150.301 75.4427 150.655 75.6843 150.902 76.0197C151.08 75.6279 151.403 75.3203 151.802 75.1612C152.202 75.0006 152.632 74.9287 153.062 74.9504C153.515 74.9453 153.962 75.0497 154.367 75.2546C154.567 75.3587 154.743 75.5057 154.881 75.6853C155.018 75.8649 155.115 76.0726 155.163 76.2937C155.34 75.9817 155.591 75.7187 155.894 75.5283C156.197 75.338 156.543 75.2264 156.901 75.2037C157.386 75.0986 157.889 75.118 158.365 75.26C158.699 75.3953 158.999 75.6044 159.242 75.8717C159.485 76.139 159.664 76.4576 159.767 76.804C160.069 76.4958 160.466 76.2979 160.893 76.2419C161.32 76.1859 161.754 76.2751 162.125 76.4952C162.408 76.6821 162.65 76.9246 162.836 77.2079C163.023 77.4912 163.15 77.8095 163.21 78.1434C163.326 78.8119 163.336 79.4947 163.238 80.1661C162.929 83.1583 162.099 86.2224 160.103 88.4697C159.812 88.8544 159.408 89.1386 158.947 89.2826C158.716 89.3451 158.469 89.3176 158.257 89.2056C158.045 89.0936 157.883 88.9055 157.804 88.6789C157.646 89.0374 157.386 89.3407 157.056 89.5503C156.725 89.7598 156.34 89.8661 155.95 89.8555C155.559 89.8449 155.18 89.7179 154.862 89.4908C154.543 89.2636 154.299 88.9466 154.162 88.5801C153.953 88.8992 153.679 89.1704 153.358 89.3758C153.037 89.5811 152.676 89.7159 152.3 89.7713C151.933 89.7948 151.566 89.7371 151.224 89.6022C150.882 89.4673 150.574 89.2585 150.322 88.9908C150.112 89.272 149.811 89.4718 149.47 89.5562C149.13 89.6406 148.77 89.6045 148.453 89.454C148.139 89.3128 147.859 89.105 147.633 88.845C147.407 88.585 147.24 88.2789 147.143 87.9478C146.955 87.2842 146.865 86.5965 146.875 85.9067C146.828 84.4738 146.781 83.041 146.732 81.6082C146.694 80.8456 146.696 80.0815 146.739 79.3192C146.763 78.6147 146.882 77.9166 147.092 77.244Z" fill="#DEA7A3"/>
<path d="M150.138 88.1394C150.324 86.7459 150.479 85.3494 150.644 83.9536C150.808 82.5578 151.052 81.1705 151.095 79.7748C151.098 79.7543 151.092 79.7336 151.08 79.7172C151.067 79.7009 151.048 79.6902 151.028 79.6875C151.008 79.6849 150.987 79.6905 150.971 79.7031C150.954 79.7156 150.944 79.7342 150.941 79.7547C150.666 81.1147 150.469 82.4893 150.35 83.8718C150.18 85.2915 150.022 86.7127 149.914 88.1394C149.904 88.2845 150.118 88.2768 150.136 88.1394H150.138Z" fill="#BB8075"/>
<path d="M154.02 88.3647C154.283 86.9535 154.55 85.5423 154.84 84.1365C155.12 82.7778 155.457 81.4129 155.621 80.0341C155.632 79.9438 155.497 79.9368 155.467 80.014C155.042 81.3588 154.714 82.7324 154.486 84.1241C154.221 85.5137 153.979 86.9033 153.771 88.2968C153.747 88.4566 153.987 88.5284 154.017 88.3647H154.02Z" fill="#BB8075"/>
<path d="M157.71 88.2289C158.134 86.8655 158.506 85.4859 158.866 84.1064L159.406 82.0745C159.622 81.4275 159.767 80.7584 159.836 80.0796C159.835 80.0656 159.83 80.0521 159.822 80.0411C159.813 80.0302 159.801 80.0223 159.787 80.0186C159.774 80.0149 159.759 80.0156 159.746 80.0206C159.733 80.0256 159.722 80.0346 159.714 80.0464C159.446 80.6434 159.244 81.2685 159.114 81.91L158.546 84.0168C158.174 85.3948 157.809 86.7767 157.496 88.1702C157.491 88.1977 157.496 88.2263 157.511 88.2502C157.525 88.2741 157.549 88.2915 157.576 88.2989C157.603 88.3063 157.632 88.3033 157.656 88.2903C157.681 88.2773 157.7 88.2553 157.71 88.2289H157.71Z" fill="#BB8075"/>
<path d="M401.249 214.894L394.393 290.45H397.03L410.743 213.309L401.249 214.894Z" fill="#5989B6"/>
<path d="M447.139 214.894L453.996 290.45H451.359L437.645 213.309L447.139 214.894Z" fill="#5989B6"/>
<path d="M444.503 232.859H400.725V236.029H444.503V232.859Z" fill="#5989B6"/>
<path d="M454.514 215.881H393.871C393.386 215.881 392.906 215.786 392.458 215.6C392.01 215.414 391.603 215.141 391.261 214.798C390.918 214.454 390.646 214.047 390.46 213.598C390.275 213.149 390.18 212.668 390.18 212.183C390.18 211.697 390.275 211.216 390.46 210.767C390.646 210.319 390.918 209.911 391.261 209.567C391.603 209.224 392.01 208.951 392.458 208.766C392.906 208.58 393.386 208.484 393.871 208.484H454.514C455.493 208.484 456.433 208.874 457.125 209.567C457.817 210.261 458.206 211.202 458.206 212.183C458.206 213.164 457.817 214.104 457.125 214.798C456.433 215.492 455.493 215.881 454.514 215.881Z" fill="#5989B6"/>
</svg>
