<svg width="76" height="76" viewBox="0 0 76 76" fill="none" xmlns="http://www.w3.org/2000/svg">
<g clip-path="url(#clip0)">
<path d="M35.5052 71.3286C28.3893 78.4422 15.7142 77.3032 7.19252 68.7844C-1.05096 60.5437 -2.62588 47.7521 4.65157 40.4771C10.8926 34.2382 15.9667 37.9221 22.5405 31.3504C25.6017 28.2902 25.2942 26.7035 27.7484 24.25C32.3953 19.6047 40.1577 21.4348 47.3578 28.6325C54.5579 35.8302 55.7867 44.1883 51.74 48.2335C49.3586 50.614 47.7437 50.4013 44.6659 53.4781C38.0558 60.0861 41.7276 65.1083 35.5052 71.3286Z" fill="#918D8F"/>
<path d="M47.3576 28.632C42.8726 24.1484 38.1695 21.7482 34.137 21.6979C37.0029 22.7754 40.023 24.8143 42.9502 27.7405C50.1503 34.9382 51.3791 43.2963 47.3324 47.3415C44.951 49.722 43.3361 49.5094 40.2583 52.5861C33.6481 59.1941 37.3198 64.2163 31.0975 70.4364C27.5179 74.0148 22.5317 75.5039 17.375 75.0171C23.9926 77.0734 30.9083 75.9228 35.5047 71.3279C41.7269 65.1078 38.0553 60.0854 44.6655 53.4776C47.7434 50.4008 49.3582 50.6135 51.7396 48.233C55.7863 44.1878 54.5577 35.8297 47.3576 28.632Z" fill="#655C61"/>
<path d="M22.2658 64.1881L11.7912 53.7171C11.5592 53.4852 11.5592 53.1091 11.7912 52.8772L14.8086 49.8608C15.0405 49.6291 15.4163 49.6291 15.6482 49.8608L26.1228 60.3319C26.3548 60.5637 26.3548 60.9399 26.1228 61.1717L23.1054 64.1881C22.8735 64.42 22.4977 64.42 22.2658 64.1881Z" fill="#D1CFD0"/>
<path d="M22.266 64.1883L19.4863 61.4121L23.343 57.5557L26.1221 60.3314C26.3542 60.5633 26.3542 60.9394 26.1224 61.1715L23.1054 64.1881C22.8735 64.4197 22.4978 64.4199 22.266 64.1883Z" fill="#D1CFD0"/>
<path d="M74.8862 13.7938C74.6013 13.7938 74.3165 13.6852 74.0991 13.4679L62.5274 1.90013C62.0925 1.46551 62.0925 0.76058 62.5271 0.325807C62.9619 -0.108967 63.6668 -0.109115 64.1014 0.32551L75.6732 11.8932C76.1081 12.3279 76.1081 13.0328 75.6735 13.4676C75.4562 13.685 75.171 13.7938 74.8862 13.7938Z" fill="#475959"/>
<path d="M72.058 16.6209C71.7732 16.6209 71.4883 16.5122 71.271 16.2949L59.6993 4.72716C59.2644 4.29254 59.2644 3.58761 59.699 3.15283C60.1338 2.71806 60.8387 2.71791 61.2733 3.15254L72.845 14.7203C73.28 15.1549 73.28 15.8598 72.8453 16.2946C72.628 16.5121 72.343 16.6209 72.058 16.6209Z" fill="#475959"/>
<path d="M69.2299 19.4476C68.945 19.4476 68.6602 19.3389 68.4429 19.1216L56.8712 7.55388C56.4362 7.11925 56.4362 6.41432 56.8709 5.97955C57.3056 5.54463 58.0106 5.54463 58.4452 5.97925L70.0169 17.547C70.4518 17.9816 70.4518 18.6865 70.0172 19.1213C69.7999 19.3388 69.5148 19.4476 69.2299 19.4476Z" fill="#475959"/>
<path d="M65.2924 15.845L35.8243 45.3026L32.6223 42.1008L30.6816 40.1614L60.1498 10.7024L65.2924 15.845Z" fill="#475959"/>
<path d="M73.5887 8.32687L65.8274 17.7684C65.5547 18.1013 65.0559 18.1255 64.7515 17.8211L61.5737 14.6433H61.5723L58.1684 11.241C57.8656 10.9382 57.8882 10.4409 58.2167 10.1666L67.6129 2.3585C67.9022 2.11892 68.3256 2.13851 68.5923 2.40377L70.3688 4.18027L73.5406 7.3506C73.8057 7.61571 73.8268 8.03757 73.5887 8.32687Z" fill="#918D8F"/>
<path d="M73.5892 8.32751L65.8278 17.769C65.5552 18.102 65.0564 18.1262 64.752 17.8217L61.5742 14.644C61.8785 14.9484 62.3773 14.9242 62.6501 14.5928L70.4115 5.14976C70.6481 4.86342 70.6285 4.44453 70.3693 4.18091L73.5411 7.35124C73.8062 7.61635 73.8273 8.03821 73.5892 8.32751Z" fill="#655C61"/>
<path d="M29.2371 54.283C33.398 54.283 36.771 50.9099 36.771 46.749C36.771 42.5882 33.398 39.2151 29.2371 39.2151C25.0762 39.2151 21.7031 42.5882 21.7031 46.749C21.7031 50.9099 25.0762 54.283 29.2371 54.283Z" fill="#475959"/>
<path d="M52.1763 18.6775L57.3184 23.8196L58.8928 22.2452L53.7507 17.1031L52.1763 18.6775Z" fill="#D1CFD0"/>
<path d="M47.6274 23.225L52.7695 28.3671L54.3439 26.7927L49.2018 21.6506L47.6274 23.225Z" fill="#D1CFD0"/>
<path d="M43.0806 27.7731L48.2227 32.9152L49.7971 31.3408L44.655 26.1987L43.0806 27.7731Z" fill="#D1CFD0"/>
<path d="M38.5338 32.3193L43.6758 37.4613L45.2502 35.8869L40.1082 30.7449L38.5338 32.3193Z" fill="#D1CFD0"/>
</g>
<defs>
<clipPath id="clip0">
<rect width="76" height="76" fill="white"/>
</clipPath>
</defs>
</svg>
