<svg width="76" height="76" viewBox="0 0 76 76" fill="none" xmlns="http://www.w3.org/2000/svg">
<path d="M52.0406 55.5319C52.7033 57.4407 53.253 59.397 53.7331 61.3592C54.2515 63.4756 54.7669 65.6123 54.9403 67.7907C55.1166 70.0016 54.8006 72.5772 53.2391 74.2814C51.4822 76.1983 47.9446 76.5421 45.7685 75.1569C43.0178 73.4052 42.3846 69.9088 41.5844 66.9987C40.8034 64.1569 40.3859 61.2293 40.0293 58.3087L52.0406 55.5319Z" fill="#437BA7"/>
<path d="M53.2404 74.2808C51.8825 75.7611 49.4657 76.3039 47.4316 75.8359C48.5351 75.5907 49.5573 75.0682 50.2792 74.2808C51.8395 72.5779 52.1573 70.0011 51.9804 67.7913C51.8059 65.6129 51.291 63.4768 50.7726 61.3598C50.3465 59.6139 49.864 57.8733 49.297 56.1674L52.0419 55.5325C52.7041 57.4407 53.2543 59.3965 53.7339 61.3598C54.2517 63.4768 54.7671 65.6135 54.9417 67.7913C55.1179 70.0011 54.8008 72.5779 53.2404 74.2808Z" fill="#5989B6"/>
<path d="M23.9689 55.5319C23.3061 57.4407 22.7564 59.397 22.2763 61.3592C21.7585 63.4756 21.2431 65.6123 21.0691 67.7907C20.8928 70.0016 21.2088 72.5772 22.7703 74.2814C24.5272 76.1983 28.0654 76.5421 30.2409 75.1569C32.9922 73.4052 33.6254 69.9088 34.425 66.9987C35.206 64.1569 35.6241 61.2293 35.9801 58.3087L23.9689 55.5319Z" fill="#437BA7"/>
<path d="M22.7683 74.2808C24.1263 75.7611 26.5436 76.3039 28.5771 75.8359C27.4737 75.5907 26.4514 75.0682 25.7295 74.2808C24.1692 72.5779 23.852 70.0011 24.0283 67.7913C24.2028 65.6129 24.7183 63.4768 25.2361 61.3598C25.6623 59.6139 26.1453 57.8733 26.7123 56.1674L23.9674 55.5325C23.3052 57.4407 22.755 59.3965 22.2749 61.3598C21.7571 63.4768 21.2422 65.6135 21.0671 67.7913C20.8908 70.0011 21.208 72.5779 22.7683 74.2808Z" fill="#5989B6"/>
<path d="M57.9592 35.4663C61.186 36.6086 65.1427 38.6317 67.5769 41.0629C69.7333 43.2176 70.2018 46.9598 68.2141 49.3516C65.5579 52.5477 61.3141 51.286 58.2566 49.5401C57.0042 48.8246 55.8347 48.0696 54.7139 47.1367C54.2355 46.7383 50.3634 43.3289 50.7565 42.7711C50.7577 42.7688 56.3148 34.8848 56.3148 34.8848C56.3148 34.8848 57.9569 35.4658 57.9592 35.4663Z" fill="#437BA7"/>
<path d="M68.2148 49.3516C67.9498 49.6699 67.6691 49.9459 67.3752 50.179C68.2623 47.909 67.6262 45.1118 65.8745 43.3613C63.4404 40.9307 59.483 38.9076 56.2551 37.7659C56.2539 37.7659 54.9876 37.3166 54.6797 37.2064C55.5976 35.9018 56.3148 34.8842 56.3148 34.8842C56.3148 34.8842 57.9581 35.4669 57.9598 35.4669C61.186 36.6086 65.1434 38.6316 67.5775 41.0629C69.7339 43.2175 70.203 46.9604 68.2148 49.3516Z" fill="#5989B6"/>
<path d="M18.0496 35.4663C14.8222 36.6086 10.8654 38.6317 8.43186 41.0629C6.27488 43.2176 5.80638 46.9598 7.79405 49.3516C10.4508 52.5477 14.6941 51.286 17.7515 49.5401C19.0046 48.8246 20.1741 48.0696 21.2949 47.1367C21.7727 46.7383 25.6454 43.3289 25.2523 42.7711C25.2505 42.7688 19.6934 34.8848 19.6934 34.8848C19.6934 34.8848 18.0513 35.4658 18.0496 35.4663Z" fill="#437BA7"/>
<path d="M7.79405 49.3516C8.05903 49.6699 8.33967 49.9459 8.63423 50.179C7.7465 47.909 8.38258 45.1118 10.1343 43.3613C12.5684 40.9307 16.5258 38.9076 19.7537 37.7659C19.7554 37.7659 21.0212 37.3166 21.3291 37.2064C20.4112 35.9018 19.694 34.8842 19.694 34.8842C19.694 34.8842 18.0507 35.4669 18.0496 35.4669C14.8234 36.6086 10.866 38.6316 8.43186 41.0629C6.27488 43.2175 5.80638 46.9604 7.79405 49.3516Z" fill="#5989B6"/>
<path d="M54.9282 44.423C54.5977 43.8014 52.526 39.6736 51.5919 39.6736C51.5826 39.6736 41.4465 39.6736 38.2197 39.6736C38.2197 39.6736 37.855 39.6736 37.2444 39.6736C34.0177 39.6736 23.8816 39.6736 23.8723 39.6736C22.9376 39.6736 20.8665 43.8014 20.536 44.423C17.8757 49.4264 18.0137 55.9768 21.019 60.8451C26.3714 69.517 40.1894 70.9307 48.8458 66.0966C51.15 64.8105 53.1012 63.0229 54.4446 60.8474C57.4505 55.9791 57.5891 49.427 54.9282 44.423Z" fill="#ADD9F4"/>
<path d="M54.4448 60.8473C53.1014 63.0228 51.1496 64.8105 48.8454 66.0971C46.5063 67.4035 43.7898 68.2523 40.9648 68.6263C42.9096 68.1665 44.7604 67.469 46.4199 66.5424C48.7242 65.2558 50.6759 63.4681 52.0194 61.2926C55.0252 56.4237 55.1644 49.8728 52.503 44.8676C52.1719 44.2472 50.1013 40.1194 49.1678 40.1194L51.5915 39.6741C52.5267 39.6741 54.5973 43.8019 54.9284 44.4223C57.5887 49.4275 57.4507 55.9784 54.4448 60.8473Z" fill="#437BA7"/>
<path d="M61.0567 8.1055C61.0567 12.5824 57.4281 16.2116 52.9512 16.2116C48.4743 16.2116 44.8457 12.5824 44.8457 8.1055C44.8457 3.62918 48.4743 0 52.9512 0C57.4281 0 61.0567 3.62918 61.0567 8.1055Z" fill="#9AC6E0"/>
<path d="M61.0562 8.10611C61.0562 12.5824 57.427 16.2116 52.9507 16.2116C51.4037 16.2116 49.9576 15.7779 48.7266 15.0264C49.2954 15.1534 49.8851 15.2195 50.4916 15.2195C54.9679 15.2195 58.5971 11.5903 58.5971 7.11343C58.5971 4.18411 57.0437 1.61835 54.7151 0.193115C58.3431 0.997925 61.0562 4.23572 61.0562 8.10611Z" fill="#5989B6"/>
<path d="M56.5974 8.55603C56.5974 10.8185 54.7633 12.6526 52.5008 12.6526C50.2383 12.6526 48.4043 10.8185 48.4043 8.55603C48.4043 6.2941 50.2383 4.46008 52.5008 4.46008C54.7633 4.46008 56.5974 6.2941 56.5974 8.55603Z" fill="white"/>
<path d="M56.5968 8.55661C56.5968 10.8191 54.7634 12.6526 52.5009 12.6526C51.227 12.6526 50.0899 12.0721 49.3379 11.1612C49.5582 11.1972 49.7849 11.2169 50.0169 11.2169C52.2794 11.2169 54.114 9.38229 54.114 7.11978C54.114 6.13116 53.7626 5.2243 53.1799 4.51575C55.1194 4.83929 56.5968 6.52545 56.5968 8.55661Z" fill="#ADD9F4"/>
<path d="M30.6178 8.1055C30.6178 12.5824 26.9886 16.2116 22.5123 16.2116C18.0354 16.2116 14.4062 12.5824 14.4062 8.1055C14.4062 3.62918 18.0354 0 22.5123 0C26.9886 0 30.6178 3.62918 30.6178 8.1055Z" fill="#9AC6E0"/>
<path d="M14.4062 8.10611C14.4062 12.5824 18.0354 16.2116 22.5117 16.2116C24.0587 16.2116 25.5048 15.7779 26.7358 15.0264C26.167 15.1534 25.5773 15.2195 24.9708 15.2195C20.4945 15.2195 16.8653 11.5903 16.8653 7.11343C16.8653 4.18411 18.4187 1.61835 20.7473 0.193115C17.1193 0.997925 14.4062 4.23572 14.4062 8.10611Z" fill="#5989B6"/>
<path d="M27.0577 8.55603C27.0577 10.8185 25.2237 12.6526 22.9612 12.6526C20.6992 12.6526 18.8652 10.8185 18.8652 8.55603C18.8652 6.2941 20.6992 4.46008 22.9612 4.46008C25.2237 4.46008 27.0577 6.2941 27.0577 8.55603Z" fill="white"/>
<path d="M18.8652 8.55661C18.8652 10.8191 20.6987 12.6526 22.9606 12.6526C24.2345 12.6526 25.3721 12.0721 26.1236 11.1612C25.9033 11.1972 25.6765 11.2169 25.4446 11.2169C23.1827 11.2169 21.3475 9.38229 21.3475 7.11978C21.3475 6.13116 21.6989 5.2243 22.2816 4.51575C20.3421 4.83929 18.8652 6.52545 18.8652 8.55661Z" fill="#ADD9F4"/>
<path d="M61.0224 25.7203C61.0224 14.4744 50.5952 5.35767 37.7322 5.35767C24.8691 5.35767 14.4414 14.4744 14.4414 25.7203C14.4414 36.9667 24.8691 46.0829 37.7322 46.0829C50.5952 46.0829 61.0224 36.9667 61.0224 25.7203Z" fill="#ADD9F4"/>
<path d="M61.0218 25.7202C61.0218 36.9661 50.5946 46.084 37.7322 46.084C34.1656 46.084 30.7858 45.3836 27.7637 44.13C30.0946 44.8148 32.5914 45.1859 35.1867 45.1859C48.0503 45.1859 58.4775 36.0691 58.4775 24.8221C58.4775 16.6957 53.0317 9.68088 45.1552 6.41467C54.3775 9.12424 61.0218 16.7433 61.0218 25.7202Z" fill="#9AC6E0"/>
<path d="M38.8405 23.7132C38.1829 23.4946 37.4663 23.4841 36.8023 23.6836C33.9084 24.5522 31.3954 26.7411 30.1279 29.3364C29.5208 30.5802 29.1764 31.9636 29.3161 33.3344C29.464 34.7915 30.1859 36.1384 31.2696 37.1926C34.8872 40.7104 41.143 40.4095 44.5176 36.789C48.4327 32.5893 44.4811 25.5884 38.8405 23.7132Z" fill="white"/>
<path d="M44.5179 36.7879C42.3122 39.1525 38.8784 40.1022 35.752 39.4934C37.6439 39.1293 39.4275 38.2178 40.7594 36.7879C44.49 32.7882 41.0795 26.2459 35.8726 24.013C36.177 23.8877 36.4872 23.7776 36.8026 23.6825C37.4665 23.4836 38.182 23.4946 38.8401 23.7132C44.4808 25.5884 48.4318 32.5893 44.5179 36.7879Z" fill="#ADD9F4"/>
<path d="M29.5859 21.077C28.9713 21.077 28.4727 20.5784 28.4727 19.9637V18.4353C28.4727 17.8207 28.9713 17.322 29.5859 17.322C30.2006 17.322 30.6992 17.8207 30.6992 18.4353V19.9637C30.6992 20.5784 30.2006 21.077 29.5859 21.077Z" fill="#3A3637"/>
<path d="M45.877 21.077C45.2617 21.077 44.7637 20.5784 44.7637 19.9637V18.4353C44.7637 17.8207 45.2617 17.322 45.877 17.322C46.4916 17.322 46.9902 17.8207 46.9902 18.4353V19.9637C46.9902 20.5784 46.4916 21.077 45.877 21.077Z" fill="#3A3637"/>
<path d="M41.0483 22.5577C39.5343 22.2057 37.7328 22.2851 37.7328 22.2851C37.7328 22.2851 35.9313 22.2057 34.4173 22.5577C33.1237 22.858 32.4795 24.3128 33.0895 25.4922C33.845 26.9534 35.2981 28.8866 37.7328 29.0164C40.1675 28.8866 41.6206 26.9528 42.3761 25.4922C42.9861 24.3128 42.3419 22.858 41.0483 22.5577Z" fill="#3A3637"/>
<path d="M42.3771 25.4921C41.6216 26.9533 40.1685 28.8876 37.7338 29.0169C37.2589 28.992 36.8223 28.8986 36.4199 28.7519C38.0811 28.1506 39.1411 26.6674 39.7505 25.4921C40.3593 24.3139 39.7157 22.8591 38.4221 22.5581C37.7512 22.4016 37.0241 22.3308 36.4217 22.2989C37.1772 22.2612 37.7338 22.285 37.7338 22.285C37.7338 22.285 39.5359 22.2062 41.0505 22.5581C42.3423 22.8591 42.9877 24.3139 42.3771 25.4921Z" fill="#2E4969"/>
<path d="M37.7724 35.9979C36.4069 35.9979 35.1434 35.378 34.3073 34.2966C33.931 33.8107 34.0197 33.1114 34.5062 32.7351C34.9921 32.3588 35.6919 32.4481 36.0676 32.9346C36.4793 33.4663 37.1009 33.7713 37.7724 33.7713C38.4438 33.7713 39.0654 33.4663 39.4771 32.934C39.8528 32.4475 40.5521 32.3582 41.0386 32.7345C41.525 33.1109 41.6143 33.8101 41.238 34.296C40.4013 35.3774 39.1384 35.9979 37.7724 35.9979Z" fill="#3A3637"/>
<path d="M26.0929 28.0011C26.0929 29.4518 24.9164 30.6283 23.4657 30.6283C22.0144 30.6283 20.8379 29.4518 20.8379 28.0011C20.8379 26.5498 22.0144 25.3733 23.4657 25.3733C24.9164 25.3733 26.0929 26.5498 26.0929 28.0011Z" fill="white"/>
<path d="M54.6261 28.0011C54.6261 29.4518 53.4502 30.6283 51.9989 30.6283C50.5476 30.6283 49.3711 29.4518 49.3711 28.0011C49.3711 26.5498 50.5476 25.3733 51.9989 25.3733C53.4502 25.3733 54.6261 26.5498 54.6261 28.0011Z" fill="white"/>
</svg>
