<svg width="70" height="54" viewBox="0 0 70 54" fill="none" xmlns="http://www.w3.org/2000/svg">
<path d="M41.6816 22.4485L44.7216 20.9641H66.419L69.3064 22.4485V53.6024H41.6816V22.4485Z" fill="white"/>
<path d="M66.2383 22.4485H69.3066V53.6024H66.2383V22.4485Z" fill="#D8E2F1"/>
<path d="M41.6817 24.5635C41.6369 24.5207 41.5904 24.4805 41.5475 24.4348L23.6562 5.39099L5.76505 24.4348C5.722 24.4805 5.67584 24.5212 5.63086 24.5639V53.6023H41.6817V24.5635Z" fill="white"/>
<path d="M23.7912 8.50316C23.7563 8.4659 23.7074 8.44497 23.6564 8.44482C23.6053 8.44468 23.5565 8.46575 23.5216 8.50301L22.389 9.70862L5.76505 27.4034C5.722 27.4491 5.67584 27.4898 5.63086 27.5326V30.6935C5.67584 30.6508 5.72215 30.6101 5.76505 30.5644L22.9736 12.2473C23.3435 11.8535 23.969 11.8535 24.339 12.2473L38.893 27.7389C39.0562 27.9125 39.147 28.1419 39.147 28.3803V53.6022H41.6817V30.6931V27.5321C41.4877 27.3476 29.1732 14.2294 23.7912 8.50316Z" fill="#D8E2F1"/>
<path d="M29.5118 53.6021H17.1582V37.4498C17.1582 37.3477 17.241 37.2649 17.3432 37.2649H29.327C29.4291 37.2649 29.5119 37.3477 29.5119 37.4498V53.6021H29.5118Z" fill="#475959"/>
<path d="M26.6445 37.265V53.6021H29.5122V37.4498C29.5122 37.3477 29.4294 37.2649 29.3272 37.2649H26.6445V37.265Z" fill="#404A4A"/>
<path d="M23.6563 29.4744C26.1395 29.4744 28.1525 27.4614 28.1525 24.9782C28.1525 22.4951 26.1395 20.4821 23.6563 20.4821C21.1732 20.4821 19.1602 22.4951 19.1602 24.9782C19.1602 27.4614 21.1732 29.4744 23.6563 29.4744Z" fill="#ADD9F4"/>
<path d="M23.6567 20.4811C23.1834 20.4811 22.7274 20.5547 22.2988 20.6902C24.1182 21.266 25.4371 22.9674 25.4371 24.9772C25.4371 26.9871 24.1182 28.6885 22.2988 29.2643C22.7274 29.3999 23.1834 29.4734 23.6567 29.4734C26.1399 29.4734 28.1529 27.4605 28.1529 24.9772C28.1529 22.4942 26.1399 20.4811 23.6567 20.4811Z" fill="#ADD9F4"/>
<path d="M45.8653 22.449H69.3073L52.7626 3.17969H27.7621L27.0801 7.40734L40.1726 21.3431L45.8653 22.449Z" fill="#475959"/>
<path d="M49.7129 3.17969L66.2576 22.449H69.3068L52.7621 3.17969H49.7129Z" fill="#404A4A"/>
<path d="M61.0337 39.0949C61.0337 39.1971 60.9509 39.2799 60.8488 39.2799H50.14C50.0379 39.2799 49.9551 39.1971 49.9551 39.0949V32.8808C49.9551 32.7786 50.0379 32.6958 50.14 32.6958H60.8488C60.9509 32.6958 61.0337 32.7786 61.0337 32.8808V39.0949Z" fill="#ADD9F4"/>
<path d="M57.7891 32.6949V39.2788H60.8488C60.9509 39.2788 61.0338 39.196 61.0338 39.0938V32.8797C61.0338 32.7775 60.9509 32.6947 60.8488 32.6947H57.7891V32.6949Z" fill="#ADD9F4"/>
<path d="M43.9315 28.4339C43.0605 28.4339 42.1914 28.0879 41.5481 27.403L23.7917 8.50256C23.7568 8.46531 23.708 8.44423 23.6569 8.44423C23.6059 8.44423 23.5572 8.46531 23.5221 8.50256L5.76575 27.403C4.52941 28.7192 2.46034 28.7837 1.14415 27.5471C-0.171901 26.3108 -0.236471 24.2415 1.00001 22.9255L21.2741 1.34535C21.892 0.687625 22.7543 0.314453 23.6569 0.314453C24.5596 0.314453 25.4218 0.687625 26.0398 1.34535L46.3138 22.9255C47.5503 24.2415 47.4857 26.3108 46.1697 27.5471C45.5387 28.1401 44.7341 28.4339 43.9315 28.4339Z" fill="#ADD9F4"/>
<path d="M46.1694 27.5471C47.4854 26.3108 47.55 24.2416 46.3135 22.9255L26.0395 1.34535C25.4215 0.687625 24.5593 0.314453 23.6566 0.314453C23.0207 0.314453 22.4053 0.500297 21.8809 0.839774C22.1008 0.982126 22.3052 1.1509 22.488 1.34535L42.762 22.9255C43.9985 24.2416 43.9339 26.3108 42.6179 27.5471C42.4727 27.6835 42.3176 27.8021 42.1562 27.9069C42.6936 28.2552 43.3112 28.4339 43.9313 28.4339C44.7339 28.4339 45.5382 28.1401 46.1694 27.5471Z" fill="#437BA7"/>
<path d="M26.166 46.5476C25.551 46.5476 25.0527 46.0493 25.0527 45.4343V44.7809C25.0527 44.1659 25.551 43.6676 26.166 43.6676C26.781 43.6676 27.2793 44.1659 27.2793 44.7809V45.4343C27.2793 46.0493 26.7808 46.5476 26.166 46.5476Z" fill="#ECF4FF"/>
</svg>
