<svg width="76" height="76" viewBox="0 0 76 76" fill="none" xmlns="http://www.w3.org/2000/svg">
<g clip-path="url(#clip0)">
<path d="M73.7147 11.1288C72.4418 12.5356 70.6147 13.9697 68.2694 15.4067C67.7693 15.714 67.245 16.0213 66.6968 16.3287C64.7583 17.4131 62.5666 18.4782 60.1791 19.4965C59.4666 19.8008 58.8173 20.0659 58.2555 20.2888C56.9314 20.813 56.0879 21.1082 56.0381 21.1248C55.9176 21.167 55.7926 21.1866 55.6676 21.1866C55.4597 21.1866 55.2534 21.1294 55.0727 21.0178C54.7819 20.8385 54.5892 20.5373 54.5469 20.1999C54.3707 18.8111 54.3903 17.3832 54.6026 15.9567C54.6945 15.339 55.2715 14.9158 55.886 15.0062C56.5036 15.0981 56.9298 15.6736 56.8379 16.2911C56.7279 17.0216 56.6782 17.7522 56.6873 18.4737C56.9162 18.3863 57.1707 18.287 57.4464 18.1785C57.9886 17.9616 58.6122 17.7071 59.2916 17.4179C61.6053 16.4312 63.7247 15.4024 65.5925 14.357C66.0639 14.0919 66.5762 13.7951 67.1033 13.4698C70.5467 11.3473 74.7116 8.04556 73.5141 5.0253C72.9281 3.54612 71.8948 2.71917 70.4458 2.56554C67.1364 2.21449 62.4443 5.2392 59.5175 9.6046L58.6438 11.0867C58.3275 11.6245 57.6346 11.8038 57.0968 11.4874C56.559 11.1711 56.3798 10.4782 56.6962 9.94036L57.5863 8.42956C57.5969 8.41146 57.6089 8.39334 57.6209 8.37524C61.0343 3.26587 66.5293 -0.123405 70.6837 0.318048C72.9688 0.560595 74.7192 1.93735 75.6139 4.19227C76.4998 6.42462 75.8596 8.75939 73.7147 11.1288Z" fill="#DB5C6E"/>
<path d="M55.6679 21.1869C55.4599 21.1869 55.2531 21.1294 55.0722 21.0171C54.7829 20.8374 54.5899 20.5369 54.547 20.199C54.3711 18.8101 54.3898 17.3826 54.6028 15.9564C54.695 15.3392 55.2717 14.9146 55.887 15.0059C56.504 15.0981 56.9296 15.6732 56.8375 16.2902C56.7284 17.0211 56.6787 17.7514 56.6884 18.4737C57.3724 18.2105 58.27 17.8533 59.2929 17.4173C61.6061 16.4315 63.7256 15.4018 65.5925 14.3565C69.1438 12.367 74.8954 8.50897 73.5145 5.02529C72.9282 3.54641 71.8958 2.71857 70.4466 2.56479C67.1363 2.21388 62.4443 5.23845 59.5173 9.60384L58.6443 11.0869C58.3276 11.6245 57.6354 11.8035 57.0976 11.4874C56.56 11.1709 56.3807 10.4784 56.6971 9.94065L57.5867 8.42956C57.5975 8.41115 57.6091 8.39289 57.621 8.37508C61.0345 3.26541 66.5299 -0.12371 70.685 0.317891C72.9695 0.56029 74.7204 1.93631 75.6151 4.19256C76.4999 6.42476 75.8606 8.75834 73.7148 11.1287C72.1703 12.835 69.8091 14.5842 66.6968 16.3279C64.7591 17.4127 62.5662 18.4785 60.1789 19.4959C57.7935 20.5128 56.109 21.0999 56.0385 21.1244C55.9178 21.1662 55.7925 21.1869 55.6679 21.1869Z" fill="#2E4969"/>
<path d="M67.1496 39.7571C67.7573 39.0437 68.1798 38.1886 68.3683 37.2712C69.0371 34.0141 69.9554 25.6146 65.5057 13.522C64.9423 11.9897 63.7332 10.7805 62.2009 10.2172C50.1082 5.76747 41.7086 6.68585 38.4525 7.3556C37.5341 7.54293 36.679 7.96538 35.9666 8.57427C22.6431 19.9389 12.5705 29.8978 1.36419 42.8289C-0.386634 44.8488 -0.462188 47.8317 1.19541 49.9282C8.43857 59.0846 16.6383 67.2844 25.7948 74.5276C27.8913 76.1852 30.874 76.1096 32.8939 74.3588C45.8261 63.1534 55.7839 53.0797 67.1496 39.7571ZM52.5754 23.1474C50.8682 21.4402 50.8682 18.6717 52.5754 16.9646C54.2828 15.2572 57.0511 15.2572 58.7584 16.9646C60.4658 18.6719 60.4656 21.4402 58.7584 23.1476C57.0511 24.8547 54.2826 24.8547 52.5754 23.1474Z" fill="#ADD9F4"/>
<path d="M38.4527 7.35545C37.5339 7.54353 36.6793 7.96538 35.967 8.57383C22.6424 19.9387 12.5709 29.8985 1.36354 42.8288C-0.386835 44.8482 -0.461796 47.8324 1.19536 49.9284C1.32079 50.0873 1.44756 50.2463 1.57299 50.4038C1.27492 48.8002 1.80529 46.9611 3.09106 45.5103C14.6882 32.4303 24.9767 22.2411 38.4391 10.4634C39.1577 9.83213 39.9969 9.36574 40.8775 9.11503C43.3647 8.40105 48.9447 7.27441 56.6939 8.47453C47.5565 6.0544 41.1892 6.79288 38.4527 7.35545Z" fill="#5989B6"/>
<path d="M55.6673 25.5551C54.2585 25.5551 52.8495 25.0188 51.7769 23.9462C49.6317 21.801 49.6317 18.3106 51.7769 16.1654C52.8161 15.1262 54.1978 14.554 55.6674 14.554C57.137 14.554 58.5185 15.1262 59.5578 16.1654C61.703 18.3106 61.703 21.801 59.5578 23.9462C58.4851 25.0188 57.0762 25.5551 55.6673 25.5551ZM55.6674 16.8135C54.8013 16.8135 53.9871 17.1507 53.3747 17.7632C52.1103 19.0274 52.1103 21.0845 53.3747 22.3486C54.6391 23.6129 56.696 23.6126 57.9599 22.3486C59.2243 21.0843 59.2243 19.0273 57.9599 17.7632C57.3476 17.1507 56.5334 16.8135 55.6674 16.8135Z" fill="#5989B6"/>
<path d="M68.27 15.4063C67.7699 15.7136 67.2456 16.0209 66.6974 16.3283C64.7589 17.4127 62.5672 18.4778 60.1797 19.4961C59.4672 19.8004 58.8179 20.0655 58.2561 20.2884C57.8524 19.6602 57.5722 18.9448 57.4473 18.1781C57.9895 17.9612 58.6131 17.7067 59.2925 17.4175C61.6062 16.4308 63.7256 15.402 65.5934 14.3566C66.0648 14.0915 66.5771 13.7947 67.1042 13.4694C67.6161 14.0235 68.0154 14.6803 68.27 15.4063Z" fill="#063453"/>
<g clip-path="url(#clip1)">
<path d="M23.5358 59.8905C23.3701 60.0562 23.197 60.1409 23.0165 60.1446C22.8324 60.1446 22.6575 60.0618 22.4917 59.896L17.2823 54.6866C16.7004 54.1047 16.4224 53.5505 16.4482 53.0238C16.4776 52.4935 16.7999 51.9208 17.4149 51.3058L20.4754 48.2453C20.6411 48.0796 20.8142 47.9986 20.9947 48.0023C21.1751 47.9986 21.3482 48.0796 21.5139 48.2453L21.8288 48.5602C21.9945 48.7259 22.0774 48.9009 22.0774 49.085C22.0811 49.2655 22.0001 49.4386 21.8343 49.6043L19.1606 52.2781C18.9433 52.4953 18.8365 52.6795 18.8402 52.8305C18.8402 52.9778 18.9212 53.1325 19.0833 53.2945L20.2544 54.4657L23.0663 51.6538C23.232 51.4881 23.4051 51.4071 23.5855 51.4107C23.766 51.4071 23.9391 51.4881 24.1048 51.6538L24.4252 51.9742C24.591 52.1399 24.6738 52.3149 24.6738 52.499C24.6738 52.6758 24.591 52.847 24.4252 53.0128L21.6134 55.8246L24.0882 58.2995C24.254 58.4652 24.3368 58.6402 24.3368 58.8243C24.3368 59.0011 24.254 59.1723 24.0882 59.3381L23.5358 59.8905ZM34.5788 47.599C34.8661 47.6726 35.0336 47.8034 35.0815 47.9912C35.1331 48.1754 35.0539 48.3724 34.844 48.5823L34.0982 49.3281C33.8183 49.608 33.4887 49.6872 33.1094 49.5657L29.0877 48.284L28.0325 49.3392L30.5405 51.8472C30.7063 52.0129 30.7892 52.1879 30.7892 52.372C30.7892 52.5488 30.7063 52.72 30.5406 52.8857L29.9882 53.4382C29.8224 53.6039 29.6493 53.6886 29.4689 53.6923C29.2847 53.6923 29.1098 53.6094 28.9441 53.4437L23.7347 48.2343C23.1528 47.6524 22.8747 47.0981 22.9005 46.5715C22.93 46.0411 23.2522 45.4685 23.8673 44.8534L24.8064 43.9143C25.3294 43.3913 25.8155 42.9789 26.2648 42.6769C26.7104 42.3712 27.1579 42.1594 27.6072 42.0416C28.0565 41.9163 28.4947 41.9274 28.922 42.0747C29.3492 42.222 29.7727 42.5056 30.1925 42.9255C30.7634 43.4963 31.0727 44.0745 31.1206 44.6601C31.1722 45.242 30.9844 45.8717 30.5572 46.5493L34.5788 47.599ZM25.4748 46.7814L26.7951 48.1017L28.0712 46.8256C28.5942 46.3026 28.8888 45.8644 28.9551 45.5108C29.0251 45.1536 28.9035 44.8185 28.5905 44.5054C28.2775 44.1924 27.9442 44.0727 27.5906 44.1463C27.2407 44.2163 26.8043 44.5128 26.2814 45.0358L25.4693 45.8478C25.2889 46.0282 25.206 46.1921 25.2208 46.3394C25.2391 46.4831 25.3238 46.6304 25.4748 46.7814ZM38.5011 44.9252C37.886 45.5403 37.3134 45.8625 36.783 45.8921C36.2564 45.9178 35.7021 45.6397 35.1202 45.0578L31.0157 40.9533C30.4338 40.3714 30.1557 39.8171 30.1815 39.2905C30.211 38.7601 30.5332 38.1875 31.1483 37.5724L34.2087 34.512C34.3745 34.3463 34.5476 34.2652 34.728 34.2689C34.9085 34.2652 35.0816 34.3462 35.2473 34.512L35.5622 34.8269C35.7279 34.9926 35.8108 35.1675 35.8108 35.3517C35.8145 35.5321 35.7334 35.7052 35.5677 35.871L32.8939 38.5448C32.6767 38.762 32.5698 38.9462 32.5736 39.0971C32.5735 39.2445 32.6545 39.3991 32.8166 39.5612L33.9656 40.7102L36.6338 38.042C36.7996 37.8763 36.9745 37.7934 37.1586 37.7934C37.3428 37.7934 37.5177 37.8763 37.6834 38.042L37.9707 38.3293C38.1364 38.495 38.2193 38.67 38.2193 38.8541C38.2193 39.0309 38.1346 39.204 37.9652 39.3734L35.297 42.0416L36.5123 43.2569C36.6744 43.419 36.8309 43.5018 36.9819 43.5055C37.1292 43.5055 37.3115 43.3968 37.5288 43.1796L40.407 40.3014C40.5726 40.1357 40.7457 40.0547 40.9262 40.0584C41.1067 40.0547 41.2797 40.1357 41.4455 40.3015L41.7659 40.6218C41.9316 40.7876 42.0145 40.9625 42.0145 41.1467C42.0145 41.3234 41.9316 41.4947 41.7659 41.6604L38.5011 44.9252ZM45.2738 38.1525C44.6588 38.7675 44.0861 39.0898 43.5558 39.1192C43.0291 39.1451 42.4748 38.867 41.8929 38.2851L37.7884 34.1806C37.2065 33.5987 36.9285 33.0444 36.9543 32.5177C36.9837 31.9874 37.306 31.4147 37.921 30.7997L40.9814 27.7393C41.1472 27.5735 41.3203 27.4925 41.5008 27.4962C41.6812 27.4925 41.8543 27.5735 42.02 27.7392L42.3349 28.0541C42.5006 28.2198 42.5835 28.3948 42.5835 28.5789C42.5872 28.7594 42.5062 28.9325 42.3404 29.0982L39.6667 31.7719C39.4494 31.9892 39.3426 32.1734 39.3463 32.3244C39.3463 32.4717 39.4273 32.6264 39.5893 32.7885L40.7384 33.9375L43.4066 31.2692C43.5724 31.1035 43.7473 31.0207 43.9314 31.0207C44.1156 31.0206 44.2905 31.1035 44.4563 31.2692L44.7435 31.5565C44.9092 31.7222 44.9921 31.8971 44.992 32.0814C44.992 32.2581 44.9074 32.4312 44.738 32.6006L42.0697 35.2688L43.2851 36.4842C43.4471 36.6462 43.6036 36.7291 43.7547 36.7327C43.902 36.7327 44.0843 36.6241 44.3016 36.4068L47.1797 33.5287C47.3454 33.3629 47.5186 33.2819 47.699 33.2856C47.8795 33.2819 48.0526 33.3629 48.2183 33.5286L48.5387 33.849C48.7044 34.0148 48.7873 34.1897 48.7873 34.3739C48.7873 34.5506 48.7044 34.7219 48.5387 34.8876L45.2738 38.1525Z" fill="#2E4969"/>
</g>
</g>
<defs>
<clipPath id="clip0">
<rect width="76" height="76" fill="white"/>
</clipPath>
<clipPath id="clip1">
<rect width="38" height="11" fill="white" transform="translate(15 52.8691) rotate(-45)"/>
</clipPath>
</defs>
</svg>
