<svg width="1115" height="847" viewBox="0 0 1115 847" fill="none" xmlns="http://www.w3.org/2000/svg">
<path opacity="0.5" d="M538 846.954C835.129 846.954 1076 606.083 1076 308.954C1076 193.981 1039.93 87.4306 978.5 0H97.5C36.0653 87.4306 0 193.981 0 308.954C0 606.083 240.871 846.954 538 846.954Z" fill="#77CCF9"/>
<path d="M1115 485.83C1115 496.043 1111.88 501.155 1105.55 501.155H1030.57C1024.23 501.155 1007.75 478.047 981.177 431.956C958.817 392.863 943.907 364.769 936.457 347.443C929.112 330.672 924.768 321.454 923.772 319.454C917.203 308.57 909.638 302.913 900.961 302.243C898.4 302.023 891.171 301.908 879.272 301.908C852.012 301.908 838.33 305.239 838.33 312.016C838.33 331.898 839.001 361.773 840.334 401.421C841.667 441.07 842.338 470.725 842.338 490.376C842.338 497.593 839.673 501.155 834.217 501.155C830.104 501.155 823.871 500.82 815.634 500.149C807.408 499.489 801.291 499.154 797.167 499.154C793.274 499.154 787.493 499.489 779.707 500.149C772.027 500.82 766.245 501.155 762.353 501.155C756.896 501.155 754.231 498.704 754.231 493.707C754.231 469.834 755.343 433.957 757.568 386.096C759.792 338.34 760.905 302.463 760.905 278.59C760.905 253.492 759.792 215.614 757.568 165.197C755.343 114.77 754.231 77.0176 754.231 51.804C754.231 47.0274 756.896 44.6914 762.353 44.6914C766.245 44.6914 772.258 45.0266 780.264 45.697C788.269 46.357 794.282 46.6922 798.395 46.6922C802.288 46.6922 808.185 46.357 815.97 45.697C823.756 45.0266 829.652 44.6914 833.545 44.6914C838.55 44.6914 841.005 46.6922 841.005 50.5784C841.005 69.0146 840.449 96.7842 839.337 133.877C838.225 170.969 837.669 198.843 837.669 217.499C837.669 225.942 838.225 231.274 839.337 233.39C841.005 237.276 845.454 239.277 852.684 239.277C894.738 239.277 925.545 231.494 945.124 215.834C961.818 201.954 977.725 176.521 992.635 139.428C1003.54 110.328 1014.32 81.2391 1025.22 52.1392C1026.78 48.4729 1030.12 46.0322 1035.35 44.6914C1038.91 43.8115 1050.37 43.3611 1070.06 43.3611C1093.97 43.3611 1105.99 46.8074 1105.99 53.4696C1105.99 57.3558 1100.98 75.0169 1090.97 106.222C1079.29 142.655 1064.16 174.75 1045.48 202.509C1033.13 221.396 1016.77 240.387 996.307 259.484C991.071 264.04 988.511 268.262 988.511 271.928C988.511 275.814 997.304 295.13 1014.88 329.897C1030.01 360.108 1043.81 384.316 1056.16 402.532C1069.84 419.187 1088.85 444.956 1113.33 479.608C1114.44 481.608 1115 483.599 1115 485.83Z" fill="#FAFAFA"/>
<path d="M791.128 272.367C791.128 336.754 770.456 392.156 729.225 438.564C686.318 486.626 632.854 510.72 569.064 510.72C505.044 510.72 451.58 486.741 408.903 438.888C367.673 392.711 347 337.204 347 272.367C347 208.316 367.893 152.913 409.574 106.286C452.471 57.9931 505.704 33.7944 569.064 33.7944C632.634 33.7944 685.983 57.9931 728.89 106.286C770.34 152.693 791.128 208.085 791.128 272.367ZM712.442 271.477C712.442 228.965 699.212 191.991 672.763 160.463C644.973 127.05 610.189 110.39 568.288 110.39C526.828 110.39 492.265 127.27 464.694 161.133C438.685 192.766 425.686 229.959 425.686 272.367C425.686 314.67 438.685 351.748 464.694 383.381C492.265 417.245 526.828 434.124 568.288 434.124C610.294 434.124 645.308 417.245 673.088 383.381C699.328 351.748 712.442 314.335 712.442 271.477Z" fill="#FAFAFA"/>
</svg>
