<svg width="794" height="493" viewBox="0 0 794 493" fill="none" xmlns="http://www.w3.org/2000/svg">
<path d="M793.229 466.884C793.229 477.433 790.011 482.713 783.465 482.713H706.021C699.475 482.713 682.461 458.846 655.01 411.241C631.915 370.864 616.515 341.846 608.821 323.952C601.235 306.63 596.748 297.109 595.719 295.043C588.935 283.801 581.121 277.959 572.158 277.267C569.514 277.039 562.047 276.92 549.758 276.92C521.602 276.92 507.47 280.361 507.47 287.361C507.47 307.896 508.164 338.752 509.54 379.703C510.917 420.654 511.61 451.283 511.61 471.58C511.61 479.034 508.857 482.713 503.222 482.713C498.974 482.713 492.536 482.367 484.029 481.674C475.533 480.993 469.214 480.646 464.955 480.646C460.935 480.646 454.963 480.993 446.922 481.674C438.989 482.367 433.018 482.713 428.997 482.713C423.362 482.713 420.609 480.181 420.609 475.02C420.609 450.363 421.758 413.307 424.055 363.874C426.353 314.55 427.501 277.494 427.501 252.837C427.501 226.914 426.353 187.792 424.055 135.719C421.758 83.6348 420.609 44.6423 420.609 18.6004C420.609 13.6669 423.362 11.2542 428.997 11.2542C433.018 11.2542 439.228 11.6004 447.496 12.2928C455.765 12.9744 461.975 13.3206 466.223 13.3206C470.244 13.3206 476.335 12.9744 484.376 12.2928C492.417 11.6004 498.508 11.2542 502.528 11.2542C507.698 11.2542 510.234 13.3206 510.234 17.3346C510.234 36.3764 509.659 65.0582 508.511 103.369C507.362 141.68 506.787 170.47 506.787 189.739C506.787 198.459 507.362 203.966 508.511 206.152C510.234 210.166 514.829 212.232 522.296 212.232C565.732 212.232 597.55 204.193 617.773 188.019C635.015 173.683 651.444 147.414 666.844 109.103C678.104 79.0474 689.245 49.0025 700.505 18.9466C702.109 15.1599 705.566 12.639 710.963 11.2542C714.637 10.3454 726.471 9.88013 746.813 9.88013C771.511 9.88013 783.92 13.4397 783.92 20.3207C783.92 24.3346 778.75 42.5758 768.412 74.8063C756.35 112.436 740.722 145.586 721.421 174.257C708.665 193.764 691.77 213.379 670.637 233.102C665.229 237.809 662.585 242.169 662.585 245.956C662.585 249.97 671.667 269.92 689.819 305.829C705.447 337.032 719.698 362.035 732.453 380.85C746.585 398.052 766.223 424.668 791.506 460.458C792.655 462.524 793.229 464.58 793.229 466.884Z" fill="#F2F4F5"/>
<path d="M458.718 246.41C458.718 312.912 437.366 370.134 394.782 418.066C350.465 467.707 295.245 492.593 229.359 492.593C163.236 492.593 108.015 467.826 63.9365 418.402C21.3519 370.707 0 313.377 0 246.41C0 180.254 21.5793 123.032 64.6295 74.8726C108.936 24.9936 163.918 0 229.359 0C295.017 0 350.118 24.9936 394.435 74.8726C437.247 122.805 458.718 180.016 458.718 246.41ZM377.447 245.491C377.447 201.582 363.783 163.394 336.465 130.83C307.761 96.3188 271.835 79.1121 228.558 79.1121C185.735 79.1121 150.037 96.5459 121.56 131.522C94.6974 164.194 81.2714 202.609 81.2714 246.41C81.2714 290.103 94.6974 328.399 121.56 361.071C150.037 396.047 185.735 413.481 228.558 413.481C271.944 413.481 308.108 396.047 336.801 361.071C363.902 328.399 377.447 289.757 377.447 245.491Z" fill="#F2F4F5"/>
</svg>
