<svg width="10" height="15" viewBox="0 0 10 15" fill="none" xmlns="http://www.w3.org/2000/svg">
<path d="M5 0C2.24305 0 0 2.24306 0 5.00001C0 5.82765 0.206923 6.64825 0.600292 7.3761L4.72657 14.8389C4.78151 14.9384 4.88618 15 5 15C5.11382 15 5.2185 14.9384 5.27343 14.8389L9.40123 7.37364C9.79308 6.64825 10 5.82762 10 4.99998C10 2.24306 7.75695 0 5 0ZM5 7.5C3.62153 7.5 2.50002 6.37849 2.50002 5.00001C2.50002 3.62153 3.62153 2.50002 5 2.50002C6.37847 2.50002 7.49999 3.62153 7.49999 5.00001C7.49999 6.37849 6.37847 7.5 5 7.5Z" fill="#DFE5EC"/>
</svg>
