<svg width="13" height="19" viewBox="0 0 13 19" fill="none" xmlns="http://www.w3.org/2000/svg">
<path d="M6.5 0C2.91597 0 0 2.84121 0 6.33335C0 7.38169 0.269 8.42112 0.780379 9.34306L6.14455 18.7959C6.21596 18.9219 6.35204 19 6.5 19C6.64796 19 6.78405 18.9219 6.85546 18.7959L12.2216 9.33995C12.731 8.42112 13 7.38165 13 6.33331C13 2.84121 10.084 0 6.5 0ZM6.5 9.5C4.70798 9.5 3.25002 8.07942 3.25002 6.33335C3.25002 4.58728 4.70798 3.16669 6.5 3.16669C8.29202 3.16669 9.74998 4.58728 9.74998 6.33335C9.74998 8.07942 8.29202 9.5 6.5 9.5Z" fill="#7B8A99"/>
</svg>
