<svg width="46" height="46" viewBox="0 0 46 46" fill="none" xmlns="http://www.w3.org/2000/svg">
<g opacity="0.5" clip-path="url(#clip0)">
<path d="M30.7271 12.6967H29.7241V22.7265H30.7271C33.4968 22.7265 35.742 20.4813 35.742 17.7116C35.742 14.9419 33.4968 12.6967 30.7271 12.6967Z" fill="#FFC682"/>
<path d="M35.742 17.7116C35.742 20.4817 33.4971 22.7265 30.7271 22.7265H29.7241V19.5352H30.7271C32.9391 19.5352 34.8165 18.1037 35.483 16.116C35.6508 16.6175 35.742 17.1536 35.742 17.7116Z" fill="#FFAC5C"/>
<path d="M9.96146 33.3061C9.96146 33.4629 9.9341 33.6161 9.88304 33.7592C9.69795 34.2789 9.20467 34.671 8.59286 34.671H5.01498C4.76332 34.671 4.55908 34.4668 4.55908 34.2151V22.453H8.66215V25.2376C8.66215 27.7751 9.05878 30.2962 9.83837 32.7107C9.85569 32.7654 9.87302 32.8192 9.89125 32.8739C9.92316 32.9714 9.94414 33.0699 9.95325 33.1666C9.95599 33.1821 9.9569 33.1966 9.95781 33.2121C9.96055 33.2441 9.96146 33.2751 9.96146 33.3061Z" fill="white"/>
<path d="M9.96146 33.306C9.96146 33.4628 9.9341 33.616 9.88304 33.7592C9.69795 34.2789 9.20467 34.671 8.59286 34.671H5.01498C4.76332 34.671 4.55908 34.4667 4.55908 34.2151V22.6353L8.66215 22.68V24.6868H6.61062C6.51032 24.6868 6.42826 24.7689 6.42826 24.8692V32.5282C6.42826 32.6285 6.51032 32.7106 6.61062 32.7106H9.83837C9.85569 32.7653 9.87302 32.8191 9.89125 32.8738C9.92316 32.9714 9.94414 33.0699 9.95325 33.1665C9.95599 33.182 9.9569 33.1966 9.95781 33.2121C9.96055 33.244 9.96146 33.275 9.96146 33.306Z" fill="#E6E6E6"/>
<path d="M37.8963 13.9914C37.688 13.9914 37.4823 13.8966 37.348 13.7169C37.122 13.4143 37.1839 12.9858 37.4865 12.7598L41.5892 9.69404C41.8917 9.46792 42.3204 9.53001 42.5463 9.83255C42.7723 10.1351 42.7104 10.5636 42.4078 10.7897L38.3051 13.8554C38.1823 13.9471 38.0387 13.9914 37.8963 13.9914Z" fill="#FFE7C9"/>
<path d="M37.8963 21.6142C37.688 21.6142 37.4823 21.709 37.348 21.8887C37.122 22.1913 37.1839 22.6198 37.4865 22.8458L41.5892 25.9116C41.8917 26.1377 42.3204 26.0756 42.5463 25.7731C42.7723 25.4705 42.7104 25.042 42.4078 24.816L38.3051 21.7502C38.1823 21.6585 38.0387 21.6142 37.8963 21.6142Z" fill="#FFE7C9"/>
<path d="M10.719 12.6967V22.7265H5.01487C3.62985 22.7265 2.37614 22.1648 1.4689 21.2576C0.561665 20.3503 0 19.0966 0 17.7116C0 14.9416 2.24484 12.6967 5.01487 12.6967H10.719Z" fill="#FD646F"/>
<path d="M10.7193 19.7176V22.7265H5.01516C3.63015 22.7265 2.37643 22.1648 1.46919 21.2576C0.769848 20.5582 0.275655 19.6528 0.0869141 18.6398C0.941265 19.3155 2.01901 19.7176 3.19157 19.7176H10.7193Z" fill="#FC4755"/>
<path d="M26.1226 3.03815V32.3851L21.116 29.2923L18.4781 27.663L15.2723 25.6826L13.9046 24.8382L10.4854 22.7265V12.6968L13.9046 10.5851L15.2723 9.73983L26.1226 3.03815Z" fill="#F0ECEC"/>
<path d="M15.2725 9.73984V25.6825L13.9048 24.8382V10.5851L15.2725 9.73984Z" fill="#FD646F"/>
<path d="M26.1226 3.03815V32.3851L25.9859 32.3003L21.116 29.2923L18.4781 27.663L15.2723 25.6826L13.9046 24.8382L10.4854 22.7265V12.6968L12.9928 11.1486L13.9046 10.5851L15.2723 9.73983L26.1226 3.03815Z" fill="white"/>
<path d="M15.2725 9.73984V23.7532L13.9048 22.9089V10.5851L15.2725 9.73984Z" fill="#FD646F"/>
<path d="M30.7272 3.12292V32.3003C30.7272 33.6097 29.6658 34.671 28.3565 34.671C27.7018 34.671 27.1092 34.4057 26.6806 33.9762C26.2512 33.5477 25.9858 32.955 25.9858 32.3003V3.12292C25.9858 1.81359 27.0472 0.752258 28.3565 0.752258C29.6658 0.752258 30.7272 1.81359 30.7272 3.12292Z" fill="#FD646F"/>
<path d="M15.2725 22.3654V25.6825L13.9048 24.8382V21.5211L15.2725 22.3654Z" fill="#FC4755"/>
<path d="M26.5332 29.151C26.3569 29.375 25.9878 29.2567 25.9858 28.9718C25.9858 28.9695 25.9858 28.9673 25.9858 28.965V29.9096V32.3004C25.9858 32.3413 25.9868 32.382 25.9889 32.4224C26.0115 32.8669 26.1564 33.279 26.3909 33.6257C26.4123 33.6572 26.4344 33.6881 26.4571 33.7186C26.5026 33.7794 26.551 33.8379 26.6021 33.894C26.6277 33.922 26.6538 33.9494 26.6807 33.9762C27.1188 34.4154 27.7286 34.6829 28.4007 34.6707C29.7015 34.647 30.7272 33.548 30.7272 32.2468V29.058V25.8768C29.0764 26.6152 27.6387 27.7465 26.5332 29.151Z" fill="#FC4755"/>
<path d="M25.986 28.9832V32.3003L21.1161 29.2923L18.4783 27.6629L15.2725 25.6825V22.3654L16.135 22.8979L25.986 28.9832Z" fill="#E6E6E6"/>
<path d="M13.9046 21.5211V24.8382L10.4854 22.7265V19.7176C10.5638 19.7267 10.6413 19.7395 10.7188 19.7559C11.0415 19.8215 11.3516 19.9446 11.6342 20.1188L12.9928 20.9576L13.9046 21.5211Z" fill="#E6E6E6"/>
<path d="M44.4953 35.9931C44.4953 41.1047 40.3521 45.2478 35.2406 45.2478C33.4553 45.2478 31.7885 44.7427 30.3752 43.8674C29.9239 43.5875 29.499 43.2711 29.1042 42.92C28.7759 42.6301 28.4687 42.3173 28.1869 41.9827C27.5167 41.1958 26.977 40.2959 26.6004 39.3148C26.2028 38.2836 25.9858 37.1639 25.9858 35.9931C25.9858 30.8816 30.129 26.7384 35.2406 26.7384C36.4113 26.7384 37.531 26.9554 38.5613 27.353C39.5424 27.7296 40.4433 28.2693 41.231 28.9395C41.5648 29.2222 41.8784 29.5285 42.1665 29.8568C42.5185 30.2516 42.8349 30.6765 43.1148 31.1278C43.9901 32.5411 44.4953 34.2078 44.4953 35.9931Z" fill="#FAD207"/>
<path fill-rule="evenodd" clip-rule="evenodd" d="M35.0584 36.2794V32.841C36.0249 33.068 36.7452 33.7309 36.7452 34.4886C36.7452 34.8661 37.0516 35.1725 37.4291 35.1725C37.6338 35.1725 37.8025 35.0706 37.9423 34.9393L38.8194 34.0651H38.0775C37.8577 32.7522 36.6312 31.6993 35.0584 31.4469V29.0023H34.7912L33.8986 29.895C33.8931 29.8996 33.8886 29.9041 33.884 29.9096L33.874 29.9196L33.8749 29.9205C33.7609 30.0427 33.6907 30.2059 33.6907 30.3855V31.4332C33.1568 31.508 32.6613 31.6752 32.2281 31.913V31.7035L31.3388 32.5914V32.5917C30.8415 33.1163 30.5449 33.7746 30.5449 34.4886C30.5449 36.0195 31.9071 37.2942 33.6906 37.544V40.9888C32.6785 40.7827 31.9126 40.1025 31.9126 39.3211C31.9126 39.1187 31.824 38.9373 31.6841 38.8121L31.6803 37.9035L30.7646 38.8191L30.7648 38.8198C30.6299 38.9447 30.5449 39.1228 30.5449 39.321C30.5449 40.8519 31.9071 42.1266 33.6906 42.3764V43.4241C33.6906 43.8016 33.997 44.1079 34.3745 44.1079C34.5438 44.1079 34.6984 44.046 34.8179 43.944L35.7278 43.0344H35.0584V42.3628C36.7972 42.0838 38.1129 40.8264 38.1129 39.321C38.1129 37.8157 36.7972 36.5584 35.0584 36.2794ZM33.6907 36.1565C32.679 35.9499 31.9127 35.2699 31.9127 34.4886C31.9127 33.7073 32.679 33.0273 33.6907 32.8208V36.1565ZM35.0584 40.9691V37.673C36.0246 37.9008 36.7452 38.5634 36.7452 39.321C36.7452 40.0786 36.0246 40.7413 35.0584 40.9691Z" fill="#F8C201"/>
<path d="M35.9704 35.3676V31.9288C36.9366 32.1565 37.6572 32.8191 37.6572 33.5767C37.6572 33.9545 37.9633 34.2606 38.3411 34.2606C38.7188 34.2606 39.0249 33.9545 39.0249 33.5767C39.0249 32.0717 37.7089 30.8144 35.9704 30.535V29.4737C35.9704 29.0959 35.6643 28.7898 35.2866 28.7898C34.9088 28.7898 34.6027 29.0959 34.6027 29.4737V30.5216C32.8193 30.771 31.457 32.0456 31.457 33.5767C31.457 35.1079 32.8193 36.3825 34.6027 36.6319V40.0771C33.591 39.8706 32.8247 39.1906 32.8247 38.4092C32.8247 38.0315 32.5186 37.7254 32.1409 37.7254C31.7631 37.7254 31.457 38.0315 31.457 38.4092C31.457 39.9404 32.8193 41.215 34.6027 41.4644V42.5123C34.6027 42.8901 34.9088 43.1962 35.2866 43.1962C35.6643 43.1962 35.9704 42.8901 35.9704 42.5123V41.451C37.7089 41.1716 39.0249 39.9143 39.0249 38.4092C39.0249 36.9042 37.7089 35.647 35.9704 35.3676ZM32.8247 33.5768C32.8247 32.7955 33.591 32.1155 34.6027 31.909V35.2447C33.591 35.0382 32.8247 34.3581 32.8247 33.5768ZM35.9704 40.0573V36.7613C36.9366 36.989 37.6572 37.6516 37.6572 38.4092C37.6572 39.1669 36.9366 39.8295 35.9704 40.0573Z" fill="white"/>
<path d="M45.3159 18.4867H38.9334C38.5556 18.4867 38.2495 18.1806 38.2495 17.8028C38.2495 17.4251 38.5556 17.119 38.9334 17.119H45.3159C45.6937 17.119 45.9998 17.4251 45.9998 17.8028C45.9998 18.1806 45.6937 18.4867 45.3159 18.4867Z" fill="#FFE7C9"/>
</g>
<defs>
<clipPath id="clip0">
<rect width="46" height="46" fill="white"/>
</clipPath>
</defs>
</svg>
