<svg style="opacity: 0.6" width="1920" height="585" viewBox="0 0 1920 585" fill="none" xmlns="http://www.w3.org/2000/svg">
<path d="M244.755 202.423C244.755 216.015 242.4 229.317 237.679 242.348C232.89 255.309 226.163 266.254 217.351 275.104C205.284 287.084 191.892 296.074 177.051 302.209C162.271 308.334 143.818 311.401 121.753 311.401H73.2612V410.494H-5V106.547H123.42C142.702 106.547 158.869 108.212 172.121 111.559C185.305 114.907 197.031 119.849 207.16 126.544C219.366 134.553 228.667 144.868 235.114 157.337C241.571 169.886 244.755 184.862 244.755 202.423ZM163.589 204.308C163.589 195.737 161.294 188.42 156.722 182.216C152.142 176.082 146.863 171.761 140.834 169.325C132.712 166.048 124.877 164.243 117.243 163.892C109.547 163.542 99.3482 163.401 86.5839 163.401H73.2612V254.126H95.457C108.64 254.126 119.468 253.293 128 251.689C136.533 250.086 143.679 246.808 149.507 241.936C154.428 237.616 158.04 232.384 160.256 226.39C162.481 220.335 163.589 212.948 163.589 204.308Z" fill="white"/>
<path d="M529.853 295.106C529.853 333.071 518.904 362.962 497.094 384.786C475.205 406.61 444.519 417.562 404.975 417.562C365.431 417.562 334.745 406.61 312.857 384.786C291.046 362.962 280.098 333.071 280.098 295.106C280.098 256.93 291.116 226.969 313.066 205.145C335.094 183.391 365.701 172.519 404.975 172.519C444.798 172.519 475.554 183.462 497.233 205.357C518.974 227.322 529.853 257.212 529.853 295.106ZM439.955 351.03C444.728 345.144 448.265 338.119 450.686 329.841C453.038 321.564 454.223 310.126 454.223 295.53C454.223 282.054 452.977 270.688 450.547 261.563C448.125 252.438 444.728 245.139 440.365 239.668C436.071 234.055 430.81 230.128 424.712 227.807C418.624 225.495 412.039 224.304 404.975 224.304C397.911 224.304 391.675 225.283 386.135 227.181C380.665 229.078 375.404 232.864 370.413 238.618C365.91 243.948 362.313 251.246 359.682 260.513C357.052 269.841 355.728 281.489 355.728 295.53C355.728 308.088 356.913 318.969 359.195 328.226C361.477 337.422 364.874 344.791 369.377 350.404C373.741 355.734 378.862 359.599 384.959 362.053C390.987 364.506 397.842 365.768 405.602 365.768C412.248 365.768 418.554 364.647 424.643 362.406C430.67 360.155 435.801 356.369 439.955 351.03Z" fill="white"/>
<path d="M819.664 292.815C819.664 328.891 809.766 358.341 789.902 381.087C770.107 403.833 745.324 415.206 715.701 415.206C702.966 415.206 691.815 413.811 682.196 411.091C672.577 408.3 663.437 404.325 654.784 399.156L651.738 410.608H581.689V92.4094H654.784V205.174C665.996 196.171 677.487 188.843 689.186 183.262C700.886 177.681 714.387 174.89 729.681 174.89C758.547 174.89 780.762 185.359 796.335 206.289C811.908 227.157 819.664 256.046 819.664 292.815ZM744.079 294.28C744.079 273.833 740.615 258.134 733.764 247.112C726.844 236.09 714.587 230.57 696.873 230.57C690.022 230.57 682.962 231.623 675.624 233.712C668.355 235.88 661.435 238.881 654.784 242.856V357.99C660.051 359.877 665.03 361.202 669.739 361.825C674.51 362.527 680.194 362.878 686.766 362.878C706.074 362.878 720.472 357.157 729.89 345.713C739.37 334.261 744.079 317.167 744.079 294.28Z" fill="white"/>
<path d="M975.926 328.522L1027.42 181.944H1102.4L976.541 492.96H897.348L933.538 407.351L845.581 181.944H921.957L975.926 328.522Z" fill="white"/>
<path d="M1290.9 408.663C1283.05 410.757 1274.65 412.351 1265.84 413.472C1257.02 414.655 1246.2 415.207 1233.43 415.207C1204.9 415.207 1183.65 409.425 1169.77 397.862C1155.82 386.299 1148.88 366.52 1148.88 338.453V231.321H1118.9V181.591H1148.88V115.972H1222.18V181.591H1290.9V231.321H1222.18V312.682C1222.18 320.758 1222.25 327.793 1222.38 333.784C1222.52 339.776 1223.64 345.137 1225.65 349.946C1227.53 354.676 1230.92 358.513 1235.71 361.299C1240.58 364.084 1247.59 365.477 1256.81 365.477C1260.64 365.477 1265.63 364.636 1271.81 362.972C1277.99 361.299 1282.36 359.766 1284.79 358.373H1290.9V408.663Z" fill="white"/>
<circle cx="1606.63" cy="292.683" r="292.166" fill="white"/>
<path d="M1920 466.28C1920 474.638 1917.46 478.821 1912.28 478.821H1851.07C1845.9 478.821 1832.45 459.91 1810.75 422.193C1792.5 390.201 1780.32 367.21 1774.24 353.032C1768.25 339.308 1764.7 331.764 1763.89 330.127C1758.52 321.22 1752.35 316.591 1745.26 316.042C1743.17 315.862 1737.27 315.768 1727.56 315.768C1705.3 315.768 1694.13 318.494 1694.13 324.04C1694.13 340.31 1694.68 364.758 1695.77 397.204C1696.86 429.65 1697.41 453.918 1697.41 470C1697.41 475.906 1695.23 478.821 1690.78 478.821C1687.42 478.821 1682.33 478.546 1675.61 477.998C1668.89 477.458 1663.9 477.183 1660.53 477.183C1657.35 477.183 1652.63 477.458 1646.28 477.998C1640.01 478.546 1635.29 478.821 1632.11 478.821C1627.65 478.821 1625.48 476.815 1625.48 472.726C1625.48 453.19 1626.39 423.83 1628.2 384.663C1630.02 345.582 1630.93 316.222 1630.93 296.686C1630.93 276.147 1630.02 245.15 1628.2 203.892C1626.39 162.625 1625.48 131.731 1625.48 111.097C1625.48 107.188 1627.65 105.277 1632.11 105.277C1635.29 105.277 1640.19 105.551 1646.73 106.1C1653.27 106.64 1658.17 106.914 1661.53 106.914C1664.71 106.914 1669.52 106.64 1675.88 106.1C1682.24 105.551 1687.05 105.277 1690.23 105.277C1694.31 105.277 1696.32 106.914 1696.32 110.094C1696.32 125.181 1695.86 147.906 1694.96 178.261C1694.05 208.615 1693.59 231.426 1693.59 246.693C1693.59 253.602 1694.05 257.965 1694.96 259.697C1696.32 262.877 1699.95 264.515 1705.85 264.515C1740.18 264.515 1765.33 258.145 1781.32 245.33C1794.95 233.972 1807.93 213.158 1820.1 182.804C1829 158.99 1837.81 135.185 1846.71 111.372C1847.98 108.371 1850.71 106.374 1854.98 105.277C1857.88 104.557 1867.23 104.188 1883.31 104.188C1902.83 104.188 1912.64 107.008 1912.64 112.46C1912.64 115.641 1908.56 130.093 1900.38 155.63C1890.85 185.444 1878.5 211.71 1863.24 234.426C1853.16 249.882 1839.81 265.423 1823.1 281.051C1818.83 284.779 1816.74 288.234 1816.74 291.234C1816.74 294.415 1823.92 310.222 1838.26 338.673C1850.62 363.396 1861.88 383.206 1871.96 398.113C1883.13 411.743 1898.65 432.831 1918.64 461.188C1919.55 462.825 1920 464.454 1920 466.28Z" fill="#ADD9F4"/>
<path d="M1653.75 292.772C1653.75 345.575 1636.86 391.011 1603.18 429.07C1568.12 468.486 1524.44 488.245 1472.33 488.245C1420.02 488.245 1376.34 468.58 1341.47 429.336C1307.79 391.466 1290.9 345.945 1290.9 292.772C1290.9 240.244 1307.97 194.808 1342.02 156.569C1377.07 116.964 1420.56 97.1189 1472.33 97.1189C1524.26 97.1189 1567.85 116.964 1602.9 156.569C1636.77 194.628 1653.75 240.055 1653.75 292.772ZM1589.46 292.042C1589.46 257.178 1578.66 226.856 1557.05 201C1534.34 173.597 1505.92 159.935 1471.69 159.935C1437.82 159.935 1409.58 173.778 1387.06 201.549C1365.81 227.491 1355.19 257.993 1355.19 292.772C1355.19 327.465 1365.81 357.872 1387.06 383.815C1409.58 411.586 1437.82 425.429 1471.69 425.429C1506.01 425.429 1534.62 411.586 1557.31 383.815C1578.75 357.872 1589.46 327.19 1589.46 292.042Z" fill="#ADD9F4"/>
</svg>
