<svg width="130" height="130" viewBox="0 0 130 130" fill="none" xmlns="http://www.w3.org/2000/svg">
<rect width="130" height="130" rx="65" fill="#ADD9F4"/>
<path d="M51.9315 50.2024L44.2029 50.2133L44.1816 37.1893C44.1812 36.8248 44.4761 36.5292 44.8404 36.5286L51.2496 36.5197C51.614 36.5192 51.9097 36.8142 51.9103 37.1784L51.9315 50.2024Z" fill="#FFB125"/>
<path d="M51.9106 37.1784C51.9101 36.814 51.6143 36.5191 51.2499 36.5197L47.4287 36.525C47.7675 36.5523 48.0352 36.8326 48.0356 37.1784L48.0569 50.2023L44.2031 50.2076V50.213L51.9318 50.2022L51.9106 37.1784Z" fill="#FF901D"/>
<path d="M64.7116 36.2836L44.0088 55.7863L44.0502 85.435C44.0512 86.2171 44.6863 86.8502 45.4684 86.8492L84.0959 86.7953C84.878 86.7942 85.5111 86.1592 85.51 85.3771L85.4686 55.7284L64.7116 36.2836Z" fill="white"/>
<path d="M85.4686 55.7284L64.7116 36.2836L61.2979 39.4995L78.622 55.7283L78.6634 85.377C78.6644 86.1591 78.0313 86.7939 77.2492 86.7951H84.0959C84.878 86.7939 85.5112 86.1591 85.51 85.377L85.4686 55.7284Z" fill="#CCDFED"/>
<path d="M92.7712 62.2615C92.0724 62.2625 91.3718 62.0077 90.8215 61.4921L64.7115 37.0331L38.6702 61.565C37.5257 62.6433 35.7237 62.5894 34.6459 61.4449C33.5676 60.3005 33.6214 58.4987 34.766 57.4206L62.754 31.0548C63.8481 30.0239 65.5554 30.0215 66.6525 31.0493L94.7141 57.3368C95.8617 58.4116 95.9205 60.2133 94.8453 61.3608C94.2859 61.9579 93.5296 62.2603 92.7712 62.2615Z" fill="#FF4C4C"/>
<path d="M94.8457 57.9367C94.2863 58.5337 93.53 58.8362 92.7715 58.8373C92.0726 58.8382 91.372 58.5835 90.8218 58.0679L64.7119 33.6089L38.6706 58.1407C37.5261 59.2189 35.7241 59.165 34.6463 58.0206C34.5741 57.9441 34.5081 57.8643 34.446 57.7823C33.6258 58.8696 33.6807 60.4202 34.6463 61.4449C35.7241 62.5893 37.5261 62.6432 38.6706 61.565L64.7119 37.0332L90.8218 61.4922C91.372 62.0077 92.0728 62.2625 92.7715 62.2616C93.53 62.2605 94.2863 61.958 94.8457 61.361C95.8064 60.3356 95.859 58.789 95.0408 57.7043C94.9805 57.7841 94.9158 57.8619 94.8457 57.9367Z" fill="#F33939"/>
<path d="M70.0671 60.7258L59.4244 60.7407C58.9251 60.7414 58.5209 61.1468 58.5215 61.6461L58.5567 86.8309L71.0077 86.8135L70.9725 61.6288C70.9718 61.1293 70.5664 60.7251 70.0671 60.7258Z" fill="#2D5871"/>
<path d="M70.973 61.6285C70.9723 61.1292 70.5669 60.7248 70.0676 60.7256L64.0547 60.734C64.4215 60.8488 64.6881 61.1909 64.6887 61.5957L64.7238 86.822L71.0082 86.8133L70.973 61.6285Z" fill="#1D4859"/>
<path d="M97.2232 74.101L81.5367 84.5993L76.8616 84.337L76.6786 82.4968C76.4062 79.7577 74.2972 77.5593 71.5718 77.1737L59.0461 75.7315C56.1566 75.3227 53.3746 74.3544 50.8557 72.8809C47.4167 70.8691 43.5044 69.8088 39.5202 69.8088H30.4893V90.4229L54.3574 99.4614C55.2594 99.7161 56.2068 99.7922 57.1326 99.646C57.138 99.6451 57.1437 99.6443 57.1492 99.6434L81.1788 96.1796C83.03 95.884 84.7702 95.1043 86.223 93.9195L101.754 79.9514C103.148 78.7137 103.406 76.6337 102.357 75.0926C101.21 73.4067 98.916 72.9636 97.2232 74.101Z" fill="#FED9A8"/>
<path d="M102.562 75.4352L87.2113 88.3569C85.7585 89.5418 83.3434 90.3215 81.4923 90.617L57.1493 92.3572C57.1438 92.3581 57.1382 92.3589 57.1327 92.3598C56.2069 92.5062 55.2594 92.4299 54.3575 92.1752L30.4893 83.1367V90.423L54.3574 99.4615C54.8083 99.5889 55.2707 99.6716 55.7361 99.7042C55.8524 99.7124 55.969 99.7174 56.0855 99.7192C56.4352 99.7245 56.7854 99.7011 57.1325 99.6462C57.138 99.6453 57.1437 99.6444 57.1492 99.6435L81.1788 96.1797C81.7572 96.0874 82.325 95.9477 82.8763 95.7632C82.9866 95.7262 83.0963 95.6877 83.2053 95.6471C83.75 95.4448 84.2774 95.198 84.7821 94.9092C84.883 94.8515 84.9831 94.7921 85.0822 94.731C85.4786 94.4866 85.8598 94.2157 86.223 93.9195L101.754 79.9514C103.047 78.8032 103.361 76.9305 102.562 75.4352Z" fill="#F4C892"/>
<path d="M78.6819 84.4423L52.2403 83.3842C52.1142 83.3792 51.9912 83.3421 51.8835 83.2763L50.479 82.4207C49.7959 82.0047 50.1621 80.9512 50.9559 81.0484L78.6819 84.4423Z" fill="#F4C892"/>
<path d="M33.533 97.425H29.9598C28.3251 97.425 27 96.0998 27 94.4652V68.0227C27 66.388 28.3252 65.0629 29.9598 65.0629H33.533C35.1678 65.0629 36.4929 66.3881 36.4929 68.0227V94.4652C36.4929 96.0999 35.1678 97.425 33.533 97.425Z" fill="#2D5871"/>
<path d="M33.5329 65.0629H29.9597C29.7587 65.0629 29.5627 65.0833 29.373 65.1215C30.7266 65.3937 31.7463 66.5889 31.7463 68.0227V94.4652C31.7463 95.8989 30.7266 97.0941 29.373 97.3664C29.5627 97.4045 29.7588 97.425 29.9597 97.425H33.5329C35.1676 97.425 36.4927 96.0998 36.4927 94.4652V68.0227C36.4927 66.3881 35.1676 65.0629 33.5329 65.0629Z" fill="#1D4859"/>
</svg>
