<svg width="495" height="240" viewBox="0 0 495 240" fill="none" xmlns="http://www.w3.org/2000/svg">
<path d="M429.203 0H385.286V49.9697H429.203V0Z" fill="#415783"/>
<path d="M480.118 0H436.201V49.9697H480.118V0Z" fill="#415783"/>
<path d="M429.203 55.6593H385.286V105.629H429.203V55.6593Z" fill="#415783"/>
<path d="M480.118 55.6593H436.201V105.629H480.118V55.6593Z" fill="#415783"/>
<path d="M429.203 111.318H385.286V161.287H429.203V111.318Z" fill="#415783"/>
<path d="M480.118 111.318H436.201V161.287H480.118V111.318Z" fill="#415783"/>
<path d="M183.148 39.9479V115.041H310.13V39.9479H183.148ZM305.762 110.478H187.517V44.5103H305.762V110.478Z" fill="#415783"/>
<path d="M142.134 79.5566H42.4141V83.2049H142.134V79.5566Z" fill="#415783"/>
<path d="M117.916 46.9424H18.1963V50.5906H117.916V46.9424Z" fill="#415783"/>
<path d="M43.4883 63.8191V50.5908H38.8825V63.8191H43.4883Z" fill="#415783"/>
<path d="M97.2305 63.8191V50.5908H92.6246V63.8191H97.2305Z" fill="#415783"/>
<path d="M495 238.314H0V239.369H495V238.314Z" fill="#263238"/>
<path d="M478.586 186.66H443.445V238.313H478.586V186.66Z" fill="#A0A0A0"/>
<path d="M465.179 186.66H456.854V207.495H465.179V186.66Z" fill="white"/>
<path d="M443.445 186.66H419.352V238.313H443.445V186.66Z" fill="#929292"/>
<path d="M312.303 196.95H262.629V238.184H312.303V196.95Z" fill="#A0A0A0"/>
<path d="M291.628 196.95H283.304V213.583H291.628V196.95Z" fill="white"/>
<path d="M262.629 196.95H229.541V238.184H262.629V196.95Z" fill="#929292"/>
<path d="M242.835 208.453H207.017V238.186H242.835V208.453Z" fill="#A0A0A0"/>
<path d="M227.927 208.453H221.924V220.446H227.927V208.453Z" fill="white"/>
<path d="M207.017 208.453H183.158V238.186H207.017V208.453Z" fill="#929292"/>
<path d="M142.805 178.212H112.985V238.186H142.805V178.212Z" fill="#A0A0A0"/>
<path d="M131.39 178.212H124.398V202.404H131.39V178.212Z" fill="white"/>
<path d="M112.986 178.212H96.1162V238.186H112.986V178.212Z" fill="#929292"/>
<path d="M364.651 205.801H329.511V238.313H364.651V205.801Z" fill="#A0A0A0"/>
<path d="M351.242 205.801H342.918V218.916H351.242V205.801Z" fill="white"/>
<path d="M329.51 205.801H305.416V238.313H329.51V205.801Z" fill="#929292"/>
<path d="M453.595 167.402C449.626 163.75 450.519 159.946 451.632 157.729C451.733 157.525 451.78 157.298 451.769 157.071C451.759 156.844 451.69 156.623 451.57 156.43C451.449 156.236 451.282 156.077 451.083 155.967C450.883 155.856 450.659 155.799 450.432 155.8H441.385C441.157 155.799 440.933 155.856 440.734 155.967C440.535 156.077 440.367 156.236 440.247 156.43C440.127 156.623 440.058 156.844 440.047 157.071C440.037 157.298 440.084 157.525 440.185 157.729C441.298 159.947 442.191 163.75 438.222 167.402C431.126 173.929 433.511 180.82 435.538 184.322C435.95 185.033 436.541 185.624 437.254 186.034C437.966 186.444 438.773 186.66 439.595 186.66H452.228C453.05 186.66 453.858 186.444 454.57 186.034C455.282 185.624 455.873 185.033 456.285 184.322C458.304 180.82 460.691 173.929 453.595 167.402Z" fill="#2E4969"/>
<path d="M462.143 125.835C462.343 126.435 462.408 127.072 462.334 127.7C462.26 128.328 462.049 128.932 461.715 129.47C460.975 130.644 459.655 131.473 459.285 132.81C459.119 133.99 459.296 135.193 459.795 136.275C460.156 137.406 460.386 138.736 459.692 139.698C458.581 141.241 455.76 140.926 454.999 142.666C454.614 143.56 454.983 144.595 454.835 145.559C454.589 147.172 452.993 148.188 451.502 148.848C450.01 149.507 448.338 150.132 447.533 151.548C447.845 149.319 445.912 147.401 445.549 145.178C445.444 144.512 445.483 143.831 445.661 143.181C445.839 142.53 446.154 141.925 446.583 141.405C447.162 140.712 447.976 140.126 448.149 139.24C448.185 138.381 447.953 137.533 447.484 136.813C446.997 135.836 446.751 134.758 446.768 133.667C446.779 133.123 446.903 132.587 447.129 132.092C447.356 131.597 447.682 131.154 448.086 130.789C448.864 130.253 449.718 129.838 450.62 129.557C451.071 129.414 451.488 129.181 451.845 128.873C452.203 128.564 452.494 128.186 452.701 127.761C453.068 126.761 452.613 125.639 452.769 124.589C452.902 123.971 453.193 123.398 453.613 122.926C454.033 122.454 454.569 122.099 455.167 121.896C456.369 121.503 457.64 121.368 458.897 121.498C459.481 121.484 460.059 121.62 460.574 121.895C461.33 122.377 461.027 122.873 461.153 123.54C461.43 124.327 461.761 125.094 462.143 125.835Z" fill="#336181"/>
<g style="mix-blend-mode:screen" opacity="0.5">
<path d="M461.155 123.547C461.122 123.266 461.105 122.984 461.104 122.701C457.667 128.115 453.654 133.238 451.311 139.248C449.913 142.834 449.383 146.597 448.671 150.315C449.558 149.725 450.508 149.234 451.502 148.852C452.994 148.192 454.588 147.176 454.836 145.563C454.984 144.599 454.61 143.56 455 142.67C455.761 140.934 458.582 141.242 459.693 139.702C460.387 138.738 460.157 137.41 459.796 136.28C459.297 135.197 459.119 133.995 459.286 132.815C459.656 131.477 460.975 130.649 461.716 129.474C462.049 128.937 462.261 128.332 462.335 127.704C462.409 127.076 462.344 126.439 462.144 125.839C461.762 125.099 461.431 124.333 461.155 123.547Z" fill="#336181"/>
</g>
<path d="M446.753 165.605C446.658 165.605 446.567 165.568 446.499 165.501C446.431 165.434 446.393 165.343 446.392 165.248C446.265 151.702 449.306 142.064 451.879 136.365C453.285 132.999 455.211 129.875 457.586 127.107C457.653 127.041 457.743 127.004 457.837 127.003C457.931 127.002 458.022 127.038 458.09 127.104C458.158 127.169 458.198 127.258 458.201 127.352C458.204 127.446 458.171 127.538 458.108 127.607C457.996 127.724 446.876 139.62 447.114 165.244C447.114 165.291 447.105 165.338 447.088 165.382C447.07 165.426 447.044 165.466 447.011 165.5C446.977 165.534 446.938 165.561 446.894 165.58C446.85 165.598 446.804 165.608 446.756 165.608L446.753 165.605Z" fill="#2E4969"/>
<path d="M447.594 139.548C447.066 136.767 444.731 134.589 444.219 131.806C443.891 130.034 444.339 128.225 444.497 126.43C444.654 124.636 444.429 122.623 443.095 121.416C441.456 119.921 438.792 120.222 436.961 118.961C435.682 118.081 434.998 116.572 433.898 115.474C432.799 114.377 430.76 113.835 429.807 115.06C429.068 116.011 429.478 117.423 430.161 118.417C430.967 119.313 431.636 120.324 432.146 121.416C432.892 123.783 430.938 126.482 431.961 128.745C432.636 130.242 434.357 130.922 435.529 132.074C436.194 132.741 436.682 133.563 436.949 134.466C437.216 135.369 437.253 136.325 437.057 137.246C436.699 138.257 436.413 139.291 436.201 140.342C436.196 141.111 436.353 141.872 436.662 142.576C436.971 143.281 437.425 143.912 437.994 144.428C439.131 145.586 440.53 146.441 441.74 147.519C442.686 148.364 443.584 149.951 444.961 148.95C446.021 148.179 446.487 145.961 446.899 144.784C447.586 143.13 447.826 141.324 447.594 139.548Z" fill="#336181"/>
<g style="mix-blend-mode:screen" opacity="0.5">
<path d="M447.594 139.548C447.065 136.767 444.731 134.589 444.219 131.806C443.891 130.034 444.339 128.225 444.496 126.43C444.653 124.636 444.429 122.623 443.095 121.416C441.456 119.921 438.792 120.222 436.961 118.961C435.682 118.081 434.997 116.572 433.898 115.474C432.913 114.492 431.181 113.964 430.145 114.743C430.754 115.099 431.261 115.607 431.616 116.218C434.08 120.468 436.638 124.904 438.722 129.373C439.692 131.224 440.406 133.199 440.843 135.244C440.87 135.371 440.89 135.495 440.917 135.623C442.023 138.948 442.884 142.351 443.49 145.803C443.888 146.916 444.193 148.06 444.403 149.223C444.604 149.167 444.793 149.074 444.96 148.948C446.021 148.177 446.487 145.959 446.899 144.782C447.586 143.129 447.826 141.323 447.594 139.548V139.548Z" fill="#336181"/>
</g>
<path d="M444.951 161.436C444.903 161.435 444.856 161.426 444.813 161.407C444.769 161.388 444.729 161.361 444.696 161.328C444.663 161.294 444.636 161.254 444.618 161.21C444.601 161.166 444.592 161.119 444.592 161.071C444.801 135.407 435.107 123.534 435.01 123.417C434.978 123.381 434.953 123.339 434.937 123.293C434.921 123.247 434.914 123.199 434.918 123.15C434.921 123.102 434.934 123.054 434.956 123.011C434.978 122.968 435.009 122.929 435.046 122.898C435.083 122.867 435.126 122.844 435.173 122.829C435.219 122.815 435.268 122.81 435.316 122.815C435.365 122.821 435.411 122.835 435.454 122.859C435.496 122.882 435.534 122.914 435.564 122.952C435.66 123.072 445.527 135.15 445.315 161.077C445.315 161.124 445.305 161.171 445.287 161.215C445.268 161.259 445.241 161.298 445.207 161.332C445.174 161.365 445.133 161.391 445.089 161.409C445.045 161.427 444.998 161.436 444.951 161.436Z" fill="#2E4969"/>
<path d="M31.0599 192.138C32.1901 189.624 35.198 188.037 36.3137 185.519C37.0245 183.916 36.8846 182.121 37.0631 180.399C37.0773 179.504 37.3171 178.627 37.76 177.85C38.203 177.072 38.835 176.419 39.5974 175.95C41.7084 174.871 44.5871 175.686 46.8572 174.864C48.4436 174.286 49.4967 173.005 50.9268 172.191C52.357 171.377 54.7168 171.272 55.5278 172.617C56.1576 173.663 55.4314 174.91 54.4776 175.709C53.5239 176.507 52.3213 177.128 51.6954 178.138C50.4051 180.219 52.0349 183.153 50.4591 185.082C49.4166 186.357 47.3837 186.655 45.862 187.504C45.0331 187.941 44.3418 188.599 43.8651 189.406C43.3883 190.213 43.1449 191.136 43.1617 192.072C43.3576 193.09 43.4701 194.122 43.4983 195.158C43.3287 195.913 42.9901 196.62 42.5078 197.225C42.0255 197.829 41.4122 198.317 40.7142 198.65C39.23 199.518 37.5163 200.039 35.9685 200.813C34.7573 201.42 33.4525 202.736 32.1284 201.518C31.1129 200.584 31.029 198.396 30.8062 197.206C30.3684 195.531 30.457 193.761 31.0599 192.138V192.138Z" fill="#365D79"/>
<g style="mix-blend-mode:multiply" opacity="0.5">
<path d="M31.0596 192.138C32.1899 189.624 35.1977 188.037 36.3135 185.518C37.0243 183.916 36.8844 182.121 37.0628 180.399C37.0771 179.504 37.3168 178.627 37.7598 177.849C38.2028 177.072 38.8348 176.419 39.5972 175.95C41.7082 174.871 44.5868 175.686 46.857 174.864C48.4434 174.285 49.4964 173.005 50.9266 172.191C52.2082 171.463 54.2257 171.31 55.2171 172.252C54.4974 172.452 53.8391 172.828 53.3018 173.347C49.7433 176.858 46.0469 180.527 42.8654 184.321C41.4508 185.84 40.2715 187.563 39.3667 189.432C39.3117 189.547 39.2645 189.66 39.2114 189.774C37.3482 192.66 35.7276 195.696 34.3665 198.851C33.7148 199.811 33.1525 200.829 32.6865 201.891C32.4793 201.801 32.2891 201.676 32.1243 201.521C31.1088 200.587 31.0249 198.399 30.8021 197.208C30.3649 195.532 30.4549 193.761 31.0596 192.138V192.138Z" fill="#365D79"/>
</g>
<path d="M29.6771 213.288C29.7751 213.311 29.8783 213.296 29.9654 213.245C30.0524 213.194 30.1167 213.112 30.1449 213.016C34.959 188.795 48.0021 179.546 48.1332 179.456C48.1732 179.43 48.2069 179.396 48.2318 179.356C48.2567 179.316 48.2722 179.271 48.2771 179.223C48.282 179.176 48.2762 179.129 48.2602 179.084C48.2441 179.04 48.2182 179 48.1844 178.967C48.1107 178.892 48.0134 178.845 47.9091 178.834C47.8048 178.824 47.7 178.849 47.6125 178.907C47.4794 179.003 34.2078 188.408 29.3454 212.877C29.3395 212.926 29.3435 212.975 29.3571 213.023C29.3707 213.07 29.3936 213.114 29.4245 213.152C29.4555 213.191 29.4938 213.222 29.5371 213.245C29.5805 213.269 29.6281 213.283 29.6771 213.288V213.288Z" fill="#2E4969"/>
<path d="M41.5032 165.542C41.806 166.13 41.9758 166.777 42.0007 167.437C42.0255 168.098 41.9047 168.756 41.6469 169.364C41.0683 170.696 39.8426 171.764 39.6757 173.204C39.6938 174.45 40.0705 175.663 40.7606 176.7C41.3142 177.808 41.7674 179.146 41.2062 180.251C40.3064 182.02 37.3429 182.152 36.8386 184.071C36.5801 185.056 37.1327 186.07 37.1356 187.088C37.1414 188.793 35.6572 190.099 34.2241 191.021C32.7911 191.943 31.1642 192.853 30.5595 194.451C30.5219 192.099 28.2171 190.43 27.4851 188.194C27.2699 187.523 27.1996 186.814 27.2789 186.114C27.3582 185.413 27.5853 184.738 27.9451 184.132C28.4273 183.323 29.1766 182.589 29.2133 181.644C29.112 180.752 28.7355 179.913 28.1361 179.245C27.4754 178.316 27.0478 177.242 26.8892 176.113C26.814 175.549 26.8548 174.976 27.009 174.429C27.1632 173.882 27.4276 173.372 27.786 172.93C28.5027 172.251 29.3181 171.685 30.2046 171.251C30.6468 171.031 31.0397 170.723 31.3593 170.346C31.6789 169.97 31.9187 169.532 32.064 169.06C32.2809 167.969 31.6319 166.888 31.6223 165.775C31.6604 165.116 31.8686 164.477 32.2265 163.922C32.5845 163.367 33.08 162.915 33.6648 162.608C34.8426 162.008 36.1331 161.663 37.4529 161.594C38.0534 161.485 38.6719 161.533 39.2485 161.733C40.1078 162.111 39.8734 162.671 40.1164 163.339C40.5277 164.104 40.991 164.841 41.5032 165.542V165.542Z" fill="#365D79"/>
<g style="mix-blend-mode:screen" opacity="0.5">
<path d="M40.1113 163.339C40.0327 163.053 39.9699 162.763 39.9232 162.471C37.2471 168.615 33.9287 174.549 32.4773 181.132C31.6094 185.061 31.6673 189.031 31.5342 192.984C32.3555 192.232 33.2571 191.573 34.2228 191.018C35.6569 190.096 37.1401 188.79 37.1343 187.085C37.1343 186.067 36.5788 185.053 36.8372 184.068C37.3416 182.149 40.309 182.017 41.2039 180.248C41.7661 179.143 41.3129 177.805 40.7593 176.697C40.0692 175.66 39.6925 174.447 39.6744 173.201C39.8412 171.76 41.0699 170.694 41.6456 169.361C41.9034 168.753 42.0242 168.095 41.9994 167.434C41.9745 166.774 41.8047 166.127 41.5019 165.539C40.9885 164.838 40.5239 164.103 40.1113 163.339V163.339Z" fill="#365D79"/>
</g>
<path d="M32.0181 209.085C31.9198 209.1 31.8196 209.075 31.739 209.017C31.6584 208.959 31.6038 208.872 31.587 208.774C29.2725 194.808 30.8608 184.367 32.5996 178.068C33.5102 174.366 34.995 170.829 37 167.586C37.0576 167.504 37.1454 167.448 37.2443 167.431C37.3431 167.413 37.4448 167.436 37.5271 167.493C37.6093 167.551 37.6653 167.639 37.6827 167.737C37.7002 167.836 37.6777 167.938 37.6201 168.02C37.5237 168.158 27.9581 182.232 32.3325 208.649C32.3408 208.698 32.3393 208.748 32.3281 208.797C32.317 208.845 32.2964 208.891 32.2676 208.931C32.2387 208.971 32.2022 209.006 32.16 209.032C32.1179 209.058 32.0709 209.076 32.0219 209.084L32.0181 209.085Z" fill="#2E4969"/>
<path d="M30.124 190.005C29.3892 187.387 26.9744 185.492 26.2521 182.869C25.793 181.199 26.0727 179.43 26.0766 177.698C26.0804 175.966 25.6985 174.057 24.3224 173.007C22.6241 171.711 20.1023 172.218 18.2468 171.161C16.9498 170.424 16.1696 169.04 15.0268 168.075C13.884 167.111 11.8868 166.761 11.0729 168.014C10.4432 168.987 10.9514 170.304 11.6872 171.196C12.5326 171.988 13.2563 172.901 13.8349 173.905C14.7443 176.11 13.0942 178.856 14.2601 180.937C15.0316 182.314 16.7337 182.825 17.9508 183.83C18.6421 184.413 19.1769 185.16 19.5068 186.002C19.8367 186.844 19.9512 187.755 19.84 188.652C19.5801 189.649 19.3913 190.664 19.2749 191.688C19.3336 192.425 19.5467 193.14 19.9002 193.789C20.2538 194.438 20.7399 195.005 21.327 195.454C22.5122 196.471 23.9222 197.171 25.1681 198.105C26.1441 198.836 27.1354 200.282 28.3708 199.211C29.3188 198.388 29.5869 196.221 29.8839 195.064C30.4065 193.428 30.4893 191.683 30.124 190.005V190.005Z" fill="#365D79"/>
<g style="mix-blend-mode:screen" opacity="0.5">
<path d="M30.1242 190.005C29.3894 187.387 26.9746 185.492 26.2523 182.869C25.7933 181.199 26.0729 179.43 26.0768 177.698C26.0806 175.966 25.6988 174.057 24.3226 173.007C22.6243 171.711 20.1025 172.218 18.2471 171.161C16.95 170.423 16.1698 169.04 15.027 168.075C14.0029 167.215 12.3008 166.851 11.373 167.683C11.9862 167.973 12.5132 168.418 12.9025 168.974C15.6124 172.84 18.4264 176.882 20.7892 180.986C21.8714 182.679 22.7178 184.512 23.3052 186.434C23.3409 186.553 23.3708 186.672 23.4016 186.791C24.7347 189.884 25.8384 193.072 26.7036 196.327C27.1758 197.361 27.5628 198.431 27.8609 199.528C28.049 199.458 28.2224 199.353 28.372 199.219C29.32 198.397 29.588 196.23 29.8851 195.073C30.4089 193.434 30.4914 191.686 30.1242 190.005V190.005Z" fill="#365D79"/>
</g>
<path d="M29.3879 211.182C29.3424 211.186 29.2967 211.18 29.2534 211.166C29.21 211.152 29.1698 211.129 29.1352 211.1C29.1005 211.07 29.072 211.034 29.0514 210.993C29.0307 210.953 29.0182 210.908 29.0147 210.863C27.1043 186.271 16.8453 175.698 16.7421 175.594C16.6771 175.529 16.6405 175.44 16.6406 175.348C16.6407 175.256 16.6774 175.168 16.7426 175.102C16.8079 175.037 16.8963 175.001 16.9884 175.001C17.0805 175.001 17.1689 175.038 17.234 175.103C17.3391 175.209 27.7784 185.964 29.7071 210.809C29.7107 210.854 29.7052 210.9 29.6911 210.943C29.677 210.987 29.6545 211.027 29.6248 211.061C29.5952 211.096 29.559 211.125 29.5184 211.145C29.4777 211.166 29.4334 211.178 29.3879 211.182V211.182Z" fill="#2E4969"/>
<path d="M34.8981 238.314H25.3528L22.8252 205.282H37.4267L34.8981 238.314Z" fill="#2E4969"/>
<path d="M33.9814 9.45813V46.9422H61.3493V9.45813H33.9814ZM57.6085 43.1242H37.7155V13.2799H57.6085V43.1242Z" fill="#415783"/>
<path d="M67.4043 17.9303V46.9424H88.5876V17.9303H67.4043ZM85.6955 43.9847H70.2964V20.888H85.6955V43.9847Z" fill="#415783"/>
<path d="M415.269 144.769C413.948 132.628 417.833 165.117 411.046 185.795L425.761 223.568L417.274 230.077L395.198 190.538L385.999 152.903L415.269 144.769Z" fill="#263238"/>
<g style="mix-blend-mode:multiply" opacity="0.4">
<path d="M407.316 210.711C404.913 204.82 402.14 198.314 400.872 192.061C399.542 185.492 401.53 180.215 404.441 174.404C407.747 167.805 410.227 160.897 413.199 154.152C413.379 153.69 413.649 153.269 413.993 152.913C414.338 152.558 414.751 152.275 415.207 152.081C415.207 149.081 415.136 146.573 415.072 144.826L385.992 152.903L395.191 190.539L411.401 219.573C409.937 216.67 408.548 213.729 407.316 210.711Z" fill="#55687F"/>
</g>
<path d="M409.595 86.8595C409.696 87.2698 409.712 87.6966 409.641 88.1132C409.375 89.3514 408.026 89.9831 406.844 90.4335C406.977 90.9587 407.11 91.4843 407.243 92.0102C407.315 92.2013 407.317 92.4118 407.248 92.6043C407.173 92.7087 407.074 92.7946 406.961 92.8554C406.847 92.9162 406.721 92.9504 406.592 92.9553C404.852 93.2724 403.083 93.3982 401.316 93.3304C401.497 93.7242 401.575 94.1574 401.544 94.5897C401.513 95.0219 401.373 95.4393 401.137 95.8031C401.011 95.975 400.85 96.119 400.666 96.2261C400.481 96.3333 400.276 96.4011 400.064 96.4256C399.852 96.45 399.637 96.4305 399.433 96.3682C399.229 96.3059 399.04 96.2021 398.878 96.0635C398.698 95.8464 398.557 95.6006 398.46 95.3363L397.393 92.8656C396.833 91.5724 396.289 90.0159 397.051 88.8297C397.404 88.4415 397.701 88.0063 397.935 87.5365C398.076 87.0611 397.92 86.5355 398.057 86.0591C398.397 84.8691 400.199 84.7447 400.757 83.6482C400.854 83.4553 400.912 83.2325 401.019 83.0387C401.551 82.0743 402.975 82.2055 404.008 82.5883C404.667 82.8815 405.371 83.0605 406.09 83.1178C406.663 83.1255 407.12 82.8738 407.657 83.1669C408.728 83.7475 409.372 85.7717 409.595 86.8595Z" fill="#2D3F45"/>
<path d="M399.337 88.8341L388.48 90.7317L391.18 106.177L402.036 104.28L399.337 88.8341Z" fill="#E0A8A4"/>
<g style="mix-blend-mode:multiply" opacity="0.4">
<path d="M392.487 105.948C393.791 103.963 394.864 101.837 395.684 99.6087C396.591 96.8313 396.757 93.8726 397.249 91.0075C397.359 90.2836 397.666 89.6039 398.136 89.0421L388.483 90.7298L391.184 106.175L392.487 105.948Z" fill="#ECB7AD"/>
</g>
<path d="M387.819 74.5229C383.705 77.879 376.196 87.5901 381.774 94.2925C387.109 100.704 396.975 96.9359 398.421 91.3319L401.828 78.1393L387.819 74.5229Z" fill="#E0A8A4"/>
<path d="M403.179 87.7097C403.179 88.363 402.985 89.0016 402.622 89.5448C402.259 90.088 401.744 90.5114 401.14 90.7613C400.536 91.0113 399.872 91.0767 399.231 90.9491C398.591 90.8216 398.002 90.5069 397.54 90.0449C397.078 89.5829 396.764 88.9943 396.637 88.3535C396.509 87.7127 396.575 87.0486 396.825 86.445C397.075 85.8415 397.499 85.3257 398.042 84.9629C398.585 84.6001 399.224 84.4065 399.877 84.4067C400.311 84.4067 400.74 84.4922 401.141 84.6582C401.542 84.8242 401.906 85.0675 402.212 85.3742C402.519 85.6809 402.762 86.0451 402.928 86.4458C403.094 86.8465 403.179 87.276 403.179 87.7097V87.7097Z" fill="#E0A8A4"/>
<path d="M385.108 76.5691C385.108 76.5691 392.805 81.1672 397.838 80.6956C395.264 82.7728 398.383 84.6273 396.709 86.7981L397.46 87.017C397.46 87.017 400.575 83.4277 403.067 86.8396C403.437 86.6573 405.757 86.7219 406.551 85.4442C408.007 83.0998 407.679 78.6868 404.442 77.2518C404.345 71.5428 395.514 67.8753 388.591 67.8637C383.491 67.8541 383.726 69.0836 385.108 76.5691Z" fill="#2D3F45"/>
<path d="M387.478 85.4013C387.003 86.1217 386.93 86.9124 387.317 87.168C387.704 87.4236 388.403 87.0465 388.878 86.3271C389.354 85.6077 389.426 84.8169 389.039 84.5613C388.653 84.3058 387.954 84.6819 387.478 85.4013Z" fill="#2D3F45"/>
<path d="M390.627 84.7855C390.719 84.8464 390.829 84.8731 390.938 84.8609C391.048 84.8487 391.149 84.7984 391.225 84.7188C391.301 84.6393 391.347 84.5355 391.354 84.4256C391.361 84.3158 391.33 84.207 391.264 84.1182C390.625 83.3455 389.809 82.7374 388.886 82.3447C388.773 82.2939 388.644 82.2903 388.528 82.3346C388.412 82.3789 388.318 82.4675 388.267 82.581C388.218 82.6946 388.216 82.8229 388.26 82.9385C388.304 83.0541 388.391 83.1479 388.504 83.2001C389.278 83.5293 389.965 84.0341 390.51 84.6746C390.543 84.7178 390.582 84.7553 390.627 84.7855V84.7855Z" fill="#2D3F45"/>
<path d="M382.356 83.903C382.087 84.7217 381.512 85.2695 381.071 85.1248C380.63 84.9802 380.492 84.1981 380.761 83.3784C381.031 82.5587 381.606 82.0118 382.046 82.1565C382.486 82.3012 382.626 83.0833 382.356 83.903Z" fill="#2D3F45"/>
<path d="M380.889 81.0463C380.785 81.0119 380.696 80.942 380.638 80.8489C380.58 80.7558 380.557 80.6453 380.572 80.5366C380.587 80.428 380.64 80.3281 380.721 80.2544C380.802 80.1806 380.907 80.1377 381.016 80.1331C382.019 80.155 383.002 80.4169 383.882 80.8968C383.993 80.9542 384.075 81.0529 384.113 81.1714C384.15 81.2898 384.139 81.4183 384.082 81.5285C384.023 81.6377 383.924 81.7196 383.806 81.7569C383.688 81.7942 383.56 81.7838 383.449 81.7281C382.711 81.3261 381.889 81.1007 381.048 81.0695C380.994 81.0713 380.94 81.0634 380.889 81.0463Z" fill="#2D3F45"/>
<path d="M382.972 89.9838C383.02 89.996 383.072 89.9887 383.115 89.9635C383.159 89.9383 383.19 89.8971 383.204 89.8488C383.217 89.7996 383.211 89.7471 383.185 89.7028C383.16 89.6585 383.118 89.6261 383.069 89.6126C383.021 89.5991 381.89 89.2789 381.995 88.328C382.1 87.3772 383.892 85.4137 384.573 84.7338C384.609 84.6977 384.629 84.649 384.629 84.5983C384.629 84.5476 384.609 84.4989 384.573 84.4628C384.537 84.4269 384.488 84.4067 384.437 84.4067C384.386 84.4067 384.338 84.4269 384.301 84.4628C384.198 84.567 381.752 87.0155 381.612 88.2866C381.602 88.6838 381.733 89.0718 381.981 89.3824C382.229 89.693 382.578 89.9063 382.968 89.9848L382.972 89.9838Z" fill="#2D3F45"/>
<path d="M385.179 92.4566C386.06 92.5896 386.958 92.3771 387.687 91.8635C387.723 91.8322 387.746 91.7885 387.752 91.7409C387.758 91.6933 387.746 91.6453 387.718 91.6061C387.69 91.567 387.649 91.5396 387.602 91.5292C387.555 91.5189 387.506 91.5263 387.465 91.5501C387.118 91.7962 386.722 91.9647 386.305 92.0441C385.887 92.1235 385.457 92.1119 385.044 92.0101C384.997 91.991 384.944 91.9913 384.897 92.011C384.85 92.0307 384.813 92.0682 384.793 92.1152C384.774 92.1625 384.775 92.2153 384.794 92.2623C384.814 92.3093 384.851 92.3465 384.899 92.366C384.99 92.403 385.084 92.4333 385.179 92.4566V92.4566Z" fill="#2D3F45"/>
<path d="M383.117 69.9817C383.117 69.9817 375.971 70.4253 376.23 74.5229C376.488 78.6205 388.284 81.1481 398.636 78.9098C390.111 71.1881 383.117 69.9817 383.117 69.9817Z" fill="#00AB5B"/>
<path d="M383.117 69.9815C385.159 63.958 391.557 58.4331 401.826 64.0535C412.638 69.9699 409.123 78.1873 406.573 81.6503C403.36 82.7729 383.117 69.9815 383.117 69.9815Z" fill="#00AB5B"/>
<g style="mix-blend-mode:multiply" opacity="0.4">
<path d="M404.086 80.6997C397.002 76.9252 389.34 71.5835 388.577 63.0701C385.98 64.6359 384.039 67.0921 383.117 69.9817C383.117 69.9817 401.261 81.4452 405.916 81.7084C405.213 81.314 404.589 80.9688 404.086 80.6997Z" fill="#55687F"/>
</g>
<path d="M384.895 151.509L377.455 186.48L381.732 230.065H391.27L393.41 188.458L415.269 144.772L384.895 151.509Z" fill="#263238"/>
<g style="mix-blend-mode:multiply" opacity="0.4">
<path d="M383.198 228.939H383.172C383.172 228.894 383.181 228.849 383.183 228.804C382.338 221.404 382.811 214.162 383.314 206.72C383.784 199.736 383.512 192.607 385.233 185.768C386.995 178.762 391.334 173.732 395.507 168.064C399.896 162.101 403.985 156.218 409.545 151.247C410.374 150.47 411.475 150.05 412.611 150.078L415.269 144.767L384.891 151.505L377.451 186.475L381.733 230.065H383.325C383.276 229.689 383.242 229.315 383.198 228.939Z" fill="#55687F"/>
</g>
<path d="M415.665 153.131C411.431 155.638 382.197 159.548 382.197 159.548C382.197 159.548 374.371 130.416 390.157 100.317C393.799 104.375 397.072 100.79 400.93 97.9485C409.282 99.4683 415.269 127.847 415.665 153.131Z" fill="#00AB5B"/>
<g style="mix-blend-mode:multiply" opacity="0.4">
<path d="M398.159 149.494C401.306 142.999 402.706 135.97 403.361 128.82C403.997 121.877 406.62 107.111 396.949 105.474C396.216 105.363 395.528 105.05 394.962 104.571C394.036 106.357 388.009 111.243 387.988 111.283C384.324 119.936 382.106 131.728 380.37 140.558C380.355 140.632 380.296 140.681 380.26 140.744C380.137 147.068 380.785 153.383 382.189 159.55C382.189 159.55 387.276 158.869 393.509 157.894C395.154 155.141 396.763 152.374 398.159 149.494Z" fill="#00AB5B"/>
</g>
<path d="M397.514 103.452C390.464 104.386 388.514 107.985 387.989 111.282L384.71 131.919L371.534 158.174L378.154 162.996L395.552 137.24C396.017 136.348 396.354 135.395 396.553 134.408L402.532 110.376C403.059 107.075 400.828 103.012 397.514 103.452Z" fill="#00AB5B"/>
<path d="M372.486 158.866C372.424 159.189 372.277 159.49 372.062 159.74C371.847 159.989 371.57 160.178 371.26 160.288C370.013 160.782 366.824 159.909 366.516 161.753L362.043 161.881C362.043 161.881 360.369 163.328 363.262 164.399C364.805 164.97 371.534 166.091 373.326 165.342C374.588 164.816 377.074 162.206 377.074 162.206L372.486 158.866Z" fill="#ECB7AD"/>
<path d="M390.543 230.065C390.543 230.065 392.837 235.381 392.651 238.314H369.642C369.642 238.314 367.48 234.331 373.967 234.19C375.768 234.213 377.554 233.858 379.209 233.147C380.864 232.437 382.352 231.387 383.576 230.065H390.543Z" fill="#2D3F45"/>
<path d="M424.536 224.33C424.536 224.33 429.09 229.269 428.903 231.913L420.321 238.311H408.988C408.988 238.311 406.947 234.602 413.433 234.474C419.919 234.346 418.834 228.576 418.834 228.576L424.536 224.33Z" fill="#2D3F45"/>
<path d="M156.147 174.472L144.119 173.912L151.174 151.827L167.981 152.609L156.147 174.472Z" fill="#263238"/>
<path d="M329.071 182.518L341.099 183.079L336.125 160.433L319.319 159.651L329.071 182.518Z" fill="#263238"/>
<path d="M150.214 57.5636L345.095 66.6312C346.446 66.6933 347.772 67.0211 348.996 67.5959C350.221 68.1706 351.32 68.9811 352.231 69.9808C353.142 70.9806 353.847 72.1501 354.305 73.4225C354.764 74.6949 354.967 76.0452 354.904 77.3963L350.997 161.371L135.547 151.347L139.454 67.3716C139.516 66.021 139.844 64.6958 140.418 63.4719C140.993 62.2479 141.803 61.1492 142.802 60.2383C143.801 59.3275 144.97 58.6225 146.242 58.1636C147.514 57.7046 148.864 57.5008 150.214 57.5636V57.5636Z" fill="#5979A9"/>
<g style="mix-blend-mode:multiply" opacity="0.3">
<path d="M350.996 161.367L135.546 151.338L138.649 84.6432C138.649 84.6432 155.308 101.759 174.368 108.463C261.875 139.255 353.029 117.645 353.029 117.645L350.996 161.367Z" fill="#5979A9"/>
</g>
<path d="M125.079 84.014L139.471 84.6836C140.624 84.7373 141.755 85.0176 142.801 85.5086C143.846 85.9995 144.784 86.6915 145.561 87.545C146.339 88.3985 146.941 89.3968 147.332 90.4829C147.724 91.569 147.898 92.7216 147.845 93.875L145.385 146.735C145.32 148.144 144.697 149.469 143.654 150.419C142.612 151.369 141.234 151.866 139.825 151.8L118.493 150.808C117.084 150.742 115.759 150.119 114.809 149.077C113.859 148.034 113.362 146.657 113.428 145.248L115.887 92.388C115.996 90.0587 117.025 87.8679 118.749 86.2974C120.472 84.727 122.749 83.9056 125.079 84.014V84.014Z" fill="#5979A9"/>
<g style="mix-blend-mode:multiply" opacity="0.2">
<path d="M122.377 145.669L124.837 92.8062C124.891 91.6529 125.171 90.5213 125.662 89.4763C126.153 88.4313 126.845 87.4932 127.698 86.7156C128.552 85.938 129.55 85.3362 130.636 84.9444C131.722 84.5527 132.875 84.3788 134.028 84.4326L125.076 84.015C122.747 83.9072 120.47 84.7288 118.747 86.2993C117.023 87.8698 115.994 90.0605 115.886 92.3896L113.426 145.252C113.393 145.949 113.498 146.646 113.735 147.303C113.972 147.96 114.336 148.564 114.807 149.08C115.277 149.597 115.844 150.015 116.476 150.312C117.109 150.609 117.793 150.779 118.491 150.811L127.443 151.228C126.034 151.162 124.709 150.539 123.759 149.497C122.809 148.455 122.312 147.078 122.377 145.669Z" fill="#5979A9"/>
</g>
<path d="M354.015 94.6672L368.407 95.3369C370.736 95.4453 372.927 96.4745 374.498 98.1982C376.068 99.9219 376.89 102.199 376.781 104.528L374.322 157.391C374.256 158.8 373.633 160.125 372.591 161.075C371.548 162.025 370.171 162.522 368.762 162.456L347.429 161.464C346.02 161.398 344.694 160.776 343.744 159.733C342.794 158.69 342.298 157.313 342.363 155.904L344.823 103.041C344.931 100.712 345.96 98.521 347.684 96.9506C349.408 95.3802 351.685 94.5588 354.014 94.6672L354.015 94.6672Z" fill="#5979A9"/>
<g style="mix-blend-mode:multiply" opacity="0.2">
<path d="M351.314 156.322L353.775 103.459C353.883 101.129 354.912 98.9385 356.636 97.3682C358.36 95.7978 360.637 94.9765 362.966 95.0849L354.014 94.6683C351.684 94.5599 349.408 95.3812 347.684 96.9516C345.96 98.5219 344.931 100.713 344.822 103.042L342.363 155.906C342.298 157.315 342.795 158.692 343.744 159.734C344.694 160.777 346.019 161.4 347.428 161.465L356.379 161.882C354.97 161.816 353.645 161.194 352.696 160.151C351.746 159.108 351.249 157.731 351.314 156.322Z" fill="#5979A9"/>
</g>
<path d="M339.816 134.735L147.538 125.788C143.588 125.605 140.237 128.658 140.053 132.608L139.494 144.62C139.31 148.57 142.364 151.922 146.314 152.105L338.591 161.052C342.541 161.236 345.893 158.182 346.077 154.232L346.635 142.22C346.819 138.27 343.766 134.919 339.816 134.735Z" fill="#5979A9"/>
<g style="mix-blend-mode:multiply" opacity="0.3">
<path d="M336.189 134.565L143.912 125.619C139.961 125.435 136.61 128.488 136.426 132.439L135.867 144.45C135.683 148.401 138.737 151.752 142.687 151.936L334.964 160.882C338.914 161.066 342.266 158.013 342.45 154.063L343.009 142.051C343.192 138.101 340.139 134.749 336.189 134.565Z" fill="#5979A9"/>
</g>
<path d="M339.816 134.735L147.538 125.788C143.588 125.605 140.237 128.658 140.053 132.608L139.494 144.62C139.31 148.57 142.364 151.922 146.314 152.105L338.591 161.052C342.541 161.236 345.893 158.182 346.077 154.232L346.635 142.22C346.819 138.27 343.766 134.919 339.816 134.735Z" fill="#5979A9"/>
<g style="mix-blend-mode:multiply" opacity="0.2">
<path d="M203.34 97.6543C202.977 98.2479 202.481 98.749 201.89 99.1177C201.3 99.4865 200.633 99.7129 199.94 99.779C199.247 99.8452 198.549 99.7492 197.9 99.4987C197.25 99.2482 196.668 98.8501 196.2 98.3359C195.731 97.8217 195.388 97.2054 195.199 96.5359C195.009 95.8663 194.978 95.1619 195.108 94.4783C195.238 93.7947 195.525 93.1507 195.947 92.5972C196.369 92.0438 196.913 91.596 197.538 91.2895C197.128 91.9346 196.892 92.6748 196.852 93.4381C196.81 94.2214 196.975 95.0021 197.331 95.7015C197.686 96.4008 198.219 96.9942 198.877 97.4219C199.535 97.8497 200.293 98.0966 201.077 98.1379C201.86 98.1792 202.641 98.0134 203.34 97.6572V97.6543ZM216.384 79.0748C214.205 79.7669 212.201 80.9226 210.511 82.4624C208.821 84.0022 207.484 85.8897 206.592 87.9952C208.771 87.3026 210.775 86.1468 212.465 84.607C214.155 83.0673 215.492 81.18 216.384 79.0748V79.0748ZM190.641 102.53C188.462 103.222 186.458 104.378 184.768 105.918C183.078 107.458 181.741 109.345 180.85 111.451C183.029 110.758 185.032 109.603 186.722 108.063C188.413 106.523 189.749 104.636 190.641 102.53V102.53ZM214.8 113.028C214.108 110.849 212.953 108.845 211.413 107.155C209.873 105.465 207.985 104.128 205.88 103.237C206.572 105.416 207.728 107.42 209.267 109.11C210.807 110.8 212.695 112.137 214.8 113.028V113.028ZM191.348 87.2864C190.656 85.1072 189.5 83.1037 187.96 81.4136C186.42 79.7234 184.533 78.3866 182.427 77.4951C183.119 79.6745 184.275 81.6782 185.814 83.3684C187.354 85.0586 189.242 86.3952 191.348 87.2864V87.2864Z" fill="#5979A9"/>
</g>
<g style="mix-blend-mode:multiply" opacity="0.2">
<path d="M298.128 102.064C297.765 102.657 297.269 103.158 296.679 103.527C296.089 103.896 295.421 104.122 294.728 104.188C294.035 104.255 293.337 104.159 292.688 103.908C292.039 103.658 291.457 103.26 290.988 102.745C290.519 102.231 290.176 101.615 289.987 100.945C289.798 100.276 289.767 99.5713 289.896 98.8877C290.026 98.2041 290.313 97.5601 290.735 97.0067C291.157 96.4532 291.701 96.0055 292.326 95.6989C291.804 96.5259 291.568 97.5014 291.653 98.4757C291.739 99.45 292.143 100.369 292.802 101.092C293.46 101.815 294.338 102.301 295.301 102.477C296.263 102.653 297.256 102.507 298.128 102.064ZM311.171 83.4851C308.992 84.177 306.989 85.3324 305.298 86.8719C303.608 88.4114 302.271 90.2985 301.38 92.4036C303.559 91.7115 305.562 90.5558 307.252 89.016C308.943 87.4761 310.279 85.5887 311.171 83.4832V83.4851ZM285.429 106.938C283.25 107.63 281.246 108.786 279.556 110.326C277.866 111.866 276.529 113.753 275.638 115.859C277.817 115.167 279.821 114.011 281.511 112.471C283.201 110.931 284.538 109.043 285.429 106.938ZM309.591 117.439C308.899 115.259 307.743 113.256 306.204 111.566C304.664 109.876 302.776 108.539 300.671 107.647C301.363 109.827 302.519 111.83 304.058 113.52C305.598 115.21 307.486 116.547 309.591 117.439V117.439ZM286.138 91.6958C285.446 89.5166 284.29 87.5131 282.75 85.823C281.21 84.1328 279.323 82.7961 277.217 81.9045C277.909 84.0837 279.065 86.0872 280.605 87.7773C282.145 89.4675 284.032 90.8043 286.138 91.6958V91.6958Z" fill="#5979A9"/>
</g>
<path d="M80.24 88.834L69.3838 90.7317L72.0836 106.177L82.9398 104.28L80.24 88.834Z" fill="#E0A8A4"/>
<g style="mix-blend-mode:multiply" opacity="0.4">
<path d="M74.3696 100.158C75.9011 97.3772 77.116 94.4336 77.9918 91.3822C78.326 90.3041 79.0688 89.3997 80.0613 88.8623L69.3848 90.7284L71.6086 103.449C72.6586 102.468 73.5857 101.363 74.3696 100.158V100.158Z" fill="#F0C8A7"/>
</g>
<path d="M68.7215 74.5229C64.6075 77.879 57.098 87.5901 62.6759 94.2925C68.0127 100.704 77.8773 96.9359 79.3238 91.3319L82.73 78.1393L68.7215 74.5229Z" fill="#E0A8A4"/>
<path d="M80.7805 91.0117C82.6042 91.0117 84.0825 89.5334 84.0825 87.7097C84.0825 85.8861 82.6042 84.4077 80.7805 84.4077C78.9569 84.4077 77.4785 85.8861 77.4785 87.7097C77.4785 89.5334 78.9569 91.0117 80.7805 91.0117Z" fill="#E0A8A4"/>
<path d="M66.1918 156.364L59.0555 183.793C58.5936 185.57 58.449 187.415 58.6283 189.243L62.6333 230.065H72.1709L74.7082 193.312L96.5666 149.626L66.1918 156.364Z" fill="#263238"/>
<g style="mix-blend-mode:multiply" opacity="0.4">
<path d="M66.1912 156.364L63.5045 166.69C62.9384 174.816 62.9712 181.445 62.9394 186.728C62.8564 200.509 68.497 227.721 68.4575 230.065H72.1703L74.7066 193.312L96.566 149.626L66.1912 156.364Z" fill="#55687F"/>
</g>
<path d="M96.5693 149.626C96.5693 149.626 97.5433 164.62 98.3408 189.84L124.453 223.566L115.962 230.076L88.5843 203.986C85.1234 200.689 82.4302 196.671 80.6957 192.216L67.291 157.76L96.5693 149.626Z" fill="#263238"/>
<g style="mix-blend-mode:multiply" opacity="0.4">
<path d="M122.077 225.101C120.955 224.359 119.833 223.616 118.689 222.903C112.891 219.288 106.966 215.777 101.893 211.138C94.2644 204.261 87.1177 196.869 80.503 189.012C79.8385 188.209 79.1693 187.389 78.499 186.562L80.6959 192.209C82.4292 196.666 85.1221 200.686 88.5834 203.985L115.961 230.075L122.207 225.286C122.166 225.228 122.118 225.168 122.077 225.101Z" fill="#55687F"/>
</g>
<path d="M62.256 77.0031C62.256 77.0031 73.7041 81.1672 78.7361 80.6956C77.9031 81.4017 77.2847 82.3272 76.9511 83.367C76.6175 84.4068 76.5821 85.5193 76.8489 86.5783L78.3591 87.019C78.3591 87.019 81.473 83.4296 83.9649 86.8416C85.0161 86.3246 90.3414 79.4709 85.3411 77.2538C85.2447 71.5447 76.412 67.8772 69.4898 67.8657C64.395 67.8541 60.8779 69.5186 62.256 77.0031Z" fill="#2D3F45"/>
<path d="M96.9644 156.57C92.7299 159.077 65.1798 160.265 65.1798 160.265C65.1798 160.265 55.2748 130.416 71.0624 100.317C74.7039 104.375 77.977 100.79 81.8364 97.9485C90.1849 99.4683 97.6347 135.319 96.9644 156.57Z" fill="#00AB5B"/>
<g style="mix-blend-mode:multiply" opacity="0.4">
<path d="M78.3308 114.652L78.3491 114.513C78.3366 114.638 78.3318 114.758 78.3212 114.882C78.3009 115.267 78.2729 115.653 78.2411 116.039C78.2411 116.092 78.2411 116.146 78.2411 116.199C78.2739 116.313 78.3077 116.425 78.3375 116.537C78.785 117.357 79.2248 118.177 79.7098 118.981C84.9983 124.519 89.4323 130.813 92.8658 137.657C94.34 140.708 95.6473 143.801 96.7878 146.935C96.1335 136.344 94.4233 125.845 91.6825 115.593C86.7926 114.951 82.1558 113.041 78.2324 110.053C78.3678 111.582 78.4007 113.119 78.3308 114.652V114.652Z" fill="#00AB5B"/>
</g>
<path d="M116.716 147.324L105.611 121.266C105.077 120.413 104.425 119.64 103.675 118.97L85.972 101.651C83.3933 99.5298 78.7595 99.4045 77.4624 102.481C74.7014 109.039 76.8192 112.537 79.3979 114.658L95.5385 127.932L109.209 150.595L116.716 147.324Z" fill="#00AB5B"/>
<path d="M115.436 147.882C116.289 148.957 117.323 149.875 118.491 150.595C119.813 151.173 125.473 151.173 125.473 151.173C125.473 151.173 126.92 152.054 124.027 153.123C122.484 153.694 118.241 155.577 113.963 154.066C112.673 153.612 110.083 150.215 110.083 150.215L115.436 147.882Z" fill="#E0A8A4"/>
<path d="M69.4892 67.8633C69.4892 67.8633 61.7627 62.2921 60.6883 66.2557C59.614 70.2192 70.8866 74.8839 82.1861 78.7568C78.7626 69.5413 69.4892 67.8633 69.4892 67.8633Z" fill="#00AB5B"/>
<path d="M69.4893 67.8636C71.3138 61.4438 77.9188 59.4621 86.7881 67.1047C95.6796 74.7666 90.3611 84.4074 86.0311 84.4064C81.6933 75.5969 69.4893 67.8636 69.4893 67.8636Z" fill="#00AB5B"/>
<g style="mix-blend-mode:multiply" opacity="0.4">
<path d="M72.3691 69.865C76.2073 72.6896 82.8673 78.1779 85.9224 84.1974C83.9946 77.0756 80.1217 70.7233 72.3691 69.865Z" fill="#55687F"/>
</g>
<path d="M71.4459 230.065C71.4459 230.065 73.7392 235.381 73.5531 238.314H50.5452C50.5452 238.314 48.383 234.331 54.8694 234.19C56.6706 234.213 58.4567 233.858 60.1121 233.147C61.7674 232.437 63.2552 231.387 64.4793 230.065H71.4459Z" fill="#2D3F45"/>
<path d="M123.225 224.33C123.225 224.33 127.779 229.269 127.594 231.913L119.032 238.294H107.696C107.696 238.294 105.637 234.602 112.124 234.474C118.61 234.346 117.524 228.576 117.524 228.576L123.225 224.33Z" fill="#2D3F45"/>
<path d="M68.8103 84.9042C68.4824 85.7027 68.5644 86.4916 68.9935 86.668C69.4227 86.8445 70.036 86.3402 70.3639 85.5426C70.6918 84.7451 70.6098 83.9553 70.1807 83.7788C69.7515 83.6023 69.1382 84.1105 68.8103 84.9042Z" fill="#2D3F45"/>
<path d="M71.7845 83.6865C71.8862 83.7292 71.9997 83.7346 72.105 83.7017C72.2103 83.6688 72.3005 83.5997 72.3598 83.5067C72.4191 83.4137 72.4437 83.3028 72.4291 83.1935C72.4145 83.0841 72.3618 82.9835 72.2802 82.9092C71.5039 82.2748 70.5869 81.8353 69.606 81.6276C69.5461 81.6136 69.4839 81.6116 69.4231 81.6217C69.3624 81.6317 69.3042 81.6537 69.252 81.6863C69.1998 81.7189 69.1545 81.7616 69.1187 81.8117C69.083 81.8619 69.0575 81.9186 69.0438 81.9786C69.0179 82.0996 69.04 82.2259 69.1055 82.3308C69.171 82.4357 69.2748 82.5111 69.3948 82.5409C70.2178 82.7159 70.9892 83.079 71.6486 83.6017C71.6883 83.638 71.7344 83.6668 71.7845 83.6865V83.6865Z" fill="#2D3F45"/>
<path d="M63.9532 83.5009C63.6842 84.3206 63.1084 84.8674 62.6677 84.7228C62.227 84.5781 62.0891 83.797 62.3581 82.9772C62.6272 82.1575 63.2029 81.6107 63.6427 81.7554C64.0824 81.9 64.2223 82.6821 63.9532 83.5009Z" fill="#2D3F45"/>
<path d="M62.4856 80.6451C62.3815 80.6106 62.2927 80.5408 62.2348 80.4476C62.1768 80.3545 62.1534 80.244 62.1686 80.1354C62.1837 80.0267 62.2365 79.9269 62.3177 79.8531C62.3989 79.7794 62.5033 79.7365 62.6129 79.7318C63.6155 79.7536 64.5983 80.0152 65.479 80.4946C65.5893 80.5522 65.6722 80.6511 65.7096 80.7697C65.7471 80.8883 65.7359 81.0169 65.6787 81.1273C65.6198 81.2362 65.5209 81.318 65.4028 81.3553C65.2847 81.3925 65.1567 81.3824 65.046 81.3269C64.3076 80.9238 63.4855 80.6983 62.6447 80.6682C62.5908 80.6695 62.537 80.6616 62.4856 80.6451V80.6451Z" fill="#2D3F45"/>
<path d="M64.5995 88.8254C64.6466 88.8325 64.6947 88.8218 64.7344 88.7956C64.7742 88.7693 64.8028 88.7292 64.8148 88.6831C64.8267 88.637 64.8212 88.5881 64.7993 88.5458C64.7773 88.5036 64.7405 88.4709 64.6959 88.4541C64.6487 88.4406 63.5165 88.1204 63.6216 87.1686C63.7268 86.2168 65.5186 84.2543 66.2004 83.5754C66.2212 83.5583 66.2382 83.5371 66.2503 83.5131C66.2625 83.4891 66.2694 83.4628 66.2708 83.4359C66.2722 83.409 66.2679 83.3821 66.2582 83.357C66.2486 83.3319 66.2338 83.3091 66.2148 83.29C66.1958 83.2709 66.173 83.2561 66.1479 83.2463C66.1228 83.2366 66.096 83.2322 66.0691 83.2335C66.0422 83.2348 66.0159 83.2416 65.9918 83.2537C65.9678 83.2657 65.9465 83.2827 65.9294 83.3034C65.8262 83.4066 63.3796 85.8551 63.2398 87.1262C63.2301 87.5235 63.3607 87.9115 63.6087 88.222C63.8566 88.5326 64.2061 88.7459 64.5957 88.8244L64.5995 88.8254Z" fill="#2D3F45"/>
<path d="M64.3589 91.1108C65.2399 91.2438 66.1382 91.0313 66.8662 90.5177C66.9025 90.4864 66.9259 90.4427 66.9317 90.3951C66.9375 90.3475 66.9253 90.2994 66.8976 90.2603C66.8699 90.2211 66.8287 90.1937 66.7818 90.1834C66.735 90.173 66.686 90.1805 66.6444 90.2043C66.2977 90.4503 65.902 90.6188 65.4843 90.6982C65.0666 90.7775 64.6367 90.766 64.2238 90.6643C64.1766 90.6452 64.1238 90.6455 64.0768 90.6652C64.0298 90.6849 63.9926 90.7223 63.9731 90.7694C63.954 90.8166 63.9543 90.8695 63.974 90.9165C63.9937 90.9634 64.0311 91.0007 64.0782 91.0202C64.1694 91.0572 64.2632 91.0875 64.3589 91.1108V91.1108Z" fill="#2D3F45"/>
</svg>
