<svg width="76" height="76" viewBox="0 0 76 76" fill="none" xmlns="http://www.w3.org/2000/svg">
<path d="M24.9315 23.2024L17.2029 23.2133L17.1816 10.1893C17.1812 9.82484 17.4761 9.52915 17.8404 9.52856L24.2496 9.51965C24.614 9.51921 24.9097 9.81415 24.9103 10.1784L24.9315 23.2024Z" fill="#FFB125"/>
<path d="M24.9106 10.1784C24.9101 9.814 24.6143 9.51906 24.2499 9.51965L20.4287 9.525C20.7675 9.55231 21.0352 9.83256 21.0356 10.1784L21.0569 23.2023L17.2031 23.2076V23.213L24.9318 23.2022L24.9106 10.1784Z" fill="#FF901D"/>
<path d="M37.7116 9.28357L17.0088 28.7863L17.0502 58.435C17.0512 59.2171 17.6863 59.8502 18.4684 59.8492L57.0959 59.7953C57.878 59.7942 58.5111 59.1592 58.51 58.3771L58.4686 28.7284L37.7116 9.28357Z" fill="white"/>
<path d="M58.4686 28.7284L37.7116 9.28357L34.2979 12.4995L51.622 28.7283L51.6634 58.377C51.6644 59.1591 51.0313 59.7939 50.2492 59.7951H57.0959C57.878 59.7939 58.5112 59.1591 58.51 58.377L58.4686 28.7284Z" fill="#CCDFED"/>
<path d="M65.7712 35.2615C65.0724 35.2625 64.3718 35.0077 63.8215 34.4921L37.7115 10.0331L11.6702 34.565C10.5257 35.6433 8.7237 35.5894 7.64589 34.4449C6.56764 33.3005 6.62138 31.4987 7.76598 30.4206L35.754 4.05478C36.8481 3.02389 38.5554 3.02151 39.6525 4.04929L67.7141 30.3368C68.8617 31.4116 68.9205 33.2133 67.8453 34.3608C67.2859 34.9579 66.5296 35.2603 65.7712 35.2615Z" fill="#FF4C4C"/>
<path d="M67.8457 30.9367C67.2863 31.5337 66.53 31.8362 65.7715 31.8373C65.0726 31.8382 64.372 31.5835 63.8218 31.0679L37.7119 6.60889L11.6706 31.1407C10.5261 32.2189 8.72408 32.165 7.64628 31.0206C7.57414 30.9441 7.50809 30.8643 7.44604 30.7823C6.62577 31.8696 6.6807 33.4202 7.64628 34.4449C8.72408 35.5893 10.5261 35.6432 11.6706 34.565L37.7119 10.0332L63.8218 34.4922C64.372 35.0077 65.0728 35.2625 65.7715 35.2616C66.53 35.2605 67.2863 34.958 67.8457 34.361C68.8064 33.3356 68.859 31.789 68.0408 30.7043C67.9805 30.7841 67.9158 30.8619 67.8457 30.9367Z" fill="#F33939"/>
<path d="M43.0671 33.7258L32.4244 33.7407C31.9251 33.7414 31.5209 34.1468 31.5215 34.6461L31.5567 59.8309L44.0077 59.8135L43.9725 34.6288C43.9718 34.1293 43.5664 33.7251 43.0671 33.7258Z" fill="#2D5871"/>
<path d="M43.973 34.6285C43.9723 34.1292 43.5669 33.7248 43.0676 33.7256L37.0547 33.734C37.4215 33.8488 37.6881 34.1909 37.6887 34.5957L37.7238 59.822L44.0082 59.8133L43.973 34.6285Z" fill="#1D4859"/>
<path d="M70.2232 47.101L54.5367 57.5993L49.8616 57.337L49.6786 55.4968C49.4062 52.7577 47.2972 50.5593 44.5718 50.1737L32.0461 48.7315C29.1566 48.3227 26.3746 47.3544 23.8557 45.8809C20.4167 43.8691 16.5044 42.8088 12.5202 42.8088H3.48926V63.4229L27.3574 72.4614C28.2594 72.7161 29.2068 72.7922 30.1326 72.646C30.138 72.6451 30.1437 72.6443 30.1492 72.6434L54.1788 69.1796C56.03 68.884 57.7702 68.1043 59.223 66.9195L74.7537 52.9514C76.1475 51.7137 76.4059 49.6337 75.3572 48.0926C74.2098 46.4067 71.916 45.9636 70.2232 47.101Z" fill="#FED9A8"/>
<path d="M75.5621 48.4352L60.2113 61.3569C58.7585 62.5418 56.3434 63.3215 54.4923 63.617L30.1493 65.3572C30.1438 65.3581 30.1382 65.3589 30.1327 65.3598C29.2069 65.5062 28.2594 65.4299 27.3575 65.1752L3.48926 56.1367V63.423L27.3574 72.4615C27.8083 72.5889 28.2707 72.6716 28.7361 72.7042C28.8524 72.7124 28.969 72.7174 29.0855 72.7192C29.4352 72.7245 29.7854 72.7011 30.1325 72.6462C30.138 72.6453 30.1437 72.6444 30.1492 72.6435L54.1788 69.1797C54.7572 69.0874 55.325 68.9477 55.8763 68.7632C55.9866 68.7262 56.0963 68.6877 56.2053 68.6471C56.75 68.4448 57.2774 68.198 57.7821 67.9092C57.883 67.8515 57.9831 67.7921 58.0822 67.731C58.4786 67.4866 58.8598 67.2157 59.223 66.9195L74.7537 52.9514C76.0469 51.8032 76.3606 49.9305 75.5621 48.4352Z" fill="#F4C892"/>
<path d="M51.6819 57.4423L25.2403 56.3842C25.1142 56.3792 24.9912 56.3421 24.8835 56.2763L23.479 55.4207C22.7959 55.0047 23.1621 53.9512 23.9559 54.0484L51.6819 57.4423Z" fill="#F4C892"/>
<path d="M6.53302 70.425H2.95984C1.3251 70.425 0 69.0998 0 67.4652V41.0227C0 39.388 1.32525 38.0629 2.95984 38.0629H6.53302C8.16776 38.0629 9.49286 39.3881 9.49286 41.0227V67.4652C9.49286 69.0999 8.16776 70.425 6.53302 70.425Z" fill="#2D5871"/>
<path d="M6.53285 38.0629H2.95967C2.75869 38.0629 2.56275 38.0833 2.37305 38.1215C3.72665 38.3937 4.74626 39.5889 4.74626 41.0227V67.4652C4.74626 68.8989 3.72665 70.0941 2.37305 70.3664C2.56275 70.4045 2.75884 70.425 2.95967 70.425H6.53285C8.16759 70.425 9.49269 69.0998 9.49269 67.4652V41.0227C9.49269 39.3881 8.16759 38.0629 6.53285 38.0629Z" fill="#1D4859"/>
</svg>
