<svg width="76" height="76" viewBox="0 0 76 76" fill="none" xmlns="http://www.w3.org/2000/svg">
<g clip-path="url(#clip0)">
<path d="M66.8249 27.0956V63.7377C66.8249 66.2715 64.7713 68.3252 62.2375 68.3252H4.58746C2.05363 68.3252 0 66.2715 0 63.7377V27.0956C0 24.5618 2.05363 22.5082 4.58746 22.5082H62.2373C64.7713 22.508 66.8249 24.5618 66.8249 27.0956Z" fill="#B5ADB6"/>
<path d="M25.1739 52.2693H11.4688C8.93513 52.2693 6.88135 50.2154 6.88135 47.6818V33.9767C6.88135 31.4431 8.93528 29.3893 11.4688 29.3893H25.1739C27.7076 29.3893 29.7614 31.4432 29.7614 33.9767V47.6818C29.7614 50.2154 27.7076 52.2693 25.1739 52.2693Z" fill="white"/>
<path d="M59.9441 30.536H36.7005C36.0672 30.536 35.5537 30.0225 35.5537 29.3891C35.5537 28.7558 36.0672 28.2423 36.7005 28.2423H59.9441C60.5775 28.2423 61.0909 28.7558 61.0909 29.3891C61.0909 30.0225 60.5775 30.536 59.9441 30.536Z" fill="#E2DEE2"/>
<path d="M59.9441 53.4162H36.7005C36.0672 53.4162 35.5537 52.9028 35.5537 52.2694C35.5537 51.636 36.0672 51.1226 36.7005 51.1226H59.9441C60.5775 51.1226 61.0909 51.636 61.0909 52.2694C61.0909 52.9026 60.5775 53.4162 59.9441 53.4162Z" fill="#E2DEE2"/>
<path d="M59.9436 58.0036H6.8812C6.24782 58.0036 5.73438 57.4902 5.73438 56.8568C5.73438 56.2234 6.24782 55.71 6.8812 55.71H59.9436C60.577 55.71 61.0904 56.2234 61.0904 56.8568C61.0904 57.4902 60.577 58.0036 59.9436 58.0036Z" fill="#E2DEE2"/>
<path d="M59.9436 62.5913H6.8812C6.24782 62.5913 5.73438 62.0778 5.73438 61.4444C5.73438 60.8111 6.24782 60.2976 6.8812 60.2976H59.9436C60.577 60.2976 61.0904 60.8111 61.0904 61.4444C61.0904 62.0777 60.577 62.5913 59.9436 62.5913Z" fill="#E2DEE2"/>
<path d="M59.9441 48.8286H36.7005C36.0672 48.8286 35.5537 48.3151 35.5537 47.6817C35.5537 47.0484 36.0672 46.5349 36.7005 46.5349H59.9441C60.5775 46.5349 61.0909 47.0484 61.0909 47.6817C61.0909 48.3151 60.5775 48.8286 59.9441 48.8286Z" fill="#E2DEE2"/>
<path d="M50.769 35.1235H36.7005C36.0672 35.1235 35.5537 34.61 35.5537 33.9767C35.5537 33.3433 36.0672 32.8298 36.7005 32.8298H50.769C51.4024 32.8298 51.9158 33.3433 51.9158 33.9767C51.9158 34.61 51.4024 35.1235 50.769 35.1235Z" fill="#E2DEE2"/>
<path d="M18.3214 45.0561C21.3809 45.0561 23.8611 42.5759 23.8611 39.5164C23.8611 36.4569 21.3809 33.9767 18.3214 33.9767C15.2619 33.9767 12.7817 36.4569 12.7817 39.5164C12.7817 42.5759 15.2619 45.0561 18.3214 45.0561Z" fill="#D78878"/>
<path d="M11.4691 52.2692H25.1742C25.6106 52.2692 26.0322 52.207 26.4321 52.0932C25.8702 48.1158 22.4541 45.0559 18.3218 45.0559C14.1894 45.0559 10.7733 48.1158 10.2114 52.0932C10.6112 52.2069 11.0327 52.2692 11.4691 52.2692Z" fill="#FD9468"/>
<path d="M66.8249 27.0956V42.233C64.837 42.8935 62.7114 43.2514 60.5049 43.2514C49.4322 43.2514 40.4238 34.2431 40.4238 23.1704C40.4238 22.9486 40.4269 22.7285 40.4345 22.5082H62.2374C64.7713 22.508 66.8249 24.5618 66.8249 27.0956Z" fill="#A79BA7"/>
<path d="M50.7685 32.8298H42.9043C43.3447 33.629 43.8375 34.3953 44.3789 35.1236H50.7685C51.4019 35.1236 51.9153 34.6102 51.9153 33.9768C51.9153 33.3434 51.4019 32.8298 50.7685 32.8298Z" fill="#918291"/>
<path d="M41.823 30.536H59.9438C60.5772 30.536 61.0906 30.0225 61.0906 29.3891C61.0906 28.7558 60.5772 28.2423 59.9438 28.2423H41.0732C41.2781 29.0262 41.5286 29.792 41.823 30.536Z" fill="#918291"/>
<path d="M60.5051 38.6643C69.0626 38.6643 75.9999 31.727 75.9999 23.1695C75.9999 14.6119 69.0626 7.67468 60.5051 7.67468C51.9475 7.67468 45.0103 14.6119 45.0103 23.1695C45.0103 31.727 51.9475 38.6643 60.5051 38.6643Z" fill="#98D5B9"/>
<path d="M58.0708 29.4757C57.4104 29.4757 56.75 29.2242 56.2473 28.7216L53.1602 25.6345C52.7122 25.1867 52.7122 24.4605 53.1602 24.0126C53.608 23.5647 54.3342 23.5647 54.7822 24.0126L57.8692 27.0996C57.9806 27.2106 58.1612 27.2106 58.2724 27.0996L66.2286 19.1434C66.6765 18.6955 67.4026 18.6955 67.8506 19.1434C68.2986 19.5912 68.2986 20.3174 67.8506 20.7653L59.8944 28.7216C59.3916 29.2242 58.7311 29.4757 58.0708 29.4757Z" fill="white"/>
</g>
<defs>
<clipPath id="clip0">
<rect width="76" height="76" fill="white"/>
</clipPath>
</defs>
</svg>
