<svg width="130" height="130" viewBox="0 0 130 130" fill="none" xmlns="http://www.w3.org/2000/svg">
<rect width="130" height="130" rx="65" fill="#ADD9F4"/>
<g clip-path="url(#clip0)">
<path d="M92.5285 50.2882H88.3225V45.8501H32.8745V67.8161C32.8745 79.8974 42.6491 89.7821 54.5957 89.7821H66.6016C75.8984 89.7821 83.8794 83.7952 86.9624 75.4456H92.5285C98.3025 75.4456 103 70.7447 103 64.9665V60.7671C103 54.9891 98.3025 50.2882 92.5285 50.2882ZM99.4922 64.9667C99.4922 68.8151 96.3681 71.946 92.5283 71.946H87.933C88.1874 70.6073 88.3224 69.227 88.3224 67.8161V53.7878H92.5283C96.3681 53.7878 99.4922 56.9186 99.4922 60.767V64.9667Z" fill="#415E5C"/>
<path d="M51.1505 79.0684H39.1446C38.0113 79.0684 36.8977 78.979 35.8099 78.8077C33.9452 75.5698 32.8745 71.8136 32.8745 67.8164V45.8501H72.8717V57.1022C72.8716 69.1835 63.0966 79.0684 51.1505 79.0684Z" fill="#5B7F81"/>
<path d="M50.443 62.6104C51.0111 63.1411 51.0405 64.0308 50.5086 64.5975C50.2312 64.8931 49.856 65.0424 49.4798 65.0424C49.1347 65.0424 48.7888 64.9167 48.5171 64.6627C46.0738 62.3803 44.783 58.9636 44.8823 55.0416C44.9742 51.4126 46.2709 47.7773 48.4399 45.0678C50.1892 42.882 51.2159 39.8872 51.2568 36.8522C51.2983 33.757 50.3255 31.1218 48.5168 29.4319C47.9487 28.9013 47.9195 28.0116 48.4513 27.4448C48.9832 26.8781 49.8748 26.8488 50.4429 27.3795C52.8372 29.6166 54.1269 32.9941 54.0744 36.8899C54.0253 40.5373 52.7741 44.1576 50.6416 46.8222C47.1883 51.1368 46.3695 58.8051 50.443 62.6104ZM60.8421 46.8228C62.975 44.1582 64.2266 40.5378 64.2756 36.8903C64.3281 32.9943 63.038 29.6167 60.6432 27.38C60.0752 26.8493 59.1834 26.8787 58.6516 27.4454C58.1197 28.0121 58.1491 28.9017 58.7172 29.4325C60.5262 31.1222 61.4995 33.7574 61.4576 36.8526C61.4168 39.8877 60.3896 42.8823 58.6399 45.0684C56.4714 47.7779 55.175 51.4131 55.0833 55.0421C54.9839 58.9639 56.2744 62.3806 58.7171 64.6632C58.9888 64.9171 59.3347 65.0429 59.68 65.0429C60.056 65.0429 60.4313 64.8935 60.7088 64.5981C61.2406 64.0314 61.2115 63.1418 60.6433 62.611C56.571 58.8054 57.3894 51.1368 60.8421 46.8228Z" fill="#EC8800"/>
<path d="M97.9806 101.594C97.9806 102.37 97.3498 103 96.5717 103H28.4095C27.6313 103 27.0005 102.37 27.0005 101.594C27.0005 100.818 27.6313 100.188 28.4095 100.188H96.5714C97.3496 100.188 97.9806 100.818 97.9806 101.594Z" fill="#9E9D9D"/>
</g>
<defs>
<clipPath id="clip0">
<rect width="76" height="76" fill="white" transform="translate(27 27)"/>
</clipPath>
</defs>
</svg>
