<svg width="76" height="76" viewBox="0 0 76 76" fill="none" xmlns="http://www.w3.org/2000/svg">
<g clip-path="url(#clip0)">
<path d="M65.5285 23.2882H61.3225V18.8501H5.87451V40.8161C5.87451 52.8974 15.6491 62.7821 27.5957 62.7821H39.6016C48.8984 62.7821 56.8794 56.7952 59.9624 48.4456H65.5285C71.3025 48.4456 76 43.7447 76 37.9665V33.7671C76 27.9891 71.3025 23.2882 65.5285 23.2882ZM72.4922 37.9667C72.4922 41.8151 69.3681 44.946 65.5283 44.946H60.933C61.1874 43.6073 61.3224 42.227 61.3224 40.8161V26.7878H65.5283C69.3681 26.7878 72.4922 29.9186 72.4922 33.767V37.9667Z" fill="#415E5C"/>
<path d="M24.1505 52.0684H12.1446C11.0113 52.0684 9.89775 51.979 8.80985 51.8077C6.94519 48.5698 5.87451 44.8136 5.87451 40.8164V18.8501H45.8717V30.1022C45.8716 42.1835 36.0966 52.0684 24.1505 52.0684Z" fill="#5B7F81"/>
<path d="M23.443 35.6104C24.0111 36.1411 24.0405 37.0308 23.5086 37.5975C23.2312 37.8931 22.856 38.0424 22.4798 38.0424C22.1347 38.0424 21.7888 37.9167 21.5171 37.6627C19.0738 35.3803 17.783 31.9636 17.8823 28.0416C17.9742 24.4126 19.2709 20.7773 21.4399 18.0678C23.1892 15.882 24.2159 12.8872 24.2568 9.85216C24.2983 6.75695 23.3255 4.12175 21.5168 2.43195C20.9487 1.90128 20.9195 1.01155 21.4513 0.44482C21.9832 -0.121912 22.8748 -0.151154 23.4429 0.379508C25.8372 2.6166 27.1269 5.99413 27.0744 9.88986C27.0253 13.5373 25.7741 17.1576 23.6416 19.8222C20.1883 24.1368 19.3695 31.8051 23.443 35.6104ZM33.8421 19.8228C35.975 17.1582 37.2266 13.5378 37.2756 9.89031C37.3281 5.99428 36.038 2.61675 33.6432 0.379953C33.0752 -0.150709 32.1834 -0.121318 31.6516 0.445414C31.1197 1.01215 31.1491 1.90173 31.7172 2.43254C33.5262 4.1222 34.4995 6.7574 34.4576 9.8526C34.4168 12.8877 33.3896 15.8823 31.6399 18.0684C29.4714 20.7779 28.175 24.4131 28.0833 28.0421C27.9839 31.9639 29.2744 35.3806 31.7171 37.6632C31.9888 37.9171 32.3347 38.0429 32.68 38.0429C33.056 38.0429 33.4313 37.8935 33.7088 37.5981C34.2406 37.0314 34.2115 36.1418 33.6433 35.611C29.571 31.8054 30.3894 24.1368 33.8421 19.8228Z" fill="#EC8800"/>
<path d="M70.9806 74.5941C70.9806 75.3704 70.3498 75.9999 69.5717 75.9999H1.40945C0.631345 75.9999 0.000488281 75.3704 0.000488281 74.5941C0.000488281 73.8178 0.631345 73.1882 1.40945 73.1882H69.5714C70.3496 73.1882 70.9806 73.8178 70.9806 74.5941Z" fill="#9E9D9D"/>
</g>
<defs>
<clipPath id="clip0">
<rect width="76" height="76" fill="white"/>
</clipPath>
</defs>
</svg>
