<svg width="130" height="130" viewBox="0 0 130 130" fill="none" xmlns="http://www.w3.org/2000/svg">
<rect width="130" height="130" rx="65" fill="#ADD9F3"/>
<g clip-path="url(#clip0)">
<path d="M46.9042 102.59C50.5653 102.59 53.5331 99.6225 53.5331 95.9615C53.5331 92.3005 50.5653 89.3326 46.9042 89.3326C43.2432 89.3326 40.2754 92.3005 40.2754 95.9615C40.2754 99.6225 43.2432 102.59 46.9042 102.59Z" fill="#59595A"/>
<path d="M82.9999 102.59C86.661 102.59 89.6288 99.6225 89.6288 95.9615C89.6288 92.3005 86.661 89.3326 82.9999 89.3326C79.3389 89.3326 76.3711 92.3005 76.3711 95.9615C76.3711 99.6225 79.3389 102.59 82.9999 102.59Z" fill="#59595A"/>
<path d="M33.9251 47.4838H27V62.9171H33.9251V47.4838Z" fill="#59595A"/>
<path d="M103 47.4838H96.0752V62.9171H103V47.4838Z" fill="#59595A"/>
<path d="M96.0749 95.9619V40.6635C96.0749 32.0669 89.1072 27.4095 80.5121 27.4095H49.3912C40.8013 27.4095 33.8268 32.07 33.8301 40.6635V95.9619H96.0749ZM39.0166 74.0964V42.9724H90.8851V74.0965H39.0166V74.0964Z" fill="#E5C400"/>
<path d="M90.8851 42.9724H39.0166V74.0966H90.8851V42.9724Z" fill="#90C5FF"/>
<path d="M47.9104 86.2641C47.9104 87.3884 46.9993 88.301 45.8751 88.301H40.9624C39.8414 88.301 38.9287 87.3884 38.9287 86.2641V81.3464C38.9287 80.2221 39.8414 79.3142 40.9624 79.3142H45.8751C46.9993 79.3142 47.9104 80.2221 47.9104 81.3464V86.2641Z" fill="white"/>
<path d="M91.1061 86.7131C91.1061 87.8372 90.1949 88.75 89.0708 88.75H84.1515C83.0288 88.75 82.1211 87.8372 82.1211 86.7131V81.7952C82.1211 80.6744 83.029 79.7632 84.1515 79.7632H89.0708C90.1949 79.7632 91.1061 80.6744 91.1061 81.7952V86.7131Z" fill="white"/>
<path opacity="0.2" d="M63.0693 79.1092L58.5512 81.0987L38.8311 36.3471L43.3473 34.3561L63.0693 79.1092Z" fill="white"/>
<path opacity="0.2" d="M71.4147 77.8261L66.8952 79.8156L47.1748 35.064L51.688 33.073L71.4147 77.8261Z" fill="white"/>
<path d="M57.1437 66.6404L55.7656 65.7289L64.1243 53.0922V42.9512H65.7765V53.5892L57.1437 66.6404Z" fill="#59595A"/>
<path d="M83.6975 32.9846H47.1689V38.43H83.6975V32.9846Z" fill="#ABCB57"/>
<path d="M76.6517 81.5587H54.3105V83.2109H76.6517V81.5587Z" fill="#59595A"/>
<path d="M76.6517 85.3022H54.3105V86.9544H76.6517V85.3022Z" fill="#59595A"/>
</g>
<defs>
<clipPath id="clip0">
<rect width="76" height="76" fill="white" transform="translate(27 27)"/>
</clipPath>
</defs>
</svg>
