<svg width="76" height="76" viewBox="0 0 76 76" fill="none" xmlns="http://www.w3.org/2000/svg">
<g clip-path="url(#clip0)">
<path d="M19.9042 75.5904C23.5653 75.5904 26.5331 72.6225 26.5331 68.9615C26.5331 65.3005 23.5653 62.3326 19.9042 62.3326C16.2432 62.3326 13.2754 65.3005 13.2754 68.9615C13.2754 72.6225 16.2432 75.5904 19.9042 75.5904Z" fill="#59595A"/>
<path d="M55.9999 75.5904C59.661 75.5904 62.6288 72.6225 62.6288 68.9615C62.6288 65.3005 59.661 62.3326 55.9999 62.3326C52.3389 62.3326 49.3711 65.3005 49.3711 68.9615C49.3711 72.6225 52.3389 75.5904 55.9999 75.5904Z" fill="#59595A"/>
<path d="M6.92509 20.4838H0V35.9171H6.92509V20.4838Z" fill="#59595A"/>
<path d="M76.0003 20.4838H69.0752V35.9171H76.0003V20.4838Z" fill="#59595A"/>
<path d="M69.0749 68.9619V13.6635C69.0749 5.06686 62.1072 0.409546 53.5121 0.409546H22.3912C13.8013 0.409546 6.82677 5.07 6.83008 13.6635V68.9619H69.0749ZM12.0166 47.0964V15.9724H63.8851V47.0965H12.0166V47.0964Z" fill="#E5C400"/>
<path d="M63.8851 15.9724H12.0166V47.0966H63.8851V15.9724Z" fill="#90C5FF"/>
<path d="M20.9104 59.2641C20.9104 60.3884 19.9993 61.301 18.8751 61.301H13.9624C12.8414 61.301 11.9287 60.3884 11.9287 59.2641V54.3464C11.9287 53.2221 12.8414 52.3142 13.9624 52.3142H18.8751C19.9993 52.3142 20.9104 53.2221 20.9104 54.3464V59.2641Z" fill="white"/>
<path d="M64.1061 59.7131C64.1061 60.8372 63.1949 61.75 62.0708 61.75H57.1515C56.0288 61.75 55.1211 60.8372 55.1211 59.7131V54.7952C55.1211 53.6744 56.029 52.7632 57.1515 52.7632H62.0708C63.1949 52.7632 64.1061 53.6744 64.1061 54.7952V59.7131Z" fill="white"/>
<path opacity="0.2" d="M36.0693 52.1092L31.5512 54.0987L11.8311 9.34711L16.3473 7.35608L36.0693 52.1092Z" fill="white"/>
<path opacity="0.2" d="M44.4147 50.8261L39.8952 52.8156L20.1748 8.06403L24.688 6.073L44.4147 50.8261Z" fill="white"/>
<path d="M30.1437 39.6404L28.7656 38.7289L37.1243 26.0922V15.9512H38.7765V26.5892L30.1437 39.6404Z" fill="#59595A"/>
<path d="M56.6975 5.98462H20.1689V11.43H56.6975V5.98462Z" fill="#ABCB57"/>
<path d="M49.6517 54.5587H27.3105V56.2109H49.6517V54.5587Z" fill="#59595A"/>
<path d="M49.6517 58.3022H27.3105V59.9544H49.6517V58.3022Z" fill="#59595A"/>
</g>
<defs>
<clipPath id="clip0">
<rect width="76" height="76" fill="white"/>
</clipPath>
</defs>
</svg>
