<svg width="21" height="18" viewBox="0 0 21 18" fill="none" xmlns="http://www.w3.org/2000/svg">
<path d="M18.8262 4.85938C19.6465 4.24414 20.3848 3.50586 20.959 2.64453C20.2207 2.97266 19.3594 3.21875 18.498 3.30078C19.4004 2.76758 20.0566 1.94727 20.3848 0.921875C19.5645 1.41406 18.6211 1.7832 17.6777 1.98828C16.8574 1.12695 15.75 0.634766 14.5195 0.634766C12.1406 0.634766 10.2129 2.5625 10.2129 4.94141C10.2129 5.26953 10.2539 5.59766 10.3359 5.92578C6.76758 5.7207 3.56836 3.99805 1.43555 1.41406C1.06641 2.0293 0.861328 2.76758 0.861328 3.58789C0.861328 5.06445 1.59961 6.37695 2.78906 7.15625C2.0918 7.11523 1.39453 6.95117 0.820312 6.62305V6.66406C0.820312 8.75586 2.29688 10.4785 4.26562 10.8887C3.9375 10.9707 3.52734 11.0527 3.1582 11.0527C2.87109 11.0527 2.625 11.0117 2.33789 10.9707C2.87109 12.6934 4.4707 13.9238 6.35742 13.9648C4.88086 15.1133 3.03516 15.8105 1.02539 15.8105C0.65625 15.8105 0.328125 15.7695 0 15.7285C1.88672 16.959 4.14258 17.6562 6.60352 17.6562C14.5195 17.6562 18.8262 11.1348 18.8262 5.43359C18.8262 5.22852 18.8262 5.06445 18.8262 4.85938Z" fill="white"/>
</svg>
