<svg width="549" height="366" viewBox="0 0 549 366" fill="none" xmlns="http://www.w3.org/2000/svg">
<path d="M489.766 75.0695L453.631 75.5072L454.202 122.629L490.347 123.098L489.766 75.0695Z" fill="#2C5780"/>
<path d="M487.19 76.778L455.571 77.1608L456.088 119.897L487.721 120.582L487.19 76.778Z" fill="#5979A9"/>
<path d="M481.966 84.608L460.974 84.0626L461.335 113.933L482.318 113.679L481.966 84.608Z" fill="#2E4969"/>
<path d="M461.335 113.933L482.132 98.3337L460.974 84.0626L461.335 113.933Z" fill="#415783"/>
<path d="M103.998 105.805L52.0074 106.435L52.828 174.233L104.835 174.908L103.998 105.805Z" fill="#2C5780"/>
<path d="M100.292 108.263L54.7983 108.814L55.5428 170.303L101.055 171.288L100.292 108.263Z" fill="#5979A9"/>
<path d="M92.7753 119.529L62.5715 118.744L63.092 161.723L93.2819 161.357L92.7753 119.529Z" fill="#2E4969"/>
<path d="M63.092 161.723L93.0147 139.277L62.5715 118.744L63.092 161.723Z" fill="#415783"/>
<path d="M145.725 87.3413H126.252V129.025H145.725V87.3413Z" fill="#415783"/>
<path d="M170.463 131.938H146.534V172.215H170.463V131.938Z" fill="#415783"/>
<path d="M173.375 86.6203H196.096V49.6426H196.905V86.6203H217.934V48.8228H173.375V86.6203Z" fill="#415783"/>
<path d="M145.725 131.938H126.252V172.215H145.725V131.938Z" fill="#415783"/>
<path d="M217.933 131.938H196.905V172.215H217.933V131.938Z" fill="#415783"/>
<path d="M170.463 87.3413H146.534V129.025H170.463V87.3413Z" fill="#415783"/>
<path d="M217.933 87.3413H196.905V129.025H217.933V87.3413Z" fill="#415783"/>
<path d="M145.725 172.935H126.252V209.228H145.725V172.935Z" fill="#415783"/>
<path d="M145.725 86.6203V49.6426H146.534V86.6203H170.463V48.8228H126.252V86.6203H145.725Z" fill="#415783"/>
<path d="M170.463 172.935H146.534V209.228H170.463V172.935Z" fill="#415783"/>
<path d="M217.933 172.935H196.905V209.228H217.933V172.935Z" fill="#8CA9CB"/>
<path d="M196.096 87.3413H173.375V129.025H196.096V87.3413Z" fill="#415783"/>
<path d="M196.096 172.935H173.375V209.228H196.096V172.935Z" fill="#415783"/>
<path d="M196.096 131.938H173.375V172.215H196.096V131.938Z" fill="#415783"/>
<path d="M355.208 87.3413H335.735V129.025H355.208V87.3413Z" fill="#415783"/>
<path d="M379.945 131.938H356.017V172.214H379.945V131.938Z" fill="#8CA9CB"/>
<path d="M382.857 86.6203H405.579V49.6426H406.388V86.6203H427.417V48.8228H382.857V86.6203Z" fill="#415783"/>
<path d="M355.208 131.938H335.735V172.214H355.208V131.938Z" fill="#8CA9CB"/>
<path d="M427.416 131.938H406.387V172.214H427.416V131.938Z" fill="#8CA9CB"/>
<path d="M379.945 87.3413H356.017V129.025H379.945V87.3413Z" fill="#415783"/>
<path d="M427.416 87.3413H406.387V129.025H427.416V87.3413Z" fill="#415783"/>
<path d="M355.208 172.935H335.735V209.228H355.208V172.935Z" fill="#8CA9CB"/>
<path d="M355.208 86.6203V49.6426H356.017V86.6203H379.945V48.8228H335.735V86.6203H355.208Z" fill="#415783"/>
<path d="M379.945 172.935H356.017V209.228H379.945V172.935Z" fill="#8CA9CB"/>
<path d="M427.416 172.935H406.387V209.228H427.416V172.935Z" fill="#8CA9CB"/>
<path d="M405.579 87.3413H382.857V129.025H405.579V87.3413Z" fill="#415783"/>
<path d="M405.579 172.935H382.857V209.228H405.579V172.935Z" fill="#8CA9CB"/>
<path d="M405.579 131.938H382.857V172.214H405.579V131.938Z" fill="#8CA9CB"/>
<path d="M296.201 63.4811H252.799V118.273H296.201V63.4811Z" fill="#2C5780"/>
<path d="M277.784 117.044H271.764V118.506H277.784V117.044Z" fill="#5F7DAB"/>
<path d="M275.89 82.3447L267.895 83.5145L264.911 91.0233L269.921 97.3617L277.915 96.192L280.9 88.6831L275.89 82.3447Z" fill="#2E4969"/>
<path d="M279.627 87.1989L271.632 88.3686L268.648 95.8774L273.658 102.217L281.653 101.046L284.638 93.538L279.627 87.1989Z" fill="#5979A9"/>
<path d="M278.634 62.7374H272.614V63.9884H278.634V62.7374Z" fill="#5F7DAB"/>
<path d="M47.8459 250.477V321.98H155.02V249.9L47.8459 250.477Z" fill="#2C5780"/>
<path d="M150.972 254.915H51.8961V273.002H150.972V254.915Z" fill="#415783"/>
<path d="M150.972 277.244H51.8961V295.331H150.972V277.244Z" fill="#415783"/>
<path d="M150.972 299.573H51.8961V317.66H150.972V299.573Z" fill="#415783"/>
<path d="M82.6086 254.915H51.8961V273.002H82.6086V254.915Z" fill="#30597E"/>
<path d="M82.6086 277.244H51.8961V295.331H82.6086V277.244Z" fill="#30597E"/>
<path d="M82.4717 299.448H51.7584V317.535H82.4717V299.448Z" fill="#30597E"/>
<path d="M84.9387 273.002L94.6158 257.973L105.239 273.002H84.9387Z" fill="#2E4969"/>
<path d="M94.6157 257.973L95.0879 273.002H84.9387L94.6157 257.973Z" fill="#2C5780"/>
<path d="M108.636 273.002L112.756 267.298L117.656 273.002H108.636Z" fill="#2E4969"/>
<path d="M112.756 267.298L113.146 273.002H108.636L112.756 267.298Z" fill="#2C5780"/>
<path d="M70.2067 291.734C70.2366 290.893 70.5869 290.096 71.1857 289.506C71.7846 288.915 72.5867 288.576 73.4275 288.558L99.6155 287.951V295.146H73.5C73.0573 295.147 72.6191 295.058 72.2117 294.885C71.8042 294.712 71.4357 294.458 71.1283 294.14C70.8209 293.821 70.5809 293.444 70.4225 293.031C70.2642 292.617 70.1908 292.176 70.2067 291.734Z" fill="#2C5780"/>
<path d="M72.8628 289.965C72.5088 290.562 72.322 291.243 72.322 291.937C72.322 292.632 72.5088 293.313 72.8628 293.91H99.6115V289.187L72.8628 289.965Z" fill="#718EA9"/>
<path d="M76.7724 285.337C76.795 284.682 77.0669 284.061 77.5326 283.6C77.9983 283.14 78.6224 282.875 79.2773 282.859L99.6891 282.372L99.6935 287.981L79.3402 287.995C78.9953 287.995 78.6538 287.926 78.3362 287.791C78.0186 287.657 77.7313 287.459 77.4916 287.211C77.252 286.963 77.0647 286.669 76.9412 286.347C76.8176 286.025 76.7602 285.682 76.7724 285.337Z" fill="#718EA9"/>
<path d="M78.8412 283.994C78.5654 284.459 78.4199 284.99 78.4199 285.531C78.4199 286.072 78.5654 286.603 78.8412 287.068L99.6908 287.055V283.373L78.8412 283.994Z" fill="#5979A9"/>
<path d="M99.7341 278.78L99.6726 295.283L103.119 295.331V278.78H99.7341Z" fill="#5979A9"/>
<path d="M107.04 281.072L106.945 295.289L112.285 295.331V281.072H107.04Z" fill="#5F7DAB"/>
<path d="M103.19 281.072L103.159 295.289L104.883 295.331V281.072H103.19Z" fill="#5F7DAB"/>
<path d="M112.316 281.072L112.285 295.289L114.008 295.331V281.072H112.316Z" fill="#5979A9"/>
<path d="M104.626 278.78L104.584 295.283L106.936 295.331V278.78H104.626Z" fill="#2C5780"/>
<path d="M114.122 278.78L114.079 295.283L116.431 295.331V278.78H114.122Z" fill="#2C5780"/>
<path d="M129.409 295.011L123.655 289.305L129.409 283.542L135.276 283.101L141.719 288.166L137.347 295.011H129.409Z" stroke="#5F7DAB" stroke-width="0.25" stroke-miterlimit="10"/>
<path d="M135.051 295.011L138.487 288.166L135.276 283.101L133.874 285.162H131.061L129.408 283.542L126.676 288.735L131.127 295.011" stroke="#5F7DAB" stroke-width="0.25" stroke-miterlimit="10"/>
<path d="M123.655 289.304L129.95 288.431L136.555 288.169L141.719 288.165" stroke="#5F7DAB" stroke-width="0.25" stroke-miterlimit="10"/>
<path d="M131.061 285.161L129.949 288.431L131.965 295.01" stroke="#5F7DAB" stroke-width="0.25" stroke-miterlimit="10"/>
<path d="M133.874 285.161L135.559 288.165L133.568 295.01" stroke="#5F7DAB" stroke-width="0.25" stroke-miterlimit="10"/>
<path d="M465.71 210.98C460.979 211.742 458.864 217.555 459.278 222.326C459.691 227.098 461.654 231.769 461.129 236.527C460.462 242.575 455.891 247.687 455.359 253.749C454.731 260.897 459.786 267.238 461.295 274.253C462.027 277.666 461.927 281.276 463.198 284.527C464.28 287.296 466.289 289.604 468.883 291.058C471.477 292.511 474.494 293.02 477.421 292.497C480.347 291.974 483.002 290.452 484.932 288.191C486.862 285.93 487.948 283.069 488.005 280.097C488.11 274.607 484.723 269.438 485.134 263.964C485.438 259.917 487.81 256.083 487.302 252.057C486.698 247.267 482.259 243.866 480.693 239.299C479.126 234.732 480.631 229.697 480.091 224.897C479.121 216.287 474.347 210.286 465.71 210.977" fill="#2C5780"/>
<path d="M441.553 252.667C440.747 260.646 444.275 270.029 448.378 276.918C452.533 283.852 458.789 289.281 466.239 292.418C467.073 292.768 468.112 293.06 468.814 292.492C469.064 292.218 469.251 291.893 469.364 291.54C469.476 291.187 469.511 290.813 469.465 290.446C469.522 282.051 466.586 273.807 461.801 266.909C457.238 260.329 452.933 256.438 441.555 252.668" fill="#5979A9"/>
<path d="M476.303 309.099C476.211 308.96 476.134 308.811 476.076 308.654C475.93 308.31 475.737 307.878 475.507 307.348C475.027 306.209 474.311 304.566 473.399 302.555C468.651 292.057 462.822 282.082 456.004 272.794C454.698 271.01 453.621 269.581 452.863 268.604L452.004 267.467C451.896 267.34 451.804 267.2 451.729 267.051C451.858 267.156 451.975 267.276 452.075 267.409C452.319 267.695 452.625 268.055 453.001 268.494C453.806 269.438 454.919 270.836 456.261 272.602C463.24 281.812 469.092 291.824 473.691 302.425C474.57 304.459 475.241 306.121 475.668 307.283C475.867 307.825 476.029 308.268 476.158 308.621C476.226 308.773 476.275 308.934 476.303 309.099Z" fill="#2E4969"/>
<path d="M471.168 233.051C471.217 233.303 471.246 233.559 471.255 233.816C471.294 234.357 471.347 235.089 471.413 236.012C471.539 237.962 471.716 240.713 471.934 244.095C472.364 250.92 472.97 260.349 473.702 270.758C474.434 281.167 475.157 290.595 475.686 297.41C475.944 300.789 476.155 303.537 476.304 305.487C476.367 306.41 476.416 307.142 476.45 307.683C476.478 307.938 476.486 308.196 476.472 308.452C476.415 308.202 476.377 307.947 476.36 307.691C476.301 307.151 476.223 306.421 476.125 305.501C475.942 303.553 475.682 300.809 475.364 297.436C474.753 290.623 473.981 281.204 473.246 270.791C472.512 260.379 471.96 250.946 471.61 244.114C471.453 240.729 471.326 237.975 471.235 236.021C471.204 235.096 471.179 234.363 471.162 233.82C471.143 233.564 471.146 233.307 471.168 233.051Z" fill="#2E4969"/>
<path d="M463.83 297.723H483.808V312.39C483.808 314.933 482.798 317.372 481 319.17C479.201 320.969 476.762 321.979 474.219 321.979C471.764 321.979 469.403 321.038 467.621 319.35C465.839 317.661 464.773 315.353 464.642 312.902L463.83 297.723Z" fill="#2E4969"/>
<path d="M515.451 321.98C515.451 322.085 407.565 322.171 274.511 322.171C141.412 322.171 33.5487 322.085 33.5487 321.98C33.5487 321.876 141.412 321.789 274.511 321.789C407.565 321.787 515.451 321.875 515.451 321.98Z" fill="#263238"/>
<path d="M200.915 156.139C201.698 156.19 202.483 156.083 203.223 155.824C203.964 155.564 204.644 155.158 205.224 154.629C205.803 154.1 206.27 153.46 206.597 152.746C206.923 152.033 207.102 151.261 207.123 150.477C207.208 147.301 207.279 144.091 207.279 144.091C207.279 144.091 212.083 143.586 212.377 138.821C212.671 134.056 212.386 123.07 212.386 123.07C209.733 121.771 206.783 121.205 203.838 121.428C200.893 121.651 198.061 122.656 195.635 124.34L194.903 124.852L195.466 150.452C195.499 151.91 196.076 153.302 197.085 154.355C198.094 155.408 199.46 156.044 200.915 156.139Z" fill="#E0A8A4"/>
<path d="M210.218 131.472C210.121 131.375 210.055 131.252 210.028 131.117C210.001 130.983 210.015 130.843 210.068 130.717C210.12 130.59 210.209 130.482 210.323 130.406C210.437 130.329 210.571 130.289 210.708 130.289C210.845 130.289 210.979 130.329 211.093 130.406C211.207 130.482 211.296 130.59 211.349 130.717C211.401 130.843 211.415 130.983 211.388 131.117C211.361 131.252 211.295 131.375 211.198 131.472C211.134 131.537 211.057 131.588 210.973 131.623C210.889 131.658 210.799 131.676 210.708 131.676C210.617 131.676 210.527 131.658 210.443 131.623C210.359 131.588 210.282 131.537 210.218 131.472Z" fill="#263238"/>
<path d="M212.064 130.647C211.985 130.726 211.535 130.343 210.879 130.307C210.222 130.271 209.729 130.587 209.661 130.499C209.627 130.46 209.709 130.315 209.925 130.167C210.215 129.979 210.558 129.89 210.904 129.911C211.249 129.932 211.578 130.063 211.843 130.285C212.039 130.458 212.103 130.612 212.064 130.647Z" fill="#263238"/>
<path d="M203.988 130.646C204.101 130.724 204.188 130.833 204.239 130.96C204.29 131.088 204.302 131.227 204.274 131.361C204.246 131.495 204.178 131.618 204.08 131.714C203.982 131.81 203.858 131.874 203.723 131.899C203.588 131.925 203.449 131.909 203.323 131.855C203.197 131.801 203.09 131.711 203.015 131.597C202.94 131.482 202.901 131.347 202.903 131.21C202.904 131.073 202.946 130.94 203.024 130.826C203.128 130.675 203.288 130.571 203.469 130.537C203.649 130.503 203.836 130.543 203.988 130.646Z" fill="#263238"/>
<path d="M204.909 130.881C204.83 130.96 204.38 130.577 203.724 130.542C203.068 130.507 202.574 130.821 202.506 130.734C202.472 130.694 202.553 130.549 202.769 130.401C203.06 130.214 203.403 130.124 203.748 130.145C204.093 130.166 204.422 130.297 204.688 130.519C204.887 130.693 204.947 130.846 204.909 130.881Z" fill="#263238"/>
<path d="M207.303 135.95C207.647 135.831 208.01 135.772 208.375 135.777C208.548 135.767 208.685 135.735 208.702 135.643C208.715 135.471 208.681 135.299 208.603 135.145C208.456 134.706 208.31 134.255 208.15 133.785C207.713 132.633 207.394 131.439 207.198 130.223C207.749 131.325 208.186 132.48 208.505 133.67L208.93 135.039C209.03 135.266 209.05 135.519 208.988 135.758C208.961 135.823 208.918 135.88 208.865 135.925C208.811 135.97 208.747 136.001 208.679 136.017C208.583 136.038 208.484 136.047 208.386 136.041C208.022 136.073 207.656 136.042 207.303 135.95Z" fill="#263238"/>
<path d="M205.13 136.57L208.304 137.668C208.064 138.001 207.718 138.244 207.323 138.356C206.927 138.468 206.506 138.443 206.127 138.284C204.726 137.689 205.13 136.57 205.13 136.57Z" fill="white"/>
<path d="M207.29 144.022C205.087 143.955 202.954 143.234 201.162 141.949C201.162 141.949 202.462 145.453 207.238 145.258L207.29 144.022Z" fill="#EEB1AE"/>
<path d="M211.356 121.821C207.428 120.44 203.186 120.219 199.136 121.185C199.136 121.185 195.086 122.658 194.902 124.849C194.814 126.641 194.853 128.436 195.02 130.222L195.363 133.912L196.839 133.894L196.985 128.932C196.985 128.932 199.767 126.962 199.784 123.949C201.15 123.748 207.848 122.877 212.437 124.385L212.424 123.319C212.421 122.99 212.316 122.67 212.125 122.402C211.934 122.134 211.666 121.931 211.356 121.821Z" fill="#263238"/>
<path d="M195.563 130.604C195.562 130.418 195.488 130.24 195.359 130.107C195.229 129.975 195.053 129.897 194.867 129.891C193.978 129.877 192.528 130.248 192.422 132.703C192.27 136.209 195.629 135.294 195.643 135.191C195.648 135.115 195.59 131.965 195.563 130.604Z" fill="#E0A8A4"/>
<path d="M194.851 133.826C194.836 133.814 194.788 133.866 194.683 133.909C194.535 133.965 194.371 133.961 194.226 133.898C194.006 133.745 193.83 133.535 193.718 133.292C193.605 133.048 193.559 132.779 193.585 132.512C193.589 132.211 193.661 131.915 193.794 131.645C193.832 131.537 193.895 131.44 193.979 131.361C194.062 131.283 194.164 131.226 194.274 131.196C194.345 131.18 194.419 131.19 194.484 131.223C194.548 131.257 194.599 131.312 194.627 131.379C194.67 131.479 194.645 131.548 194.663 131.555C194.681 131.562 194.74 131.499 194.719 131.353C194.703 131.265 194.658 131.186 194.59 131.128C194.497 131.051 194.377 131.013 194.257 131.024C194.112 131.046 193.975 131.106 193.86 131.196C193.745 131.286 193.654 131.405 193.598 131.54C193.435 131.837 193.348 132.169 193.344 132.508C193.313 132.819 193.375 133.133 193.521 133.409C193.668 133.685 193.893 133.912 194.169 134.061C194.262 134.092 194.361 134.102 194.458 134.09C194.555 134.079 194.649 134.045 194.732 133.992C194.841 133.911 194.863 133.833 194.851 133.826Z" fill="#EEB1AE"/>
<path d="M265.015 134.515C264.063 134.18 262.111 139.306 261.892 137.961C261.672 136.616 265.006 131.969 263.996 131.66C262.678 131.257 260.736 136.661 260.538 137.107C260.345 137.539 259.689 137.28 259.89 136.887C260.177 136.323 263.059 130.324 261.77 129.916C261.055 129.69 260.768 131.014 260.768 131.014C260.768 131.014 258.486 136.825 257.884 136.612C257.282 136.399 258.498 132.939 258.993 131.803C259.483 130.68 259.148 129.99 258.47 130.186C258.008 130.32 256.408 133.765 255.944 134.9C255.48 136.036 254.261 139.172 253.606 137.138C252.952 135.104 251.675 133.788 251.084 133.672C250.945 133.659 250.806 133.69 250.685 133.76C250.565 133.83 250.469 133.936 250.412 134.063C250.355 134.19 250.339 134.332 250.366 134.468C250.393 134.605 250.462 134.73 250.564 134.825C250.997 135.403 251.347 136.038 251.605 136.713C251.834 137.247 251.971 137.816 252.008 138.396C252.102 139.558 252.081 140.727 251.945 141.884L240.171 163.039L221.309 155.914L218.718 166.689C218.718 166.689 243.489 177.605 245.039 176.763C248.537 174.86 259.533 144.088 259.533 144.088C261.164 142 262.68 139.825 264.075 137.573C265.617 134.781 265.37 134.639 265.015 134.515Z" fill="#E0A8A4"/>
<path d="M232.985 159.62C227.745 157.006 224.036 155.459 221.17 153.669C212.258 148.102 209.944 149.387 207.86 149.151C206.117 149.712 203.541 150.762 202.569 150.953C201.5 151.164 197.994 149.981 195.672 149.294C190.293 149.587 187.024 151.915 182.097 155.636L172.093 163.574L183.935 175.665L187.57 172.884C187.79 178.374 187.985 178.418 188.266 184.042L188.494 205.692L221.974 207.18L219.864 185.548L218.845 168.522L228.44 173.167L232.985 159.625" fill="#00AB5B"/>
<path d="M195.21 149.935L195.167 146.46C195.167 146.46 201.145 147.016 202.41 151.154L195.21 149.935Z" fill="#00AB5B"/>
<path d="M207.912 149.677L207.378 146.31C206.143 146.484 204.996 147.048 204.102 147.919C203.209 148.79 202.616 149.922 202.41 151.153L207.912 149.677Z" fill="#00AB5B"/>
<path d="M208.502 161.981C208.883 161.919 209.268 161.888 209.653 161.888C210.415 161.849 211.534 161.799 212.892 161.765L213.053 161.762V161.926C213.078 163.248 213.107 164.769 213.137 166.397V166.497L213.054 166.555L212.736 166.78L211.029 167.982L210.927 168.055L210.823 167.989L208.465 166.501L208.388 166.452V166.365C208.388 165.011 208.411 163.895 208.432 163.134C208.422 162.749 208.444 162.364 208.497 161.983C208.553 162.398 208.584 162.816 208.59 163.235C208.63 164.005 208.68 165.079 208.712 166.361L208.639 166.225L211.022 167.673L210.817 167.679L212.518 166.471L212.838 166.245L212.757 166.403C212.748 164.775 212.738 163.256 212.731 161.931L212.895 162.091C211.607 162.091 210.529 162.067 209.756 162.046C209.337 162.049 208.918 162.027 208.502 161.981Z" fill="#263238"/>
<path d="M212.799 163.02C211.353 163.272 209.874 163.27 208.429 163.014C209.875 162.762 211.354 162.764 212.799 163.02Z" fill="#263238"/>
<path d="M202.535 157.64C202.332 156.572 202.254 155.484 202.304 154.398C202.227 153.314 202.278 152.225 202.455 151.153C202.658 152.22 202.736 153.308 202.686 154.394C202.762 155.478 202.712 156.567 202.535 157.64Z" fill="#263238"/>
<path d="M203.728 152.016C203.711 151.97 203.882 151.883 204.075 152.047C204.132 152.096 204.175 152.159 204.202 152.23C204.228 152.301 204.236 152.377 204.226 152.451C204.205 152.548 204.156 152.637 204.085 152.706C204.014 152.775 203.924 152.821 203.826 152.838C203.729 152.856 203.628 152.844 203.537 152.803C203.447 152.763 203.37 152.697 203.318 152.613C203.282 152.547 203.263 152.472 203.263 152.397C203.263 152.321 203.282 152.247 203.318 152.181C203.443 151.961 203.634 151.983 203.633 152.034C203.647 152.086 203.574 152.156 203.571 152.275C203.571 152.411 203.621 152.485 203.758 152.465C203.895 152.444 203.915 152.35 203.869 152.222C203.826 152.11 203.733 152.069 203.728 152.016Z" fill="#263238"/>
<path d="M204.185 154.605C204.192 154.557 204.376 154.552 204.493 154.772C204.526 154.838 204.543 154.911 204.543 154.986C204.543 155.06 204.526 155.133 204.493 155.199C204.446 155.284 204.376 155.354 204.291 155.401C204.207 155.448 204.11 155.471 204.013 155.467C203.917 155.463 203.823 155.432 203.742 155.378C203.662 155.324 203.598 155.248 203.558 155.16C203.531 155.091 203.521 155.016 203.527 154.942C203.534 154.868 203.558 154.797 203.597 154.734C203.732 154.524 203.914 154.546 203.917 154.594C203.933 154.646 203.857 154.717 203.844 154.841C203.832 154.978 203.88 155.077 204.029 155.085C204.179 155.093 204.236 154.994 204.235 154.857C204.235 154.733 204.165 154.655 204.185 154.605Z" fill="#263238"/>
<path d="M200.992 149.304C200.982 149.332 200.864 149.282 200.675 149.344C200.545 149.394 200.429 149.476 200.338 149.582C200.247 149.688 200.184 149.815 200.154 149.951C200.051 150.397 199.973 150.848 199.92 151.302C199.833 151.843 199.742 152.408 199.646 152.998L199.597 153.303L199.351 153.131L198.911 152.824C197.96 152.146 197.065 151.392 196.235 150.569C195.865 150.253 195.547 149.88 195.293 149.465C195.374 149.385 196.931 150.947 199.133 152.513L199.564 152.818L199.272 152.951L199.589 151.239C199.661 150.772 199.77 150.312 199.916 149.864C199.967 149.698 200.062 149.549 200.191 149.433C200.32 149.317 200.478 149.238 200.648 149.205C200.895 149.181 201.007 149.291 200.992 149.304Z" fill="#263238"/>
<path d="M208.108 149.274C207.563 150.761 206.659 152.091 205.478 153.145L205.388 153.232L205.116 153.495L205.068 153.119C204.805 151.648 204.285 150.236 203.531 148.947C203.883 149.23 204.17 149.587 204.371 149.992C204.934 150.933 205.299 151.979 205.445 153.066L205.126 152.953L205.213 152.869C206.276 151.753 207.244 150.55 208.108 149.274Z" fill="#263238"/>
<path opacity="0.3" d="M218.845 168.52L221.983 168.68L229.055 171.107L228.44 173.165L218.845 168.52Z" fill="black"/>
<g opacity="0.3">
<path opacity="0.3" d="M219.925 180.004C213.241 180.656 206.516 180.771 199.813 180.347C197.512 180.323 195.236 179.868 193.103 179.005C190.526 177.769 188.539 175.57 187.57 172.881L188.166 182.207L219.925 180.004Z" fill="black"/>
</g>
<g opacity="0.7">
<path opacity="0.7" d="M188.761 158.771C188.675 158.831 188.132 158.209 187.548 157.38C187.141 156.91 186.834 156.362 186.646 155.77C186.732 155.709 187.275 156.332 187.859 157.16C188.266 157.631 188.573 158.178 188.761 158.771Z" fill="white"/>
</g>
<g opacity="0.7">
<path opacity="0.7" d="M181.879 166.792C182.267 165.29 182.899 163.862 183.752 162.565C183.364 164.068 182.731 165.496 181.879 166.792Z" fill="white"/>
</g>
<g opacity="0.7">
<path opacity="0.7" d="M190.674 169.694C189.556 168.799 188.607 167.71 187.872 166.48C188.99 167.376 189.939 168.465 190.674 169.694Z" fill="white"/>
</g>
<g opacity="0.7">
<path opacity="0.7" d="M195.379 161.348C195.447 161.428 194.894 162.007 194.145 162.644C193.396 163.281 192.734 163.729 192.666 163.649C192.598 163.569 193.15 162.99 193.899 162.353C194.647 161.716 195.311 161.268 195.379 161.348Z" fill="white"/>
</g>
<g opacity="0.7">
<path opacity="0.7" d="M196.908 157.645C196.835 157.718 196.272 157.248 195.75 156.523C195.228 155.799 194.957 155.119 195.049 155.071C195.14 155.023 195.551 155.6 196.059 156.3C196.567 157.001 196.987 157.571 196.908 157.645Z" fill="white"/>
</g>
<g opacity="0.7">
<path opacity="0.7" d="M198.201 174.102C197.039 175.073 195.798 175.945 194.491 176.709C195.489 175.542 196.765 174.645 198.201 174.102Z" fill="white"/>
</g>
<g opacity="0.7">
<path opacity="0.7" d="M199.79 169.405C199.717 169.478 199.078 169.006 198.359 168.34C197.639 167.675 197.114 167.072 197.187 166.995C197.261 166.919 197.9 167.395 198.619 168.06C199.339 168.726 199.862 169.328 199.79 169.405Z" fill="white"/>
</g>
<g opacity="0.7">
<path opacity="0.7" d="M203.728 164.076C203.813 162.849 204.286 161.681 205.08 160.741C204.746 161.897 204.293 163.015 203.728 164.076Z" fill="white"/>
</g>
<g opacity="0.7">
<path opacity="0.7" d="M205.489 177.753C205.426 177.833 204.721 177.375 204.052 176.594C203.598 176.161 203.276 175.609 203.122 175.001C203.216 174.945 203.694 175.598 204.342 176.346C204.989 177.094 205.557 177.668 205.489 177.753Z" fill="white"/>
</g>
<g opacity="0.7">
<path opacity="0.7" d="M208.2 171.224C208.127 171.297 207.442 170.751 206.67 170C205.899 169.249 205.333 168.577 205.407 168.501C205.99 168.808 206.51 169.224 206.937 169.727C207.708 170.478 208.274 171.149 208.2 171.224Z" fill="white"/>
</g>
<g opacity="0.7">
<path opacity="0.7" d="M215.254 176.214C214.183 177.156 213.072 178.053 211.925 178.901C212.727 177.679 213.891 176.739 215.254 176.214Z" fill="white"/>
</g>
<g opacity="0.7">
<path opacity="0.7" d="M215.05 170.491C214.082 171.56 212.931 172.449 211.653 173.115C212.621 172.046 213.771 171.158 215.05 170.491Z" fill="white"/>
</g>
<g opacity="0.7">
<path opacity="0.7" d="M216.36 165.777C215.859 164.536 215.752 163.171 216.051 161.867C216.261 163.16 216.365 164.467 216.36 165.777Z" fill="white"/>
</g>
<g opacity="0.7">
<path opacity="0.7" d="M211.54 164.173C211.632 164.223 211.415 164.803 211.055 165.468C210.695 166.132 210.328 166.63 210.236 166.58C210.144 166.531 210.36 165.951 210.72 165.286C211.08 164.621 211.447 164.123 211.54 164.173Z" fill="white"/>
</g>
<g opacity="0.7">
<path opacity="0.7" d="M211.853 156.834C210.521 156.243 209.302 155.423 208.254 154.411C209.586 155.002 210.805 155.822 211.853 156.834Z" fill="white"/>
</g>
<g opacity="0.7">
<path opacity="0.7" d="M216.651 154.154C215.215 153.946 213.901 153.228 212.949 152.133C214.184 152.804 215.418 153.478 216.651 154.154Z" fill="white"/>
</g>
<g opacity="0.7">
<path opacity="0.7" d="M220.466 157.055C219.404 157.511 218.332 157.942 217.25 158.347C217.19 158.266 217.804 157.733 218.724 157.367C219.258 157.085 219.867 156.976 220.466 157.055Z" fill="white"/>
</g>
<g opacity="0.7">
<path opacity="0.7" d="M222.958 164.773C223.154 163.135 223.786 161.58 224.788 160.27C224.576 161.054 224.287 161.816 223.924 162.543C223.677 163.316 223.354 164.064 222.958 164.773Z" fill="white"/>
</g>
<g opacity="0.7">
<path opacity="0.7" d="M228.119 167.88C227.717 166.581 227.565 165.219 227.669 163.863C228.07 165.162 228.223 166.525 228.119 167.88Z" fill="white"/>
</g>
<g opacity="0.7">
<path opacity="0.7" d="M177.09 161.341C177.092 162.505 176.836 163.655 176.341 164.709C176.34 163.545 176.596 162.395 177.09 161.341Z" fill="white"/>
</g>
<g opacity="0.7">
<path opacity="0.7" d="M184.761 172.279C183.493 172.315 182.246 171.94 181.209 171.208C182.422 171.462 183.61 171.82 184.761 172.279Z" fill="white"/>
</g>
<g opacity="0.7">
<path opacity="0.7" d="M193.558 151.67C193.593 151.773 193.011 152.059 192.33 152.459C191.648 152.858 191.11 153.22 191.039 153.139C190.967 153.058 191.418 152.547 192.137 152.13C192.856 151.713 193.528 151.575 193.558 151.67Z" fill="white"/>
</g>
<g opacity="0.7">
<path opacity="0.7" d="M184.4 158.974C183.322 158.987 182.256 158.743 181.292 158.261C182.37 158.248 183.436 158.492 184.4 158.974Z" fill="white"/>
</g>
<g opacity="0.7">
<path opacity="0.7" d="M198.173 150.16C198.135 150.254 197.574 150.107 197.031 149.662C196.488 149.218 196.225 148.701 196.31 148.645C196.395 148.588 196.771 148.963 197.271 149.366C197.772 149.77 198.217 150.06 198.173 150.16Z" fill="white"/>
</g>
<g opacity="0.7">
<path opacity="0.7" d="M206.986 148.129C207.059 148.203 206.782 148.602 206.364 149.018C205.946 149.435 205.547 149.711 205.473 149.636C205.399 149.561 205.677 149.164 206.095 148.748C206.513 148.332 206.912 148.055 206.986 148.129Z" fill="white"/>
</g>
<path d="M160.203 302.423L155.576 305.105C155.576 305.105 158.984 316.224 156.899 314.247C155.029 312.48 148.058 299.117 146.408 295.817L146.042 295.072L153.914 290.795L160.203 302.423Z" fill="#00AB5B"/>
<g opacity="0.5">
<path opacity="0.5" d="M148.536 299.225C149.417 298.495 149.996 297.465 150.163 296.334C150.335 295.219 150.083 294.081 149.457 293.143L146.216 294.991L148.536 299.225Z" fill="white"/>
</g>
<path opacity="0.5" d="M157.07 310.635C157.07 310.635 158.046 314.656 157.232 314.55C156.418 314.444 148.864 301.205 146.043 295.074L146.313 294.945L154.991 310.463C154.991 310.463 156.656 309.976 157.07 310.635Z" fill="white"/>
<path d="M146.216 294.759C146.241 294.832 146.272 294.902 146.309 294.97L146.601 295.562L147.713 297.722C148.665 299.538 150.012 302.03 151.561 304.749C153.109 307.468 154.566 309.9 155.643 311.644L156.933 313.702L157.294 314.255C157.332 314.322 157.377 314.385 157.428 314.443C157.399 314.371 157.363 314.303 157.321 314.238L156.986 313.669L155.742 311.585C154.69 309.828 153.253 307.387 151.702 304.669C150.151 301.951 148.791 299.472 147.815 297.667L146.658 295.532L146.339 294.954C146.305 294.885 146.264 294.82 146.216 294.759Z" fill="#263238"/>
<path d="M154.81 310.562C155.609 310.295 156.477 310.323 157.257 310.64C156.905 310.38 156.482 310.234 156.045 310.22C155.608 310.206 155.178 310.325 154.81 310.562Z" fill="#263238"/>
<path d="M154.594 306.15C153.918 306.286 153.319 306.674 152.919 307.236C152.519 307.798 152.349 308.491 152.443 309.175C152.537 309.858 152.888 310.48 153.424 310.913C153.961 311.346 154.642 311.559 155.33 311.507C156.018 311.455 156.66 311.142 157.125 310.633C157.59 310.124 157.844 309.457 157.834 308.767C157.824 308.078 157.552 307.418 157.072 306.922C156.592 306.427 155.942 306.133 155.253 306.1C155.032 306.065 154.807 306.082 154.594 306.15Z" fill="#263238"/>
<path d="M154.554 304.929C154.54 304.971 154.766 305.084 155.06 305.181C155.353 305.278 155.603 305.323 155.617 305.281C155.631 305.238 155.405 305.125 155.111 305.028C154.818 304.931 154.568 304.886 154.554 304.929Z" fill="#263238"/>
<path d="M155.311 303.71C155.349 303.944 155.441 304.166 155.578 304.359C155.765 304.696 155.949 304.951 155.988 304.929C155.949 304.695 155.857 304.474 155.72 304.281C155.532 303.944 155.349 303.688 155.311 303.71Z" fill="#263238"/>
<path d="M155.965 303.066C155.947 303.342 156.013 303.616 156.154 303.853C156.348 304.264 156.613 304.526 156.645 304.497C156.412 304.023 156.186 303.546 155.965 303.066Z" fill="#263238"/>
<path d="M155.829 305.966C155.928 306.237 156.074 306.488 156.259 306.709C156.446 306.959 156.656 307.191 156.886 307.403C157.022 307.535 157.171 307.651 157.333 307.75C157.434 307.809 157.555 307.828 157.67 307.802C157.732 307.782 157.787 307.745 157.828 307.695C157.869 307.645 157.895 307.584 157.903 307.519C157.881 307.155 157.733 306.809 157.484 306.542C157.235 306.275 156.901 306.103 156.539 306.055C156.327 306.024 156.11 306.037 155.903 306.095C155.757 306.138 155.684 306.182 155.691 306.191C155.964 306.136 156.245 306.128 156.52 306.168C156.812 306.224 157.082 306.363 157.297 306.568C157.429 306.685 157.536 306.826 157.612 306.985C157.689 307.143 157.734 307.315 157.743 307.49C157.723 307.659 157.558 307.692 157.404 307.605C157.254 307.514 157.114 307.408 156.987 307.288C156.757 307.088 156.544 306.869 156.349 306.635C156.015 306.237 155.852 305.953 155.829 305.966Z" fill="#263238"/>
<path d="M155.903 306.181C156.111 306.182 156.312 306.108 156.469 305.971C156.651 305.837 156.798 305.662 156.897 305.459C156.973 305.333 157.015 305.19 157.019 305.044C157.024 304.898 156.991 304.752 156.923 304.622C156.864 304.556 156.781 304.515 156.692 304.509C156.603 304.503 156.516 304.532 156.448 304.589C156.339 304.674 156.25 304.782 156.187 304.906C156.079 305.097 155.994 305.302 155.937 305.515C155.869 305.706 155.849 305.912 155.879 306.113C155.905 306.113 155.928 305.889 156.047 305.548C156.116 305.35 156.206 305.16 156.316 304.982C156.415 304.789 156.658 304.558 156.799 304.726C156.844 304.833 156.864 304.949 156.858 305.065C156.852 305.182 156.819 305.295 156.762 305.397C156.677 305.584 156.552 305.75 156.396 305.884C156.241 305.997 156.076 306.097 155.903 306.181Z" fill="#263238"/>
<path d="M149.524 293.185C149.499 293.203 149.744 293.499 149.983 294.059C150.298 294.785 150.401 295.586 150.279 296.368C150.157 297.15 149.816 297.881 149.295 298.477C148.899 298.938 148.574 299.145 148.593 299.169C148.678 299.139 148.757 299.094 148.827 299.037C149.027 298.895 149.212 298.733 149.379 298.553C149.942 297.957 150.311 297.204 150.438 296.394C150.564 295.584 150.442 294.755 150.087 294.015C149.983 293.793 149.855 293.582 149.707 293.386C149.601 293.247 149.532 293.179 149.524 293.185Z" fill="#263238"/>
<path d="M150.499 300.039C150.925 301.28 151.569 302.433 152.402 303.446C152.441 303.419 151.963 302.688 151.44 301.749C150.917 300.809 150.541 300.02 150.499 300.039Z" fill="#263238"/>
<path d="M149.207 297.764C149.162 297.753 149.081 297.918 148.951 298.094C148.822 298.271 148.691 298.401 148.717 298.439C148.742 298.477 148.937 298.395 149.083 298.19C149.23 297.985 149.249 297.773 149.207 297.764Z" fill="#263238"/>
<path d="M149.783 296.3C149.74 296.288 149.662 296.431 149.608 296.621C149.555 296.81 149.547 296.974 149.59 296.987C149.633 297 149.712 296.856 149.765 296.666C149.817 296.477 149.826 296.313 149.783 296.3Z" fill="#263238"/>
<path d="M149.571 294.797C149.536 294.828 149.626 294.981 149.663 295.185C149.7 295.389 149.679 295.564 149.723 295.579C149.767 295.595 149.87 295.407 149.822 295.154C149.774 294.902 149.6 294.765 149.571 294.797Z" fill="#263238"/>
<path d="M149.302 293.793C149.258 293.8 149.237 293.9 149.254 294.018C149.272 294.136 149.322 294.225 149.367 294.219C149.411 294.212 149.432 294.112 149.414 293.994C149.397 293.876 149.347 293.787 149.302 293.793Z" fill="#263238"/>
<path d="M236.08 312.727L235.912 318.071C235.912 318.071 247.15 321.051 244.374 321.78C241.885 322.433 226.856 321.289 223.183 320.945L222.358 320.861L222.887 311.918L236.08 312.727Z" fill="#00AB5B"/>
<g opacity="0.5">
<path opacity="0.5" d="M227.198 320.942C227.044 319.808 226.476 318.772 225.603 318.033C224.749 317.297 223.649 316.909 222.522 316.945L222.376 320.674L227.198 320.942Z" fill="white"/>
</g>
<path opacity="0.5" d="M241.396 319.726C241.396 319.726 245.325 321.023 244.805 321.658C244.284 322.294 229.054 321.709 222.358 320.863L222.391 320.566L240.151 321.4C240.151 321.4 240.618 319.729 241.396 319.726Z" fill="white"/>
<path d="M222.182 320.55C222.257 320.568 222.333 320.579 222.41 320.584L223.069 320.649L225.489 320.846C227.534 320.998 230.362 321.171 233.489 321.294C236.615 321.416 239.449 321.465 241.501 321.473L243.929 321.465L244.587 321.452C244.665 321.454 244.742 321.448 244.818 321.436C244.742 321.423 244.665 321.418 244.587 321.419L243.929 321.402L241.501 321.358C239.452 321.321 236.62 321.254 233.495 321.133C230.369 321.011 227.542 320.855 225.496 320.732L223.072 320.586L222.414 320.551C222.337 320.543 222.259 320.543 222.182 320.55Z" fill="#263238"/>
<path d="M240.139 321.607C240.334 320.787 240.816 320.065 241.498 319.57C241.092 319.732 240.745 320.014 240.502 320.377C240.259 320.741 240.133 321.17 240.139 321.607Z" fill="#263238"/>
<path d="M236.28 319.459C236.317 319.484 236.514 319.262 236.719 318.963C236.925 318.665 237.063 318.401 237.026 318.378C236.989 318.354 236.792 318.574 236.587 318.873C236.381 319.172 236.243 319.433 236.28 319.459Z" fill="#263238"/>
<path d="M235.221 318.846C235.25 318.88 235.466 318.748 235.704 318.553C235.942 318.358 236.111 318.167 236.082 318.133C236.053 318.098 235.838 318.231 235.6 318.426C235.362 318.62 235.191 318.811 235.221 318.846Z" fill="#263238"/>
<path d="M234.587 317.561C233.823 317.701 233.142 318.127 232.682 318.754C232.223 319.38 232.02 320.158 232.116 320.929C232.212 321.699 232.598 322.404 233.197 322.899C233.796 323.394 234.561 323.641 235.336 323.59C236.111 323.539 236.837 323.194 237.365 322.625C237.894 322.056 238.185 321.306 238.179 320.529C238.172 319.753 237.87 319.008 237.332 318.448C236.795 317.887 236.063 317.553 235.287 317.514C235.053 317.477 234.814 317.493 234.587 317.561Z" fill="#263238"/>
<path d="M234.386 316.663C234.622 316.801 234.884 316.888 235.155 316.918C235.426 316.949 235.701 316.923 235.961 316.842C235.702 316.79 235.438 316.762 235.173 316.758C234.915 316.702 234.651 316.67 234.386 316.663Z" fill="#263238"/>
<path d="M236.777 318.312C237.059 318.371 237.349 318.38 237.634 318.339C237.945 318.313 238.254 318.257 238.554 318.174C238.738 318.129 238.916 318.063 239.085 317.978C239.188 317.923 239.267 317.831 239.305 317.72C239.321 317.657 239.318 317.59 239.298 317.529C239.277 317.467 239.239 317.413 239.188 317.372C238.867 317.199 238.496 317.143 238.138 317.213C237.781 317.284 237.458 317.476 237.227 317.757C237.088 317.921 236.985 318.112 236.925 318.319C236.895 318.392 236.885 318.471 236.893 318.549C236.991 318.288 237.133 318.046 237.312 317.833C237.514 317.615 237.775 317.459 238.062 317.385C238.231 317.335 238.408 317.319 238.583 317.338C238.758 317.357 238.927 317.41 239.081 317.494C239.214 317.6 239.155 317.759 239 317.843C238.844 317.922 238.68 317.984 238.51 318.03C238.219 318.118 237.921 318.184 237.619 318.226C237.105 318.297 236.778 318.286 236.777 318.312Z" fill="#263238"/>
<path d="M236.997 318.363C237.109 318.188 237.152 317.977 237.118 317.772C237.101 317.546 237.029 317.328 236.908 317.137C236.841 317.006 236.742 316.895 236.62 316.814C236.498 316.733 236.358 316.684 236.211 316.672C236.124 316.688 236.046 316.736 235.994 316.808C235.942 316.88 235.92 316.97 235.933 317.058C235.947 317.195 235.991 317.328 236.063 317.446C236.168 317.64 236.297 317.82 236.448 317.981C236.575 318.14 236.739 318.265 236.925 318.347C236.941 318.326 236.76 318.186 236.534 317.907C236.404 317.743 236.29 317.566 236.195 317.379C236.085 317.193 236.017 316.866 236.233 316.834C236.449 316.822 236.659 317.044 236.784 317.219C236.897 317.39 236.972 317.583 237.004 317.786C237.019 317.978 237.017 318.171 236.997 318.363Z" fill="#263238"/>
<path d="M222.594 316.91C222.594 316.94 222.977 316.888 223.578 316.984C224.361 317.1 225.095 317.436 225.694 317.952C226.294 318.469 226.734 319.145 226.965 319.903C227.146 320.483 227.151 320.868 227.184 320.865C227.203 320.776 227.207 320.685 227.194 320.596C227.181 320.351 227.141 320.108 227.077 319.871C226.868 319.077 226.423 318.365 225.802 317.829C225.18 317.294 224.411 316.959 223.595 316.869C223.352 316.841 223.107 316.838 222.863 316.86C222.771 316.861 222.68 316.878 222.594 316.91Z" fill="#263238"/>
<path d="M228.928 319.705C230.205 320 231.525 320.063 232.824 319.892C232.824 319.845 231.946 319.865 230.875 319.811C229.804 319.758 228.934 319.659 228.928 319.705Z" fill="#263238"/>
<path d="M226.313 319.601C226.279 319.632 226.378 319.788 226.46 319.992C226.542 320.195 226.583 320.374 226.629 320.373C226.675 320.372 226.706 320.165 226.61 319.934C226.514 319.703 226.343 319.57 226.313 319.601Z" fill="#263238"/>
<path d="M225.375 318.337C225.342 318.367 225.423 318.509 225.556 318.654C225.688 318.799 225.823 318.893 225.856 318.863C225.89 318.833 225.808 318.691 225.675 318.545C225.542 318.399 225.408 318.307 225.375 318.337Z" fill="#263238"/>
<path d="M223.987 317.722C223.994 317.768 224.172 317.773 224.365 317.85C224.558 317.926 224.696 318.036 224.731 318.007C224.766 317.978 224.663 317.787 224.422 317.699C224.181 317.61 223.975 317.68 223.987 317.722Z" fill="#263238"/>
<path d="M222.993 317.42C222.975 317.461 223.049 317.532 223.158 317.58C223.268 317.627 223.371 317.632 223.388 317.591C223.406 317.55 223.332 317.478 223.223 317.431C223.114 317.384 223.011 317.379 222.993 317.42Z" fill="#263238"/>
<path d="M196.737 218.483C196.737 218.483 195.772 243.991 191.864 257.214C187.956 270.436 177.46 273.658 170.672 277.916C164.188 281.982 149.688 289.683 149.688 289.683L157.871 303.857C157.871 303.857 197.892 286.923 205.025 271.761C210.505 260.115 216.5 238.675 216.5 238.675L196.737 218.483Z" fill="#263238"/>
<path d="M219.214 207.069C219.214 207.069 236.093 242.424 240.601 252.018C241.074 253.023 241.292 254.129 241.235 255.239L238.261 314.832L221.137 313.958L222.991 256.496L193.96 220.105C191.459 217.019 189.68 213.412 188.754 209.549C188.444 208.286 188.282 206.992 188.271 205.692L219.214 207.067" fill="#263238"/>
<path d="M290.238 287.825L136.551 299.068L129.07 186.345L281.6 175.665L290.238 287.825Z" fill="white"/>
<path d="M253.22 192.724C253.536 192.707 254.88 212.089 256.221 236.011C257.563 259.933 258.398 279.346 258.083 279.366C257.767 279.387 256.424 260.005 255.082 236.076C253.74 212.146 252.906 192.743 253.22 192.724Z" fill="#263238"/>
<path d="M239.572 192.487C239.888 192.47 241.232 211.853 242.573 235.774C243.914 259.696 244.75 279.109 244.435 279.129C244.119 279.15 242.775 259.768 241.434 235.839C240.092 211.909 239.257 192.506 239.572 192.487Z" fill="#263238"/>
<path d="M197.786 193.102C198.102 193.084 199.447 212.467 200.788 236.388C202.129 260.309 202.965 279.722 202.649 279.743C202.334 279.763 200.99 260.382 199.648 236.452C198.306 212.522 197.473 193.119 197.786 193.102Z" fill="#263238"/>
<path d="M210.989 192.541C211.305 192.523 212.65 211.905 213.991 235.827C215.332 259.749 216.168 279.161 215.852 279.182C215.537 279.202 214.192 259.821 212.851 235.891C211.51 211.961 210.675 192.558 210.989 192.541Z" fill="#263238"/>
<path d="M224.191 191.98C224.507 191.962 225.851 211.344 227.192 235.266C228.533 259.188 229.369 278.601 229.054 278.621C228.738 278.642 227.394 259.26 226.053 235.33C224.711 211.401 223.876 191.998 224.191 191.98Z" fill="#263238"/>
<path d="M183.109 195.039C183.424 195.02 184.769 214.403 186.11 238.325C187.451 262.246 188.286 281.659 187.971 281.68C187.655 281.7 186.311 262.319 184.969 238.389C183.628 214.459 182.793 195.056 183.109 195.039Z" fill="#263238"/>
<path d="M168.639 195.905C168.955 195.888 170.299 215.27 171.64 239.192C172.981 263.114 173.817 282.526 173.502 282.547C173.186 282.567 171.842 263.186 170.501 239.256C169.16 215.325 168.324 195.923 168.639 195.905Z" fill="#263238"/>
<path d="M154.169 196.773C154.485 196.755 155.83 216.137 157.171 240.059C158.512 263.98 159.348 283.393 159.032 283.414C158.717 283.434 157.373 264.053 156.031 240.123C154.689 216.193 153.855 196.79 154.169 196.773Z" fill="#263238"/>
<path d="M173.118 164.62C173.118 164.62 156.063 177.144 159.29 187.144C163.17 199.144 190.441 208.755 190.444 208.757C192.58 210.538 194.928 212.426 196.305 213.311C199.233 215.192 199.338 214.905 199.415 214.493C199.621 213.384 194.345 210.97 195.636 210.746C196.926 210.522 201.91 214.546 202.083 213.37C202.31 211.836 196.762 209.424 196.301 209.18C195.852 208.943 196.021 208.181 196.431 208.426C197.021 208.778 203.271 212.305 203.506 210.803C203.636 209.971 202.304 209.602 202.304 209.602C202.304 209.602 196.314 206.782 196.448 206.082C196.582 205.37 200.128 206.892 201.306 207.502C202.469 208.104 203.102 207.728 202.823 206.93C202.632 206.384 199.05 204.423 197.878 203.855C196.706 203.287 193.474 201.779 195.384 201.058C197.294 200.338 198.42 198.878 198.459 198.187C198.497 197.496 197.682 197.034 197.261 197.55C196.76 198.035 196.179 198.431 195.544 198.721C195.109 198.942 194.638 199.081 194.153 199.129C191.609 197.565 173.448 186.327 173.372 184.326C173.291 182.176 182.527 174.225 182.527 174.225L173.118 164.62Z" fill="#E0A8A4"/>
<path d="M204.667 128.319C204.644 128.425 204.185 128.407 203.642 128.486C203.099 128.565 202.664 128.7 202.613 128.604C202.562 128.508 202.97 128.193 203.589 128.108C204.209 128.024 204.696 128.221 204.667 128.319Z" fill="#263238"/>
<path d="M211.335 127.983C211.261 128.068 210.919 127.887 210.468 127.811C210.017 127.736 209.631 127.773 209.595 127.67C209.56 127.568 209.975 127.333 210.535 127.436C211.095 127.538 211.407 127.912 211.335 127.983Z" fill="#263238"/>
<path d="M297.896 125.777C292.215 153.965 271.556 259.957 266.046 288.241C265.685 290.096 266.072 292.019 267.123 293.59C268.174 295.161 269.804 296.252 271.657 296.626L387.682 320.137C388.609 320.325 389.564 320.327 390.492 320.144C391.42 319.961 392.303 319.596 393.089 319.07C393.875 318.544 394.55 317.867 395.073 317.079C395.596 316.291 395.958 315.407 396.138 314.479L412.023 232.532L421.924 234.061C423.096 234.241 424.292 233.958 425.258 233.271C426.224 232.584 426.883 231.547 427.097 230.381L439.191 164.225C439.407 163.041 439.146 161.819 438.464 160.827C437.782 159.835 436.735 159.154 435.551 158.932L426.655 157.266L427.818 150.867C428.155 149.021 427.749 147.117 426.69 145.568C425.631 144.019 424.003 142.951 422.161 142.595L306.23 120.194C304.386 119.837 302.474 120.223 300.913 121.269C299.352 122.315 298.267 123.935 297.896 125.777Z" fill="#263238"/>
<path d="M306.551 128.506L268.238 290.632L387.281 317.916L424.795 156.929L306.551 128.506Z" fill="#929292"/>
<path d="M292.715 122.481L265.433 286.823L386.047 306.008L412.608 142.857L292.715 122.481Z" fill="#A0A0A0"/>
<path d="M275.023 131.082L269.931 297.596L392.026 300.505L396.563 135.267L275.023 131.082Z" fill="white"/>
<path d="M379.439 166.702C379.435 167.018 358.431 166.988 332.531 166.634C306.631 166.28 285.63 165.739 285.634 165.423C285.638 165.108 306.638 165.137 332.546 165.491C358.455 165.844 379.443 166.384 379.439 166.702Z" fill="#263238"/>
<path d="M380.321 181.432C380.317 181.748 359.313 181.718 333.413 181.365C307.514 181.012 286.513 180.469 286.517 180.154C286.521 179.838 307.52 179.868 333.429 180.221C359.339 180.574 380.326 181.117 380.321 181.432Z" fill="#263238"/>
<path d="M381.575 226.591C381.575 226.907 360.566 226.877 334.668 226.524C308.769 226.171 287.766 225.628 287.771 225.313C287.775 224.997 308.775 225.027 334.683 225.38C360.591 225.733 381.579 226.276 381.575 226.591Z" fill="#263238"/>
<path d="M381.575 212.307C381.575 212.623 360.566 212.592 334.668 212.239C308.769 211.886 287.766 211.344 287.771 211.028C287.775 210.712 308.775 210.742 334.683 211.096C360.591 211.449 381.579 211.991 381.575 212.307Z" fill="#263238"/>
<path d="M381.575 198.022C381.575 198.338 360.566 198.308 334.668 197.955C308.769 197.602 287.766 197.059 287.771 196.743C287.775 196.427 308.775 196.458 334.683 196.811C360.591 197.165 381.579 197.707 381.575 198.022Z" fill="#263238"/>
<path d="M380.157 242.536C380.153 242.852 359.149 242.821 333.249 242.468C307.349 242.115 286.348 241.573 286.353 241.257C286.357 240.941 307.356 240.971 333.265 241.325C359.174 241.678 380.162 242.219 380.157 242.536Z" fill="#263238"/>
<path d="M379.885 258.204C379.881 258.52 358.877 258.49 332.977 258.137C307.077 257.784 286.076 257.241 286.08 256.925C286.084 256.61 307.084 256.64 332.992 256.993C358.901 257.345 379.889 257.889 379.885 258.204Z" fill="#263238"/>
<path d="M379.615 273.872C379.611 274.188 358.607 274.158 332.707 273.805C306.807 273.452 285.806 272.91 285.811 272.593C285.815 272.277 306.814 272.308 332.722 272.661C358.631 273.015 379.615 273.557 379.615 273.872Z" fill="#263238"/>
<path d="M395.037 170.073C411.436 170.073 424.729 156.769 424.729 140.357C424.729 123.946 411.436 110.642 395.037 110.642C378.639 110.642 365.345 123.946 365.345 140.357C365.345 156.769 378.639 170.073 395.037 170.073Z" fill="#00AB5B"/>
<path opacity="0.5" d="M395.063 170.073C411.475 170.073 424.779 156.769 424.779 140.357C424.779 123.946 411.475 110.642 395.063 110.642C378.652 110.642 365.348 123.946 365.348 140.357C365.348 156.769 378.652 170.073 395.063 170.073Z" fill="black"/>
<path d="M391.777 170.073C408.176 170.073 421.469 156.769 421.469 140.357C421.469 123.946 408.176 110.642 391.777 110.642C375.379 110.642 362.085 123.946 362.085 140.357C362.085 156.769 375.379 170.073 391.777 170.073Z" fill="#00AB5B"/>
<path d="M391.985 122.842H391.568C390.725 122.842 390.042 123.525 390.042 124.368V156.346C390.042 157.188 390.725 157.871 391.568 157.871H391.985C392.827 157.871 393.51 157.188 393.51 156.346V124.368C393.51 123.525 392.827 122.842 391.985 122.842Z" fill="#FAFAFA"/>
<path d="M374.277 140.148V140.567C374.277 141.41 374.96 142.093 375.803 142.093H407.752C408.595 142.093 409.278 141.41 409.278 140.567V140.148C409.278 139.305 408.595 138.622 407.752 138.622H375.803C374.96 138.622 374.277 139.305 374.277 140.148Z" fill="#FAFAFA"/>
</svg>
