<svg width="459" height="493" viewBox="0 0 459 493" fill="none" xmlns="http://www.w3.org/2000/svg">
<path d="M458.718 246.41C458.718 312.912 437.366 370.134 394.782 418.066C350.465 467.707 295.245 492.593 229.359 492.593C163.236 492.593 108.015 467.826 63.9365 418.402C21.3519 370.707 0 313.377 0 246.41C0 180.254 21.5793 123.032 64.6295 74.8726C108.936 24.9936 163.918 0 229.359 0C295.017 0 350.118 24.9936 394.435 74.8726C437.247 122.805 458.718 180.016 458.718 246.41ZM377.447 245.491C377.447 201.582 363.783 163.394 336.465 130.83C307.761 96.3188 271.835 79.1121 228.558 79.1121C185.735 79.1121 150.037 96.5459 121.56 131.522C94.6974 164.194 81.2714 202.609 81.2714 246.41C81.2714 290.103 94.6974 328.399 121.56 361.071C150.037 396.047 185.735 413.481 228.558 413.481C271.944 413.481 308.108 396.047 336.801 361.071C363.902 328.399 377.447 289.757 377.447 245.491Z" fill="#F2F4F5"/>

</svg>
