<svg width="130" height="130" viewBox="0 0 130 130" fill="none" xmlns="http://www.w3.org/2000/svg">
<rect width="130" height="130" rx="65" fill="#ACD9F3"/>
<g clip-path="url(#clip0)">
<path d="M76.9991 35.1353C76.8757 35.0412 75.7334 34.1914 73.6984 33.3736C71.0769 32.32 68.0688 31.7631 64.9995 31.7631C61.9303 31.7631 58.9224 32.32 56.3005 33.3736C54.2657 34.1914 53.1234 35.0412 52.9999 35.1354C52.3803 35.6079 52.0166 36.3425 52.0166 37.1217V41.0406L54.5144 42.3765L57.0123 41.0406V38.5361C58.3831 37.8365 61.1244 36.7586 64.9994 36.7586C68.8745 36.7586 71.6157 37.8365 72.9865 38.5361V41.0404L75.4843 42.3763L77.9822 41.0404V37.1217C77.9825 36.3424 77.6188 35.6077 76.9991 35.1353Z" fill="#E8834D"/>
<path d="M52.0166 41.0405V43.7985L54.5145 45.1344L57.0124 43.7985V41.0405H52.0166Z" fill="#D66E41"/>
<path d="M77.982 41.0405H72.9863V43.7985L75.4842 45.1344L77.982 43.7985V41.0405Z" fill="#D66E41"/>
<path d="M28.9668 71.2769V93.4671C28.9668 96.1014 31.1024 98.237 33.7367 98.237H96.2642C98.8985 98.237 101.034 96.1014 101.034 93.4671V71.2769H28.9668Z" fill="#365E7D"/>
<path d="M28.9668 68.5188V71.2769C32.9295 74.4232 43.4026 80.531 65.0005 80.531C86.5983 80.531 97.0714 74.4232 101.034 71.2768V68.5187H28.9668V68.5188Z" fill="#2B4D66"/>
<path d="M28.7593 66.9304C32.5571 70.0223 43.0157 76.3508 65 76.3508C86.9843 76.3508 97.4428 70.0223 101.241 66.9304C102.354 66.024 103 63.3299 103 61.8943V48.5684C103 45.934 100.864 43.7985 98.2301 43.7985H31.7699C29.1356 43.7985 27 45.934 27 48.5684V61.8943C27 63.3299 27.646 66.024 28.7593 66.9304Z" fill="#407093"/>
<path d="M101.241 65.5945C97.4429 68.6865 86.9843 75.0149 65 75.0149C43.0157 75.0149 32.5572 68.6863 28.7593 65.5945C27.646 64.6882 27 63.3299 27 61.8944V64.6525C27 66.0881 27.646 67.4463 28.7593 68.3526C32.5571 71.4446 43.0157 77.7731 65 77.7731C86.9843 77.7731 97.4428 71.4446 101.241 68.3526C102.354 67.4463 103 66.0881 103 64.6525V61.8944C103 63.3299 102.354 64.6882 101.241 65.5945Z" fill="#365E7D"/>
<path d="M64.9992 82.3633C67.4668 82.3633 69.4672 80.531 69.4672 76.5594V73.8504C69.4672 72.9723 68.7553 72.2605 67.8773 72.2605H62.1212C61.243 72.2605 60.5313 72.9724 60.5313 73.8504V76.5598C60.5311 80.531 62.5316 82.3633 64.9992 82.3633Z" fill="#FFE27A"/>
<path d="M64.9992 81.0274C62.5316 81.0274 60.5312 79.0271 60.5312 76.5594V79.3176C60.5312 81.7852 62.5316 83.7855 64.9992 83.7855C67.4668 83.7855 69.4672 81.7852 69.4672 79.3176V76.5594C69.4672 79.0269 67.4668 81.0274 64.9992 81.0274Z" fill="#F9CF58"/>
</g>
<defs>
<clipPath id="clip0">
<rect width="76" height="76" fill="white" transform="translate(27 27)"/>
</clipPath>
</defs>
</svg>
