<svg width="76" height="74" viewBox="0 0 84 74" fill="none" xmlns="http://www.w3.org/2000/svg">
<path d="M55.2626 3.9917C55.1263 3.88768 53.8636 2.94842 51.6145 2.0446C48.717 0.880089 45.3923 0.264526 42 0.264526C38.6076 0.264526 35.2831 0.880089 32.3852 2.0446C30.1363 2.94842 28.8736 3.88768 28.7371 3.99186C28.0523 4.51407 27.6504 5.32602 27.6504 6.18718V10.5186L30.4111 11.9952L33.1719 10.5186V7.75053C34.687 6.97731 37.7169 5.78588 41.9998 5.78588C46.2828 5.78588 49.3125 6.97731 50.8277 7.75053V10.5184L53.5883 11.995L56.3492 10.5184V6.18718C56.3495 5.32585 55.9476 4.51391 55.2626 3.9917Z" fill="#E8834D"/>
<path d="M27.6504 10.5186V13.5668L30.4112 15.0434L33.1721 13.5668V10.5186H27.6504Z" fill="#D66E41"/>
<path d="M56.3496 10.5186H50.8281V13.5668L53.589 15.0434L56.3496 13.5668V10.5186Z" fill="#D66E41"/>
<path d="M2.17383 43.9376V68.4636C2.17383 71.3753 4.5342 73.7356 7.44581 73.7356H76.5552C79.4668 73.7356 81.8272 71.3753 81.8272 68.4636V43.9376H2.17383Z" fill="#365E7D"/>
<path d="M2.17383 40.8893V43.9378C6.55364 47.4152 18.1292 54.1659 42.0005 54.1659C65.8718 54.1659 77.4473 47.4152 81.8272 43.9376V40.8892H2.17383V40.8893Z" fill="#2B4D66"/>
<path d="M1.94447 39.1337C6.14201 42.5512 17.7015 49.5458 42 49.5458C66.2985 49.5458 77.8578 42.5512 82.0555 39.1337C83.286 38.132 84 35.1542 84 33.5676V18.8389C84 15.9273 81.6396 13.5669 78.728 13.5669H5.27198C2.36037 13.5669 0 15.9273 0 18.8389V33.5676C0 35.1542 0.714 38.132 1.94447 39.1337Z" fill="#407093"/>
<path d="M82.0555 37.6572C77.858 41.0746 66.2985 48.0693 42 48.0693C17.7015 48.0693 6.14217 41.0745 1.94447 37.6572C0.714 36.6554 0 35.1543 0 33.5676V36.6161C0 38.2027 0.714 39.7039 1.94447 40.7057C6.14201 44.1231 17.7015 51.1177 42 51.1177C66.2985 51.1177 77.8578 44.1231 82.0555 40.7057C83.286 39.7039 84 38.2027 84 36.6161V33.5676C84 35.1543 83.286 36.6554 82.0555 37.6572Z" fill="#365E7D"/>
<path d="M41.9988 56.1912C44.7262 56.1912 46.9371 54.166 46.9371 49.7763V46.7822C46.9371 45.8116 46.1503 45.0249 45.1798 45.0249H38.8178C37.8472 45.0249 37.0605 45.8117 37.0605 46.7822V49.7768C37.0604 54.166 39.2715 56.1912 41.9988 56.1912Z" fill="#FFE27A"/>
<path d="M41.9988 54.7146C39.2715 54.7146 37.0605 52.5037 37.0605 49.7764V52.8248C37.0605 55.5522 39.2715 57.7631 41.9988 57.7631C44.7262 57.7631 46.9371 55.5522 46.9371 52.8248V49.7764C46.9371 52.5036 44.7262 54.7146 41.9988 54.7146Z" fill="#F9CF58"/>
</svg>
